<?xml version="1.0" encoding="utf-8"?>
<!-- Generator: Adobe Illustrator 16.0.0, SVG Export Plug-In . SVG Version: 6.00 Build 0)  -->
<!DOCTYPE svg PUBLIC "-//W3C//DTD SVG 1.1//EN" "http://www.w3.org/Graphics/SVG/1.1/DTD/svg11.dtd">
<svg version="1.1" id="Layer_1" xmlns="http://www.w3.org/2000/svg" xmlns:xlink="http://www.w3.org/1999/xlink" x="0px" y="0px"
	 width="32px" height="32px" viewBox="0 0 32 32" enable-background="new 0 0 32 32" xml:space="preserve">
<path d="M17.046,0.563c-0.854-0.565-1.968-0.552-2.809,0.034L1.653,9.362c-0.671,0.468-1.071,1.233-1.071,2.052v9.444
	c0,0.84,0.421,1.623,1.122,2.086l12.79,8.455c0.836,0.553,1.922,0.553,2.758,0l13.044-8.618c0.7-0.463,1.122-1.246,1.122-2.086
	v-9.279c0-0.839-0.421-1.622-1.121-2.085L17.046,0.563z M26.788,10.793l-4.821,3.237l-4.522-3.288l-0.027-6.467L26.788,10.793z
	 M14.147,4.281v6.329l-4.633,3.24l-4.621-3.099L14.147,4.281z M3.625,13.87l2.991,2.005l-2.991,2.093V13.87z M14.225,27.363
	l-9.331-6.258l4.661-3.258l4.67,3.133V27.363z M12.453,15.822l3.021-2.113l3.519,2.313l-3.119,2.095L12.453,15.822z M17.521,27.363
	v-6.385l4.463-2.991l4.805,3.159L17.521,27.363z M28.121,18.075l-3.168-2.082l3.168-2.125V18.075z"/>
</svg>
