<?xml version="1.0" encoding="utf-8"?>
<!-- Generator: Adobe Illustrator 18.1.0, SVG Export Plug-In . SVG Version: 6.00 Build 0)  -->
<svg version="1.1" id="Layer_1" xmlns="http://www.w3.org/2000/svg" xmlns:xlink="http://www.w3.org/1999/xlink" x="0px" y="0px"
	 viewBox="-49 231 611.9 611.9" enable-background="new -49 231 611.9 611.9" xml:space="preserve">
<path d="M108.4,684.9c0,16.1,13.6,24.3,41,24.3c23.9,0,35.9-8.4,35.9-25.2c0-15.9-13-23.8-39.2-23.8
	C121.1,660.1,108.4,668.4,108.4,684.9z M461,231H53c-56.1,0-102,45.9-102,102v408c0,56.2,45.9,102,102,102h408
	c56.1,0,102-45.9,102-102V333C563,276.9,517.1,231,461,231z M235.4,475.4c-4.3,1.6-10.5,3.2-18.6,5.1c2.5,7.2,3.7,13.9,3.7,20.1
	c0,19.8-6,37.2-17.9,52c-12,14.8-27.5,23.5-46.4,26.3c-12.4,1.9-18.6,8.6-18.6,20.1c0,4.1,2,8.1,6.1,12.1c5.3,5.9,13,9.7,23.3,11.2
	c44.5,6.8,66.7,25.3,66.7,55.5c0,48.2-28.8,72.3-86.3,72.3c-23.7,0-43-4.2-58.3-12.6c-19.4-10.6-28.9-27.3-28.9-50
	c0-26.2,14.5-44,43.4-53.7v-1c-10.5-6.6-15.9-16.5-15.9-29.9c0-17.5,5-28.3,14.9-32.6v-1c-9.9-3.5-18.8-11.2-26.5-23.3
	c-8.7-13-13-27-13-42c0-22.4,7.9-41,23.8-55.9c15.2-14,33.5-21,54.6-21c15.2,0,29.4,3.7,42.4,11.2c14.9,0,32.2-3.7,51.8-11.2
	L235.4,475.4L235.4,475.4z M310.9,636.8h-52.7c0.6-6.2,1-16.7,1-31.7V460c0-14.6-0.4-24.7-1-30.4h52.7c-0.6,5.9-1,15.7-1,29.4v143.2
	C310,618.2,310.3,629.6,310.9,636.8z M307.4,383c-6.3,6.8-13.9,10.3-22.6,10.3c-9,0-16.7-3.5-23.1-10.3c-6.3-6.8-9.6-14.9-9.6-24.3
	c0-9.7,3.2-17.9,9.6-24.7c6.3-6.8,14.1-10.3,23.1-10.3c8.7,0,16.3,3.5,22.6,10.3s9.6,15.1,9.6,24.7C317,368.2,313.8,376.2,307.4,383
	z M454,630.7c-11.5,6.2-25.3,9.3-41.5,9.3c-22.7,0-38.4-8.1-47.1-24.3c-6.6-12.1-9.8-31.2-9.8-57.4V475h0.5v-1l-7.1-0.5
	c-4.1,0-9.3,0.5-15.9,1.4v-45.2H356v-18.3c0-8.7-0.5-15.7-1.4-21h54.3c-1,5.9-1.4,12.6-1.4,20.1v19.1h40.5v45.2
	c-1.6,0-4.4-0.1-8.6-0.5s-8.1-0.5-11.8-0.5h-20.1v86.8c0,20.8,6.8,31.2,20.6,31.2c9.7,0,18.3-2.6,26.2-7.9L454,630.7L454,630.7z
	 M143,470.3c-19.6,0-29.4,11.5-29.4,34.5c0,21.5,9.8,32.2,29.4,32.2c19,0,28.4-10.9,28.4-32.6c0-9-2.2-16.7-6.6-23.3
	C159.6,473.9,152.3,470.3,143,470.3z"/>
</svg>
