<?xml version="1.0" encoding="utf-8"?>
<!-- Generator: Adobe Illustrator 18.0.0, SVG Export Plug-In . SVG Version: 6.00 Build 0)  -->
<!DOCTYPE svg PUBLIC "-//W3C//DTD SVG 1.1//EN" "http://www.w3.org/Graphics/SVG/1.1/DTD/svg11.dtd">
<svg version="1.1" id="Layer_1" xmlns="http://www.w3.org/2000/svg" xmlns:xlink="http://www.w3.org/1999/xlink" x="0px" y="0px"
	 viewBox="0 86.1 612 615" enable-background="new 0 86.1 612 615" xml:space="preserve">
<circle fill="#9FC9EB" cx="505.4" cy="495.7" r="68.3"/>
<circle fill="#6699CC" cx="371.2" cy="599.3" r="68.3"/>
<ellipse cx="306" cy="358.6" rx="121.8" ry="108.6"/>
<circle fill="#CCCCFF" cx="193.4" cy="599.3" r="82.3"/>
<circle fill="#009999" cx="269.1" cy="172.3" r="66.7"/>
<circle fill="#9999CC" cx="103.4" cy="449" r="58.8"/>
<circle fill="#69C9CA" cx="434.3" cy="189.1" r="71"/>
<circle fill="#9FC9EB" cx="519.1" cy="329.4" r="68.3"/>
<text transform="matrix(0.9967 0 0 1 216.0982 182.5992)" font-family="'Arial-Black'" font-size="23.5312">JQUERY</text>
<circle fill="#7292CB" cx="103.4" cy="260.1" r="77.5"/>
<path fill="none" stroke="#FFFFFF" stroke-width="0.25" stroke-miterlimit="10" d="M191.3,599.4"/>
<path fill="#FFFAFA" stroke="#000000" stroke-width="0.25" stroke-miterlimit="10" d="M377,420.7"/>
<g>
	<g>
		<path fill="#FBB040" d="M387.4,453.8c4.9,3.9,4.8,7.3,1.9,9.9c-5.3,4.8-19.6,6.2-25.7-0.7c4-13.2,6.3-28.1,6.3-43.8
			c0-11.1-1.1-21.7-3.2-31.6c6.6-8.8,17.1-18.6,20.6,1.3C392.8,418.7,370.1,440.3,387.4,453.8z"/>
		<g>
			<g>
				<path fill="#FBB040" d="M387.4,453.8c1,1.3,1.7,2.4,2.2,3.7c0.5,1.1,0.7,2.4,0.2,3.7c-0.1,0.3-0.5,0.9-1,1.5
					c-0.2,0.3-0.7,0.6-1,0.9l-0.2,0.1l-0.3,0.2c-0.2,0.1-0.6,0.3-0.8,0.5c-0.6,0.2-1.1,0.6-1.7,0.8c-0.3,0.1-0.6,0.2-0.9,0.3
					c-0.3,0.1-0.7,0.2-1,0.2c-0.7,0.2-1.4,0.3-2.1,0.5c-2.7,0.5-5.8,0.5-8.7-0.1c-0.7-0.1-1.5-0.3-2.2-0.6c-0.7-0.3-1.4-0.5-2.1-0.9
					c-0.7-0.3-1.3-0.8-1.8-1.1c-0.3-0.2-0.6-0.6-0.8-0.7l0,0c0.2-0.7,0.5-1.5,0.7-2.2c0.2-0.8,0.5-1.6,0.7-2.4
					c0.5-1.6,0.8-3.3,1.3-4.9c0.7-3.3,1.4-6.6,1.8-9.9c2.1-13.4,2.1-26.3,1.4-35.6c-0.3-4.7-0.8-8.6-1.3-11.3
					c-0.3-2.7-0.7-4.2-0.7-4.2s-0.1-0.3-0.2-1.1c-0.1-0.7-0.3-1.7-0.6-3.1l0,0c0.2-0.2,0.5-0.6,0.7-0.9c0.5-0.6,1-1.3,1.6-1.9
					c1.3-1.4,2.6-2.9,4.3-4.2c0.9-0.7,1.8-1.3,2.9-1.7c1-0.5,2.1-0.6,3.1-0.3c0.9,0.2,1.8,0.9,2.5,2.1c0.7,1,1.3,2.3,1.7,3.7
					c0.9,2.7,1.4,5.8,1.7,8.9c0.3,3.1,0.3,6.4,0.1,9.6c-0.5,6.5-2.1,13.1-3.8,19.5c-0.9,3.2-1.7,6.4-2.4,9.5
					c-0.3,1.6-0.6,3.2-0.8,4.8c-0.1,0.8-0.1,1.6-0.2,2.4c0,0.3,0,0.8,0,1.1c0,0.2,0,0.3,0,0.6v0.5c0.1,2.7,0.7,4.9,1.1,5.9
					c0.8,1.9,1.7,3.3,2.9,4.3c0.6,0.6,1.1,0.9,1.8,1.4C386,453.1,386.7,453.4,387.4,453.8c-0.5-0.7-0.9-1.3-1.4-1.8
					c-0.3-0.6-0.8-1.1-1.1-1.7c-0.7-1.1-1.4-2.4-1.9-4c-0.3-0.9-0.9-2.7-1-5.1v-0.3c0-0.2,0-0.3,0-0.6v-1c0-0.7,0.1-1.5,0.2-2.2
					c0.2-1.5,0.5-3,0.8-4.5c0.7-3.1,1.5-6.2,2.4-9.4c1.7-6.4,3.4-13.1,3.9-20c0.2-3.4,0.2-6.7-0.1-10c-0.3-3.3-0.8-6.4-1.8-9.5
					c-0.5-1.5-1.1-3-2.1-4.3c-0.9-1.4-2.3-2.5-4-3c-1.7-0.5-3.3-0.1-4.7,0.5c-1.4,0.6-2.4,1.4-3.4,2.1c-1.9,1.5-3.4,3.2-4.8,4.6
					c-0.7,0.7-1.3,1.4-1.7,2.1c-0.2,0.3-0.5,0.7-0.7,0.9c-0.2,0.3-0.5,0.6-0.7,0.9c0,0.3,0.1,0.7,0.2,1c0.2,1.4,0.5,2.4,0.6,3.1
					c0.1,0.7,0.2,1,0.2,1s0.2,1.5,0.7,4.1c0.3,2.6,0.9,6.4,1.3,11.1c0.7,9.2,0.7,22-1.4,35.1c-0.5,3.3-1.1,6.5-1.8,9.8
					c-0.3,1.6-0.8,3.2-1.1,4.9c-0.2,0.8-0.5,1.6-0.7,2.4c-0.2,0.9-0.5,1.7-0.8,2.6l-0.2,0.6l-0.1,0.3v0.1l0.1,0.1l0.9,0.9
					c0.5,0.3,0.7,0.7,1,0.9c0.7,0.6,1.5,1,2.3,1.5c0.8,0.5,1.6,0.7,2.4,1c0.8,0.2,1.6,0.5,2.5,0.7c3.3,0.7,6.6,0.6,9.6,0.1
					c0.8-0.1,1.5-0.2,2.3-0.5c0.3-0.1,0.7-0.2,1.1-0.3c0.3-0.1,0.7-0.2,1-0.3c0.7-0.2,1.4-0.6,2.1-0.9c0.3-0.2,0.7-0.3,0.9-0.6
					l0.5-0.3l0.2-0.2c0.5-0.5,1-0.7,1.4-1.1c0.8-0.8,1.3-1.6,1.5-2.3c0.5-1.1,0.5-2.3,0.2-3.2c-0.2-0.9-0.7-1.7-1.1-2.3
					C390.2,455.3,388.9,454.5,387.4,453.8z"/>
			</g>
		</g>
	</g>
	<g>
		<path fill="#FBB040" d="M370.1,419.3c0,15.6-2.3,30.5-6.3,43.8c-1.9-2.2-3.1-5.3-2.6-9.2v-57.5c0,0,2.4-4.2,5.8-8.7
			C368.9,397.6,370.1,408.2,370.1,419.3z"/>
		<g>
			<g>
				<path fill="#FBB040" d="M370.1,419.3c-0.8,3.2-1.3,5.4-1.5,9.1c0,0.5-0.1,1.3-0.1,2.3c0,0.5-0.1,1-0.1,1.6
					c0,0.3-0.1,0.8-0.1,1.3c0,0.5-0.1,0.9-0.1,1.4c-0.1,0.9-0.2,1.9-0.3,2.9c-0.5,3.9-1.1,8.1-2.1,12.4c-0.5,2.2-0.9,4.3-1.5,6.5
					c-0.2,1.1-0.6,2.2-0.9,3.2l-0.1,0.3l0,0l0,0l0,0l0,0l0,0l0,0c0,0,0,0,0-0.1c-0.1-0.2-0.2-0.5-0.3-0.7c-0.3-0.9-0.6-1.8-0.7-2.9
					c0-0.5-0.1-1,0-1.5c0-0.2,0-0.5,0-0.7v-0.3c0,0,0-0.2,0-0.3v-0.2c0-1,0-2.1,0-3.1c0-4,0-7.8,0-11c0-6.3,0-10.4,0-10.4
					s0-4.1,0-10.4c0-3.2,0-6.9,0-11c0-2.1,0-4.1,0-6.3c0-1,0-2.2,0-3.3c0-0.6,0-1.1,0-1.7l0,0c0,0,0,0,0.1-0.1l0.5-0.7
					c0.6-0.9,1.1-1.9,1.8-2.9l0.9-1.4l0.6-0.9c0-0.1,0,0,0,0l0,0l0.2,1.5c0.3,2.2,0.7,4.3,1,6.4c0.1,1,0.2,2.1,0.3,3.1
					c0,0.5,0.1,1,0.1,1.5c0,0.5,0.1,0.9,0.1,1.4c0.2,2.5,0.3,4.6,0.5,5.6C368.8,413.9,369.3,416.1,370.1,419.3
					c0.8-3.2,1.1-5.4,1-9.2c0-1-0.2-3.1-0.5-5.7c0-0.5-0.1-0.9-0.1-1.4s-0.1-1-0.1-1.5c-0.1-1-0.2-2.1-0.3-3.2
					c-0.2-2.2-0.6-4.3-1-6.5c-0.1-0.6-0.2-1.3-0.3-1.8c-0.2-1.1-0.5-2.2-0.7-3.3l-0.3-1.6v-0.2v-0.1c0,0,0-0.1,0,0l-0.2,0.3
					l-0.5,0.7l-1.9,2.6l-0.8,1.1l-0.5,0.7l-0.9,1.5c-0.6,0.9-1.3,1.9-1.8,2.9l-0.5,0.7l-0.3,0.6c-0.1,0.1-0.1,0.2-0.1,0.3v0.5
					c0,0.6,0,1.1,0,1.7c0,1.1,0,2.2,0,3.3c0,2.2,0,4.2,0,6.3c0,4,0,7.8,0,11c0,6.3,0,10.4,0,10.4s0,4.1,0,10.4c0,3.2,0,6.9,0,11
					c0,1,0,2.1,0,3.1v0.2v0.1v0.5c0,0.2,0,0.6,0,0.8c0,0.6,0,1.1,0.1,1.7c0.1,1.1,0.3,2.4,0.8,3.5c0.1,0.3,0.2,0.6,0.3,0.8
					c0,0,0.1,0.1,0.1,0.3l0.2,0.3c0.1,0.2,0.2,0.5,0.5,0.7c0.6,0.9,1.3,1.6,1.8,2.3c0.1,0.2,0.3,0.5,0.5,0.6l0.2-0.7l0.5-1.5
					l0.5-1.5l0.2-0.7c0-0.1,0.1-0.2,0.1-0.2v-0.2c0.3-1.1,0.6-2.2,0.9-3.3c0.6-2.2,1-4.5,1.5-6.6c0.9-4.5,1.6-8.7,2.1-12.7
					c0.1-1,0.2-1.9,0.3-3c0-0.5,0.1-0.9,0.1-1.4s0.1-0.8,0.1-1.3c0-0.6,0.1-1.1,0.1-1.6c0.1-1,0.1-1.7,0.1-2.3
					C371.2,424.7,370.9,422.5,370.1,419.3z"/>
			</g>
		</g>
	</g>
	<g>
		<path fill="#FBB040" d="M361,453.8v-57.5c0,0,2.4-4.2,5.8-8.7c-3.8-14.6-9.7-31.5-19.1-45.2c-11.4-15.9-26.5-25.7-43-26.1
			c-0.5,0-0.9,0-1.4,0c-3.4,0-6.7,0.5-10,1.1c-8,8.2-20.3,14.3-27.3,22.6c-9.1,10.2,4.1,19.3,5.1,29.5c0,5.1-10.2,9.1-11.2,12.2
			c-1,3.1-0.7,5.7,0.7,8.1c6.4-2.9,20.6-7.2,33.5,1.7h-32.2c4.9,5.8,16.1,8.8,24.4,9.6c1,0-2.1,1-2.1,3.1c-6.1,0-11.2,5.1-13.2,11.2
			c12.2,2.1,20.3,13.2,17.2,25.5c1,0,3.1,0,3.1,0c2.1,10.2-8.1,19.3,7.1,23.4c3.1,1,8.1,0,9.1,2.1c5.1,7.1-3.1,10.2-9.1,14.3
			c-4.1,3.1-1,5.1-2.1,7.1c3.1,1,3.1,5.1,6.1,6.1c-0.1,0.5-0.3,0.9-0.6,1.4c0.5,0,0.9,0,1.4,0c18,0,35.3-3.3,50.9-9.2
			c3.8-6.9,6.9-14.4,9.4-22.6C361.7,460.9,360.7,457.9,361,453.8z"/>
		<g>
			<g>
				<path fill="#FBB040" d="M361,453.8c0.7-2.9,1.1-4.8,1.1-8.2v-10.6v-21.7v-11.4v-3v-1.5v-0.8c0-0.1,0,0,0-0.1
					c1-1.7,2.1-3.3,3.2-4.9c0.6-0.8,1.1-1.6,1.7-2.4l0.6-0.8c0.1-0.2,0.3-0.3,0.5-0.6l-0.2-0.7l-0.5-1.6c-0.6-1.9-1-3.9-1.7-5.8
					c-1.1-3.9-2.5-7.9-4-11.8c-3-7.8-6.5-15.5-11-22.7c-1.1-1.8-2.3-3.7-3.7-5.3c-1.3-1.7-2.6-3.3-4.1-4.9c-2.9-3.2-6.1-6.2-9.4-8.8
					c-6.7-5.3-14.7-9-23.2-10.4c-4.2-0.7-8.4-0.7-12.7-0.2c-1,0.1-2.1,0.3-3.1,0.5l-0.8,0.1l-0.9,0.2l-0.3,0.1l-0.2,0.2l-0.3,0.3
					l-0.6,0.6c-1.4,1.4-3,2.6-4.5,3.9c-6.2,4.9-12.9,9-18.6,14.4c-1.4,1.4-2.7,2.7-4,4.2c-1.3,1.5-2.3,3.4-2.6,5.4
					c-0.5,1.9-0.2,4,0.2,5.8c0.5,1.8,1.3,3.5,2.1,5.1c1.6,3.2,3.4,6.1,4.6,9c0.3,0.7,0.6,1.5,0.7,2.2c0.1,0.3,0.2,0.7,0.2,1.1
					l0.1,0.6v0.2c0,0.1,0,0,0,0.1c0,1.1-0.9,2.4-1.9,3.4c-2.1,2.1-4.7,3.7-7,5.6c-0.6,0.5-1.1,1-1.7,1.7c-0.1,0.2-0.2,0.3-0.3,0.6
					c-0.1,0.1-0.1,0.2-0.1,0.3l-0.1,0.3c-0.1,0.3-0.2,0.7-0.3,1.1c-0.3,1.5-0.3,3.1,0,4.6c0.1,0.3,0.2,0.7,0.3,1l0.2,0.6
					c0.1,0.1,0.1,0.3,0.3,0.7c0.3,0.6,0.6,1.1,0.9,1.6l1.8-0.8c1.3-0.5,2.3-0.9,3.4-1.3c2.3-0.7,4.5-1.3,6.5-1.5
					c6.7-1,12.2,0.2,15.6,1.6c0.9,0.3,1.6,0.7,2.3,1l0.2,0.1l0,0l0,0h-0.5h-15.6h-5.3h-2.9H265h-0.5h-0.7l-2.7,0.1h-1.4h-0.2h-0.1
					c0,0,0,0,0,0.1l0.2,0.2l0.5,0.6l0.9,1l1,1l1.1,1l0.7,0.5c0.5,0.3,0.9,0.7,1.4,0.9c1.9,1.3,4,2.2,6.2,3.1
					c4.5,1.6,9.2,2.7,14.5,3.2h0.1h0.1c0.2,0,0,0,0.1,0c0,0,0,0,0-0.1v-0.3c0-0.1,0-0.1,0-0.2c0-0.1,0-0.1,0-0.2v-0.1
					c0-0.1,0.1-0.1,0-0.1c0,0-0.1,0-0.2-0.1l-0.1-0.1l-0.2-0.2c-0.1-0.1-0.1-0.1-0.2-0.2l0,0l0,0l-0.1,0.1c-0.2,0.2-0.6,0.5-0.8,0.7
					s-0.6,0.6-0.8,0.9c-0.1,0.2-0.2,0.3-0.3,0.6l-0.1,0.2l0,0H283l-0.6,0.1c-0.7,0.1-1.5,0.2-2.2,0.5c-2.7,0.9-5.3,2.7-7.1,5.1l0,0
					c-0.9,1.1-1.7,2.4-2.4,3.8c-0.2,0.3-0.3,0.7-0.6,1.1c-0.2,0.7-0.6,1.5-0.8,2.2l-0.1,0.2v0.1c0,0,0,0,0.1,0h0.1l0.6,0.1l1.1,0.2
					l0.6,0.1l0.2,0.1l0.6,0.1c1.5,0.3,2.9,0.9,4.2,1.6c2.7,1.4,5.1,3.4,7.1,5.9c1.6,2.2,2.7,4.8,3.3,7.5c0.2,1.4,0.3,2.7,0.3,4.2
					c0,0.7-0.1,1.4-0.2,2.2l-0.1,0.6l-0.1,0.7l-0.6,2.2c0,0.1,0,0,0.1,0h0.1h0.2h0.6h1.1h1.3l0,0v0.5c0.1,1.4,0,2.9-0.1,4.3
					c-0.2,1.5-0.6,3-0.9,4.5c-0.3,1.5-0.7,3.1-0.7,4.8c0,1.1,0.1,2.4,0.7,3.5c0.7,1.5,1.9,2.7,3.2,3.5c1.4,0.8,2.7,1.4,4.1,1.8
					c0.7,0.2,1.3,0.5,2.2,0.6c0.8,0.1,1.5,0.2,2.3,0.3c1.5,0.1,2.9,0.1,4.1,0.3c0.6,0.1,1.1,0.3,1.3,0.6c0.3,0.6,0.7,1,1,1.6
					c0.6,1.1,0.7,2.3,0.3,3.3c-0.3,1-1.3,2.1-2.3,2.9c-1,0.8-2.2,1.6-3.4,2.4s-2.4,1.5-3.7,2.3c-0.3,0.2-0.7,0.3-1,0.7
					c-0.3,0.2-0.6,0.6-0.9,0.8c-0.6,0.6-1.1,1.4-1.4,2.4c-0.2,1,0,1.9,0.1,2.6c0.1,0.3,0.1,0.7,0.1,0.9v0.1c0,0,0,0.1-0.1,0.3
					c-0.1,0.3-0.3,0.8-0.6,1.1c-0.1,0.1,0,0.1,0.1,0.1l0.2,0.1l0.6,0.2c0.2,0.1,0.3,0.1,0.5,0.2c0.1,0.1,0.3,0.1,0.3,0.2
					c0.2,0.1,0.5,0.3,0.6,0.6c0.3,0.5,0.7,0.9,1.1,1.6c0.3,0.6,0.8,1.3,1.3,1.9c0.2,0.3,0.6,0.7,0.9,0.9l0.2,0.2l0.2,0.1l0,0l0,0
					l-0.1,0.2v0.1c0.5,0.7-1-1.5,1,1.5l0,0l0,0h0.1h0.2c0.7,0,1.5,0,2.2,0c2.9,0,5.7-0.1,8.7-0.3c3.1-0.2,6.2-0.5,9.2-0.9l1.6-0.2
					l0,0c7.3-1,14.4-2.6,21.2-4.7c1.7-0.6,3.4-1,5-1.6l2.5-0.9l1.3-0.5l0.9-0.3c0.1,0,0.1-0.1,0.2-0.2l0.1-0.2l0.2-0.5
					c1.7-3.1,3.2-6.2,4.5-9.4c1.4-3.1,2.5-6.3,3.5-9.5l0.2-0.8l0.3-1.1l0.3-1.1l0.2-0.9v-0.1l-0.1-0.1l-0.1-0.1l-0.2-0.3l-0.2-0.3
					l-0.1-0.1l-0.2-0.2c-0.1-0.1-0.2-0.3-0.3-0.5c-0.8-1.3-1.3-2.4-1.6-3.5C361.6,456.4,361.3,455.3,361,453.8
					c-0.5,1.4-0.7,2.6-0.7,4c0,1.4,0.3,2.9,1.4,4.5c0.1,0.1,0.2,0.3,0.3,0.6l0.3,0.5l0,0l-0.2,0.9l-0.3,1.1l-0.2,0.8
					c-1,3.1-2.2,6.2-3.5,9.2c-1.3,3.1-2.7,6.2-4.3,9.1l-0.1,0.1l0,0l-0.2,0.1l-1.3,0.5l-2.4,0.9c-1.6,0.6-3.3,1.1-5,1.6
					c-6.7,2.1-13.7,3.5-20.9,4.6l0,0l-1.5,0.2c-3,0.3-6.1,0.7-9.1,0.9c-2.9,0.2-5.7,0.3-8.4,0.3c-0.7,0-1.4,0-2.2,0h-0.2h-0.1l0,0
					l0,0c2.1,3.1,0.6,0.8,1,1.5v-0.1l0.3-0.8l0.3-1c0-0.1,0.1-0.3,0.1-0.5l-0.6-0.2c-0.3-0.1-0.7-0.2-1-0.5l-0.2-0.1l-0.1-0.1
					c-0.2-0.1-0.5-0.3-0.6-0.6c-0.3-0.5-0.7-1-1.1-1.7c-0.3-0.6-0.8-1.3-1.4-1.9c-0.3-0.3-0.7-0.6-1-0.9l-0.1-0.1l0,0l0,0l0,0v-0.2
					c0-0.1,0-0.2,0-0.3c0-0.5-0.1-0.9-0.2-1.3c-0.1-0.7-0.2-1.3-0.1-1.7c0.2-0.9,1.1-1.8,2.3-2.5c1.1-0.8,2.4-1.5,3.7-2.3
					c1.3-0.8,2.5-1.6,3.7-2.5c1.1-1,2.4-2.2,3-3.9c0.3-0.8,0.5-1.7,0.3-2.6c-0.1-0.9-0.3-1.7-0.7-2.4c-0.3-0.7-0.8-1.4-1.3-2.1
					c-0.3-0.5-0.8-0.8-1.3-1c-0.5-0.2-0.8-0.3-1.3-0.3c-1.6-0.3-3-0.2-4.3-0.3c-0.7,0-1.4-0.1-1.9-0.2c-0.6-0.1-1.4-0.3-1.9-0.6
					c-2.5-0.8-5.1-2.1-6.1-4.1c-0.3-0.8-0.5-1.7-0.5-2.6c0-2.9,1-5.8,1.5-9c0.2-1.6,0.3-3.2,0.1-4.8v-0.3c0-0.1,0-0.2,0-0.5
					l-0.2-1.1l-0.1-0.6c0-0.1-0.1-0.1-0.2-0.1h-0.2h-1.1h-1l0,0c0,0.1,0-0.2,0.1-0.3l0.1-0.6c0.1-0.8,0.2-1.6,0.2-2.4
					c0-1.6-0.1-3.2-0.3-4.7c-0.6-3.1-1.8-5.9-3.7-8.4c-2.1-2.9-4.8-5.1-7.9-6.6c-1.5-0.8-3.1-1.4-4.7-1.8l-0.9-0.2l0,0l0,0
					c0.1-0.2,0.2-0.7,0.5-1c0.6-1.3,1.3-2.3,2.2-3.3l0,0c1.6-2.1,3.8-3.7,6.1-4.3c0.6-0.2,1.1-0.3,1.7-0.5h0.5h0.8h1h0.2
					c0.1,0,0-0.1,0-0.2v-0.6c0-0.3,0.1-0.8,0.1-0.7c0-0.1,0.1-0.1,0.1-0.2c0.1-0.2,0.2-0.3,0.5-0.6c0.2-0.2,0.5-0.3,0.7-0.6l0.2-0.1
					c0.1-0.1,0.1-0.1,0.3-0.3c0,0,0-0.1,0.1-0.2c0.1-0.1,0.1-0.1,0.1-0.5c0-0.3-0.1-0.6-0.2-0.8c-0.1-0.2-0.5-0.3-0.5-0.3
					c-0.1,0-0.1-0.1-0.2-0.1h-0.1c-0.1,0-0.1,0-0.2,0c0,0-0.1,0-0.2,0c-5-0.5-9.7-1.5-13.9-3.1c-2.1-0.8-4.1-1.7-5.8-2.9
					c-0.5-0.2-0.8-0.6-1.3-0.9l-0.7-0.5l0,0h9.2h15.6l7.3-0.1h0.6c0.1,0,0,0,0,0l-0.1-0.1l-0.2-0.1l-0.7-0.5l-0.6-0.3
					c0,0-0.7-0.5-2.2-1.5c-0.3-0.2-0.8-0.5-1.4-0.8c-0.2-0.1-0.6-0.3-0.8-0.5c-0.2-0.1-0.7-0.3-0.8-0.3c-0.7-0.3-1.5-0.7-2.4-1
					c-3.7-1.5-9.5-2.7-16.7-1.7c-2.2,0.3-4.6,0.8-7,1.6c-1.1,0.3-2.4,0.8-3.5,1.3l0,0l-0.1-0.2l-0.1-0.5c-0.1-0.2-0.2-0.6-0.2-0.8
					c-0.2-1.1-0.2-2.4,0-3.7c0.1-0.3,0.1-0.6,0.2-0.9l0.1-0.2v-0.1c0-0.1,0.1-0.2,0.2-0.3c0.3-0.5,0.8-0.9,1.4-1.4
					c2.2-1.8,4.8-3.4,7.2-5.7c0.6-0.6,1.1-1.3,1.6-2.1c0.5-0.8,0.8-1.7,0.9-2.7c0-0.1,0-0.3,0-0.5v-0.3l-0.1-0.7
					c-0.1-0.5-0.1-0.9-0.2-1.3c-0.2-0.8-0.5-1.7-0.8-2.5c-1.3-3.2-3.1-6.2-4.7-9.2c-1.5-3-2.9-6.3-2.2-9.5c0.3-1.6,1.1-3.1,2.2-4.5
					c1.1-1.4,2.4-2.7,3.8-4c5.4-5,12.1-9.1,18.5-14.3c1.6-1.3,3.2-2.6,4.7-4c0.3-0.3,0.9-0.9,0.7-0.7l0.6-0.1l0.7-0.1
					c1-0.2,1.9-0.3,3-0.5c4-0.5,8-0.5,12,0.2c8,1.3,15.6,4.9,22.2,9.9c3.3,2.5,6.3,5.4,9.1,8.4c2.7,3.1,5.4,6.4,7.5,9.9
					c4.5,7.1,7.9,14.7,10.8,22.4c1.5,3.9,2.7,7.8,3.9,11.6c0.6,1.9,1.1,3.9,1.6,5.8l0.3,1.4l0,0l0,0l-0.1,0.1l-0.2,0.3
					c-0.6,0.8-1.1,1.6-1.7,2.5c-1.1,1.7-2.2,3.3-3.2,5.1l-0.3,0.6c-0.1,0.2,0,0.6,0,0.7v0.7v1.5v3v11.4v21.7v10.6
					C360,449,360.3,450.9,361,453.8z"/>
			</g>
		</g>
	</g>
	<g>
		<path fill="#FBB040" d="M296.5,487.5c1-2.1-2.1-4.1,2.1-7.1c6.1-4.1,14.3-7.1,9.1-14.3c-1-2.1-6.1-1-9.1-2.1
			c-15.3-4.1-5.1-13.2-7.1-23.4c0,0-2.1,0-3.1,0c3.1-12.2-5.1-23.4-17.2-25.5c2.1-6.1,7.1-11.2,13.2-11.2c0-2.1,3.1-3.1,2.1-3.1
			c-8.3-0.7-19.5-3.8-24.4-9.6h-4.7c0,0,1.3-0.8,3.4-1.7c-1.4-2.3-1.7-5-0.7-8.1c1-3.1,11.2-7.1,11.2-12.2
			c-1-10.2-14.3-19.3-5.1-29.5c7-8.4,19.3-14.4,27.3-22.6c-23.6,5.6-43.3,30.3-51.8,63.7c-0.2,0.7-0.3,1.5-0.6,2.3
			c3.8,4.8,6.5,9.7,6.5,9.7v57.5c0.6,5.4-1.5,9-4.8,11.2c2.5,8.7,5.8,16.7,9.7,23.9c15.3,5.9,32.1,9.2,49.8,9.4
			c0.2-0.5,0.3-0.9,0.6-1.4C299.5,492.6,299.5,488.5,296.5,487.5z"/>
		<g>
			<path fill="#FBB040" d="M296.5,487.5c0.5-0.6,0.6-1.4,0.6-2.1c0-0.7,0-1.3,0.1-1.7c0.1-0.5,0.3-0.8,0.7-1.3
				c0.3-0.5,0.9-0.9,1.5-1.3l1.4-0.9l1-0.6l0.9-0.6c1.3-0.8,2.6-1.6,3.9-2.6c1.3-1,2.6-2.2,3.4-4c0.3-0.9,0.6-1.9,0.5-2.9
				c-0.1-1-0.5-1.8-0.8-2.7c-0.2-0.5-0.5-0.8-0.7-1.1l-0.2-0.2v-0.1l0,0c0-0.1-0.1-0.1-0.1-0.2c-0.2-0.3-0.5-0.6-0.7-0.7
				c-1-0.7-1.9-0.8-2.9-0.9c-1.7-0.2-3.4-0.1-4.9-0.5c-0.3-0.1-0.7-0.1-1.1-0.2c-0.5-0.1-0.8-0.2-1.3-0.3c-0.8-0.2-1.6-0.6-2.3-0.9
				c-1.5-0.7-2.7-1.6-3.5-2.7c-0.8-1.3-0.9-2.7-0.7-4.5c0.3-3.3,1.6-6.9,1.7-10.7c0-0.5,0-0.9,0-1.5c0-0.2,0-0.5-0.1-0.7
				c0-0.1,0-0.3-0.1-0.6l-0.1-0.7c0.1-1.3-1.1-0.8-1.9-0.9h-0.8l0,0l0.1-0.7c0.1-0.9,0.2-1.9,0.2-2.9c0.1-3.9-0.9-7.9-3-11.3
				c-2.1-3.4-5-6.2-8.6-8.1c-1.7-0.9-3.7-1.6-5.6-2.1l-0.3-0.1l0,0l0.2-0.5c0.1-0.2,0.2-0.5,0.3-0.6c0.2-0.5,0.5-0.8,0.7-1.1
				c1.5-2.6,3.8-4.9,6.5-6.1c0.7-0.3,1.4-0.6,2.1-0.7c0.3-0.1,0.7-0.1,1-0.1h0.3h0.6h0.6h0.3h0.1v-0.1c0-0.5,0-0.9,0.1-1.3
				c0-0.1,0.1-0.2,0.1-0.3c0.1-0.2,0.3-0.5,0.6-0.7c0.1-0.1,0.2-0.2,0.5-0.3c0.1-0.1,0.2-0.2,0.6-0.5c0,0,0,0,0.1-0.1
				c0-0.1,0,0,0.1-0.2c0-0.1,0.1-0.1,0.1-0.2v-0.1c0,0,0-0.1,0-0.2c0-0.2,0-0.3-0.1-0.6c-0.1-0.1-0.1-0.2-0.2-0.3
				c-0.1,0-0.1-0.1-0.2-0.1H287c0,0-0.1,0-0.1-0.1c-0.1,0-0.1,0-0.2,0c-0.1,0-0.2,0-0.2,0h-0.2h-0.6c-1.4-0.1-2.7-0.3-4.1-0.6l0,0
				c-5.4-1-10.7-2.6-15.2-5.5c-1.1-0.7-2.2-1.5-3-2.4c-0.1-0.1-0.2-0.2-0.3-0.3l-0.3-0.3l-0.1-0.2l-0.1-0.1h-0.1h-1.5h-2.1h-1h-0.5
				h-0.1c-0.1-0.5,1.1,3.9,0.6,2.1l0,0l0,0l0,0l0.1-0.1l0.2-0.1c0.6-0.3,1.1-0.6,1.7-0.9l0.7-0.3l0.9-0.5l0.5-0.2
				c0.1-0.1,0.5-0.1,0.2-0.2l-0.5-0.9c-0.1-0.3-0.3-0.6-0.5-0.9c0-0.1-0.1-0.2-0.1-0.5c-0.1-0.2-0.2-0.6-0.2-0.8l0,0
				c-0.3-1.1-0.3-2.4-0.1-3.5c0.1-0.3,0.1-0.7,0.2-1l0.1-0.5c0-0.1,0.1-0.2,0.1-0.3c0.3-0.5,0.8-0.9,1.4-1.5
				c1.1-0.9,2.4-1.8,3.7-2.7s2.5-1.9,3.5-3.1c1.1-1.1,2.2-2.6,2.4-4.6c0-0.1,0-0.2,0-0.3c0-0.2,0-0.3,0-0.5c0-0.2,0-0.3-0.1-0.6
				c-0.1-0.3-0.1-0.8-0.2-1.1c-0.2-0.8-0.5-1.5-0.7-2.2c-0.6-1.5-1.1-2.7-1.8-4.1c-1.4-2.6-2.7-5-3.9-7.4s-1.8-4.9-1.5-7.2
				c0.2-2.3,1.5-4.3,3.1-6.1c3.2-3.7,6.9-6.5,10.3-9c3.4-2.5,6.7-4.8,9.6-7c0.7-0.6,1.4-1.1,2.1-1.6l1-0.8l1.3-1l1.7-1.5l1.5-1.5
				l1.4-1.4l0.7-0.7l0.3-0.3l0.1-0.1l0,0l0,0h-0.1l-3.4,0.8l-1.6,0.5L291,317l-0.8,0.2l-1.6,0.5l-0.8,0.3l-1.4,0.6
				c-1.7,0.7-2.9,1.3-3.7,1.6l-0.7,0.3c0,0-1.4,0.7-3.7,2.1c-2.4,1.5-5.7,3.8-9.5,7.2c-3.8,3.4-8,8-11.9,13.8
				c-4,5.8-7.8,12.7-11,20.6c-1.6,4-3.1,8.1-4.3,12.6c-0.3,1.1-0.7,2.2-0.9,3.3l-0.5,1.7l-0.2,0.8l-0.2,0.7l-0.1,0.5
				c0,0.1,0.1,0.2,0.2,0.3l0.8,0.9l0.6,0.7l1,1.4c0.7,0.9,1.4,1.9,1.9,3c0.7,1,1.3,2.1,1.8,3l0.2,0.3l0,0v0.7v1.8v7.4v15.2v31.4v0.5
				v0.3v0.2c0,0.3,0,0.6,0,0.9c0,0.6,0,1.3-0.1,1.8c-0.1,1.3-0.5,2.4-1,3.4c-0.6,1-1.3,1.9-2.2,2.7l-0.3,0.3l-0.2,0.1l-0.5,0.3
				c-0.2,0.2-0.6,0.3-0.8,0.6l0.2,0.9l0.7,2.2c1.6,5.1,3.5,10.2,5.7,15c0.7,1.6,1.5,3.1,2.3,4.6l0.6,1.1l0.3,0.6l0.2,0.5l0.1,0.2
				c0,0.1,0.2,0.1,0.2,0.1l2.6,1c3.2,1.1,6.4,2.2,9.6,3.1c6.4,1.8,12.8,3.2,19.2,4c3.2,0.5,6.3,0.8,9.4,1c1.6,0.1,3.1,0.2,4.6,0.2
				l2.2,0.1h1.3h1.5h0.6h0.2c0.1,0,0.1-0.1,0.1-0.2l0.5-1.3l0.6-1.6c0.1-0.1-0.1-0.1-0.2-0.2l-0.3-0.1c-0.2-0.1-0.5-0.1-0.6-0.2
				l-0.3-0.1c-0.1,0-0.2-0.1-0.2-0.1c-0.1,0-0.1-0.1-0.2-0.1c-0.1-0.1-0.2-0.2-0.3-0.2c-0.2-0.2-0.5-0.5-0.7-0.7l-1.3-1.5
				c-0.5-0.5-0.9-1-1.5-1.4C297.9,487.8,297.2,487.5,296.5,487.5c1.3,0.8,1.6,1.9,2.1,3c0.2,0.6,0.5,1.1,0.9,1.8
				c0.2,0.3,0.5,0.7,0.8,1c0.1,0.1,0.3,0.3,0.6,0.5c0.1,0.1,0.2,0.1,0.3,0.2c0.1,0.1,0,0,0,0l0,0l0,0l0,0l0,0l0,0l0,0l0.1-0.3l0,0
				l0,0l0,0l0,0h-0.8h-1.3l-2.2-0.1c-1.5-0.1-3-0.1-4.6-0.2c-3.1-0.2-6.2-0.6-9.2-1c-6.2-0.9-12.6-2.2-18.8-4
				c-3.2-0.9-6.3-1.9-9.4-3.1l-2.1-0.8l-0.9-1.7c-0.8-1.5-1.5-3-2.2-4.5c-2.2-4.7-4-9.7-5.6-14.6l-0.5-1.6l0,0l0,0l0.2-0.1l0.5-0.3
				c1.1-0.9,2.1-2.2,2.7-3.4s1-2.7,1.3-4.1c0.1-0.7,0.1-1.5,0.1-2.2c0-0.3,0-0.7,0-1v-0.2c0-0.1,0,0,0-0.1V450v-31.4v-15.2V396v-1.8
				V393v-0.2c0-0.1-0.1-0.1-0.1-0.2l-0.2-0.3l-0.2-0.3c-0.6-1-1.3-2.1-1.9-3.1c-0.7-1-1.4-2.1-2.1-3l-1-1.5l-0.8-1.1l0,0v-0.1
				l0.2-0.8l0.5-1.7c0.3-1.1,0.6-2.2,0.9-3.3c1.3-4.3,2.7-8.4,4.2-12.3c3.2-7.8,6.9-14.5,10.7-20.2c3.9-5.6,8-10,11.6-13.5
				c3.7-3.3,6.9-5.5,9.1-7c2.3-1.4,3.5-1.9,3.5-1.9l0.7-0.3c0.7-0.3,1.8-0.9,3.4-1.5l1.4-0.5l0.7-0.2l0,0l0,0l-0.6,0.5l-0.9,0.8
				c-0.7,0.6-1.4,1-2.1,1.6c-2.9,2.2-6.1,4.5-9.6,7c-3.4,2.6-7.3,5.5-10.6,9.4c-1.7,1.8-3.3,4.3-3.7,7.3c-0.3,3,0.6,5.8,1.7,8.3
				c1.1,2.6,2.6,5,3.9,7.5c0.7,1.3,1.3,2.5,1.7,3.8c0.2,0.7,0.5,1.3,0.6,1.9c0.1,0.3,0.1,0.7,0.2,1c0,0.1,0,0.3,0.1,0.5
				c0,0.1,0,0.1,0,0.1c0,0.1,0,0.1,0,0.2c-0.1,1-0.8,2.2-1.8,3.2c-0.9,1-2.2,1.9-3.3,2.9c-1.3,0.9-2.5,1.8-3.8,2.9
				c-0.6,0.6-1.3,1-1.8,1.9c-0.1,0.2-0.2,0.5-0.3,0.7c-0.1,0.2-0.1,0.5-0.2,0.7c-0.1,0.5-0.2,0.8-0.3,1.3c-0.2,1.5-0.2,3.1,0.1,4.6
				l0,0c0.1,0.3,0.2,0.7,0.3,1c0.1,0.2,0.1,0.3,0.2,0.6l0,0l0,0l-0.2,0.1c-0.6,0.3-1.3,0.6-1.8,0.9l-0.2,0.1l-0.1,0.1l0,0l0,0l0,0
				c-0.6-1.8,0.7,2.5,0.6,2.1h0.1h0.5h1h2.1h0.6l0,0c0,0.1,0.2,0.2,0.3,0.3c1,1,2.2,1.9,3.4,2.7c2.4,1.6,5,2.7,7.8,3.7
				c2.7,0.9,5.5,1.6,8.2,2.2l0,0c1.4,0.2,2.9,0.5,4.2,0.6l0.6,0.1h0.1h0.1h0.1l0,0c0,0,0,0,0-0.1v-0.3c0-0.1,0-0.1,0-0.2
				c0-0.2,0-0.2,0.1-0.3c0.1,0-0.2,0-0.5-0.5c-0.1-0.1-0.2-0.2-0.2-0.2c0-0.1,0,0,0,0l0,0l-0.1,0.1l-0.2,0.2
				c-0.1,0.1-0.3,0.2-0.6,0.5c-0.3,0.3-0.7,0.7-1,1.1c-0.1,0.2-0.3,0.5-0.3,0.8l0,0l0,0h-0.2c-0.5,0-0.9,0.1-1.4,0.2
				c-0.9,0.2-1.7,0.5-2.5,0.8c-3.2,1.5-5.7,4-7.5,7c-0.2,0.5-0.5,0.9-0.7,1.4c-0.1,0.2-0.2,0.5-0.3,0.7l-0.3,0.8l-0.5,1.4l-0.2,0.7
				l-0.1,0.1c0,0-0.1,0.1,0,0.1l0.3,0.1l1.4,0.2l0.7,0.1l0.3,0.1c1.7,0.5,3.4,1,5,1.9c3.2,1.7,5.9,4.2,7.8,7.3
				c1.8,3.1,2.7,6.6,2.7,10c0,0.9-0.1,1.7-0.2,2.6l-0.1,0.7c-0.1,0.5-0.2,0.9-0.3,1.4l-0.1,0.7l-0.1,0.3v0.1h0.1h1.4h1.9l0,0v0.1
				c0,0.2,0,0.5,0.1,0.7c0,0.5,0,0.8,0,1.3c0,1.7-0.3,3.4-0.7,5.1c-0.3,1.7-0.8,3.5-1,5.4c-0.1,0.9-0.1,1.9,0,3c0.1,1,0.5,2.1,1,2.9
				c1.1,1.8,2.9,2.9,4.5,3.7c0.8,0.3,1.7,0.7,2.5,0.9c0.5,0.1,0.8,0.2,1.3,0.3c0.5,0.1,0.9,0.2,1.4,0.3c1.8,0.3,3.5,0.2,5,0.5
				c0.8,0.1,1.5,0.2,1.8,0.5c0.1,0.1,0.1,0.1,0.1,0.1l0,0l0.1,0.1v0.1l0.1,0.2c0.2,0.3,0.3,0.6,0.6,0.9c0.7,1.3,0.8,2.5,0.3,3.7
				c-0.5,1.1-1.6,2.2-2.7,3.1c-1.1,0.9-2.4,1.7-3.8,2.5l-0.9,0.6l-1,0.6c-0.6,0.3-1.1,0.7-1.5,0.9c-0.8,0.6-1.4,1.1-1.9,1.9
				c-0.5,0.7-0.7,1.6-0.7,2.4c0,0.8,0.3,1.4,0.6,2.1C296.4,486.2,296.6,486.8,296.5,487.5z"/>
		</g>
	</g>
	<g>
		<path fill="#F7941E" d="M366.9,387.6c-3.8-14.6-9.7-31.5-19.1-45.2C356.5,354.4,363.2,370,366.9,387.6z"/>
		<g>
			<path fill="#FBB040" d="M366.9,387.6c0-3-0.2-4.9-1.1-8.2l-0.6-1.9l-0.5-1.4l-1-3.1c-1.5-4.5-3.4-9.6-5.6-14.4
				c-2.2-4.8-4.6-9.2-6.5-12.4c-0.9-1.6-1.8-2.9-2.4-3.8l-0.3-0.6l0,0l0,0c0.3-0.2-3.4,2.4-1.8,1.3l0,0l0,0v0.1l0.1,0.1l0.1,0.2
				l0.2,0.3c0,0,1.4,1.9,3.3,5s4.3,7.4,6.4,12.2c2.2,4.7,4,9.8,5.4,14.2c0.7,2.2,1.1,3.9,1.4,4.8
				C364.7,383.1,365.5,384.9,366.9,387.6c0.1-3,0-4.9-0.8-8.2c-0.2-0.9-0.7-2.7-1.4-4.9c-1.4-4.3-3.3-9.6-5.5-14.4
				c-2.2-4.8-4.6-9.2-6.6-12.4c-1.9-3.2-3.4-5.1-3.4-5.1l-0.2-0.3l-0.1-0.2l-0.1-0.1v-0.1l0,0l0,0c1.6-1.1-2.2,1.6-1.8,1.3l0,0l0,0
				l0.3,0.6c0.6,0.9,1.4,2.2,2.4,3.7c1.9,3.1,4.2,7.4,6.4,12.2c2.2,4.7,4.1,9.8,5.6,14.2l1,3.1l0.5,1.4l0.6,1.9
				C364.6,383.2,365.4,385,366.9,387.6z"/>
		</g>
	</g>
	<g>
		<path fill="#FBB040" d="M252.2,485.5c10.4,19.2,25.2,32.4,42.1,35.9c0.9-9.2,4.5-18,7.7-26.5C284.4,494.8,267.5,491.3,252.2,485.5
			z"/>
		<g>
			<path fill="#FBB040" d="M252.2,485.5c0.8,2.9,1.4,4.8,3.3,7.6l1.1,1.7l0.8,1.1l1.4,1.9c0.5,0.7,1,1.4,1.6,2.1
				c4.3,5.5,10.4,11.5,17.2,15.8c3.4,2.2,7,3.9,10.4,5c0.8,0.3,1.7,0.6,2.5,0.8l1.3,0.3l0.6,0.1l0.7,0.1c0.8,0.1,1.6,0.3,2.3,0.5
				l0.2-2.3l0.1-1.1l0.1-1c0.9-5.4,2.1-8.7,2.1-8.7s1-3.4,3-8.6l1.6-4.2l0.8-2.2l0.2-0.6v-0.1h-0.1H303h-1.3l-3.3-0.1
				c-3.5-0.1-7.3-0.3-11.2-0.8c-3.9-0.5-7.8-1-11.6-1.8c-1.9-0.3-3.8-0.8-5.6-1.3l-2.6-0.7l-2.5-0.7c-2.2-0.6-3.9-1.1-4.8-1.4
				C257.1,486.1,255.2,485.9,252.2,485.5c2.4,1.7,4.1,2.7,7.4,3.8c0.9,0.3,2.6,0.8,4.9,1.5l2.5,0.7l2.7,0.7c1.8,0.5,3.8,0.8,5.7,1.3
				c3.9,0.8,7.9,1.4,11.8,1.8c3.9,0.5,7.8,0.7,11.4,0.8h1.8c0,0,0,0,0,0.1l-1.6,4.1c-1.9,5.3-3,8.7-3,8.7s-1.1,3.4-2.2,9l-0.1,1
				l-0.1,1l0,0l-1-0.2l-1.1-0.3c-0.8-0.2-1.6-0.5-2.4-0.8c-3.3-1.1-6.6-2.7-9.9-4.8c-6.5-4.1-12.3-9.8-16.7-15.2
				c-0.6-0.7-1-1.4-1.5-1.9l-1.4-1.8l-0.8-1.1l-1.1-1.6C255.5,489.1,254.3,487.7,252.2,485.5z"/>
		</g>
	</g>
	<g>
		<path fill="#FBB040" d="M303.5,494.9c-0.5,0-0.9,0-1.4,0c-3.3,8.4-6.7,17.2-7.6,26.5c3,0.6,5.9,0.9,9,0.9
			c20.4,0,38.8-14.3,51-36.7C338.8,491.6,321.5,494.9,303.5,494.9z"/>
		<g>
			<path fill="#FBB040" d="M303.5,494.9c-0.3-0.1-0.7-0.2-1.1-0.2l-0.3-0.1h-0.2c-0.1,0-0.1,0.1-0.1,0.1l-0.3,0.6
				c-0.2,0.5-0.3,0.6-0.6,0.9l-0.5,0.8c-0.7,1.1-1.3,2.3-1.8,3.9l-0.7,1.9l-0.5,1.4l-0.9,2.6c-0.3,0.9-0.6,1.9-0.9,3
				c-0.6,2.1-1.1,4.1-1.6,6.3c-0.2,1.1-0.5,2.3-0.6,3.4l-0.1,0.9l-0.2,1.7c0,0.1-0.1,0.3,0,0.5l0.5,0.1l0.8,0.1l0.8,0.1l0.5,0.1
				c4.7,0.8,9.6,0.9,14.3,0.1c4.7-0.7,9.2-2.2,13.1-4c3.9-1.8,7.2-4,9.9-5.9c5.4-4,8.2-7.3,8.2-7.3s3.1-3,7.1-8.3
				c1-1.4,2.1-2.9,3.1-4.5c0.6-0.8,1-1.6,1.6-2.5l0.8-1.4l0.7-1.1l0.8-1.4l1.5-2.7l0.2-0.3l-0.3,0.1l-0.7,0.2l-1.5,0.6l-3.1,1.1
				l-1.6,0.6c-2.1,0.7-4.2,1.4-6.5,2.1c-4.5,1.3-9,2.4-13.6,3.2c-2.3,0.5-4.5,0.8-6.6,1c-1.1,0.1-2.2,0.2-3.2,0.3l-3,0.3
				c-2.3,0.2-4.1,0.3-5,0.3C308.3,493.7,306.3,494.2,303.5,494.9c2.9,0.7,4.8,1,8.2,0.9c0.9,0,2.7-0.1,5-0.3l3.1-0.3
				c1-0.1,2.2-0.2,3.3-0.5c2.2-0.3,4.5-0.7,6.7-1c4.6-0.8,9.2-1.9,13.8-3.2c2.3-0.7,4.5-1.4,6.6-2.1l1.6-0.6l0,0l-0.9,1.5
				c-0.6,0.8-1,1.7-1.6,2.4c-1,1.6-2.1,3-3,4.3c-3.9,5.3-6.9,8.1-6.9,8.1s-2.7,3.1-8,7c-2.6,1.9-5.8,4-9.5,5.7
				c-3.8,1.7-8,3.1-12.4,3.8c-4.5,0.7-9.1,0.6-13.6-0.1l-0.5-0.1l0,0l0.1-0.8c0.1-1.1,0.3-2.2,0.6-3.2c0.5-2.2,0.9-4.2,1.5-6.2
				c0.2-1,0.6-1.9,0.9-2.9l0.9-2.5l0.5-1.4l0.7-1.9c0.6-1.6,0.9-2.9,1.3-4.1l0.2-0.9c0-0.2,0.1-0.7,0.1-0.8v-0.3
				c0-0.1,0-0.1,0.1-0.1h0.1C302.8,495.1,303.1,495,303.5,494.9z"/>
		</g>
	</g>
	<g>
		<path d="M304.7,316.2c16.6,0.6,31.5,10.3,43,26.1C337.7,327.7,323.9,316.8,304.7,316.2z"/>
		<g>
			<path fill="#FBB040" d="M304.7,316.2c2.9,0.8,4.7,1.4,7.9,2.1c0.5,0.1,1.1,0.2,1.9,0.5l1.4,0.3c0.9,0.2,2.2,0.7,3.2,1.1
				c4.6,1.7,9.7,4.7,13.9,8.1c4.3,3.4,8,7.3,10.5,10.4c1.3,1.5,2.3,2.9,2.9,3.8l0.2,0.3l0.1,0.1v0.1c0.8-0.6-1.8,1.3,1.8-1.3l0,0
				l0,0l0,0l0,0l-0.3-0.5L348,341c0,0-1.5-2.2-4-5.3c-2.5-3.1-6.4-7.2-11-10.6c-2.3-1.7-4.8-3.3-7.4-4.6c-2.5-1.3-5.3-2.4-7.5-3.1
				c-2.2-0.7-4.1-1-5-1.3C309.7,315.4,307.6,315.6,304.7,316.2c2.9,0.8,4.7,1.4,7.9,1.9c0.9,0.2,2.6,0.6,4.8,1.3
				c2.3,0.7,4.8,1.7,7.2,3c2.4,1.3,4.8,2.7,7.1,4.5c4.5,3.3,8.1,7.2,10.6,10.2c2.5,3.1,3.9,5.1,3.9,5.1l0.2,0.3l0.3,0.5l0,0l0,0l0,0
				l0,0c3.7-2.5,1-0.7,1.8-1.3v-0.1l-0.1-0.1l-0.2-0.3c-0.7-0.9-1.7-2.3-3-3.8c-2.5-3.1-6.3-7.2-10.8-10.7
				c-4.5-3.7-9.8-6.6-14.6-8.4c-0.6-0.2-1.1-0.5-1.7-0.7l-0.8-0.2l-0.8-0.2l-1.4-0.3c-0.8-0.2-1.6-0.3-2.1-0.5
				C309.7,315.4,307.6,315.6,304.7,316.2z"/>
		</g>
	</g>
	<g>
		<path d="M257.1,391.4h4.7c-0.5-0.6-0.9-1.1-1.3-1.7C258.4,390.7,257.1,391.4,257.1,391.4z"/>
		<g>
			<path fill="#FBB040" d="M257.1,391.4c0.5,0.7,0.8,1.1,1.5,1.1h5.6l-0.8-0.9l-0.6-0.8l-0.7-0.8c-0.2-0.3-0.5-0.6-0.6-0.9l-0.6-0.8
				l-0.8,0.3c-0.9,0.3-1.9,0.9-2.3,1C257.4,390.1,257.2,390.6,257.1,391.4c0.8,0.3,1.3,0.6,1.8,0.3c0.3-0.1,1.3-0.7,2.2-1l-1.4-0.5
				c0,0.1,0,0,0,0l0,0l0,0h-1C257.9,390.4,257.6,390.7,257.1,391.4z"/>
		</g>
	</g>
	<g>
		<path d="M260.6,389.7c0.3,0.6,0.8,1.1,1.3,1.7H294C281.1,382.6,267,387,260.6,389.7z"/>
		<g>
			<path fill="#FBB040" d="M260.6,389.7c0.1,0.3,0.2,0.7,0.3,1l0.2,0.5c0.1,0.1,0.2,0.3,0.3,0.6l0.1,0.1h0.1h0.3h0.3h0.2l0.9,0.1
				c1.3,0.2,2.6,0.3,4.3,0.3h3.4H286h3.3h0.3h0.6h1.3l2.3-0.1l3.3-0.1h0.1c0,0,0.1,0,0,0L297,392l-0.1,0l-0.2-0.2
				c0,0-1.1-0.8-3.1-2.1c-0.5-0.3-1.1-0.7-1.8-1l-0.5-0.2l-0.5-0.2l-0.6-0.3c-0.8-0.3-1.8-0.8-2.9-1.1c-2.1-0.7-4.6-1.3-7-1.6
				c-2.5-0.2-4.9-0.2-7.1,0c-2.3,0.2-4.2,0.7-5.1,0.8C264.7,386.9,263,388,260.6,389.7c2.9-0.5,4.8-0.7,8-1.5
				c0.9-0.2,2.6-0.6,4.9-0.8c2.1-0.2,4.3-0.2,6.6,0c2.3,0.2,4.6,0.8,6.5,1.5c0.9,0.3,1.8,0.7,2.6,1l0.8,0.3l0,0l0,0h-3.9h-14.7H268
				c-1.7,0-3.1,0.1-4.3,0.3l-1,0.2h-0.2c-0.1,0-0.1,0-0.1,0c-0.1,0-0.2,0.1-0.2,0c-0.1,0-0.1-0.1-0.2-0.1l-0.3-0.3
				C261.1,390.3,260.9,390.1,260.6,389.7z"/>
		</g>
	</g>
	<g>
		<path fill="#FBB040" d="M247.3,450.5c0.6,5.4-1.5,9-4.8,11.2c-3.8-12.9-5.8-27.3-5.8-42.4c0-12.7,1.5-24.8,4.1-36
			c3.8,4.8,6.5,9.7,6.5,9.7V450.5z"/>
		<g>
			<path fill="#FBB040" d="M247.3,450.5c-0.2,1.5-0.6,2.6-0.9,3.8c-0.3,1.1-0.8,2.3-1.6,3.5c-0.2,0.3-0.6,0.9-1.1,1.4
				c-0.1,0.1-0.2,0.2-0.5,0.5l-0.1,0.1l0,0l-0.8-3c-2.2-8.2-3.8-18.2-4.3-27.7c-0.6-9.6-0.2-18.7,0.5-25.5c0.7-6.7,1.5-11,1.5-11
				l0.6-3c0.2-0.9,0.5-2.1,0.7-3.4V386l0,0l0.6,0.7l0.8,1.1c0.6,0.8,1,1.5,1.6,2.4c0.6,0.8,1,1.7,1.6,2.5l0.3,0.7l0,0v0.2v1.6v13.9
				v33.2C246.3,445.7,246.6,447.6,247.3,450.5c0.7-2.9,1.1-4.8,1.1-8.2V409v-13.9v-1.6v-0.6c0.1-0.2-0.2-0.5-0.2-0.7l-0.5-0.7
				c-0.6-0.9-1.1-1.8-1.6-2.6c-0.6-0.8-1-1.6-1.6-2.4l-0.8-1.1l-1-1.4c-0.5-0.7-1-1.3-1.5-1.9l-0.7-0.9l-0.2-0.2c0-0.1,0,0,0,0.1
				v0.1l-0.1,0.6l-0.6,2.2l-0.5,1.8c-0.3,1.4-0.6,2.5-0.7,3.5l-0.6,3c0,0-0.8,4.3-1.5,11.2c-0.7,6.9-1.1,16.1-0.5,25.8
				c0.6,9.7,2.2,19.8,4.3,28.2c0.2,1,0.6,2.1,0.8,3.1c0.2,1,0.6,1.8,0.9,2.7v0.1v0.1h0.1l0.3-0.2l0.6-0.3l0.6-0.3
				c0.1-0.1,0.2-0.1,0.2-0.2h0.1c0.3-0.3,0.8-0.7,1-0.8c0.2-0.2,0.3-0.3,0.6-0.6c0.7-0.7,1.1-1.4,1.4-1.7c1-1.6,1.3-3.1,1.4-4.5
				C248.1,453.1,247.8,451.8,247.3,450.5z"/>
		</g>
	</g>
	<g>
		<path fill="#FBB040" d="M236.7,419.3c0,15.1,2.1,29.5,5.8,42.4c-10.8,7.3-34.9-0.8-21.6-11.2c17.4-13.5-5.3-35.1,0-65
			c3.4-19.1,13.2-10.7,19.9-2.2C238.1,394.5,236.7,406.6,236.7,419.3z"/>
		<g>
			<path fill="#FBB040" d="M236.7,419.3c-0.7,2.9-1,4.8-0.9,8.2l0.1,2.1l0.1,1.4l0.1,1.8l0.2,2.1c0.1,1.4,0.3,2.9,0.5,4.3
				c0.8,5.9,1.9,12.4,3.7,19l0.7,2.4l0.1,0.5l0,0l-0.2,0.1c-1.4,0.8-2.9,1.3-4.5,1.6c-3.2,0.7-6.5,0.6-9.7-0.1
				c-1.6-0.3-3.1-0.8-4.5-1.5c-1.4-0.7-2.6-1.6-3.4-2.6c-0.8-1-0.9-2.3-0.5-3.5c0.5-1.1,1.5-2.3,2.5-3.2c0.2-0.2,0.6-0.5,0.8-0.7
				c0.3-0.2,0.6-0.5,0.9-0.8c0.6-0.6,1.1-1,1.7-1.6c1-1.1,1.9-2.4,2.6-3.8c1.4-2.6,1.8-5.5,1.8-8c0-2.5-0.3-4.7-0.7-6.6
				s-0.7-3.5-1-4.9c-0.7-2.6-1-4.1-1-4.1l-1.1-4.1c-0.7-2.6-1.7-6.4-2.5-11c-0.8-4.6-1.4-10.2-0.9-16.1c0.2-3,0.7-6.1,1.6-9
				c0.5-1.5,1-3,1.9-4.1c0.8-1.3,1.9-2.1,3.2-2.2c1.3-0.1,2.7,0.5,4.1,1.4c1.4,0.8,2.5,1.9,3.8,3.1c1.1,1.1,2.3,2.4,3.3,3.8l0.3,0.3
				l-0.2,0.9c-0.2,0.8-0.3,1.7-0.6,2.5c-0.7,3.3-1.3,6.6-1.7,9.8c-0.2,1.6-0.5,3.2-0.6,4.7l-0.2,2.3l-0.2,2.1
				c-0.2,2.3-0.3,4.1-0.3,5C235.7,414.4,236,416.4,236.7,419.3c0.7-2.9,1.1-4.8,1.4-8.1c0-0.9,0.1-2.7,0.3-5l0.2-2.1l0.2-2.3
				c0.1-1.5,0.3-3.1,0.6-4.7c0.5-3.2,1-6.4,1.7-9.6c0.2-0.8,0.3-1.6,0.6-2.4l0.3-1.5l0.1-0.3v-0.1l-0.1-0.1l-0.3-0.5l-0.5-0.6
				c-1-1.4-2.3-2.6-3.4-3.9c-1.3-1.3-2.6-2.4-4.1-3.4c-1.5-0.9-3.3-1.8-5.5-1.7c-1,0.1-2.1,0.5-2.9,1c-0.8,0.6-1.5,1.3-2.1,2.1
				c-1,1.5-1.7,3.2-2.2,4.8c-1,3.2-1.5,6.4-1.7,9.5c-0.6,6.2,0.1,11.9,0.9,16.7c0.8,4.7,1.8,8.6,2.5,11.2l1.1,4.1c0,0,0.5,1.5,1,4.1
				c0.3,1.3,0.7,2.9,1,4.8c0.3,1.8,0.6,3.9,0.6,6.2c0,2.3-0.5,4.7-1.6,7c-0.6,1.1-1.4,2.3-2.3,3.2c-0.5,0.5-0.9,1-1.5,1.5
				c-0.2,0.2-0.6,0.5-0.8,0.7c-0.3,0.2-0.6,0.5-0.9,0.8c-1.3,1-2.4,2.3-3.1,4.1c-0.3,0.9-0.5,1.9-0.3,2.9c0.1,1,0.6,1.9,1.1,2.7
				c1.1,1.6,2.7,2.5,4.2,3.3c1.6,0.8,3.3,1.3,5,1.7c3.4,0.7,7.1,0.8,10.6,0.1c1.7-0.3,3.5-0.9,5.1-1.8l0.3-0.2l0.5-0.3l0.6-0.3
				l0.2-0.1l0.1-0.1v-0.1l-0.6-1.9l-0.7-2.4c-1.7-6.4-2.9-12.8-3.5-18.7c-0.2-1.5-0.3-2.9-0.5-4.3l-0.2-2.1l-0.1-1.8l-0.1-1.4
				l-0.1-1.9C237.8,424,237.4,422.1,236.7,419.3z"/>
		</g>
	</g>
</g>
<g>
	<g>
		<path fill="none" d="M304.7,316.2c16.6,0.6,31.5,10.3,43,26.1c8.8,12,15.4,27.6,19.1,45.2"/>
	</g>
	<path fill="#E0A139" d="M298.1,316.2c0,0-37.6,23.6-7.9,61c0,0,8.4,12.3,7.2,18s5.7,0,5.7,0l-5.7,47.5c0,0-16.1,0.8,0,13.2h13
		c0,0-1.6,10.8-13,17.2c-11.4,6.4-6.7-3.1-16.6-5.5c0,0-23.1,0.8-6.2,15.9c0,0,17.7,18.3,26,18s1.4,0,1.4,0s25.1,17.6-6.4,18
		c-7.8,0.1-44.4-15.6-51.6-56.5c-2.2-12.3-2.2-5.4-2.2-5.4s6.5-43.7,0.6-50c0,0-5.8-25.7-0.5-29.1
		C247.3,375.2,250.1,331,298.1,316.2z"/>
	<g>
		<path fill="none" d="M240.8,383.3c0.2-0.8,0.3-1.5,0.6-2.3c9.8-38,33.9-64.9,62-64.9c0.5,0,0.9,0,1.4,0c19.2,0.5,33,11.5,43,26.1
			c9.4,13.7,15.3,30.6,19.1,45.2"/>
	</g>
	<g>
		<path fill="none" d="M247.3,393c0,0-2.7-4.9-6.5-9.7c-6.6-8.6-16.4-16.9-19.9,2.2c-5.3,29.9,17.4,51.5,0,65
			c-13.4,10.3,10.7,18.5,21.6,11.2c3.3-2.2,5.4-5.8,4.8-11.2"/>
	</g>
	<g>
		<path fill="none" d="M361,396.2c0,0,2.4-4.2,5.8-8.7c6.6-8.8,17.1-18.6,20.6,1.3c0.2,45.4-18.2,54.6,0,65c4.9,3.9,4.8,7.3,1.9,9.9
			c-5.3,4.8-19.6,6.2-25.7-0.7c-1.9-2.2-3.1-5.3-2.6-9.2"/>
	</g>
	<g>
		<g>
			<g>
				<path d="M257.1,391.4c1.6-0.5,2.9-0.7,4.2-1c0.8-0.2,1.5-0.3,2.2-0.6c0.7-0.2,1.5-0.5,2.4-0.7c0.6-0.2,1.6-0.5,3.7-0.9
					c0.8-0.1,2.2-0.5,3.3-0.5c0.6-0.1,1.1-0.1,1.5-0.1c0.3,0,0.7,0,0.7,0s0.8,0,1.8,0c1-0.1,2.3,0.1,3.2,0.2c0.7,0,1.4,0.2,1.9,0.2
					c0.6,0.1,1,0.2,1.5,0.2c0.9,0.1,1.5,0.5,1.9,0.6c1.8,0.5,3.1,1,4.5,1.4c1.4,0.5,2.6,0.9,4.2,1.4c-1.1-1.1-2.2-2.2-3.4-3
					c-1.3-0.8-2.6-1.6-4.6-2.2c-0.5-0.1-1.1-0.5-2.1-0.6c-0.5-0.1-1-0.2-1.6-0.3s-1.3-0.2-2.1-0.3c-0.9,0-2.3-0.2-3.4-0.2
					s-1.9,0-1.9,0s-0.2,0-0.7,0c-0.5,0-1,0.1-1.6,0.1c-1.3,0.1-2.7,0.5-3.5,0.6c-2.2,0.5-3.3,0.8-3.9,1c-0.9,0.2-1.7,0.6-2.5,0.9
					c-0.8,0.3-1.4,0.7-2.1,1C259.4,389.5,258.3,390.3,257.1,391.4z"/>
			</g>
		</g>
	</g>
	<g>
		<g>
			<g>
				<path d="M279.7,481.9c0.9,1.4,1.9,2.4,3.1,3.3s2.5,1.8,4.3,2.5c0.7,0.2,1.6,0.8,3.8,1.4c0.5,0.1,0.9,0.3,1.5,0.5
					c0.6,0.1,1.1,0.2,1.8,0.3c1.3,0.3,2.7,0.5,4,0.6c0.3,0,0.7,0.1,0.9,0.1c0.3,0,0.6,0,0.9,0c0.6,0,1,0,1.5,0c0.9,0,1.4,0,1.4,0
					s0.1,0,0.3,0c0.2,0,0.5,0,0.9-0.1c0.7-0.1,1.7-0.1,2.9-0.2s2.4-0.5,3.5-0.6c0.6-0.1,1.3-0.2,1.7-0.3c0.6-0.1,1-0.3,1.6-0.5
					c1.5-0.5,2.6-0.8,3.5-1.1c0.9-0.3,1.5-0.7,1.9-0.8c0.9-0.3,1.7-0.7,2.4-1.1c0.7-0.3,1.4-0.8,1.9-1.3c1.1-0.9,2.3-1.7,3.4-2.9
					c-1.6,0.5-3,0.8-4.2,1.3c-0.7,0.2-1.4,0.6-2.1,0.8c-0.7,0.2-1.5,0.6-2.4,0.9c-0.5,0.2-1,0.5-1.9,0.8c-0.9,0.3-1.9,0.6-3.3,1
					c-0.5,0.1-0.9,0.2-1.5,0.5c-0.6,0.1-1.1,0.2-1.7,0.3c-1.1,0.2-2.3,0.5-3.4,0.6c-1,0.1-2.1,0.2-2.7,0.2c-0.3,0-0.6,0-0.8,0.1
					c-0.2,0-0.3,0-0.3,0s-0.5,0-1.3,0c-0.5,0-0.9,0-1.4,0c-0.2,0-0.6,0-0.8,0c-0.3,0-0.6-0.1-0.9-0.1c-1.3-0.1-2.5-0.2-3.8-0.6
					c-0.6-0.1-1.1-0.2-1.7-0.3s-1-0.3-1.4-0.5c-2.1-0.6-3-1-3.5-1.3c-1.6-0.7-2.9-1.3-4.3-1.8C282.5,483.1,281.2,482.7,279.7,481.9z
					"/>
			</g>
		</g>
	</g>
	<g>
		<g>
			<g>
				<path d="M316.2,405.6c2.5,2.2,4.5,3.4,8.3,4.5c0.7,0.1,1.7,0.5,4,0.8c0.3,0.1,1.1,0.1,1.1,0.1s0.7,0.1,1,0.1
					c3.1,0.2,5-0.1,5.9-0.2c2.1-0.3,3.5-1,4.8-1.9c1.3-0.9,2.3-1.9,3.1-3.3c-1.5,0.8-2.6,1.3-4,1.7c-1.3,0.5-2.6,0.8-4.3,1.1
					c-0.9,0.1-2.5,0.5-5.4,0.2c-0.3,0-1-0.1-1-0.1s-0.8-0.1-1-0.1c-2.1-0.3-3.1-0.6-3.7-0.8C321.4,406.6,319.4,406.3,316.2,405.6z"
					/>
			</g>
		</g>
	</g>
	<g>
		<g>
			<g>
				<path d="M290.2,405.6c-3.1,1.3-5,1.8-8.6,2.9c-0.3,0.1-0.7,0.2-1.3,0.3c-0.6,0.1-1.4,0.3-2.4,0.5c-0.3,0-0.9,0.1-1.4,0.1
					c-0.5,0-0.9,0-0.9,0s-0.3,0-0.8,0c-0.5,0-0.9,0-1.3,0c-0.7-0.1-1.4-0.1-1.8-0.1c-0.6-0.1-1-0.2-1.5-0.3
					c-0.5-0.1-0.8-0.1-1.1-0.2c-0.3-0.1-0.6-0.2-0.8-0.2c-3.5-1-5.5-1.7-8.7-2.7c2.3,2.3,4.1,4,8,5.1c0.2,0.1,0.6,0.1,0.9,0.2
					c0.3,0.1,0.8,0.1,1.3,0.2c0.5,0.1,1,0.2,1.6,0.3c0.6,0.1,1.4,0.1,2.1,0.2c0.5,0,1,0.1,1.5,0c0.5,0,0.8,0,0.8,0s0.5,0,0.9,0
					c0.6,0,1.1-0.1,1.5-0.1c1.1-0.1,1.9-0.3,2.6-0.5c0.7-0.1,1-0.2,1.4-0.3C286.2,409.6,288.2,408.1,290.2,405.6z"/>
			</g>
		</g>
	</g>
	<g>
		<g>
			<g>
				<path d="M294,449c0.2,1.3,0.6,2.1,1.6,2.7c0.6,0.3,2.4,1.4,4.2,1.9c0.9,0.2,1.8,0.5,2.5,0.5c0.7,0.1,1.1,0.1,1.1,0.1
					s1.8,0.1,3.7-0.5c1.9-0.5,3.7-1.6,4.2-1.9c1-0.7,1.4-1.6,1.5-2.7c-1.3,0.1-1.9,0.1-2.9,0.7c-0.5,0.3-1.9,1.3-3.5,1.6
					c-1.5,0.5-3,0.3-3,0.3s-1.5,0-3-0.5c-1.5-0.5-3.1-1.4-3.5-1.6C296.1,449.1,295.3,449.1,294,449z"/>
			</g>
		</g>
	</g>
</g>
<g>
	<g>
		<g>
			<path d="M350.4,393.3c-1.1-1.1-2.3-2.1-3.5-2.7c-0.6-0.3-1.3-0.8-2.1-1c-0.7-0.3-1.6-0.7-2.5-0.9c-0.7-0.2-1.7-0.5-3.9-1
				c-0.9-0.1-2.3-0.5-3.5-0.6c-0.6-0.1-1.1-0.1-1.6-0.1c-0.5,0-0.7,0-0.7,0s-0.9,0-1.9,0c-1.1-0.1-2.5,0.1-3.4,0.2
				c-0.8,0-1.5,0.2-2.1,0.3s-1.1,0.2-1.6,0.3c-0.9,0.2-1.6,0.5-2.1,0.6c-1.9,0.5-3.3,1.4-4.6,2.2c-1.3,0.8-2.2,1.8-3.4,3
				c1.6-0.5,2.9-0.9,4.2-1.4c1.4-0.3,2.6-0.9,4.5-1.4c0.5-0.1,1-0.3,1.9-0.6c0.5-0.1,0.9-0.2,1.5-0.2c0.6-0.1,1.1-0.2,1.9-0.2
				c0.9,0,2.2-0.2,3.2-0.2c1,0,1.8,0,1.8,0s0.2,0,0.7,0c0.3,0,0.9,0.1,1.5,0.1c1.1,0.1,2.5,0.5,3.3,0.5c2.1,0.5,3.1,0.7,3.7,0.9
				c0.9,0.2,1.7,0.5,2.4,0.7c0.7,0.2,1.4,0.3,2.2,0.6C347.4,392.6,348.8,392.8,350.4,393.3z"/>
		</g>
	</g>
</g>
<path fill="#020202" stroke="#FFFFFF" stroke-width="0.25" stroke-miterlimit="10" d="M461.3,523"/>
<path fill="#020202" stroke="#FFFFFF" stroke-width="0.25" stroke-miterlimit="10" d="M317.9,604"/>
<path fill="#FBB040" d="M288.5,309.2"/>
<text transform="matrix(0.9967 0 0 1 48.789 270.7323)" font-family="'Arial-Black'" font-size="28.5448">HTML5</text>
<text transform="matrix(0.9967 0 0 1 387.082 197.91)" font-family="'Arial-Black'" font-size="28.5448">CSS3 </text>
<text transform="matrix(0.9967 0 0 1 486.4785 338.3579)" font-family="'Arial-Black'" font-size="28.5448">ROR  </text>
<text transform="matrix(0.9967 0 0 1 69.9463 457.4902)" font-family="'Arial-Black'" font-size="28.5448">SQL</text>
<text transform="matrix(0.5565 0 0 1 122.0083 610.0911)" font-family="'Arial-Black'" font-size="32.406">ILLUSTRATOR</text>
<text transform="matrix(0.9967 0 0 1 337.58 607.4248)" font-family="'Arial-Black'" font-size="28.5448">PHP</text>
<text transform="matrix(0.9967 0 0 1 470.3477 507.3662)" font-family="'Arial-Black'" font-size="28.5448">SVG</text>
<path d="M224.3,327.2c32.9,108.4,11.8,27.8,84.3,27.8c45.2,0,53.6,87,77-27.8c4.3-21.1-36.1-39-80.6-39S218,306.6,224.3,327.2z"/>
</svg>
