<?xml version="1.0" encoding="utf-8"?>
<!-- Generator: Adobe Illustrator 18.1.0, SVG Export Plug-In . SVG Version: 6.00 Build 0)  -->
<svg version="1.1" id="Layer_1" xmlns="http://www.w3.org/2000/svg" xmlns:xlink="http://www.w3.org/1999/xlink" x="0px" y="0px"
	 viewBox="-49 231 612 612" enable-background="new -49 231 612 612" xml:space="preserve">
<path d="M460.2,231H53.8C-2.7,231-49,277.3-49,333.8v406.4C-49,796.7-2.7,843,53.8,843h406.4c56.5,0,102.8-46.3,102.8-102.8V333.8
	C563,277.3,516.7,231,460.2,231z M180.5,728.2H104V460.5h76.5V728.2z M142.2,422.2c-21.2,0-38.2-17.1-38.2-38.2s17.1-38.2,38.2-38.2
	s38.2,17.1,38.2,38.2C180.5,405.2,163.4,422.2,142.2,422.2z M448.2,728.2h-76.5v-153c0-21.2-17.1-38.2-38.2-38.2
	s-38.2,17.1-38.2,38.2v153h-76.5V460.5h76.5V508c15.8-21.6,39.9-47.5,66.9-47.5c47.6,0,86.1,42.8,86.1,95.6V728.2z"/>
</svg>
