<?xml version="1.0" encoding="utf-8"?>
<!-- Generator: Adobe Illustrator 18.1.0, SVG Export Plug-In . SVG Version: 6.00 Build 0)  -->
<!DOCTYPE svg PUBLIC "-//W3C//DTD SVG 1.1//EN" "http://www.w3.org/Graphics/SVG/1.1/DTD/svg11.dtd">
<svg version="1.1" id="logo" xmlns="http://www.w3.org/2000/svg" xmlns:xlink="http://www.w3.org/1999/xlink" x="0px" y="0px"
	 viewBox="0 0 340.8 273.2" style="enable-background:new 0 0 340.8 273.2;" xml:space="preserve">
<g id="black">
	<g id="k_x5F_b_1_">
		<path style="stroke:#000000;stroke-width:8;stroke-miterlimit:10;" d="M104.3,173.3c-14.1,0-26.3-1.7-36.6-5.1
			c-10.3-3.4-18.8-8.2-25.6-14.2c-6.7-6.1-11.7-13.4-15-21.9c-3.3-8.5-4.9-17.8-4.9-28c0-9.4,1.6-18.2,4.8-26.3s8.1-15.2,14.8-21.2
			c6.7-6,15.2-10.7,25.5-14.1c10.3-3.4,22.7-5.1,37.1-5.1h72v204.2H129v-68.2H104.3z M129,72.8h-24.7c-6,0-11.1,0.8-15.5,2.2
			c-4.3,1.5-7.9,3.6-10.8,6.4c-2.8,2.8-5,6.1-6.4,9.9c-1.4,3.8-2.1,8.1-2.1,12.8c0,10.6,2.7,18.8,8.1,24.7
			c5.4,5.9,14.3,8.8,26.6,8.8H129V72.8z"/>
	</g>
	<g id="k_x5F_b">
		<path style="stroke:#000000;stroke-width:8;stroke-miterlimit:10;" d="M176.4,137l4.9-0.1c4.6,0,14.8-11.6,17.9-16l46-66.7
			c2.5-3.6,5.4-6.1,8.6-7.4c3.2-1.3,7.2-2,11.8-2h41.2l-60.5,82.5c-2.1,3-4.4,5.5-6.7,7.4c-2.3,2-4.7,3.6-7.1,4.9
			c3.5,1.3,6.8,3.1,9.7,5.4c2.9,2.3,5.6,5.3,8.1,9.2l61.7,94.7h-42.3c-2.7,0-5-0.2-6.9-0.6c-1.9-0.4-3.6-0.9-5-1.7
			c-1.4-0.7-2.6-1.7-3.6-2.7c-1-1.1-2-2.3-2.9-3.7c0,0-29.9-49.9-37.1-57c-8.1-8-14.2-11-21.9-10.3h-16.1l0.5,76H129V44.9h47.4
			L176.4,137z"/>
	</g>
</g>
<g id="orange">
	<g id="p">
		<path style="fill:#F8991D;" d="M104.3,173.1c-14.1,0-26.3-1.7-36.6-5.1c-10.3-3.4-18.8-8.2-25.6-14.2c-6.7-6.1-11.7-13.4-15-21.9
			c-3.3-8.5-4.9-17.8-4.9-28c0-9.4,1.6-18.2,4.8-26.3s8.1-15.2,14.8-21.2c6.7-6,15.2-10.7,25.5-14.1c10.3-3.4,22.7-5.1,37.1-5.1h72
			v204.2H129v-68.2H104.3z M129,72.6h-24.7c-6,0-11.1,0.8-15.5,2.2c-4.3,1.5-7.9,3.6-10.8,6.4c-2.8,2.8-5,6.1-6.4,9.9
			c-1.4,3.8-2.1,8.1-2.1,12.8c0,10.6,2.7,18.8,8.1,24.7c5.4,5.9,14.3,8.8,26.6,8.8H129V72.6z"/>
	</g>
	<g id="k">
		<path style="fill:#F8991D;" d="M176.4,136.8l4.9-0.1c4.6,0,14.8-11.6,17.9-16l46-66.7c2.5-3.6,5.4-6.1,8.6-7.4
			c3.2-1.3,7.2-2,11.8-2h41.2l-60.5,82.5c-2.1,3-4.4,5.5-6.7,7.4c-2.3,2-4.7,3.6-7.1,4.9c3.5,1.3,6.8,3.1,9.7,5.4
			c2.9,2.3,5.6,5.3,8.1,9.2l61.7,94.7h-42.3c-2.7,0-5-0.2-6.9-0.6c-1.9-0.4-3.6-0.9-5-1.7c-1.4-0.7-2.6-1.7-3.6-2.7
			c-1-1.1-2-2.3-2.9-3.7c0,0-29.9-49.9-37.1-57c-8.1-8-14.2-11-21.9-10.3h-16.1l0.5,76H129V44.7h47.4L176.4,136.8z"/>
	</g>
</g>
</svg>
