<?xml version="1.0" encoding="utf-8"?>
<!-- Generator: Adobe Illustrator 18.1.0, SVG Export Plug-In . SVG Version: 6.00 Build 0)  -->
<svg version="1.1" id="Layer_1" xmlns="http://www.w3.org/2000/svg" xmlns:xlink="http://www.w3.org/1999/xlink" x="0px" y="0px"
	 viewBox="-49 231 611.9 611.9" enable-background="new -49 231 611.9 611.9" xml:space="preserve">
<path d="M461,231H53c-56.1,0-102,45.9-102,102v408c0,56.1,45.9,102,102,102h408c56.2,0,102-45.9,102-102V333
	C563,276.9,517.1,231,461,231z M104,384h306c5.5,0,10.8,1.2,15.7,3.3L257,584.1L88.3,387.3C93.2,385.2,98.5,384,104,384z
	 M65.8,651.8V422.2c0-0.8,0-1.6,0.1-2.4L178,550.7L67.1,661.7C66.2,658.4,65.8,655.1,65.8,651.8z M410,690H104
	c-3.3,0-6.7-0.5-9.9-1.3L203,579.8l54,63l54-63l108.9,108.9C416.7,689.5,413.3,690,410,690z M448.2,651.8c0,3.3-0.5,6.7-1.3,9.9
	L336,550.7l112.1-130.9c0,0.8,0.1,1.6,0.1,2.4V651.8z"/>
</svg>
