<?xml version="1.0" encoding="utf-8"?>
<!-- Generator: Adobe Illustrator 18.1.0, SVG Export Plug-In . SVG Version: 6.00 Build 0)  -->
<!DOCTYPE svg PUBLIC "-//W3C//DTD SVG 1.1//EN" "http://www.w3.org/Graphics/SVG/1.1/DTD/svg11.dtd">
<svg version="1.1" id="Layer_1" xmlns="http://www.w3.org/2000/svg" xmlns:xlink="http://www.w3.org/1999/xlink" x="0px" y="0px"
	 viewBox="0 0 300 300" style="enable-background:new 0 0 300 300;" xml:space="preserve">
<style type="text/css">
	.st0{display:none;}
	.st1{display:inline;fill:#003366;}
	.st2{fill:#FFFFFF;}
	.st3{fill:#FBB040;}
	.st4{fill:#F7941E;}
	.st5{fill:none;}
	.st6{fill:#E0A139;}
	.st7{fill:#6699CC;}
	.st8{enable-background:new    ;}
	.st9{fill:#009999;}
	.st10{fill:#7292CB;}
	.st11{fill:#69C9CA;}
	.st12{fill:#9FC9EB;}
	.st13{fill:#9999CC;}
	.st14{fill:#CCCCFF;}
	.st15{fill:#99CCFF;}
</style>
<g class="st0">
	<rect x="1.4" y="-1.2" class="st1" width="298.6" height="301.2"/>
</g>
<g id="white_1_">
	<ellipse class="st2" cx="211.5" cy="197.8" rx="29.6" ry="28.1"/>
	<ellipse class="st2" cx="62.4" cy="144.6" rx="33.2" ry="33"/>
	<ellipse class="st2" cx="91.1" cy="189.7" rx="27.2" ry="27.1"/>
	<ellipse class="st2" cx="238.7" cy="155.8" rx="31.2" ry="31"/>
	<ellipse class="st2" cx="85.7" cy="94.6" rx="31.3" ry="31.2"/>
	<ellipse class="st2" cx="229.3" cy="103.3" rx="29.3" ry="29.2"/>
	<ellipse class="st2" cx="131.9" cy="67.3" rx="30.1" ry="30"/>
	<g>
		<ellipse class="st2" cx="186.8" cy="72.2" rx="31.3" ry="31.1"/>
	</g>
	<g id="white">
		<g>
			<ellipse class="st2" cx="153.4" cy="145" rx="58" ry="51.6"/>
			<g>
				<g>
					<path class="st2" d="M192.8,190.6c2.3,1.7,2.3,3.1,0.9,4.2c-2.5,2.1-9.3,2.6-12.3-0.3c1.9-5.6,3-12,3-18.7
						c0-4.7-0.5-9.3-1.5-13.5c3.1-3.7,8.2-7.9,9.8,0.6C195.4,175.7,184.5,184.8,192.8,190.6z"/>
					<g>
						<g>
							<path class="st2" d="M192.8,190.6c0.5,0.6,0.8,1,1.1,1.6c0.3,0.5,0.4,1,0.1,1.6c-0.1,0.2-0.3,0.4-0.5,0.7
								c-0.1,0.2-0.4,0.3-0.5,0.4l-0.1,0.1l-0.2,0.1c-0.1,0.1-0.3,0.2-0.4,0.2c-0.3,0.1-0.5,0.3-0.8,0.4c-0.2,0.1-0.3,0.1-0.4,0.2
								c-0.2,0.1-0.4,0.1-0.5,0.1c-0.4,0.1-0.7,0.2-1,0.2c-1.3,0.2-2.8,0.2-4.2-0.1c-0.4-0.1-0.7-0.2-1.1-0.3
								c-0.4-0.2-0.7-0.2-1-0.4c-0.4-0.2-0.6-0.4-0.9-0.5c-0.2-0.1-0.3-0.3-0.4-0.3l0,0c0.1-0.3,0.3-0.7,0.4-1
								c0.1-0.4,0.3-0.7,0.4-1c0.3-0.7,0.4-1.4,0.6-2.1c0.4-1.4,0.7-2.8,0.9-4.2c1-5.7,1-11.2,0.7-15.2c-0.2-2-0.4-3.7-0.6-4.8
								c-0.2-1.2-0.4-1.8-0.4-1.8s-0.1-0.2-0.1-0.5s-0.2-0.7-0.3-1.3l0,0c0.1-0.1,0.3-0.3,0.4-0.4c0.3-0.3,0.5-0.6,0.8-0.8
								c0.6-0.6,1.2-1.3,2-1.8c0.4-0.3,0.9-0.6,1.4-0.7c0.5-0.2,1-0.3,1.5-0.2c0.4,0.1,0.9,0.4,1.2,0.9c0.4,0.4,0.6,1,0.8,1.6
								c0.4,1.2,0.7,2.5,0.8,3.8c0.2,1.3,0.2,2.7,0.1,4.1c-0.3,2.8-1,5.6-1.8,8.3c-0.4,1.4-0.8,2.7-1.2,4c-0.2,0.7-0.3,1.4-0.4,2.1
								c-0.1,0.4-0.1,0.7-0.1,1c0,0.2,0,0.4,0,0.5c0,0.1,0,0.2,0,0.3v0.2c0.1,1.2,0.4,2.1,0.5,2.5c0.4,0.8,0.8,1.4,1.4,1.8
								c0.3,0.3,0.5,0.4,0.9,0.6C192.1,190.3,192.4,190.4,192.8,190.6c-0.3-0.3-0.4-0.6-0.7-0.8c-0.2-0.3-0.4-0.5-0.5-0.7
								c-0.4-0.5-0.7-1-0.9-1.7c-0.2-0.4-0.4-1.2-0.5-2.2v-0.2c0-0.1,0-0.2,0-0.3v-0.4c0-0.3,0.1-0.7,0.1-1c0.1-0.7,0.3-1.3,0.4-1.9
								c0.4-1.3,0.7-2.6,1.2-4c0.8-2.7,1.6-5.6,1.9-8.5c0.1-1.5,0.1-2.9-0.1-4.3c-0.2-1.4-0.4-2.7-0.9-4c-0.3-0.7-0.5-1.3-1-1.8
								c-0.4-0.6-1.1-1.1-1.9-1.3c-0.8-0.2-1.6-0.1-2.2,0.2s-1.2,0.6-1.6,0.9c-0.9,0.7-1.6,1.4-2.3,2c-0.4,0.3-0.6,0.6-0.8,0.9
								c-0.1,0.2-0.3,0.3-0.4,0.4c-0.1,0.2-0.3,0.3-0.4,0.4c0,0.2,0.1,0.3,0.1,0.4c0.1,0.6,0.3,1,0.3,1.3c0.1,0.3,0.1,0.4,0.1,0.4
								s0.1,0.7,0.4,1.8c0.2,1.1,0.4,2.7,0.6,4.7c0.4,3.9,0.4,9.4-0.7,15c-0.3,1.4-0.5,2.8-0.9,4.2c-0.2,0.7-0.4,1.4-0.5,2.1
								c-0.1,0.4-0.3,0.7-0.4,1c-0.1,0.4-0.3,0.7-0.4,1.1l-0.1,0.3l-0.1,0.2v0.1l0.1,0.1l0.4,0.4c0.3,0.2,0.4,0.3,0.5,0.4
								c0.4,0.3,0.7,0.4,1.1,0.7c0.4,0.2,0.8,0.3,1.2,0.4c0.4,0.1,0.8,0.2,1.2,0.3c1.6,0.3,3.1,0.3,4.6,0.1c0.4-0.1,0.7-0.1,1.1-0.2
								c0.2-0.1,0.4-0.1,0.5-0.2s0.4-0.1,0.5-0.2c0.4-0.1,0.7-0.3,1-0.4c0.2-0.1,0.4-0.2,0.4-0.3l0.3-0.2l0.1-0.1
								c0.3-0.2,0.5-0.3,0.7-0.5c0.4-0.4,0.6-0.7,0.7-1c0.3-0.5,0.3-1,0.1-1.4c-0.1-0.4-0.4-0.7-0.5-1
								C194.1,191.2,193.5,190.9,192.8,190.6z"/>
						</g>
					</g>
				</g>
				<g>
					<path class="st2" d="M184.5,175.9c0,6.7-1.1,13-3,18.7c-0.9-1-1.5-2.3-1.2-3.9v-24.5c0,0,1.2-1.8,2.8-3.7
						C184,166.6,184.5,171.2,184.5,175.9z"/>
					<g>
						<g>
							<path class="st2" d="M184.5,175.9c-0.4,1.4-0.6,2.3-0.7,3.9c0,0.2-0.1,0.6-0.1,1c0,0.2-0.1,0.4-0.1,0.7
								c0,0.2-0.1,0.4-0.1,0.6s-0.1,0.4-0.1,0.6c-0.1,0.4-0.1,0.8-0.2,1.3c-0.3,1.7-0.5,3.5-1,5.3c-0.3,1-0.4,1.8-0.7,2.8
								c-0.1,0.5-0.3,1-0.4,1.4l-0.1,0.2l0,0l0,0l0,0l0,0l0,0l0,0c0,0,0,0,0-0.1c-0.1-0.1-0.1-0.2-0.2-0.3c-0.2-0.4-0.3-0.8-0.4-1.3
								c0-0.2-0.1-0.4,0-0.7c0-0.1,0-0.2,0-0.3v-0.2c0,0,0-0.1,0-0.2v-0.1c0-0.4,0-0.9,0-1.3c0-1.7,0-3.3,0-4.7c0-2.7,0-4.4,0-4.4
								s0-1.8,0-4.4c0-1.4,0-2.9,0-4.7c0-0.9,0-1.8,0-2.7c0-0.4,0-1,0-1.4c0-0.3,0-0.5,0-0.7l0,0c0,0,0,0,0.1-0.1l0.3-0.3
								c0.3-0.4,0.5-0.8,0.9-1.3l0.4-0.6l0.3-0.4c0-0.1,0,0,0,0l0,0l0.1,0.7c0.2,1,0.4,1.8,0.5,2.7c0.1,0.4,0.1,0.9,0.2,1.3
								c0,0.2,0.1,0.4,0.1,0.7c0,0.2,0.1,0.4,0.1,0.6c0.1,1.1,0.2,2,0.3,2.4C184,173.6,184.2,174.5,184.5,175.9
								c0.4-1.4,0.5-2.3,0.5-3.9c0-0.4-0.1-1.3-0.3-2.4c0-0.2-0.1-0.4-0.1-0.6c0-0.2-0.1-0.4-0.1-0.7c-0.1-0.4-0.1-0.9-0.2-1.4
								c-0.1-1-0.3-1.8-0.5-2.8c-0.1-0.3-0.1-0.6-0.2-0.8c-0.1-0.5-0.3-1-0.4-1.4l-0.2-0.7v-0.1v-0.1c0,0,0-0.1,0,0l-0.1,0.2
								l-0.3,0.3l-0.9,1.1l-0.4,0.5l-0.3,0.3l-0.4,0.7c-0.3,0.4-0.6,0.8-0.9,1.3l-0.3,0.3l-0.2,0.3c-0.1,0.1-0.1,0.1-0.1,0.2v0.2
								c0,0.3,0,0.5,0,0.7c0,0.5,0,1,0,1.4c0,1,0,1.8,0,2.7c0,1.7,0,3.3,0,4.7c0,2.7,0,4.4,0,4.4s0,1.8,0,4.4c0,1.4,0,2.9,0,4.7
								c0,0.4,0,0.9,0,1.3v0.1v0.1v0.2c0,0.1,0,0.3,0,0.4c0,0.3,0,0.5,0.1,0.7c0.1,0.5,0.2,1,0.4,1.5c0.1,0.2,0.1,0.3,0.2,0.4
								c0,0,0.1,0.1,0.1,0.2l0.1,0.2c0.1,0.1,0.1,0.2,0.3,0.3c0.3,0.4,0.6,0.7,0.9,1c0.1,0.1,0.2,0.2,0.3,0.3l0.1-0.3l0.3-0.7
								l0.3-0.7l0.1-0.3c0-0.1,0.1-0.1,0.1-0.1v-0.1c0.2-0.5,0.3-1,0.4-1.4c0.3-1,0.5-1.9,0.7-2.8c0.4-1.9,0.8-3.7,1-5.4
								c0.1-0.4,0.1-0.8,0.2-1.3c0-0.2,0.1-0.4,0.1-0.6c0-0.2,0.1-0.4,0.1-0.6c0-0.3,0.1-0.5,0.1-0.7c0.1-0.4,0.1-0.7,0.1-1
								C185,178.2,184.9,177.3,184.5,175.9z"/>
						</g>
					</g>
				</g>
				<g>
					<path class="st2" d="M180.2,190.6v-24.5c0,0,1.2-1.8,2.8-3.7c-1.8-6.3-4.6-13.5-9.1-19.3c-5.4-6.8-12.6-10.9-20.5-11.1
						c-0.3,0-0.4,0-0.7,0c-1.6,0-3.2,0.2-4.8,0.5c-3.8,3.5-9.7,6.1-13,9.6c-4.4,4.3,2,8.2,2.4,12.6c0,2.2-4.9,3.9-5.3,5.2
						c-0.5,1.3-0.4,2.4,0.4,3.5c3-1.3,9.8-3.1,16,0.7H133c2.3,2.5,7.6,3.7,11.7,4.1c0.5,0-1,0.4-1,1.3c-2.9,0-5.3,2.2-6.3,4.8
						c5.8,0.9,9.7,5.6,8.2,10.9c0.5,0,1.5,0,1.5,0c1,4.3-3.8,8.2,3.4,10c1.5,0.4,3.8,0,4.4,0.9c2.4,3-1.5,4.3-4.4,6.1
						c-2,1.3-0.5,2.2-1,3c1.5,0.4,1.5,2.2,2.9,2.6c-0.1,0.2-0.2,0.4-0.3,0.6c0.3,0,0.4,0,0.7,0c8.6,0,16.8-1.4,24.3-3.9
						c1.8-2.9,3.3-6.2,4.5-9.6C180.6,193.7,180.1,192.4,180.2,190.6z"/>
					<g>
						<g>
							<path class="st2" d="M180.2,190.6c0.4-1.3,0.5-2.1,0.5-3.5v-4.5v-9.3v-4.8v-1.3v-0.7v-0.4c0-0.1,0,0,0-0.1
								c0.5-0.7,1-1.4,1.5-2.1c0.3-0.4,0.5-0.7,0.8-1l0.3-0.4c0.1-0.1,0.2-0.2,0.3-0.3l-0.1-0.3l-0.3-0.7c-0.3-0.8-0.5-1.7-0.8-2.5
								c-0.5-1.7-1.2-3.4-1.9-5c-1.4-3.3-3.1-6.6-5.2-9.7c-0.5-0.8-1.1-1.6-1.8-2.3c-0.6-0.7-1.2-1.4-2-2.1
								c-1.4-1.4-2.9-2.6-4.5-3.7c-3.2-2.3-7-3.8-11-4.4c-2-0.3-4-0.3-6-0.1c-0.5,0.1-1,0.2-1.5,0.2l-0.4,0.1l-0.4,0.1l-0.2,0.1
								l-0.1,0.1l-0.2,0.2l-0.3,0.3c-0.7,0.6-1.4,1.1-2.1,1.7c-2.9,2.1-6.1,3.8-8.9,6.2c-0.7,0.6-1.3,1.2-1.9,1.8
								c-0.6,0.7-1.1,1.5-1.2,2.3c-0.3,0.8-0.1,1.7,0.1,2.5c0.3,0.8,0.6,1.5,1,2.2c0.8,1.4,1.6,2.6,2.2,3.8c0.2,0.3,0.3,0.7,0.4,1
								c0.1,0.2,0.1,0.3,0.1,0.5l0.1,0.3v0.1c0,0.1,0,0,0,0.1c0,0.5-0.4,1-0.9,1.5c-1,0.9-2.2,1.6-3.3,2.4c-0.3,0.2-0.5,0.4-0.8,0.7
								c-0.1,0.1-0.1,0.2-0.2,0.3c-0.1,0.1-0.1,0.1-0.1,0.2l-0.1,0.2c-0.1,0.2-0.1,0.3-0.2,0.5c-0.2,0.7-0.2,1.3,0,2
								c0.1,0.2,0.1,0.3,0.2,0.4l0.1,0.3c0.1,0.1,0.1,0.2,0.2,0.3c0.2,0.3,0.3,0.5,0.4,0.7l0.9-0.4c0.6-0.2,1.1-0.4,1.6-0.6
								c1.1-0.3,2.1-0.6,3.1-0.7c3.2-0.4,5.8,0.1,7.4,0.7c0.4,0.2,0.8,0.3,1.1,0.4l0.1,0.1l0,0l0,0H146h-7.4H136h-1.4h-0.2h-0.3
								h-0.4l-1.3,0.1h-0.7h-0.1h-0.1c0,0,0,0,0,0.1l0.1,0.1l0.3,0.3l0.4,0.4l0.5,0.4l0.5,0.4l0.4,0.2c0.3,0.2,0.4,0.3,0.7,0.4
								c0.9,0.6,1.9,1,2.9,1.3c2.1,0.7,4.4,1.2,6.9,1.4h0.1h0.1c0.1,0,0,0,0.1,0c0,0,0,0,0-0.1v-0.2c0-0.1,0-0.1,0-0.1s0-0.1,0-0.1
								v-0.1c0-0.1,0.1-0.1,0-0.1c0,0-0.1,0-0.1-0.1l-0.1-0.1l-0.1-0.1c-0.1-0.1-0.1-0.1-0.1-0.1l0,0l0,0l-0.1,0.1
								c-0.1,0.1-0.3,0.2-0.4,0.3c-0.1,0.1-0.3,0.3-0.4,0.4c-0.1,0.1-0.1,0.2-0.2,0.3l-0.1,0.1l0,0h-0.2l-0.3,0.1
								c-0.4,0.1-0.7,0.1-1.1,0.2c-1.3,0.4-2.5,1.2-3.4,2.2l0,0c-0.4,0.5-0.8,1-1.2,1.6c-0.1,0.2-0.2,0.3-0.3,0.5
								c-0.1,0.3-0.3,0.7-0.4,1l-0.1,0.1v0.1c0,0,0,0,0.1,0h0.1l0.3,0.1l0.5,0.1l0.3,0.1l0.1,0.1l0.3,0.1c0.7,0.2,1.4,0.4,2,0.7
								c1.3,0.6,2.4,1.5,3.4,2.5c0.8,1,1.3,2.1,1.6,3.2c0.1,0.6,0.2,1.2,0.2,1.8c0,0.3-0.1,0.6-0.1,1l-0.1,0.3l-0.1,0.3l-0.3,1
								c0,0.1,0,0,0.1,0h0.1h0.1h0.3h0.5h0.6l0,0v0.2c0.1,0.6,0,1.3-0.1,1.8c-0.1,0.7-0.3,1.3-0.4,1.9c-0.2,0.7-0.4,1.3-0.4,2.1
								c0,0.5,0.1,1,0.4,1.5c0.4,0.7,0.9,1.2,1.5,1.5c0.7,0.4,1.3,0.6,2,0.8c0.4,0.1,0.6,0.2,1.1,0.3c0.4,0.1,0.7,0.1,1.1,0.2
								c0.7,0.1,1.4,0.1,2,0.2c0.3,0.1,0.5,0.2,0.6,0.3c0.2,0.3,0.4,0.4,0.5,0.7c0.3,0.5,0.4,1,0.2,1.4c-0.2,0.4-0.6,0.9-1.1,1.3
								c-0.5,0.4-1.1,0.7-1.6,1c-0.6,0.4-1.2,0.7-1.8,1c-0.2,0.1-0.4,0.2-0.5,0.3c-0.2,0.1-0.3,0.3-0.4,0.4c-0.3,0.3-0.5,0.6-0.7,1
								c-0.1,0.4,0,0.8,0.1,1.1c0.1,0.2,0.1,0.3,0.1,0.4v0.1c0,0,0,0.1-0.1,0.2c-0.1,0.2-0.2,0.4-0.3,0.5c-0.1,0.1,0,0.1,0.1,0.1
								l0.1,0.1l0.3,0.1c0.1,0.1,0.2,0.1,0.3,0.1c0.1,0.1,0.2,0.1,0.2,0.1c0.1,0.1,0.3,0.2,0.3,0.3c0.2,0.2,0.4,0.4,0.5,0.7
								c0.2,0.3,0.4,0.6,0.6,0.8c0.1,0.2,0.3,0.3,0.4,0.4l0.1,0.1l0.1,0.1l0,0l0,0L151,208v0.1c0.3,0.3-0.5-0.7,0.5,0.7l0,0l0,0h0.1
								h0.1c0.4,0,0.7,0,1.1,0c1.4,0,2.7-0.1,4.2-0.2c1.5-0.1,2.9-0.2,4.4-0.4l0.8-0.1l0,0c3.5-0.4,6.8-1.1,10.1-2
								c0.8-0.3,1.6-0.4,2.4-0.7l1.2-0.4l0.6-0.2l0.4-0.2c0.1,0,0.1-0.1,0.1-0.1l0.1-0.1l0.1-0.2c0.8-1.3,1.5-2.6,2.1-4
								c0.7-1.3,1.2-2.7,1.7-4l0.1-0.4l0.2-0.5l0.2-0.5l0.1-0.4v-0.1l-0.1-0.1l-0.1-0.1l-0.1-0.2l-0.1-0.2l-0.1-0.1l-0.1-0.1
								c-0.1-0.1-0.1-0.2-0.2-0.2c-0.4-0.6-0.6-1-0.8-1.5C180.5,191.7,180.4,191.2,180.2,190.6c-0.3,0.6-0.4,1.1-0.4,1.7
								s0.2,1.3,0.7,1.9c0.1,0.1,0.1,0.2,0.2,0.3l0.2,0.2l0,0l-0.1,0.4l-0.2,0.5l-0.1,0.4c-0.5,1.3-1.1,2.6-1.7,3.9
								c-0.6,1.3-1.3,2.6-2,3.9l-0.1,0.1l0,0l-0.1,0.1l-0.6,0.2l-1.2,0.4c-0.8,0.3-1.6,0.5-2.4,0.7c-3.2,0.9-6.5,1.5-10,2l0,0
								l-0.7,0.1c-1.4,0.2-2.9,0.3-4.4,0.4c-1.4,0.1-2.7,0.2-4,0.2c-0.4,0-0.7,0-1.1,0h-0.1h0.1l0,0l0,0c1,1.3,0.3,0.4,0.5,0.7v-0.1
								l0.2-0.4l0.2-0.4c0-0.1,0.1-0.2,0.1-0.2l-0.3-0.1c-0.2-0.1-0.4-0.1-0.5-0.2l-0.1-0.1l-0.1-0.1c-0.1-0.1-0.3-0.2-0.3-0.3
								c-0.2-0.2-0.4-0.4-0.5-0.7c-0.2-0.3-0.4-0.6-0.7-0.8c-0.2-0.2-0.4-0.3-0.5-0.4l-0.1-0.1l0,0l0,0l0,0v-0.1c0-0.1,0-0.1,0-0.2
								c0-0.2-0.1-0.4-0.1-0.6c-0.1-0.3-0.1-0.6-0.1-0.7c0.1-0.4,0.5-0.8,1.1-1.1c0.5-0.4,1.2-0.7,1.8-1c0.6-0.4,1.2-0.7,1.8-1.1
								c0.5-0.4,1.2-1,1.4-1.7c0.2-0.4,0.3-0.7,0.2-1.1c-0.1-0.4-0.2-0.7-0.4-1c-0.2-0.3-0.4-0.6-0.6-0.9c-0.2-0.2-0.4-0.4-0.6-0.4
								c-0.3-0.1-0.4-0.2-0.6-0.2c-0.8-0.2-1.4-0.1-2-0.2c-0.4,0-0.7-0.1-0.9-0.1c-0.3-0.1-0.7-0.2-0.9-0.3
								c-1.2-0.4-2.4-0.9-2.9-1.8c-0.2-0.4-0.3-0.7-0.3-1.1c0-1.3,0.5-2.5,0.7-3.8c0.1-0.7,0.2-1.4,0.1-2.1v-0.2c0-0.1,0-0.1,0-0.2
								l-0.1-0.5l-0.1-0.3c0-0.1-0.1-0.1-0.1-0.1h-0.1H147h-0.5l0,0c0,0.1,0-0.1,0.1-0.2l0.1-0.3c0.1-0.4,0.1-0.7,0.1-1
								c0-0.7-0.1-1.4-0.2-2c-0.3-1.3-0.9-2.5-1.8-3.6c-1-1.3-2.3-2.2-3.7-2.8c-0.7-0.4-1.5-0.6-2.2-0.8l-0.4-0.1l0,0l0,0
								c0.1-0.1,0.1-0.3,0.3-0.4c0.3-0.6,0.6-1,1.1-1.4l0,0c0.8-0.9,1.8-1.6,2.9-1.8c0.3-0.1,0.5-0.2,0.8-0.2h0.3h0.4h0.5h0.1
								c0.1,0,0-0.1,0-0.1v-0.3c0-0.2,0.1-0.4,0.1-0.3c0-0.1,0.1-0.1,0.1-0.1c0.1-0.1,0.1-0.2,0.3-0.3c0.1-0.1,0.3-0.2,0.4-0.3
								l0.1-0.1c0.1-0.1,0.1-0.1,0.2-0.2c0,0,0-0.1,0.1-0.1c0.1-0.1,0.1-0.1,0.1-0.2c0-0.2-0.1-0.3-0.1-0.4
								c-0.1-0.1-0.3-0.2-0.3-0.2c-0.1,0-0.1-0.1-0.1-0.1h-0.1c-0.1,0-0.1,0-0.1,0c0,0-0.1,0-0.1,0c-2.4-0.2-4.6-0.7-6.6-1.3
								c-1-0.4-2-0.7-2.8-1.3c-0.3-0.1-0.4-0.3-0.6-0.4l-0.4-0.2l0,0h4.4h7.4l3.5-0.1h0.3c0.1,0,0,0,0,0l-0.1-0.1l-0.1-0.1l-0.4-0.2
								l-0.3-0.2c0,0-0.4-0.2-1.1-0.7c-0.2-0.1-0.4-0.2-0.7-0.4c-0.1-0.1-0.3-0.2-0.4-0.2c-0.1-0.1-0.4-0.2-0.4-0.2
								c-0.4-0.2-0.7-0.3-1.2-0.4c-1.8-0.7-4.5-1.2-8-0.7c-1.1,0.2-2.2,0.4-3.3,0.7c-0.5,0.2-1.2,0.4-1.7,0.6l0,0l-0.1-0.1l-0.1-0.2
								c-0.1-0.1-0.1-0.3-0.1-0.4c-0.1-0.5-0.1-1,0-1.6c0.1-0.2,0.1-0.3,0.1-0.4l0.1-0.1v-0.1c0-0.1,0.1-0.1,0.1-0.2
								c0.2-0.2,0.4-0.4,0.7-0.6c1.1-0.8,2.3-1.5,3.4-2.4c0.3-0.3,0.5-0.6,0.8-0.9s0.4-0.7,0.4-1.2c0-0.1,0-0.2,0-0.2v-0.2l-0.1-0.3
								c-0.1-0.2-0.1-0.4-0.1-0.6c-0.1-0.4-0.3-0.7-0.4-1.1c-0.6-1.4-1.5-2.6-2.2-3.9c-0.7-1.3-1.4-2.7-1.1-4
								c0.2-0.7,0.5-1.3,1.1-1.9c0.5-0.6,1.2-1.2,1.8-1.7c2.6-2.1,5.8-3.9,8.8-6.1c0.8-0.6,1.5-1.1,2.2-1.7c0.2-0.2,0.4-0.4,0.4-0.3
								l0.3-0.1l0.4-0.1c0.5-0.1,0.9-0.2,1.4-0.2c1.9-0.2,3.8-0.2,5.7,0.1c3.8,0.6,7.4,2.1,10.6,4.2c1.6,1.1,3,2.3,4.4,3.6
								c1.3,1.3,2.6,2.7,3.6,4.2c2.1,3,3.7,6.3,5.2,9.6c0.7,1.7,1.3,3.3,1.9,4.9c0.3,0.8,0.5,1.7,0.8,2.5l0.2,0.6l0,0l0,0l-0.1,0.1
								l-0.1,0.2c-0.3,0.4-0.5,0.7-0.8,1.1c-0.5,0.7-1.1,1.4-1.5,2.2l-0.2,0.3c-0.1,0.1,0,0.3,0,0.3v0.3v0.7v1.3v4.8v9.3v4.5
								C179.7,188.6,179.9,189.4,180.2,190.6z"/>
						</g>
					</g>
				</g>
				<g>
					<path class="st2" d="M149.5,205c0.5-0.9-1-1.8,1-3c2.9-1.8,6.8-3,4.4-6.1c-0.5-0.9-2.9-0.4-4.4-0.9c-7.3-1.8-2.4-5.6-3.4-10
						c0,0-1,0-1.5,0c1.5-5.2-2.4-10-8.2-10.9c1-2.6,3.4-4.8,6.3-4.8c0-0.9,1.5-1.3,1-1.3c-4-0.3-9.3-1.6-11.7-4.1h-2.2
						c0,0,0.6-0.4,1.6-0.7c-0.7-1-0.8-2.1-0.4-3.5c0.5-1.3,5.3-3,5.3-5.2c-0.5-4.3-6.8-8.2-2.4-12.6c3.3-3.6,9.2-6.2,13-9.6
						c-11.2,2.4-20.6,12.9-24.7,27.2c-0.1,0.3-0.2,0.7-0.3,1c1.8,2.1,3.1,4.1,3.1,4.1v24.5c0.3,2.3-0.7,3.8-2.3,4.8
						c1.2,3.7,2.8,7.1,4.6,10.2c7.3,2.5,15.3,3.9,23.8,4c0.1-0.2,0.2-0.4,0.3-0.6C150.9,207.2,150.9,205.4,149.5,205z"/>
					<g>
						<path class="st2" d="M149.5,205c0.3-0.3,0.3-0.6,0.3-0.9s0-0.6,0.1-0.7c0.1-0.2,0.2-0.4,0.4-0.6c0.2-0.2,0.4-0.4,0.7-0.6
							l0.7-0.4l0.5-0.3l0.4-0.3c0.6-0.4,1.2-0.7,1.9-1.1c0.6-0.4,1.2-1,1.6-1.7c0.2-0.4,0.3-0.8,0.3-1.3c-0.1-0.5-0.3-0.8-0.4-1.2
							c-0.1-0.2-0.3-0.4-0.4-0.5l-0.1-0.1v-0.1l0,0c0-0.1-0.1-0.1-0.1-0.1c-0.1-0.2-0.3-0.3-0.4-0.3c-0.5-0.3-0.9-0.4-1.4-0.4
							c-0.8-0.1-1.6-0.1-2.3-0.2c-0.2-0.1-0.4-0.1-0.5-0.1c-0.3-0.1-0.4-0.1-0.6-0.2c-0.4-0.1-0.8-0.3-1.1-0.4
							c-0.7-0.3-1.3-0.7-1.7-1.2c-0.4-0.6-0.4-1.2-0.4-1.9c0.2-1.4,0.8-2.9,0.8-4.6c0-0.2,0-0.4,0-0.7c0-0.1,0-0.2-0.1-0.3
							c0-0.1,0-0.2-0.1-0.3l-0.1-0.3c0.1-0.6-0.5-0.4-0.9-0.4h-0.5l0,0l0.1-0.3c0.1-0.4,0.1-0.8,0.1-1.3c0.1-1.7-0.4-3.4-1.4-4.8
							c-1-1.5-2.4-2.6-4.1-3.5c-0.8-0.4-1.8-0.7-2.7-0.9l-0.2-0.1l0,0l0.1-0.2c0.1-0.1,0.1-0.2,0.2-0.3c0.1-0.2,0.3-0.4,0.4-0.5
							c0.7-1.1,1.8-2.1,3.1-2.6c0.4-0.2,0.7-0.3,1-0.3c0.2-0.1,0.4-0.1,0.5-0.1h0.2h0.3h0.3h0.2h0.1v-0.1c0-0.2,0-0.4,0.1-0.6
							c0-0.1,0.1-0.1,0.1-0.2c0.1-0.1,0.2-0.2,0.3-0.3c0.1-0.1,0.1-0.1,0.3-0.2c0.1-0.1,0.1-0.1,0.3-0.2c0,0,0,0,0.1-0.1
							c0-0.1,0,0,0.1-0.1c0-0.1,0.1-0.1,0.1-0.1v-0.1c0,0,0-0.1,0-0.1c0-0.1,0-0.2-0.1-0.3c-0.1-0.1-0.1-0.1-0.1-0.2
							c-0.1,0-0.1-0.1-0.1-0.1h-0.1c0,0-0.1,0-0.1-0.1c-0.1,0-0.1,0-0.1,0c-0.1,0-0.1,0-0.1,0h-0.1h-0.3c-0.7-0.1-1.3-0.2-2-0.3l0,0
							c-2.6-0.4-5.1-1.1-7.2-2.4c-0.5-0.3-1.1-0.7-1.4-1c-0.1-0.1-0.1-0.1-0.2-0.2l-0.2-0.2l-0.1-0.1l-0.1-0.1h-0.1h-0.6h-1h-0.5
							h-0.3h-0.1c-0.1-0.2,0.5,1.7,0.3,0.9l0,0l0,0l0,0l0.1-0.1l0.1-0.1c0.3-0.2,0.5-0.3,0.8-0.4l0.4-0.2l0.4-0.2l0.3-0.1
							c0.1-0.1,0.3-0.1,0.1-0.1l-0.3-0.4c-0.1-0.2-0.2-0.3-0.3-0.4c0-0.1-0.1-0.1-0.1-0.2c-0.1-0.1-0.1-0.3-0.1-0.4l0,0
							c-0.2-0.5-0.2-1-0.1-1.5c0.1-0.2,0.1-0.3,0.1-0.4l0.1-0.2c0-0.1,0.1-0.1,0.1-0.2c0.2-0.2,0.4-0.4,0.7-0.7
							c0.5-0.4,1.2-0.8,1.8-1.2s1.2-0.8,1.7-1.3c0.5-0.5,1.1-1.1,1.2-2c0-0.1,0-0.1,0-0.2c0-0.1,0-0.2,0-0.2s0-0.2-0.1-0.3
							c-0.1-0.2-0.1-0.4-0.1-0.5c-0.1-0.4-0.3-0.7-0.4-1c-0.3-0.7-0.5-1.2-0.9-1.8c-0.7-1.1-1.3-2.1-1.9-3.2c-0.6-1-0.9-2.1-0.7-3.1
							c0.1-1,0.7-1.8,1.5-2.6c1.5-1.6,3.3-2.8,4.9-3.8c1.6-1.1,3.2-2.1,4.6-3c0.4-0.3,0.7-0.5,1-0.7l0.5-0.4l0.6-0.4l0.8-0.7
							l0.7-0.7l0.7-0.6l0.4-0.3l0.2-0.2l0.1-0.1l0,0l0,0h-0.1l-1.6,0.4l-0.8,0.2h-0.5l-0.4,0.1l-0.8,0.2l-0.4,0.2l-0.7,0.3
							c-0.8,0.3-1.4,0.6-1.8,0.7l-0.4,0.2c0,0-0.7,0.3-1.8,0.9c-1.2,0.7-2.7,1.6-4.5,3.1c-1.8,1.5-3.8,3.4-5.7,5.9
							c-1.9,2.5-3.7,5.4-5.2,8.8c-0.8,1.7-1.5,3.5-2,5.4c-0.2,0.5-0.4,1-0.4,1.4l-0.3,0.7l-0.1,0.4l-0.1,0.3l-0.1,0.2
							c0,0.1,0.1,0.1,0.1,0.2l0.4,0.4l0.3,0.3l0.5,0.6c0.4,0.4,0.7,0.8,0.9,1.3c0.4,0.4,0.6,0.9,0.9,1.3l0.1,0.2l0,0v0.3v0.8v3.2
							v6.5v13.4v0.2v0.2v0.1c0,0.2,0,0.3,0,0.4c0,0.3,0,0.6-0.1,0.8c-0.1,0.6-0.3,1-0.5,1.5c-0.3,0.4-0.6,0.8-1.1,1.2l-0.2,0.2
							l-0.1,0.1l-0.3,0.2c-0.1,0.1-0.3,0.2-0.4,0.3l0.1,0.4l0.4,1c0.8,2.2,1.7,4.3,2.7,6.4c0.4,0.7,0.7,1.3,1.1,2l0.3,0.5l0.2,0.3
							l0.1,0.2l0.1,0.1c0,0.1,0.1,0.1,0.1,0.1l1.2,0.4c1.5,0.5,3,1,4.6,1.3c3,0.8,6.1,1.4,9.2,1.7c1.5,0.2,3,0.4,4.5,0.4
							c0.8,0.1,1.5,0.1,2.2,0.1l1.1,0.1h0.6h0.7h0.3h0.1c0.1,0,0.1-0.1,0.1-0.1l0.3-0.6l0.3-0.7c0.1-0.1-0.1-0.1-0.1-0.1l-0.2-0.1
							c-0.1-0.1-0.3-0.1-0.3-0.1l-0.2,0.5c-0.1,0-0.1-0.1-0.1-0.1c-0.1,0-0.1-0.1-0.1-0.1c-0.1-0.1-0.1-0.1-0.2-0.1
							c-0.1-0.1-0.3-0.2-0.4-0.3l-0.6-0.7c-0.3-0.2-0.4-0.4-0.7-0.6C150.2,205.1,149.8,205,149.5,205c0.6,0.4,0.8,0.8,1,1.3
							c0.1,0.3,0.3,0.5,0.4,0.8c0.1,0.2,0.3,0.3,0.4,0.4c0.1,0.1,0.2,0.2,0.3,0.2c0.1,0.1,0.1,0.1,0.2,0.1c0.1,0.1,0,0,0,0l0,0l0,0
							l0,0l0,0l0,0l0,0l0.1-0.2l0,0l0,0l0,0l0,0h-0.4h-0.6l-1.1-0.1c-0.7-0.1-1.4-0.1-2.2-0.1c-1.5-0.1-2.9-0.3-4.4-0.4
							c-2.9-0.4-6-1-9-1.7c-1.5-0.4-3-0.8-4.5-1.3l-1-0.4l-0.4-0.7c-0.4-0.7-0.7-1.3-1.1-1.9c-1.1-2-1.9-4.1-2.7-6.3l-0.3-0.7l0,0
							l0,0l0.1-0.1l0.3-0.2c0.5-0.4,1-1,1.3-1.5c0.3-0.5,0.5-1.2,0.6-1.8c0.1-0.3,0.1-0.7,0.1-1c0-0.2,0-0.3,0-0.4v-0.1
							c0-0.1,0,0,0-0.1v-0.3v-13.2v-6.5v-3.2v-0.8v-0.5v-0.1c0-0.1-0.1-0.1-0.1-0.1l-0.1-0.2l-0.1-0.2c-0.3-0.4-0.6-0.9-0.9-1.3
							c-0.4-0.4-0.7-0.9-1-1.3l-0.5-0.7l-0.4-0.5l0,0l0,0l0.1-0.4l0.3-0.7c0.2-0.5,0.3-1,0.4-1.4c0.6-1.8,1.3-3.6,2-5.2
							c1.5-3.3,3.3-6.2,5.1-8.6c1.9-2.4,3.8-4.3,5.5-5.8c1.8-1.4,3.3-2.4,4.4-3c1.1-0.6,1.7-0.8,1.7-0.8l0.4-0.2
							c0.4-0.2,0.9-0.4,1.6-0.7l0.7-0.2l0.4-0.1l0,0l0,0l-0.3,0.2l-0.4,0.4c-0.4,0.3-0.7,0.4-1,0.7c-1.4,1-2.9,1.9-4.6,3
							c-1.6,1.1-3.5,2.4-5.1,4c-0.8,0.8-1.6,1.8-1.8,3.1c-0.2,1.3,0.3,2.5,0.8,3.5c0.5,1.1,1.2,2.1,1.9,3.2c0.4,0.6,0.6,1.1,0.8,1.6
							c0.1,0.3,0.3,0.6,0.3,0.8c0.1,0.2,0.1,0.3,0.1,0.4c0,0.1,0,0.2,0.1,0.2c0,0.1,0,0.1,0,0.1c0,0.1,0,0.1,0,0.1
							c-0.1,0.4-0.4,1-0.9,1.4c-0.4,0.4-1.1,0.8-1.6,1.3c-0.6,0.4-1.2,0.8-1.8,1.3c-0.3,0.3-0.6,0.4-0.9,0.8
							c-0.1,0.1-0.1,0.2-0.2,0.3c-0.1,0.1-0.1,0.2-0.1,0.3c-0.1,0.2-0.1,0.4-0.2,0.6c-0.1,0.7-0.1,1.3,0.1,2l0,0
							c0.1,0.2,0.1,0.3,0.2,0.4c0.1,0.1,0.1,0.2,0.1,0.3l0,0l0,0l-0.1,0.1c-0.3,0.2-0.6,0.3-0.9,0.4l-0.1,0.1l-0.1,0.1l0,0l0,0l0,0
							c-0.3-0.8,0.4,1.1,0.3,0.9h0.1h0.3h0.5h1h0.3l0,0c0,0.1,0.1,0.1,0.2,0.2c0.5,0.4,1.1,0.8,1.6,1.2c1.2,0.7,2.4,1.2,3.7,1.6
							c1.3,0.4,2.6,0.7,3.9,1l0,0c0.7,0.1,1.4,0.2,2,0.3l0.3,0.1h0.1h0.1h0.1l0,0c0,0,0,0,0-0.1v-0.2c0-0.1,0-0.1,0-0.1
							c0-0.1,0-0.1,0.1-0.2c0.1,0-0.1,0-0.3-0.2c-0.1-0.1-0.1-0.1-0.1-0.1c0-0.1,0,0,0,0l0,0l-0.1,0.1l-0.1,0.1
							c-0.1,0.1-0.2,0.1-0.3,0.2c-0.2,0.2-0.4,0.3-0.5,0.5c-0.1,0.1-0.2,0.2-0.2,0.4l0,0l0,0h-0.2c-0.3,0-0.4,0.1-0.7,0.1
							c-0.4,0.1-0.8,0.2-1.2,0.4c-1.5,0.7-2.7,1.7-3.6,3c-0.1,0.2-0.3,0.4-0.4,0.6c-0.1,0.1-0.1,0.2-0.2,0.3l-0.2,0.4l-0.3,0.6
							l-0.1,0.3l-0.1,0.1c0,0-0.1,0.1,0,0.1l0.2,0.1l0.7,0.1l0.4,0.1l0.2,0.1c0.8,0.2,1.6,0.4,2.4,0.8c1.5,0.7,2.8,1.8,3.7,3.1
							c0.9,1.3,1.3,2.8,1.3,4.3c0,0.4-0.1,0.7-0.1,1.1l-0.1,0.3c-0.1,0.2-0.1,0.4-0.2,0.6l-0.1,0.3l-0.1,0.2v0.1h0.1h0.7h0.9l0,0
							v0.1c0,0.1,0,0.2,0.1,0.3c0,0.2,0,0.4,0,0.6c0,0.7-0.2,1.5-0.4,2.2c-0.2,0.7-0.4,1.5-0.5,2.3c-0.1,0.4-0.1,0.8,0,1.3
							c0.1,0.4,0.3,0.9,0.5,1.3c0.5,0.8,1.4,1.3,2.1,1.6c0.4,0.2,0.8,0.3,1.2,0.4c0.3,0.1,0.4,0.1,0.6,0.2s0.4,0.1,0.7,0.2
							c0.9,0.2,1.7,0.1,2.4,0.2c0.4,0.1,0.7,0.1,0.9,0.2c0.1,0.1,0.1,0.1,0.1,0.1l0,0l0.1,0.1v0.1l0.1,0.1c0.1,0.2,0.2,0.3,0.3,0.4
							c0.4,0.6,0.4,1.1,0.2,1.6c-0.3,0.5-0.8,1-1.3,1.3c-0.5,0.4-1.2,0.7-1.8,1.1l-0.4,0.3l-0.5,0.3c-0.3,0.2-0.5,0.3-0.7,0.4
							c-0.4,0.3-0.7,0.5-0.9,0.8c-0.3,0.3-0.4,0.7-0.4,1s0.2,0.6,0.3,0.9C149.5,204.5,149.5,204.7,149.5,205z"/>
					</g>
				</g>
				<g>
					<path class="st2" d="M183,162.4c-1.8-6.3-4.6-13.5-9.1-19.3C178.1,148.2,181.2,154.9,183,162.4z"/>
					<g>
						<path class="st2" d="M183,162.4c0-1.3-0.1-2.1-0.5-3.5l-0.3-0.8l-0.3-0.6l-0.5-1.3c-0.7-1.9-1.6-4.1-2.7-6.2s-2.2-3.9-3.1-5.3
							c-0.4-0.7-0.9-1.3-1.2-1.6l-0.2-0.3l0,0l0,0c0.2-0.1-1.6,1-0.9,0.6l0,0l0,0v0.1l0.1,0.1l0.1,0.1l0.1,0.2c0,0,0.7,0.8,1.6,2.1
							c0.9,1.3,2,3.2,3,5.2c1.1,2,1.9,4.2,2.6,6.1c0.4,1,0.5,1.7,0.7,2.1C181.9,160.5,182.4,161.2,183,162.4c0.1-1.3,0-2.1-0.4-3.5
							c-0.1-0.4-0.4-1.2-0.7-2.1c-0.7-1.8-1.6-4.1-2.6-6.2c-1.1-2.1-2.2-3.9-3.1-5.3c-0.9-1.4-1.6-2.2-1.6-2.2l-0.1-0.2l-0.1-0.1
							l-0.1-0.1v-0.1l0,0l0,0c0.8-0.5-1.1,0.7-0.9,0.6l0,0l0,0l0.2,0.3c0.3,0.4,0.7,1,1.2,1.6c0.9,1.3,2,3.2,3,5.2
							c1.1,2,2,4.2,2.7,6.1l0.5,1.3l0.3,0.6l0.3,0.8C181.9,160.5,182.3,161.3,183,162.4z"/>
					</g>
				</g>
				<g>
					<path class="st2" d="M128.4,204.2c5,8.2,12,13.8,20.1,15.3c0.4-3.9,2.1-7.7,3.6-11.3C143.7,208.1,135.7,206.6,128.4,204.2z"/>
					<g>
						<path class="st2" d="M128.4,204.2c0.4,1.3,0.7,2.1,1.6,3.2l0.5,0.7l0.4,0.5l0.7,0.8c0.3,0.3,0.5,0.6,0.8,0.9
							c2,2.4,5,4.9,8.2,6.8c1.6,1,3.3,1.7,5,2.1c0.4,0.2,0.8,0.3,1.2,0.4l0.6,0.2l0.3,0.1l0.4,0.1c0.4,0.1,0.8,0.2,1.1,0.2l0.1-1
							l0.1-0.5l0.1-0.4c0.4-2.3,1-3.7,1-3.7s0.5-1.5,1.4-3.7l0.8-1.8l0.4-1l0.1-0.3v-0.1h-0.1h-0.2h-0.6l-1.6-0.1
							c-1.7-0.1-3.5-0.2-5.3-0.4c-1.9-0.2-3.7-0.4-5.5-0.8c-0.9-0.2-1.8-0.4-2.7-0.6l-1.2-0.3l-1.2-0.3c-1.1-0.3-1.9-0.5-2.3-0.6
							C130.7,204.4,129.8,204.3,128.4,204.2c1.2,0.7,2,1.2,3.5,1.6c0.4,0.2,1.2,0.4,2.3,0.7l1.2,0.3l1.3,0.3
							c0.9,0.2,1.8,0.4,2.7,0.6c1.9,0.4,3.7,0.6,5.6,0.8c1.9,0.2,3.7,0.3,5.4,0.4h0.9c0,0,0,0,0,0.1l-0.8,1.8
							c-0.9,2.3-1.4,3.7-1.4,3.7s-0.5,1.5-1.1,3.8l-0.1,0.4l-0.1,0.4l0,0l-0.5-0.1l-0.5-0.2c-0.4-0.1-0.8-0.2-1.2-0.4
							c-1.6-0.5-3.1-1.2-4.7-2.1c-3.1-1.8-5.9-4.2-8-6.5c-0.3-0.3-0.5-0.6-0.7-0.8l-0.7-0.8l-0.4-0.5L131,207
							C130,205.7,129.3,205.1,128.4,204.2z"/>
					</g>
				</g>
				<g>
					<path class="st2" d="M152.8,208.1c-0.3,0-0.4,0-0.7,0c-1.6,3.6-3.2,7.4-3.6,11.3c1.4,0.3,2.8,0.4,4.3,0.4
						c9.7,0,18.5-6.1,24.3-15.6C169.6,206.7,161.4,208.1,152.8,208.1z"/>
					<g>
						<path class="st2" d="M152.8,208.1c-0.2-0.1-0.4-0.1-0.5-0.1l-0.2-0.1h-0.1c-0.1,0-0.1,0.1-0.1,0.1l-0.2,0.3
							c-0.1,0.2-0.2,0.3-0.3,0.4l-0.3,0.4c-0.4,0.5-0.6,1-0.9,1.7l-0.4,0.8l-0.3,0.6l-0.4,1.1c-0.2,0.4-0.3,0.8-0.4,1.3
							c-0.3,0.9-0.5,1.8-0.8,2.7c-0.1,0.5-0.3,1-0.3,1.5l-0.1,0.4l-0.1,0.7c0,0.1-0.1,0.2,0,0.2l0.3,0.1l0.4,0.1l0.4,0.1l0.3,0.1
							c2.2,0.4,4.6,0.4,6.8,0.1c2.2-0.3,4.4-1,6.2-1.7c1.8-0.8,3.4-1.7,4.7-2.5c2.6-1.7,3.9-3.1,3.9-3.1s1.5-1.3,3.4-3.5
							c0.5-0.6,1-1.3,1.5-1.9c0.3-0.4,0.5-0.7,0.8-1.1l0.4-0.6l0.4-0.5l0.4-0.6l0.7-1.2l0.1-0.2l-0.2,0.1l-0.4,0.1l-0.7,0.3
							l-1.5,0.5l-0.8,0.3c-1,0.3-2,0.6-3.1,0.9c-2.1,0.6-4.3,1-6.5,1.4c-1.1,0.2-2.1,0.4-3.1,0.4c-0.5,0.1-1.1,0.1-1.5,0.2l-1.4,0.2
							c-1.1,0.1-2,0.2-2.4,0.2C155.1,207.6,154.1,207.8,152.8,208.1c1.4,0.3,2.3,0.4,3.9,0.4c0.4,0,1.3-0.1,2.4-0.2l1.5-0.2
							c0.5-0.1,1.1-0.1,1.6-0.2c1.1-0.2,2.1-0.3,3.2-0.4c2.2-0.4,4.4-0.8,6.6-1.4c1.1-0.3,2.1-0.6,3.1-0.9l0.8-0.3l0,0l-0.4,0.7
							c-0.3,0.4-0.5,0.7-0.8,1c-0.5,0.7-1,1.3-1.4,1.8c-1.9,2.3-3.3,3.5-3.3,3.5s-1.3,1.3-3.8,3c-1.2,0.8-2.8,1.7-4.5,2.4
							c-1.8,0.7-3.8,1.3-5.9,1.6c-2.1,0.3-4.4,0.3-6.5-0.1L149,219l0,0l0.1-0.4c0.1-0.5,0.2-1,0.3-1.4c0.3-1,0.4-1.8,0.7-2.6
							c0.1-0.4,0.3-0.8,0.4-1.3l0.4-1.1l0.3-0.6l0.4-0.8c0.3-0.7,0.4-1.3,0.6-1.8l0.1-0.4c0-0.1,0.1-0.3,0.1-0.4l0,0
							c0-0.1,0-0.1,0.1-0.1h0.1C152.5,208.2,152.6,208.2,152.8,208.1z"/>
					</g>
				</g>
				<g>
					<path class="st2" d="M153.4,131.9c7.9,0.3,15,4.4,20.5,11.1C169.1,136.8,162.5,132.2,153.4,131.9z"/>
					<g>
						<path class="st2" d="M153.4,131.9c1.4,0.4,2.2,0.6,3.7,0.9c0.3,0.1,0.5,0.1,0.9,0.2l0.7,0.2c0.4,0.1,1.1,0.3,1.5,0.5
							c2.2,0.7,4.6,2,6.6,3.5c2,1.5,3.8,3.1,5,4.4c0.6,0.7,1.1,1.3,1.4,1.6l0.1,0.2l0.1,0.1v0.1c0.4-0.3-0.9,0.6,0.9-0.6l0,0l0,0
							l0,0l0,0l-0.2-0.2l-0.1-0.1c0,0-0.7-1-1.9-2.3c-1.2-1.3-3-3.1-5.2-4.5c-1.1-0.7-2.3-1.4-3.5-2c-1.2-0.6-2.5-1-3.6-1.3
							c-1.1-0.3-2-0.4-2.4-0.6C155.8,131.6,154.8,131.6,153.4,131.9c1.4,0.4,2.2,0.6,3.7,0.8c0.4,0.1,1.2,0.3,2.3,0.6
							c1.1,0.3,2.3,0.7,3.4,1.3s2.3,1.2,3.4,1.9c2.1,1.4,3.8,3.1,5.1,4.3c1.2,1.3,1.9,2.2,1.9,2.2l0.1,0.2l0.2,0.2l0,0l0,0l0,0l0,0
							c1.8-1.1,0.5-0.3,0.9-0.6v-0.1l-0.1-0.1l-0.1-0.2c-0.4-0.4-0.8-1-1.4-1.6c-1.2-1.3-3-3.1-5.2-4.6c-2.1-1.6-4.7-2.8-6.9-3.6
							c-0.3-0.1-0.5-0.2-0.8-0.3l-0.4-0.1l-0.4-0.1l-0.6-0.2c-0.4-0.1-0.8-0.2-1-0.2C155.8,131.6,154.8,131.6,153.4,131.9z"/>
					</g>
				</g>
				<g>
					<path class="st2" d="M130.7,164h2.2c-0.3-0.3-0.4-0.5-0.6-0.7C131.3,163.7,130.7,164,130.7,164z"/>
					<g>
						<path class="st2" d="M130.7,164c0.3,0.3,0.4,0.5,0.7,0.5h2.7l-0.4-0.4l-0.3-0.4l-0.4-0.4c-0.1-0.2-0.3-0.3-0.3-0.4l-0.3-0.4
							l-0.4,0.2c-0.4,0.2-0.9,0.4-1.1,0.4C130.8,163.4,130.8,163.7,130.7,164c0.4,0.2,0.6,0.3,0.9,0.2c0.2-0.1,0.6-0.3,1.1-0.4
							l-0.7-0.2c0,0.1,0,0,0,0l0,0l0,0h-0.5C131,163.5,130.9,163.7,130.7,164z"/>
					</g>
				</g>
				<g>
					<path class="st2" d="M132.4,163.2c0.2,0.3,0.4,0.5,0.6,0.7h15.3C142.2,160.2,135.4,162.1,132.4,163.2z"/>
					<g>
						<path class="st2" d="M132.4,163.2c0.1,0.2,0.1,0.3,0.2,0.4l0.1,0.2c0.1,0.1,0.1,0.2,0.2,0.3l0.1,0.1h0.1h0.2h0.2h0.1l0.4,0.1
							c0.6,0.1,1.2,0.2,2,0.2h1.6h7.1h1.6h0.2h0.3h0.6l1.1-0.1l1.6-0.1h0.1c0,0,0.1,0,0,0l-0.1-0.1h-0.1l-0.1-0.1
							c0,0-0.5-0.4-1.5-0.9c-0.3-0.2-0.5-0.3-0.9-0.4l-0.3-0.1l-0.3-0.1l-0.3-0.2c-0.4-0.2-0.9-0.4-1.4-0.5c-1-0.3-2.2-0.6-3.3-0.7
							c-1.2-0.1-2.3-0.1-3.4,0c-1.1,0.1-2,0.3-2.4,0.4C134.3,162.1,133.5,162.5,132.4,163.2c1.4-0.2,2.3-0.3,3.8-0.7
							c0.4-0.1,1.2-0.3,2.3-0.4c1-0.1,2-0.1,3.1,0c1.1,0.1,2.2,0.4,3.1,0.7c0.4,0.2,0.9,0.3,1.2,0.4l0.4,0.2l0,0l0,0h-1.9h-7h-1.6
							c-0.8,0-1.5,0.1-2,0.2l-0.5,0.1h-0.1c-0.1,0-0.1,0-0.1,0c-0.1,0-0.1,0.1-0.1,0c-0.1,0-0.1-0.1-0.1-0.1l-0.2-0.2
							C132.6,163.5,132.6,163.4,132.4,163.2z"/>
					</g>
				</g>
				<g>
					<path class="st2" d="M126,189.2c0.3,2.3-0.7,3.8-2.3,4.8c-1.8-5.5-2.8-11.7-2.8-18.1c0-5.4,0.7-10.6,2-15.4
						c1.8,2.1,3.1,4.1,3.1,4.1V189.2z"/>
					<g>
						<path class="st2" d="M126,189.2c-0.1,0.7-0.3,1.1-0.4,1.6c-0.2,0.5-0.4,1-0.8,1.5c-0.1,0.2-0.3,0.4-0.5,0.6
							c-0.1,0.1-0.1,0.1-0.3,0.2l-0.1,0.1l0,0l-0.4-1.3c-1.1-3.5-1.8-7.8-2-11.8c-0.3-4.1-0.1-8,0.3-10.9c0.4-2.9,0.7-4.7,0.7-4.7
							l0.3-1.3c0.1-0.4,0.3-0.9,0.4-1.5v-0.1l0,0l0.3,0.3l0.4,0.5c0.3,0.4,0.5,0.7,0.8,1c0.3,0.4,0.5,0.7,0.8,1.1l0.2,0.3l0,0v0.1
							v0.7v5.9v14.1C125.5,187.2,125.7,188,126,189.2c0.4-1.3,0.5-2.1,0.5-3.5v-14.2v-6v-0.7v-0.3c0.1-0.1-0.1-0.2-0.1-0.3l-0.3-0.3
							c-0.3-0.4-0.5-0.8-0.8-1.1c-0.3-0.4-0.5-0.7-0.8-1l-0.4-0.5l-0.5-0.6c-0.3-0.3-0.5-0.6-0.7-0.8l-0.4-0.4l-0.1-0.1
							c0-0.1,0,0,0,0.1v0.1l-0.1,0.3l-0.3,1l-0.3,0.8c-0.2,0.6-0.3,1.1-0.4,1.5l-0.3,1.3c0,0-0.4,1.8-0.7,4.8
							c-0.4,2.9-0.5,6.9-0.3,11c0.3,4.1,1.1,8.5,2,12.1c0.1,0.4,0.3,0.9,0.4,1.3c0.1,0.4,0.3,0.8,0.4,1.2v0.1v0.1h0.1l0.2-0.1
							l0.3-0.2l0.3-0.2c0.1-0.1,0.1-0.1,0.1-0.1h0.1c0.2-0.2,0.4-0.3,0.5-0.4c0.1-0.1,0.2-0.2,0.3-0.3c0.4-0.3,0.5-0.6,0.7-0.7
							c0.5-0.7,0.6-1.3,0.7-1.9C126.4,190.3,126.2,189.8,126,189.2z"/>
					</g>
				</g>
				<g>
					<path class="st2" d="M121,175.9c0,6.5,1,12.6,2.8,18.1c-5.2,3.1-16.6-0.4-10.3-4.8c8.3-5.8-2.5-15,0-27.7
						c1.6-8.2,6.3-4.6,9.5-1C121.7,165.3,121,170.5,121,175.9z"/>
					<g>
						<path class="st2" d="M121,175.9c-0.4,1.3-0.5,2.1-0.4,3.5l0.1,0.9l0.1,0.6l0.1,0.8l0.1,0.9c0.1,0.6,0.2,1.3,0.3,1.8
							c0.4,2.5,0.9,5.3,1.8,8.1l0.4,1l0.1,0.2l0,0l-0.1,0.1c-0.7,0.4-1.4,0.6-2.1,0.7c-1.5,0.3-3.1,0.3-4.6-0.1
							c-0.8-0.2-1.5-0.4-2.1-0.7c-0.7-0.3-1.2-0.7-1.6-1.1c-0.4-0.4-0.4-1-0.3-1.5c0.3-0.5,0.7-1,1.2-1.4c0.1-0.1,0.3-0.2,0.4-0.3
							c0.2-0.1,0.3-0.2,0.4-0.4c0.3-0.3,0.5-0.4,0.8-0.7c0.5-0.5,0.9-1,1.2-1.6c0.7-1.1,0.9-2.4,0.9-3.4c0-1.1-0.2-2-0.4-2.8
							s-0.4-1.5-0.5-2.1c-0.4-1.1-0.5-1.8-0.5-1.8l-0.5-1.8c-0.4-1.1-0.8-2.7-1.2-4.7c-0.4-2-0.7-4.3-0.4-6.9
							c0.1-1.3,0.4-2.6,0.8-3.8c0.3-0.7,0.5-1.3,0.9-1.8c0.4-0.6,0.9-0.9,1.5-1c0.6-0.1,1.3,0.2,2,0.6c0.7,0.4,1.2,0.8,1.8,1.3
							c0.5,0.5,1.1,1,1.6,1.6l0.2,0.2l-0.1,0.4c-0.1,0.4-0.2,0.7-0.3,1.1c-0.4,1.4-0.6,2.8-0.8,4.2c-0.1,0.7-0.3,1.4-0.3,2l-0.1,1
							l-0.1,0.9c-0.1,1-0.2,1.8-0.2,2.1C120.5,173.8,120.7,174.6,121,175.9c0.4-1.3,0.5-2.1,0.7-3.5c0-0.4,0.1-1.2,0.2-2.1l0.1-0.9
							l0.1-1c0.1-0.7,0.2-1.3,0.3-2c0.3-1.4,0.5-2.7,0.8-4.1c0.1-0.4,0.2-0.7,0.3-1l0.2-0.7l0.1-0.2v-0.1l-0.1-0.1l-0.2-0.2
							l-0.3-0.3c-0.5-0.6-1.1-1.1-1.6-1.7c-0.6-0.6-1.2-1-2-1.5c-0.7-0.4-1.6-0.8-2.6-0.7c-0.5,0.1-1,0.2-1.4,0.4
							c-0.4,0.3-0.7,0.6-1,0.9c-0.5,0.7-0.8,1.4-1.1,2.1c-0.5,1.4-0.7,2.7-0.8,4c-0.3,2.6,0.1,5.1,0.4,7.1c0.4,2,0.9,3.7,1.2,4.8
							l0.5,1.8c0,0,0.3,0.7,0.5,1.8c0.2,0.6,0.4,1.3,0.5,2.1c0.2,0.8,0.3,1.7,0.3,2.6c0,1-0.3,2-0.8,3c-0.3,0.5-0.7,1-1.1,1.4
							c-0.3,0.2-0.4,0.4-0.7,0.7c-0.1,0.1-0.3,0.2-0.4,0.3c-0.2,0.1-0.3,0.2-0.4,0.4c-0.6,0.4-1.2,1-1.5,1.8
							c-0.2,0.4-0.3,0.8-0.2,1.3c0.1,0.4,0.3,0.8,0.5,1.2c0.5,0.7,1.3,1.1,2,1.4c0.8,0.4,1.6,0.6,2.4,0.7c1.6,0.3,3.4,0.4,5.1,0.1
							c0.8-0.2,1.7-0.4,2.4-0.8l0.2-0.1l0.3-0.2l0.3-0.2l0.1-0.1l0.1-0.1v-0.1l-0.3-0.8l-0.4-1c-0.8-2.7-1.4-5.4-1.7-8
							c-0.1-0.7-0.2-1.3-0.3-1.8l-0.1-0.9l-0.1-0.8l-0.1-0.6l-0.1-0.8C121.5,177.9,121.3,177.1,121,175.9z"/>
					</g>
				</g>
			</g>
			<g>
				<g>
					<path class="st2" d="M153.4,131.9c7.9,0.3,15,4.4,20.5,11.1c4.2,5.1,7.3,11.8,9.1,19.3"/>
				</g>
				<path class="st2" d="M150.3,131.9c0,0-17.9,10.1-3.7,26c0,0,4,5.2,3.4,7.7c-0.6,2.4,2.7,0,2.7,0l-2.7,20.3c0,0-7.6,0.4,0,5.6
					h6.2c0,0-0.8,4.6-6.2,7.4s-3.2-1.3-7.9-2.4c0,0-11,0.4-2.9,6.8c0,0,8.5,7.8,12.4,7.7c4-0.2,0.7,0,0.7,0s12,7.5-3,7.7
					c-3.7,0.1-21.2-6.7-24.6-24.1c-1.1-5.2-1.1-2.3-1.1-2.3s3.1-18.7,0.3-21.3c0,0-2.8-10.9-0.3-12.4
					C126,157.1,127.4,138.2,150.3,131.9z"/>
				<g>
					<path class="st2" d="M122.9,160.5c0.1-0.4,0.2-0.7,0.3-1c4.7-16.2,16.2-27.7,29.5-27.7c0.3,0,0.4,0,0.7,0
						c9.2,0.2,15.7,4.9,20.5,11.1c4.5,5.9,7.3,13.1,9.1,19.3"/>
				</g>
				<g>
					<path class="st2" d="M126,164.7c0,0-1.3-2.1-3.1-4.1c-3.1-3.7-7.8-7.2-9.5,1c-2.5,12.8,8.3,22,0,27.7
						c-6.4,4.4,5.1,7.9,10.3,4.8c1.6-1,2.6-2.5,2.3-4.8"/>
				</g>
				<g>
					<path class="st2" d="M180.2,166c0,0,1.2-1.8,2.8-3.7c3.1-3.7,8.2-7.9,9.8,0.6c0.1,19.4-8.7,23.3,0,27.7
						c2.3,1.7,2.3,3.1,0.9,4.2c-2.5,2.1-9.3,2.6-12.3-0.3c-0.9-1-1.5-2.3-1.2-3.9"/>
				</g>
				<g>
					<g>
						<g>
							<path class="st2" d="M130.7,164c0.8-0.2,1.4-0.3,2-0.4c0.4-0.1,0.7-0.2,1.1-0.3c0.4-0.1,0.7-0.2,1.2-0.3
								c0.3-0.1,0.8-0.2,1.8-0.4c0.4-0.1,1.1-0.2,1.6-0.2c0.3-0.1,0.5-0.1,0.7-0.1c0.2,0,0.4,0,0.4,0s0.4,0,0.9,0
								c0.5-0.1,1.1,0.1,1.5,0.1c0.4,0,0.7,0.1,0.9,0.1c0.3,0.1,0.5,0.1,0.7,0.1c0.4,0.1,0.7,0.2,0.9,0.3c0.9,0.2,1.5,0.4,2.1,0.6
								c0.7,0.2,1.2,0.4,2,0.6c-0.5-0.5-1.1-1-1.6-1.3c-0.6-0.4-1.2-0.7-2.2-1c-0.3-0.1-0.5-0.2-1-0.3c-0.3-0.1-0.5-0.1-0.8-0.2
								c-0.3-0.1-0.6-0.1-1-0.2c-0.4,0-1.1-0.1-1.6-0.1s-0.9,0-0.9,0s-0.1,0-0.4,0s-0.5,0.1-0.8,0.1c-0.6,0.1-1.3,0.2-1.7,0.3
								c-1.1,0.2-1.6,0.4-1.9,0.4c-0.4,0.1-0.8,0.3-1.2,0.4c-0.4,0.2-0.7,0.3-1,0.4C131.8,163.2,131.3,163.5,130.7,164z"/>
						</g>
					</g>
				</g>
				<g>
					<g>
						<g>
							<path class="st2" d="M141.4,202.6c0.4,0.6,0.9,1,1.5,1.4c0.6,0.4,1.2,0.8,2,1.1c0.4,0.1,0.8,0.4,1.8,0.6
								c0.3,0.1,0.4,0.2,0.7,0.2s0.5,0.1,0.9,0.2c0.6,0.2,1.3,0.2,1.9,0.3c0.2,0,0.4,0.1,0.4,0.1c0.2,0,0.3,0,0.4,0
								c0.3,0,0.5,0,0.7,0c0.4,0,0.7,0,0.7,0s0.1,0,0.2,0s0.3,0,0.4-0.1c0.4-0.1,0.8-0.1,1.4-0.1c0.6-0.1,1.2-0.2,1.7-0.3
								c0.3-0.1,0.6-0.1,0.8-0.2c0.3-0.1,0.5-0.2,0.8-0.2c0.7-0.2,1.2-0.4,1.7-0.5c0.4-0.2,0.7-0.3,0.9-0.4c0.4-0.2,0.8-0.3,1.2-0.5
								c0.4-0.2,0.7-0.4,0.9-0.6c0.5-0.4,1.1-0.7,1.6-1.3c-0.8,0.2-1.4,0.4-2,0.6c-0.4,0.1-0.7,0.3-1,0.4c-0.4,0.1-0.7,0.3-1.2,0.4
								c-0.3,0.1-0.5,0.2-0.9,0.4c-0.4,0.2-0.9,0.3-1.6,0.4c-0.3,0.1-0.4,0.1-0.7,0.2c-0.3,0.1-0.5,0.1-0.8,0.2
								c-0.5,0.1-1.1,0.2-1.6,0.3c-0.5,0.1-1,0.1-1.3,0.1c-0.2,0-0.3,0-0.4,0.1c-0.1,0-0.2,0-0.2,0s-0.3,0-0.6,0c-0.3,0-0.4,0-0.7,0
								c-0.1,0-0.3,0-0.4,0c-0.2,0-0.3-0.1-0.4-0.1c-0.6-0.1-1.2-0.1-1.8-0.3c-0.3-0.1-0.5-0.1-0.8-0.2c-0.3-0.1-0.5-0.2-0.7-0.2
								c-1-0.3-1.4-0.4-1.7-0.6c-0.8-0.3-1.4-0.6-2-0.8C142.8,203.1,142.2,202.9,141.4,202.6z"/>
						</g>
					</g>
				</g>
				<g>
					<g>
						<g>
							<path class="st2" d="M158.9,170.1c1.2,1,2.1,1.5,4,1.9c0.4,0.1,0.8,0.2,1.9,0.4c0.2,0.1,0.5,0.1,0.5,0.1s0.4,0.1,0.5,0.1
								c1.5,0.1,2.4-0.1,2.8-0.1c1-0.2,1.7-0.4,2.3-0.8c0.6-0.4,1.1-0.8,1.5-1.4c-0.7,0.4-1.2,0.6-1.9,0.7c-0.6,0.2-1.2,0.4-2,0.5
								c-0.4,0.1-1.2,0.2-2.6,0.1c-0.2,0-0.5-0.1-0.5-0.1s-0.4-0.1-0.5-0.1c-1-0.2-1.5-0.3-1.8-0.4
								C161.4,170.5,160.4,170.4,158.9,170.1z"/>
						</g>
					</g>
				</g>
				<g>
					<g>
						<g>
							<path class="st2" d="M146.5,170.1c-1.5,0.6-2.4,0.8-4.1,1.3c-0.2,0.1-0.4,0.1-0.6,0.2c-0.3,0.1-0.7,0.2-1.2,0.2
								c-0.2,0-0.4,0.1-0.7,0.1s-0.4,0-0.4,0s-0.2,0-0.4,0s-0.4,0-0.6,0c-0.4-0.1-0.7-0.1-0.9-0.1c-0.3-0.1-0.5-0.1-0.7-0.2
								s-0.4-0.1-0.5-0.1c-0.2-0.1-0.3-0.1-0.4-0.1c-1.7-0.4-2.6-0.7-4.2-1.2c1.1,1,2,1.7,3.8,2.2c0.1,0.1,0.3,0.1,0.4,0.1
								c0.2,0.1,0.4,0.1,0.6,0.1c0.3,0.1,0.5,0.1,0.8,0.2s0.7,0.1,1,0.1c0.3,0,0.5,0.1,0.7,0c0.3,0,0.4,0,0.4,0s0.3,0,0.4,0
								c0.3,0,0.5-0.1,0.7-0.1c0.5-0.1,0.9-0.2,1.2-0.2c0.4-0.1,0.5-0.1,0.7-0.2C144.6,171.8,145.5,171.1,146.5,170.1z"/>
						</g>
					</g>
				</g>
				<g>
					<g>
						<g>
							<path class="st2" d="M148.3,188.6c0.1,0.6,0.3,0.9,0.8,1.2c0.3,0.2,1.2,0.6,2,0.8c0.4,0.1,0.9,0.2,1.2,0.2
								c0.4,0.1,0.5,0.1,0.5,0.1s0.9,0.1,1.8-0.2c0.9-0.2,1.8-0.7,2-0.8c0.5-0.3,0.7-0.7,0.7-1.2c-0.6,0.1-0.9,0.1-1.4,0.3
								c-0.3,0.2-0.9,0.6-1.7,0.7c-0.7,0.2-1.4,0.2-1.4,0.2s-0.7,0-1.4-0.2s-1.5-0.6-1.7-0.7C149.3,188.6,148.9,188.6,148.3,188.6z"
								/>
						</g>
					</g>
				</g>
			</g>
		</g>
		<ellipse class="st2" cx="152.4" cy="139" rx="60.1" ry="53.4"/>
	</g>
</g>
<ellipse id="hair" cx="153.4" cy="144.2" rx="54.1" ry="48.1"/>
<g id="face">
	<g>
		<g>
			<path class="st3" d="M190.1,186.7c2.2,1.6,2.1,2.9,0.9,3.9c-2.3,1.9-8.7,2.5-11.4-0.3c1.8-5.2,2.8-11.2,2.8-17.5
				c0-4.4-0.5-8.6-1.4-12.6c2.9-3.5,7.6-7.4,9.2,0.5C192.5,172.7,182.5,181.4,190.1,186.7z"/>
			<g>
				<g>
					<path class="st3" d="M190.1,186.7c0.5,0.5,0.8,1,1,1.5c0.2,0.5,0.3,1,0.1,1.5c-0.1,0.1-0.2,0.4-0.5,0.6
						c-0.1,0.1-0.3,0.3-0.5,0.4l-0.1,0.1l-0.2,0.1c-0.1,0.1-0.3,0.1-0.4,0.2c-0.3,0.1-0.5,0.3-0.8,0.3c-0.2,0.1-0.3,0.1-0.4,0.1
						c-0.2,0.1-0.3,0.1-0.5,0.1c-0.3,0.1-0.6,0.1-0.9,0.2c-1.2,0.2-2.6,0.2-3.8-0.1c-0.3-0.1-0.7-0.1-1-0.3
						c-0.3-0.1-0.6-0.2-0.9-0.4c-0.3-0.1-0.6-0.3-0.8-0.5c-0.2-0.1-0.3-0.3-0.4-0.3l0,0c0.1-0.3,0.2-0.6,0.3-0.9
						c0.1-0.3,0.2-0.7,0.3-1c0.2-0.7,0.4-1.3,0.6-2c0.3-1.3,0.6-2.6,0.8-3.9c0.9-5.3,0.9-10.4,0.6-14.2c-0.2-1.9-0.4-3.4-0.6-4.5
						c-0.2-1.1-0.3-1.7-0.3-1.7s-0.1-0.1-0.1-0.5c-0.1-0.3-0.2-0.7-0.3-1.2l0,0c0.1-0.1,0.2-0.3,0.3-0.4c0.2-0.3,0.5-0.5,0.7-0.8
						c0.6-0.6,1.2-1.2,1.9-1.7c0.4-0.3,0.8-0.5,1.3-0.7c0.5-0.2,0.9-0.3,1.4-0.1c0.4,0.1,0.8,0.4,1.1,0.9c0.3,0.4,0.6,0.9,0.8,1.5
						c0.4,1.1,0.6,2.3,0.8,3.5c0.2,1.2,0.2,2.5,0.1,3.8c-0.2,2.6-0.9,5.2-1.7,7.8c-0.4,1.3-0.8,2.5-1.1,3.8
						c-0.2,0.7-0.3,1.3-0.4,1.9c-0.1,0.3-0.1,0.7-0.1,1c0,0.1,0,0.3,0,0.5c0,0.1,0,0.1,0,0.3v0.2c0.1,1.1,0.3,2,0.5,2.4
						c0.4,0.8,0.8,1.3,1.3,1.7c0.3,0.3,0.5,0.4,0.8,0.6C189.5,186.5,189.8,186.6,190.1,186.7c-0.2-0.3-0.4-0.5-0.6-0.7
						c-0.2-0.3-0.4-0.5-0.5-0.7c-0.3-0.5-0.6-1-0.9-1.6c-0.2-0.4-0.4-1.1-0.5-2v-0.1c0-0.1,0-0.1,0-0.3V181c0-0.3,0.1-0.6,0.1-0.9
						c0.1-0.6,0.2-1.2,0.4-1.8c0.3-1.2,0.7-2.5,1.1-3.7c0.8-2.5,1.5-5.2,1.7-8c0.1-1.4,0.1-2.7-0.1-4c-0.2-1.3-0.4-2.5-0.8-3.8
						c-0.2-0.6-0.5-1.2-0.9-1.7c-0.4-0.6-1-1-1.8-1.2c-0.8-0.2-1.5-0.1-2.1,0.2c-0.6,0.3-1.1,0.6-1.5,0.9c-0.9,0.6-1.5,1.3-2.1,1.8
						c-0.3,0.3-0.6,0.6-0.8,0.9c-0.1,0.1-0.2,0.3-0.3,0.4c-0.1,0.1-0.2,0.3-0.3,0.4c0,0.1,0.1,0.3,0.1,0.4c0.1,0.6,0.2,1,0.3,1.2
						c0.1,0.3,0.1,0.4,0.1,0.4s0.1,0.6,0.3,1.6c0.2,1.1,0.4,2.5,0.6,4.4c0.3,3.7,0.3,8.8-0.6,14c-0.2,1.3-0.5,2.6-0.8,3.9
						c-0.2,0.7-0.4,1.3-0.5,2c-0.1,0.3-0.2,0.7-0.3,1c-0.1,0.4-0.2,0.7-0.4,1.1l-0.1,0.3l-0.1,0.1v0.1l0.1,0.1l0.4,0.4
						c0.2,0.1,0.3,0.3,0.5,0.4c0.3,0.3,0.7,0.4,1,0.6c0.4,0.2,0.7,0.3,1.1,0.4c0.4,0.1,0.7,0.2,1.1,0.3c1.5,0.3,2.9,0.3,4.3,0.1
						c0.4-0.1,0.7-0.1,1-0.2c0.2-0.1,0.3-0.1,0.5-0.1c0.2-0.1,0.3-0.1,0.5-0.1c0.3-0.1,0.6-0.3,0.9-0.4c0.2-0.1,0.3-0.1,0.4-0.3
						l0.2-0.1l0.1-0.1c0.2-0.2,0.5-0.3,0.6-0.5c0.4-0.3,0.6-0.7,0.7-0.9c0.2-0.5,0.2-0.9,0.1-1.3c-0.1-0.4-0.3-0.7-0.5-0.9
						C191.4,187.3,190.8,187,190.1,186.7z"/>
				</g>
			</g>
		</g>
		<g>
			<path class="st3" d="M182.5,173c0,6.2-1,12.2-2.8,17.5c-0.9-0.9-1.4-2.1-1.2-3.7v-22.9c0,0,1.1-1.7,2.6-3.5
				C181.9,164.4,182.5,168.6,182.5,173z"/>
			<g>
				<g>
					<path class="st3" d="M182.5,173c-0.4,1.3-0.6,2.2-0.7,3.6c0,0.2-0.1,0.5-0.1,0.9c0,0.2-0.1,0.4-0.1,0.7c0,0.1-0.1,0.3-0.1,0.5
						s-0.1,0.4-0.1,0.6c-0.1,0.4-0.1,0.8-0.2,1.2c-0.2,1.6-0.5,3.2-0.9,4.9c-0.2,0.9-0.4,1.7-0.7,2.6c-0.1,0.5-0.3,0.9-0.4,1.3
						l-0.1,0.1l0,0l0,0l0,0l0,0l0,0l0,0c0,0,0,0,0-0.1c-0.1-0.1-0.1-0.2-0.2-0.3c-0.2-0.4-0.3-0.7-0.3-1.2c0-0.2-0.1-0.4,0-0.6
						c0-0.1,0-0.2,0-0.3v-0.1v-0.1v-0.1c0-0.4,0-0.9,0-1.2c0-1.6,0-3.1,0-4.4c0-2.5,0-4.1,0-4.1s0-1.6,0-4.1c0-1.3,0-2.7,0-4.4
						c0-0.9,0-1.6,0-2.5c0-0.4,0-0.9,0-1.3c0-0.3,0-0.5,0-0.7l0,0c0,0,0,0,0.1-0.1l0.2-0.3c0.3-0.4,0.5-0.8,0.8-1.2l0.4-0.6l0.3-0.4
						c0-0.1,0,0,0,0l0,0l0.1,0.6c0.2,0.9,0.3,1.7,0.5,2.5c0.1,0.4,0.1,0.9,0.2,1.2c0,0.2,0.1,0.4,0.1,0.6s0.1,0.4,0.1,0.6
						c0.1,1,0.2,1.8,0.2,2.2C181.9,170.9,182.1,171.7,182.5,173c0.4-1.3,0.5-2.2,0.5-3.7c0-0.4-0.1-1.2-0.2-2.3
						c0-0.2-0.1-0.4-0.1-0.6c0-0.2-0.1-0.4-0.1-0.6c-0.1-0.4-0.1-0.9-0.2-1.3c-0.1-0.9-0.3-1.7-0.5-2.6c-0.1-0.3-0.1-0.5-0.2-0.7
						c-0.1-0.5-0.2-0.9-0.3-1.3l-0.2-0.7v-0.1v-0.1c0,0,0-0.1,0,0l-0.1,0.1l-0.2,0.3l-0.9,1.1l-0.4,0.5l-0.2,0.3l-0.4,0.6
						c-0.3,0.4-0.6,0.8-0.8,1.2l-0.2,0.3l-0.2,0.3c-0.1,0.1-0.1,0.1-0.1,0.1v0.2c0,0.3,0,0.5,0,0.7c0,0.5,0,0.9,0,1.3
						c0,0.9,0,1.7,0,2.5c0,1.6,0,3.1,0,4.4c0,2.5,0,4.1,0,4.1s0,1.6,0,4.1c0,1.3,0,2.7,0,4.4c0,0.4,0,0.9,0,1.2v0.1v0.1v0.2
						c0,0.1,0,0.3,0,0.3c0,0.3,0,0.5,0.1,0.7c0.1,0.5,0.2,1,0.4,1.4c0.1,0.1,0.1,0.3,0.2,0.3c0,0,0.1,0.1,0.1,0.1l0.1,0.1
						c0.1,0.1,0.1,0.2,0.2,0.3c0.3,0.4,0.6,0.7,0.8,0.9c0.1,0.1,0.2,0.2,0.2,0.3l0.1-0.3l0.2-0.6l0.2-0.6l0.1-0.3
						c0-0.1,0.1-0.1,0.1-0.1v-0.1c0.2-0.5,0.3-0.9,0.4-1.3c0.3-0.9,0.5-1.8,0.7-2.6c0.4-1.8,0.7-3.5,0.9-5c0.1-0.4,0.1-0.8,0.2-1.2
						c0-0.2,0.1-0.4,0.1-0.6s0.1-0.3,0.1-0.5c0-0.3,0.1-0.5,0.1-0.7c0.1-0.4,0.1-0.7,0.1-0.9C183,175.2,182.8,174.2,182.5,173z"/>
				</g>
			</g>
		</g>
		<g>
			<path class="st3" d="M178.4,186.7v-22.9c0,0,1.1-1.7,2.6-3.5c-1.7-5.8-4.3-12.6-8.5-18c-5.1-6.3-11.8-10.2-19.1-10.4
				c-0.2,0-0.4,0-0.6,0c-1.5,0-3,0.2-4.5,0.5c-3.5,3.3-9,5.7-12.2,9c-4.1,4,1.8,7.7,2.3,11.8c0,2-4.5,3.6-5,4.8s-0.3,2.3,0.3,3.2
				c2.8-1.2,9.2-2.9,14.9,0.7h-14.3c2.2,2.3,7.1,3.5,10.8,3.8c0.5,0-0.9,0.4-0.9,1.2c-2.7,0-5,2-5.9,4.4c5.4,0.9,9,5.2,7.6,10.1
				c0.5,0,1.4,0,1.4,0c0.9,4-3.6,7.7,3.1,9.3c1.4,0.4,3.6,0,4.1,0.9c2.3,2.8-1.4,4-4.1,5.7c-1.8,1.2-0.5,2-0.9,2.8
				c1.4,0.4,1.4,2,2.7,2.4c-0.1,0.2-0.2,0.4-0.3,0.6c0.2,0,0.4,0,0.6,0c8,0,15.7-1.3,22.6-3.7c1.7-2.7,3.1-5.8,4.2-9
				C178.7,189.5,178.3,188.4,178.4,186.7z"/>
			<g>
				<g>
					<path class="st3" d="M178.4,186.7c0.3-1.2,0.5-1.9,0.5-3.3v-4.2v-8.6V166v-1.2v-0.6v-0.3c0-0.1,0,0,0-0.1
						c0.5-0.7,0.9-1.3,1.4-2c0.3-0.3,0.5-0.7,0.8-1l0.3-0.3c0.1-0.1,0.2-0.1,0.2-0.3l-0.1-0.3l-0.2-0.7c-0.3-0.8-0.5-1.6-0.8-2.3
						c-0.5-1.6-1.1-3.1-1.8-4.7c-1.3-3.1-2.9-6.2-4.9-9c-0.5-0.7-1-1.5-1.6-2.1c-0.6-0.7-1.2-1.3-1.8-2c-1.3-1.3-2.7-2.5-4.2-3.5
						c-3-2.1-6.5-3.6-10.3-4.1c-1.9-0.3-3.7-0.3-5.6-0.1c-0.5,0.1-0.9,0.1-1.4,0.2l-0.4,0.1l-0.4,0.1L148,132l-0.1,0.1l-0.2,0.1
						l-0.3,0.3c-0.6,0.6-1.3,1.1-2,1.6c-2.7,2-5.7,3.6-8.3,5.8c-0.6,0.6-1.2,1.1-1.8,1.7c-0.6,0.6-1,1.4-1.2,2.2
						c-0.2,0.8-0.1,1.6,0.1,2.3c0.2,0.7,0.6,1.4,0.9,2c0.7,1.3,1.5,2.4,2,3.6c0.2,0.3,0.3,0.6,0.3,0.9c0.1,0.1,0.1,0.3,0.1,0.5
						l0.1,0.3v0.1c0,0.1,0,0,0,0.1c0,0.5-0.4,1-0.9,1.4c-0.9,0.9-2.1,1.5-3.1,2.2c-0.3,0.2-0.5,0.4-0.8,0.7
						c-0.1,0.1-0.1,0.1-0.2,0.3c-0.1,0.1-0.1,0.1-0.1,0.1l-0.1,0.1c-0.1,0.1-0.1,0.3-0.2,0.5c-0.2,0.6-0.2,1.2,0,1.8
						c0.1,0.1,0.1,0.3,0.2,0.4l0.1,0.3c0.1,0.1,0.1,0.1,0.2,0.3c0.2,0.3,0.3,0.5,0.4,0.7l0.8-0.3c0.6-0.2,1-0.4,1.5-0.5
						c1-0.3,2-0.5,2.9-0.6c3-0.4,5.4,0.1,6.9,0.7c0.4,0.1,0.7,0.3,1,0.4l0.1,0.1l0,0l0,0h-0.2h-6.9h-2.3H136h-0.2h-0.2h-0.3
						l-1.2,0.1h-0.6h-0.1h-0.1c0,0,0,0,0,0.1l0.1,0.1l0.2,0.3l0.4,0.4l0.5,0.4l0.5,0.4l0.3,0.2c0.2,0.1,0.4,0.3,0.6,0.4
						c0.9,0.5,1.8,0.9,2.7,1.2c2,0.7,4.1,1.1,6.4,1.3h0.1h0.1c0.1,0,0,0,0.1,0c0,0,0,0,0-0.1V166c0-0.1,0-0.1,0-0.1
						c0-0.1,0-0.1,0-0.1v-0.1c0-0.1,0.1-0.1,0-0.1c0,0-0.1,0-0.1-0.1l-0.1-0.1l-0.1-0.1c-0.1-0.1-0.1-0.1-0.1-0.1l0,0l0,0l-0.1,0.1
						c-0.1,0.1-0.3,0.2-0.4,0.3c-0.1,0.1-0.3,0.3-0.4,0.4c-0.1,0.1-0.1,0.1-0.2,0.3l-0.1,0.1l0,0h-0.2l-0.3,0.1
						c-0.3,0.1-0.7,0.1-1,0.2c-1.2,0.4-2.3,1.1-3.1,2l0,0c-0.4,0.5-0.8,1-1.1,1.5c-0.1,0.1-0.2,0.3-0.3,0.5
						c-0.1,0.3-0.3,0.6-0.4,0.9h-0.1v0.1c0,0,0,0,0.1,0h0.1l0.3,0.1l0.5,0.1l0.3,0.1l0.1,0.1l0.3,0.1c0.7,0.1,1.3,0.4,1.9,0.7
						c1.2,0.6,2.3,1.4,3.1,2.4c0.7,0.9,1.2,1.9,1.5,3c0.1,0.6,0.2,1.1,0.2,1.7c0,0.3-0.1,0.6-0.1,0.9l-0.1,0.3l-0.1,0.3l-0.3,0.9
						c0,0.1,0,0,0.1,0h0.1h0.1h0.3h0.5h0.6l0,0v0.2c0.1,0.6,0,1.2-0.1,1.7c-0.1,0.6-0.3,1.2-0.4,1.8s-0.3,1.2-0.3,1.9
						c0,0.5,0.1,1,0.3,1.4c0.3,0.6,0.9,1.1,1.4,1.4c0.6,0.3,1.2,0.6,1.8,0.7c0.3,0.1,0.6,0.2,1,0.3c0.4,0.1,0.7,0.1,1,0.1
						c0.7,0.1,1.3,0.1,1.8,0.1c0.3,0.1,0.5,0.1,0.6,0.3c0.2,0.3,0.3,0.4,0.5,0.7c0.3,0.5,0.3,0.9,0.2,1.3c-0.2,0.4-0.6,0.9-1,1.2
						s-1,0.7-1.5,1c-0.6,0.3-1.1,0.6-1.6,0.9c-0.2,0.1-0.3,0.1-0.5,0.3c-0.2,0.1-0.3,0.3-0.4,0.3c-0.3,0.3-0.5,0.6-0.6,1
						c-0.1,0.4,0,0.8,0.1,1.1c0.1,0.1,0.1,0.3,0.1,0.4v0.1c0,0,0,0.1-0.1,0.1c-0.1,0.1-0.2,0.3-0.3,0.5c-0.1,0.1,0,0.1,0.1,0.1
						l0.1,0.1l0.3,0.1c0.1,0.1,0.2,0.1,0.2,0.1c0.1,0.1,0.2,0.1,0.2,0.1c0.1,0.1,0.2,0.1,0.3,0.3c0.2,0.2,0.3,0.4,0.5,0.7
						c0.2,0.3,0.4,0.5,0.6,0.8c0.1,0.1,0.3,0.3,0.4,0.4l0.1,0.1l0.1,0.1l0,0l0,0l-0.1,0.1v0.1c0.2,0.3-0.5-0.6,0.5,0.6l0,0l0,0h0.1
						h0.1c0.3,0,0.7,0,1,0c1.3,0,2.5-0.1,3.8-0.1c1.4-0.1,2.7-0.2,4.1-0.4l0.7-0.1l0,0c3.2-0.4,6.4-1.1,9.4-1.9
						c0.8-0.3,1.5-0.4,2.2-0.7l1.1-0.4l0.6-0.2l0.4-0.1c0.1,0,0.1-0.1,0.1-0.1l0.1-0.1l0.1-0.2c0.8-1.2,1.4-2.5,2-3.7
						c0.6-1.2,1.1-2.5,1.6-3.8l0.1-0.3l0.2-0.5l0.2-0.5l0.1-0.4v-0.1l-0.1-0.1l-0.1-0.1l-0.1-0.1l-0.1-0.1l-0.1-0.1l-0.1-0.1
						c-0.1-0.1-0.1-0.1-0.2-0.2c-0.4-0.5-0.6-1-0.7-1.4C178.7,187.8,178.6,187.3,178.4,186.7c-0.2,0.6-0.3,1.1-0.3,1.6
						s0.2,1.2,0.6,1.8c0.1,0.1,0.1,0.1,0.2,0.3l0.2,0.2l0,0l-0.1,0.4l-0.2,0.5l-0.1,0.3c-0.5,1.2-1,2.5-1.6,3.7
						c-0.6,1.2-1.2,2.5-1.9,3.6l-0.1,0.1l0,0l-0.1,0.1l-0.6,0.2l-1.1,0.4c-0.7,0.3-1.5,0.5-2.2,0.7c-3,0.9-6.1,1.4-9.3,1.8l0,0
						l-0.7,0.1c-1.3,0.1-2.7,0.3-4.1,0.4c-1.3,0.1-2.5,0.1-3.7,0.1c-0.3,0-0.6,0-1,0h-0.1h-0.1l0,0l0,0c0.9,1.2,0.3,0.3,0.5,0.6
						v-0.1l0.2-0.3l0.2-0.4c0-0.1,0.1-0.1,0.1-0.2l-0.3-0.1c-0.2-0.1-0.3-0.1-0.5-0.2l-0.1-0.1l-0.1-0.1c-0.1-0.1-0.2-0.1-0.3-0.3
						c-0.2-0.2-0.3-0.4-0.5-0.7c-0.2-0.3-0.4-0.5-0.6-0.8c-0.2-0.1-0.3-0.3-0.5-0.4l-0.1-0.1l0,0l0,0l0,0v-0.1c0-0.1,0-0.1,0-0.1
						c0-0.2-0.1-0.4-0.1-0.5c-0.1-0.3-0.1-0.5-0.1-0.7c0.1-0.4,0.5-0.7,1-1c0.5-0.3,1.1-0.6,1.6-0.9c0.6-0.3,1.1-0.7,1.6-1
						c0.5-0.4,1.1-0.9,1.3-1.6c0.2-0.3,0.2-0.7,0.2-1.1c-0.1-0.4-0.2-0.7-0.3-1s-0.4-0.6-0.6-0.9c-0.2-0.2-0.4-0.3-0.6-0.4
						c-0.2-0.1-0.4-0.1-0.6-0.1c-0.7-0.1-1.3-0.1-1.9-0.1c-0.3,0-0.6-0.1-0.9-0.1s-0.6-0.1-0.9-0.3c-1.1-0.3-2.3-0.9-2.7-1.6
						c-0.2-0.3-0.2-0.7-0.2-1.1c0-1.2,0.5-2.3,0.7-3.6c0.1-0.7,0.2-1.3,0.1-1.9v-0.1c0-0.1,0-0.1,0-0.2l-0.1-0.5L148,181
						c0-0.1-0.1-0.1-0.1-0.1h-0.1h-0.5h-0.5l0,0c0,0.1,0-0.1,0.1-0.1l0.1-0.3c0.1-0.3,0.1-0.7,0.1-1c0-0.7-0.1-1.3-0.2-1.9
						c-0.3-1.2-0.8-2.4-1.6-3.3c-0.9-1.2-2.1-2-3.5-2.6c-0.7-0.3-1.4-0.6-2.1-0.7l-0.4-0.1l0,0l0,0c0.1-0.1,0.1-0.3,0.2-0.4
						c0.3-0.5,0.6-0.9,1-1.3l0,0c0.7-0.9,1.7-1.5,2.7-1.7c0.3-0.1,0.5-0.1,0.8-0.2h0.2h0.4h0.5h0.1c0.1,0,0-0.1,0-0.1V167
						c0-0.1,0.1-0.3,0.1-0.3c0-0.1,0.1-0.1,0.1-0.1c0.1-0.1,0.1-0.1,0.2-0.3c0.1-0.1,0.2-0.1,0.3-0.3l0.1-0.1
						c0.1-0.1,0.1-0.1,0.2-0.1c0,0,0-0.1,0.1-0.1c0.1-0.1,0.1-0.1,0.1-0.2c0-0.1-0.1-0.3-0.1-0.3c-0.1-0.1-0.2-0.1-0.2-0.1
						c-0.1,0-0.1-0.1-0.1-0.1h-0.1c-0.1,0-0.1,0-0.1,0c0,0-0.1,0-0.1,0c-2.2-0.2-4.3-0.6-6.2-1.2c-0.9-0.3-1.8-0.7-2.6-1.2
						c-0.2-0.1-0.4-0.3-0.6-0.4l-0.3-0.2l0,0h4.1h6.9l3.2-0.1h0.3c0.1,0,0,0,0,0l-0.1-0.1l-0.1-0.1l-0.3-0.2l-0.3-0.1
						c0,0-0.3-0.2-1-0.6c-0.2-0.1-0.4-0.2-0.6-0.3c-0.1-0.1-0.3-0.1-0.4-0.2c-0.1-0.1-0.3-0.1-0.4-0.1c-0.3-0.1-0.7-0.3-1.1-0.4
						c-1.6-0.6-4.2-1.1-7.4-0.7c-1,0.1-2,0.3-3.1,0.7c-0.5,0.1-1.1,0.3-1.6,0.5l0,0l-0.1-0.1l-0.1-0.2c-0.1-0.1-0.1-0.3-0.1-0.3
						c-0.1-0.5-0.1-1,0-1.5c0.1-0.1,0.1-0.3,0.1-0.4l0.1-0.1v-0.1c0-0.1,0.1-0.1,0.1-0.1c0.2-0.2,0.4-0.4,0.6-0.6
						c1-0.7,2.1-1.4,3.2-2.3c0.3-0.3,0.5-0.5,0.7-0.9c0.2-0.3,0.4-0.7,0.4-1.1c0-0.1,0-0.1,0-0.2V153l-0.1-0.3
						c-0.1-0.2-0.1-0.4-0.1-0.5c-0.1-0.3-0.2-0.7-0.4-1c-0.6-1.3-1.4-2.5-2.1-3.7c-0.7-1.2-1.3-2.5-1-3.8c0.2-0.7,0.5-1.2,1-1.8
						c0.5-0.6,1.1-1.1,1.7-1.6c2.4-2,5.4-3.6,8.2-5.7c0.7-0.5,1.4-1.1,2.1-1.6c0.2-0.1,0.4-0.4,0.3-0.3l0.3-0.1l0.3-0.1
						c0.5-0.1,0.9-0.1,1.3-0.2c1.8-0.2,3.5-0.2,5.3,0.1c3.5,0.5,6.9,2,9.9,3.9c1.5,1,2.8,2.2,4.1,3.3c1.2,1.2,2.4,2.5,3.3,3.9
						c2,2.8,3.5,5.9,4.8,8.9c0.7,1.6,1.2,3.1,1.7,4.6c0.3,0.8,0.5,1.6,0.7,2.3l0.2,0.6l0,0l0,0l-0.1,0.1l-0.1,0.1
						c-0.3,0.3-0.5,0.7-0.8,1c-0.5,0.7-1,1.3-1.4,2l-0.2,0.3c-0.1,0.1,0,0.3,0,0.3v0.3v0.6v1.2v4.5v8.6v4.2
						C177.9,184.8,178.1,185.5,178.4,186.7z"/>
				</g>
			</g>
		</g>
		<g>
			<path class="st3" d="M149.8,200.1c0.5-0.9-0.9-1.6,0.9-2.8c2.7-1.6,6.3-2.8,4.1-5.7c-0.5-0.9-2.7-0.4-4.1-0.9
				c-6.8-1.6-2.3-5.2-3.1-9.3c0,0-0.9,0-1.4,0c1.4-4.8-2.3-9.3-7.6-10.1c0.9-2.4,3.1-4.4,5.9-4.4c0-0.9,1.4-1.2,0.9-1.2
				c-3.7-0.3-8.7-1.5-10.8-3.8h-2.1c0,0,0.6-0.3,1.5-0.7c-0.6-0.9-0.8-2-0.3-3.2c0.5-1.2,5-2.8,5-4.8c-0.5-4-6.3-7.7-2.3-11.8
				c3.1-3.3,8.6-5.8,12.2-9c-10.5,2.2-19.2,12.1-23,25.4c-0.1,0.3-0.2,0.6-0.3,0.9c1.7,1.9,2.9,3.9,2.9,3.9v22.9
				c0.3,2.2-0.7,3.6-2.1,4.4c1.1,3.5,2.6,6.7,4.3,9.5c6.8,2.4,14.3,3.7,22.1,3.7c0.1-0.2,0.2-0.4,0.3-0.6
				C151.1,202.1,151.1,200.5,149.8,200.1z"/>
			<g>
				<path class="st3" d="M149.8,200.1c0.2-0.3,0.3-0.6,0.3-0.9s0-0.5,0.1-0.7c0.1-0.2,0.2-0.3,0.3-0.5c0.2-0.2,0.4-0.4,0.7-0.5
					l0.6-0.4l0.5-0.3l0.4-0.3c0.6-0.3,1.2-0.7,1.7-1.1c0.6-0.4,1.2-0.9,1.5-1.6c0.2-0.4,0.3-0.8,0.2-1.2c-0.1-0.4-0.2-0.7-0.4-1.1
					c-0.1-0.2-0.2-0.3-0.3-0.5l-0.1-0.1v-0.1l0,0c0-0.1-0.1-0.1-0.1-0.1c-0.1-0.1-0.2-0.3-0.3-0.3c-0.5-0.3-0.9-0.3-1.3-0.4
					c-0.8-0.1-1.5-0.1-2.2-0.2c-0.2-0.1-0.3-0.1-0.5-0.1s-0.4-0.1-0.6-0.1c-0.4-0.1-0.7-0.3-1-0.4c-0.7-0.3-1.2-0.7-1.6-1.1
					c-0.4-0.5-0.4-1.1-0.3-1.8c0.2-1.3,0.7-2.7,0.8-4.2c0-0.2,0-0.4,0-0.6c0-0.1,0-0.2-0.1-0.3c0-0.1,0-0.1-0.1-0.3l-0.1-0.3
					c0.1-0.5-0.5-0.3-0.9-0.4h-0.4l0,0l0.1-0.3c0.1-0.4,0.1-0.8,0.1-1.2c0.1-1.6-0.4-3.1-1.3-4.5s-2.2-2.5-3.8-3.2
					c-0.8-0.4-1.6-0.7-2.5-0.9l-0.2-0.1l0,0l0.1-0.2c0.1-0.1,0.1-0.2,0.2-0.3c0.1-0.2,0.2-0.3,0.3-0.5c0.7-1.1,1.7-2,2.9-2.4
					c0.3-0.1,0.6-0.3,0.9-0.3c0.2-0.1,0.3-0.1,0.5-0.1h0.2h0.3h0.3h0.2h0.1V167c0-0.2,0-0.4,0.1-0.5c0-0.1,0.1-0.1,0.1-0.1
					c0.1-0.1,0.2-0.2,0.3-0.3c0.1-0.1,0.1-0.1,0.2-0.1c0.1-0.1,0.1-0.1,0.3-0.2c0,0,0,0,0.1-0.1c0-0.1,0,0,0.1-0.1
					c0-0.1,0.1-0.1,0.1-0.1v-0.1c0,0,0-0.1,0-0.1c0-0.1,0-0.1-0.1-0.3c-0.1-0.1-0.1-0.1-0.1-0.1c-0.1,0-0.1-0.1-0.1-0.1h-0.1
					c0,0-0.1,0-0.1-0.1c-0.1,0-0.1,0-0.1,0s-0.1,0-0.1,0h-0.1H145c-0.6-0.1-1.2-0.1-1.8-0.3l0,0c-2.4-0.4-4.8-1.1-6.7-2.2
					c-0.5-0.3-1-0.6-1.3-1c-0.1-0.1-0.1-0.1-0.2-0.1l-0.2-0.1l-0.1-0.1l-0.1-0.1h-0.1h-0.7H133h-0.5h-0.2h-0.1
					c-0.1-0.2,0.5,1.6,0.3,0.9l0,0l0,0l0,0l0.1-0.1l0.1-0.1c0.3-0.1,0.5-0.3,0.8-0.4l0.3-0.1l0.4-0.2l0.2-0.1
					c0.1-0.1,0.2-0.1,0.1-0.1l-0.2-0.4c-0.1-0.1-0.2-0.3-0.2-0.4c0-0.1-0.1-0.1-0.1-0.2c-0.1-0.1-0.1-0.3-0.1-0.3l0,0
					c-0.2-0.5-0.2-1-0.1-1.4c0.1-0.1,0.1-0.3,0.1-0.4l0.1-0.2c0-0.1,0.1-0.1,0.1-0.1c0.2-0.2,0.4-0.4,0.6-0.6
					c0.5-0.4,1.1-0.7,1.6-1.1c0.6-0.4,1.1-0.8,1.6-1.2c0.5-0.5,1-1.1,1.1-1.8c0-0.1,0-0.1,0-0.1c0-0.1,0-0.1,0-0.2s0-0.1-0.1-0.3
					c-0.1-0.2-0.1-0.3-0.1-0.5c-0.1-0.3-0.2-0.6-0.3-0.9c-0.3-0.6-0.5-1.1-0.8-1.6c-0.6-1.1-1.2-2-1.7-2.9c-0.5-1-0.8-2-0.7-2.9
					c0.1-0.9,0.7-1.7,1.4-2.4c1.4-1.5,3.1-2.6,4.6-3.6c1.5-1,3-1.9,4.3-2.8c0.3-0.3,0.6-0.5,0.9-0.7l0.5-0.3l0.6-0.4l0.8-0.6
					l0.7-0.6l0.6-0.6l0.3-0.3l0.2-0.1l0.1-0.1l0,0l0,0h-0.1l-1.5,0.3l-0.7,0.2h-0.4l-0.4,0.1l-0.7,0.2l-0.4,0.1l-0.6,0.3
					c-0.8,0.3-1.3,0.5-1.6,0.7l-0.3,0.1c0,0-0.6,0.3-1.6,0.9c-1.1,0.6-2.5,1.5-4.2,2.9s-3.5,3.2-5.3,5.5c-1.8,2.3-3.4,5-4.9,8.2
					c-0.7,1.6-1.4,3.2-1.9,5c-0.2,0.5-0.3,0.9-0.4,1.3l-0.2,0.7l-0.1,0.3l-0.1,0.3l-0.1,0.2c0,0.1,0.1,0.1,0.1,0.1l0.4,0.4l0.3,0.3
					l0.5,0.6c0.3,0.4,0.6,0.8,0.9,1.2c0.3,0.4,0.6,0.9,0.8,1.2l0.1,0.1l0,0v0.3v0.7v2.9v6.1v12.8v0.2v0.1v0.1c0,0.1,0,0.3,0,0.4
					c0,0.3,0,0.5-0.1,0.7c-0.1,0.5-0.2,1-0.5,1.4c-0.3,0.4-0.6,0.8-1,1.1l-0.2,0.1l-0.1,0.1l-0.2,0.1c-0.1,0.1-0.3,0.1-0.4,0.3
					l0.1,0.4l0.3,0.9c0.7,2,1.6,4,2.5,6c0.3,0.7,0.7,1.2,1,1.8l0.3,0.5l0.2,0.3l0.1,0.2l0.1,0.1c0,0.1,0.1,0.1,0.1,0.1l1.2,0.4
					c1.4,0.5,2.8,0.9,4.3,1.2c2.8,0.7,5.7,1.3,8.5,1.6c1.4,0.2,2.8,0.3,4.2,0.4c0.7,0.1,1.4,0.1,2,0.1l1,0.1h0.6h0.7h0.3h0.1
					c0.1,0,0.1-0.1,0.1-0.1l0.2-0.5l0.3-0.7c0.1-0.1-0.1-0.1-0.1-0.1l-0.2-0.1c-0.1-0.1-0.2-0.1-0.3-0.1l-0.2-0.1
					c-0.1,0-0.1-0.1-0.1-0.1c-0.1,0-0.1-0.1-0.1-0.1c-0.1-0.1-0.1-0.1-0.2-0.1c-0.1-0.1-0.2-0.2-0.3-0.3l-0.6-0.6
					c-0.2-0.2-0.4-0.4-0.7-0.6C150.3,200.2,150,200.1,149.8,200.1c0.6,0.3,0.7,0.8,0.9,1.2c0.1,0.3,0.2,0.5,0.4,0.7
					c0.1,0.1,0.2,0.3,0.4,0.4c0.1,0.1,0.2,0.1,0.3,0.2c0.1,0.1,0.1,0.1,0.2,0.1c0.1,0.1,0,0,0,0l0,0l0,0l0,0l0,0l0,0l0,0l0.1-0.1
					l0,0l0,0l0,0l0,0h-0.4H151l-1-0.1c-0.7-0.1-1.3-0.1-2-0.1c-1.4-0.1-2.7-0.3-4.1-0.4c-2.7-0.4-5.6-0.9-8.4-1.6
					c-1.4-0.4-2.8-0.8-4.2-1.2l-0.9-0.3l-0.4-0.7c-0.4-0.6-0.7-1.2-1-1.8c-1-1.9-1.8-3.9-2.5-5.8l-0.2-0.7l0,0l0,0l0.1-0.1l0.2-0.1
					c0.5-0.4,0.9-0.9,1.2-1.4c0.3-0.5,0.5-1.1,0.6-1.6c0.1-0.3,0.1-0.6,0.1-0.9c0-0.1,0-0.3,0-0.4v-0.1c0-0.1,0,0,0-0.1v-0.3v-12.5
					v-6.1v-2.9V163v-0.5v-0.1c0-0.1-0.1-0.1-0.1-0.1l-0.1-0.1l-0.1-0.1c-0.3-0.4-0.6-0.9-0.9-1.2c-0.3-0.4-0.6-0.9-0.9-1.2l-0.5-0.6
					l-0.4-0.5l0,0v-0.1l0.1-0.3l0.2-0.7c0.2-0.5,0.3-0.9,0.4-1.3c0.6-1.7,1.2-3.3,1.9-4.9c1.4-3.1,3.1-5.8,4.8-8
					c1.7-2.2,3.5-4,5.2-5.4c1.6-1.3,3.1-2.2,4.1-2.8c1-0.6,1.6-0.8,1.6-0.8l0.3-0.1c0.3-0.1,0.8-0.4,1.5-0.6l0.6-0.2l0.3-0.1l0,0
					l0,0l-0.3,0.2l-0.4,0.3c-0.3,0.3-0.6,0.4-0.9,0.7c-1.3,0.9-2.7,1.8-4.3,2.8c-1.5,1.1-3.2,2.2-4.7,3.7c-0.8,0.7-1.5,1.7-1.6,2.9
					c-0.2,1.2,0.3,2.3,0.8,3.3c0.5,1.1,1.2,2,1.7,3c0.3,0.5,0.6,1,0.8,1.5c0.1,0.3,0.2,0.5,0.3,0.8c0.1,0.1,0.1,0.3,0.1,0.4
					c0,0.1,0,0.1,0.1,0.2c0,0.1,0,0.1,0,0.1c0,0.1,0,0.1,0,0.1c-0.1,0.4-0.4,0.9-0.8,1.3c-0.4,0.4-1,0.8-1.5,1.2
					c-0.6,0.4-1.1,0.7-1.7,1.2c-0.3,0.3-0.6,0.4-0.8,0.8c-0.1,0.1-0.1,0.2-0.2,0.3c-0.1,0.1-0.1,0.2-0.1,0.3
					c-0.1,0.2-0.1,0.3-0.2,0.5c-0.1,0.6-0.1,1.2,0.1,1.8l0,0c0.1,0.1,0.1,0.3,0.2,0.4c0.1,0.1,0.1,0.1,0.1,0.3l0,0l0,0l-0.1,0.1
					c-0.3,0.1-0.6,0.3-0.8,0.4l-0.1,0.1l-0.1,0.1l0,0l0,0l0,0c-0.3-0.7,0.3,1,0.3,0.9h0.1h0.2h0.5h0.9h0.3l0,0
					c0,0.1,0.1,0.1,0.2,0.1c0.5,0.4,1,0.8,1.5,1.1c1.1,0.7,2.2,1.1,3.4,1.5c1.2,0.4,2.4,0.7,3.6,0.9l0,0c0.6,0.1,1.3,0.2,1.9,0.3
					l0.3,0.1h0.1h0.1h0.1l0,0c0,0,0,0,0-0.1v-0.1c0-0.1,0-0.1,0-0.1c0-0.1,0-0.1,0.1-0.1s-0.1,0-0.2-0.2c-0.1-0.1-0.1-0.1-0.1-0.1
					c0-0.1,0,0,0,0l0,0l-0.1,0.1l-0.1,0.1c-0.1,0.1-0.2,0.1-0.3,0.2c-0.2,0.1-0.3,0.3-0.5,0.5c-0.1,0.1-0.2,0.2-0.2,0.3l0,0l0,0H144
					c-0.2,0-0.4,0.1-0.6,0.1c-0.4,0.1-0.8,0.2-1.1,0.3c-1.4,0.6-2.5,1.6-3.3,2.8c-0.1,0.2-0.2,0.4-0.3,0.6c-0.1,0.1-0.1,0.2-0.2,0.3
					l-0.2,0.3l-0.2,0.6l-0.1,0.3l-0.1,0.1c0,0-0.1,0.1,0,0.1l0.2,0.1l0.6,0.1l0.3,0.1l0.2,0.1c0.8,0.2,1.5,0.4,2.2,0.8
					c1.4,0.7,2.6,1.7,3.4,2.9c0.8,1.2,1.2,2.6,1.2,4c0,0.4-0.1,0.7-0.1,1.1l-0.1,0.3c-0.1,0.2-0.1,0.4-0.2,0.6l-0.1,0.3l-0.1,0.1
					v0.1h0.1h0.6h0.9l0,0v0.1c0,0.1,0,0.2,0.1,0.3c0,0.2,0,0.3,0,0.5c0,0.7-0.2,1.4-0.3,2c-0.2,0.7-0.4,1.4-0.5,2.2
					c-0.1,0.4-0.1,0.8,0,1.2c0.1,0.4,0.2,0.9,0.5,1.2c0.5,0.7,1.3,1.2,2,1.5c0.4,0.1,0.8,0.3,1.1,0.4c0.2,0.1,0.4,0.1,0.6,0.1
					c0.2,0.1,0.4,0.1,0.6,0.1c0.8,0.1,1.6,0.1,2.2,0.2c0.4,0.1,0.7,0.1,0.8,0.2c0.1,0.1,0.1,0.1,0.1,0.1l0,0l0.1,0.1v0.1l0.1,0.1
					c0.1,0.1,0.2,0.3,0.3,0.4c0.3,0.5,0.4,1,0.2,1.5c-0.2,0.5-0.7,0.9-1.2,1.2s-1.1,0.7-1.7,1l-0.4,0.3l-0.5,0.3
					c-0.3,0.1-0.5,0.3-0.7,0.4c-0.4,0.3-0.6,0.5-0.9,0.8c-0.2,0.3-0.3,0.7-0.3,1s0.2,0.6,0.3,0.9
					C149.7,199.6,149.8,199.9,149.8,200.1z"/>
			</g>
		</g>
		<g>
			<path class="st4" d="M181,160.4c-1.7-5.8-4.3-12.6-8.5-18C176.4,147.2,179.4,153.4,181,160.4z"/>
			<g>
				<path class="st3" d="M181,160.4c0-1.2-0.1-2-0.5-3.3l-0.3-0.8l-0.2-0.6l-0.5-1.2c-0.7-1.8-1.5-3.8-2.5-5.8s-2-3.7-2.9-4.9
					c-0.4-0.7-0.8-1.2-1.1-1.5l-0.2-0.3l0,0l0,0c0.2-0.1-1.5,1-0.8,0.5l0,0l0,0v0.1l0.1,0.1l0.1,0.1l0.1,0.1c0,0,0.6,0.8,1.5,2
					s1.9,2.9,2.8,4.8c1,1.9,1.8,3.9,2.4,5.6c0.3,0.9,0.5,1.6,0.6,1.9C180.1,158.6,180.4,159.3,181,160.4c0.1-1.2,0-2-0.4-3.3
					c-0.1-0.4-0.3-1.1-0.6-2c-0.6-1.7-1.5-3.8-2.4-5.8c-1-1.9-2-3.7-2.9-4.9c-0.9-1.3-1.5-2-1.5-2l-0.1-0.1l-0.1-0.1l-0.1-0.1v-0.1
					l0,0l0,0c0.7-0.5-1,0.7-0.8,0.5l0,0l0,0l0.2,0.3c0.3,0.4,0.6,0.9,1.1,1.5c0.9,1.2,1.9,2.9,2.8,4.8c1,1.9,1.8,3.9,2.5,5.6
					l0.5,1.2l0.2,0.6l0.3,0.8C180,158.6,180.4,159.4,181,160.4z"/>
			</g>
		</g>
		<g>
			<path class="st3" d="M130,199.3c4.6,7.6,11.2,12.9,18.7,14.3c0.4-3.7,2-7.2,3.4-10.5C144.4,203,136.9,201.6,130,199.3z"/>
			<g>
				<path class="st3" d="M130,199.3c0.4,1.2,0.6,1.9,1.5,3l0.5,0.7l0.4,0.5l0.6,0.8c0.2,0.3,0.5,0.6,0.7,0.9
					c1.9,2.2,4.6,4.6,7.6,6.3c1.5,0.9,3.1,1.6,4.6,2c0.4,0.1,0.8,0.3,1.1,0.3l0.6,0.1l0.3,0.1l0.3,0.1c0.4,0.1,0.7,0.1,1,0.2
					l0.1-0.9l0.1-0.5l0.1-0.4c0.4-2.2,0.9-3.5,0.9-3.5s0.5-1.4,1.3-3.4l0.7-1.7l0.4-0.9l0.1-0.3v-0.1l0,0h-0.2H152l-1.5-0.1
					c-1.6-0.1-3.2-0.1-5-0.3c-1.7-0.2-3.4-0.4-5.2-0.7c-0.9-0.1-1.7-0.3-2.5-0.5l-1.2-0.3l-1.1-0.3c-1-0.3-1.7-0.5-2.1-0.6
					C132.3,199.6,131.3,199.5,130,199.3c1.1,0.7,1.8,1.1,3.3,1.5c0.4,0.1,1.2,0.3,2.2,0.6l1.1,0.3l1.2,0.3c0.8,0.2,1.7,0.3,2.5,0.5
					c1.7,0.3,3.5,0.6,5.3,0.7c1.7,0.2,3.4,0.3,5.1,0.3h0.8c0,0,0,0,0,0.1l-0.7,1.6c-0.9,2.1-1.3,3.5-1.3,3.5s-0.5,1.4-1,3.6
					l-0.1,0.4l-0.1,0.4l0,0L148,213l-0.5-0.1c-0.4-0.1-0.7-0.2-1.1-0.3c-1.5-0.5-2.9-1.1-4.4-1.9c-2.9-1.6-5.5-3.9-7.4-6.1
					c-0.3-0.3-0.5-0.6-0.7-0.8l-0.6-0.7l-0.4-0.5l-0.5-0.7C131.5,200.8,131,200.2,130,199.3z"/>
			</g>
		</g>
		<g>
			<path class="st3" d="M152.8,203.1c-0.2,0-0.4,0-0.6,0c-1.5,3.3-3,6.9-3.4,10.5c1.3,0.3,2.6,0.4,4,0.4c9.1,0,17.2-5.7,22.6-14.6
				C168.5,201.7,160.9,203.1,152.8,203.1z"/>
			<g>
				<path class="st3" d="M152.8,203.1c-0.2-0.1-0.3-0.1-0.5-0.1l-0.2-0.1h-0.1c-0.1,0-0.1,0.1-0.1,0.1l-0.2,0.3
					c-0.1,0.2-0.2,0.3-0.3,0.4l-0.2,0.3c-0.3,0.5-0.6,0.9-0.8,1.6l-0.3,0.8l-0.2,0.6l-0.4,1.1c-0.2,0.4-0.3,0.8-0.4,1.2
					c-0.3,0.9-0.5,1.6-0.7,2.5c-0.1,0.5-0.2,0.9-0.3,1.4l-0.1,0.4l-0.1,0.7c0,0.1-0.1,0.1,0,0.2l0.2,0.1l0.4,0.1l0.4,0.1l0.2,0.1
					c2.1,0.3,4.3,0.4,6.3,0.1s4.1-0.9,5.8-1.6c1.7-0.8,3.2-1.6,4.4-2.4c2.4-1.6,3.6-2.9,3.6-2.9s1.4-1.2,3.1-3.3
					c0.5-0.6,0.9-1.2,1.4-1.8c0.3-0.3,0.5-0.7,0.7-1l0.4-0.6l0.3-0.5l0.4-0.6l0.7-1.1l0.1-0.1l-0.2,0.1l-0.3,0.1l-0.7,0.3l-1.4,0.5
					l-0.7,0.3c-0.9,0.3-1.9,0.6-2.9,0.9c-2,0.5-4,1-6,1.3c-1,0.2-2,0.3-2.9,0.4c-0.5,0.1-1,0.1-1.4,0.1l-1.3,0.1
					c-1,0.1-1.8,0.1-2.2,0.1C155,202.6,154.1,202.8,152.8,203.1c1.3,0.3,2.1,0.4,3.6,0.4c0.4,0,1.2-0.1,2.2-0.1l1.4-0.1
					c0.5-0.1,1-0.1,1.5-0.2c1-0.1,2-0.3,3-0.4c2-0.3,4.1-0.8,6.1-1.3c1-0.3,2-0.6,2.9-0.9l0.7-0.3l0,0l-0.4,0.6
					c-0.3,0.3-0.5,0.7-0.7,1c-0.5,0.7-0.9,1.2-1.3,1.7c-1.7,2.1-3.1,3.2-3.1,3.2s-1.2,1.2-3.5,2.8c-1.2,0.8-2.6,1.6-4.2,2.3
					c-1.7,0.7-3.5,1.2-5.5,1.5c-2,0.3-4.1,0.3-6-0.1l-0.2-0.1l0,0l0.1-0.3c0.1-0.5,0.2-0.9,0.3-1.3c0.2-0.9,0.4-1.7,0.7-2.5
					c0.1-0.4,0.3-0.8,0.4-1.2l0.4-1l0.2-0.6l0.3-0.8c0.3-0.7,0.4-1.2,0.6-1.6l0.1-0.4c0-0.1,0.1-0.3,0.1-0.3v-0.1
					c0-0.1,0-0.1,0.1-0.1h0.1C152.6,203.1,152.7,203.1,152.8,203.1z"/>
			</g>
		</g>
		<g>
			<path d="M153.4,132c7.4,0.3,14,4.1,19.1,10.4C168,136.5,161.9,132.2,153.4,132z"/>
			<g>
				<path class="st3" d="M153.4,132c1.3,0.3,2.1,0.6,3.5,0.9c0.2,0.1,0.5,0.1,0.9,0.2l0.6,0.1c0.4,0.1,1,0.3,1.4,0.5
					c2,0.7,4.3,1.9,6.2,3.2c1.9,1.4,3.5,2.9,4.7,4.1c0.6,0.6,1,1.2,1.3,1.5l0.1,0.1l0.1,0.1v0.1c0.4-0.3-0.8,0.5,0.8-0.5l0,0l0,0
					l0,0l0,0l-0.2-0.2l-0.1-0.1c0,0-0.7-0.9-1.8-2.1c-1.1-1.2-2.8-2.9-4.9-4.2c-1-0.7-2.1-1.3-3.3-1.8c-1.1-0.5-2.3-1-3.3-1.2
					c-1-0.3-1.8-0.4-2.2-0.5C155.6,131.6,154.6,131.7,153.4,132c1.3,0.3,2.1,0.6,3.5,0.8c0.4,0.1,1.2,0.3,2.1,0.5
					c1,0.3,2.1,0.7,3.2,1.2c1.1,0.5,2.1,1.1,3.1,1.8c2,1.3,3.6,2.9,4.7,4c1.1,1.2,1.7,2,1.7,2l0.1,0.1l0.2,0.2l0,0l0,0l0,0l0,0
					c1.6-1,0.5-0.3,0.8-0.5v-0.1l-0.1-0.1l-0.1-0.1c-0.3-0.4-0.8-0.9-1.3-1.5c-1.1-1.2-2.8-2.9-4.8-4.2c-2-1.5-4.4-2.6-6.5-3.3
					c-0.3-0.1-0.5-0.2-0.8-0.3l-0.4-0.1l-0.4-0.1l-0.6-0.1c-0.4-0.1-0.7-0.1-0.9-0.2C155.6,131.6,154.6,131.7,153.4,132z"/>
			</g>
		</g>
		<g>
			<path d="M132.3,161.9h2.1c-0.2-0.3-0.4-0.5-0.6-0.7C132.8,161.6,132.3,161.9,132.3,161.9z"/>
			<g>
				<path class="st3" d="M132.3,161.9c0.2,0.3,0.4,0.5,0.7,0.5h2.5L135,162l-0.3-0.3l-0.3-0.3c-0.1-0.1-0.2-0.3-0.3-0.4l-0.3-0.3
					l-0.4,0.1c-0.4,0.1-0.9,0.4-1,0.4C132.4,161.4,132.3,161.6,132.3,161.9c0.4,0.1,0.6,0.3,0.8,0.1c0.2-0.1,0.6-0.3,1-0.4l-0.6-0.2
					c0,0.1,0,0,0,0l0,0l0,0H133C132.6,161.5,132.5,161.6,132.3,161.9z"/>
			</g>
		</g>
		<g>
			<path d="M133.8,161.2c0.2,0.3,0.4,0.5,0.6,0.7h14.3C142.9,158.4,136.6,160.1,133.8,161.2z"/>
			<g>
				<path class="st3" d="M133.8,161.2c0.1,0.1,0.1,0.3,0.2,0.4l0.1,0.2c0.1,0.1,0.1,0.1,0.2,0.3l0.1,0.1h0.1h0.2h0.2h0.1l0.4,0.1
					c0.6,0.1,1.2,0.1,1.9,0.1h1.5h6.6h1.5h0.2h0.3h0.6l1-0.1l1.5-0.1h0.1c0,0,0.1,0,0,0l-0.1-0.1H150l-0.1-0.1c0,0-0.5-0.3-1.4-0.9
					c-0.2-0.1-0.5-0.3-0.8-0.4l-0.2-0.1l-0.2-0.1l-0.3-0.1c-0.4-0.1-0.8-0.3-1.3-0.5c-0.9-0.3-2-0.5-3.1-0.7c-1.1-0.1-2.2-0.1-3.1,0
					c-1,0.1-1.9,0.3-2.3,0.3C135.6,160.1,134.8,160.5,133.8,161.2c1.3-0.2,2.1-0.3,3.5-0.6c0.4-0.1,1.2-0.3,2.2-0.3
					c0.9-0.1,1.9-0.1,2.9,0c1,0.1,2,0.3,2.9,0.6c0.4,0.1,0.8,0.3,1.2,0.4l0.4,0.1l0,0l0,0h-1.7h-6.5h-1.5c-0.8,0-1.4,0.1-1.9,0.1
					l-0.5,0.1h-0.1c-0.1,0-0.1,0-0.1,0c-0.1,0-0.1,0.1-0.1,0c-0.1,0-0.1-0.1-0.1-0.1l-0.2-0.1C134,161.4,133.9,161.4,133.8,161.2z"
					/>
			</g>
		</g>
		<g>
			<path class="st3" d="M127.9,185.4c0.3,2.2-0.7,3.6-2.1,4.4c-1.7-5.1-2.6-10.8-2.6-16.8c0-5,0.7-9.9,1.8-14.3
				c1.7,1.9,2.9,3.9,2.9,3.9V185.4z"/>
			<g>
				<path class="st3" d="M127.9,185.4c-0.1,0.6-0.3,1.1-0.4,1.5c-0.2,0.5-0.4,0.9-0.7,1.4c-0.1,0.1-0.3,0.4-0.5,0.6
					c-0.1,0.1-0.1,0.1-0.2,0.2l-0.1,0.1l0,0l-0.4-1.2c-1-3.3-1.7-7.3-1.9-11c-0.3-3.8-0.1-7.5,0.2-10.1c0.3-2.7,0.7-4.4,0.7-4.4
					l0.3-1.2c0.1-0.4,0.2-0.9,0.3-1.4v-0.1l0,0l0.3,0.3l0.4,0.5c0.3,0.3,0.5,0.6,0.7,1c0.3,0.3,0.5,0.7,0.7,1l0.2,0.3l0,0v0.1v0.7
					v5.5v13.2C127.4,183.5,127.5,184.2,127.9,185.4c0.3-1.2,0.5-1.9,0.5-3.3v-13.3v-5.5v-0.7v-0.2c0.1-0.1-0.1-0.2-0.1-0.3l-0.2-0.3
					c-0.3-0.4-0.5-0.7-0.7-1.1c-0.3-0.3-0.5-0.7-0.7-1l-0.4-0.5l-0.5-0.6c-0.2-0.3-0.5-0.5-0.7-0.8l-0.3-0.4l-0.1-0.1
					c0-0.1,0,0,0,0.1v0.1l-0.1,0.3l-0.3,1l-0.2,0.7c-0.2,0.6-0.3,1-0.3,1.4l-0.3,1.2c0,0-0.4,1.7-0.7,4.4c-0.3,2.7-0.5,6.4-0.2,10.3
					c0.3,3.9,1,7.9,1.9,11.2c0.1,0.4,0.3,0.9,0.4,1.2c0.1,0.4,0.3,0.7,0.4,1.1v0.1v0.1h0.1l0.2-0.1l0.3-0.1l0.3-0.1
					c0.1-0.1,0.1-0.1,0.1-0.1h0.1c0.2-0.1,0.4-0.3,0.5-0.3c0.1-0.1,0.2-0.1,0.3-0.3c0.3-0.3,0.5-0.6,0.6-0.7
					c0.5-0.7,0.6-1.2,0.6-1.8C128.3,186.5,128.1,185.9,127.9,185.4z"/>
			</g>
		</g>
		<g>
			<path class="st3" d="M123.2,173c0,6,0.9,11.8,2.6,16.8c-4.8,2.9-15.5-0.3-9.6-4.4c7.7-5.4-2.3-14,0-25.9c1.5-7.6,5.9-4.2,8.9-0.9
				C123.7,163.1,123.2,167.9,123.2,173z"/>
			<g>
				<path class="st3" d="M123.2,173c-0.3,1.2-0.5,1.9-0.4,3.3l0.1,0.9l0.1,0.6l0.1,0.7l0.1,0.9c0.1,0.6,0.2,1.2,0.2,1.7
					c0.4,2.4,0.9,4.9,1.6,7.6l0.3,1l0.1,0.2l0,0l-0.1,0.1c-0.6,0.3-1.3,0.5-2,0.7c-1.4,0.3-2.9,0.3-4.3-0.1c-0.7-0.1-1.4-0.3-2-0.6
					s-1.2-0.7-1.5-1.1s-0.4-0.9-0.2-1.4c0.2-0.5,0.7-0.9,1.1-1.3c0.1-0.1,0.3-0.2,0.4-0.3c0.2-0.1,0.3-0.2,0.4-0.3
					c0.3-0.3,0.5-0.4,0.8-0.7c0.5-0.5,0.9-1,1.2-1.5c0.6-1.1,0.8-2.2,0.8-3.2c0-1-0.2-1.9-0.3-2.6c-0.2-0.8-0.3-1.4-0.5-2
					c-0.3-1.1-0.5-1.6-0.5-1.6l-0.5-1.6c-0.3-1.1-0.8-2.5-1.1-4.4c-0.4-1.8-0.6-4-0.4-6.4c0.1-1.2,0.3-2.4,0.7-3.6
					c0.2-0.6,0.5-1.2,0.9-1.6c0.4-0.5,0.9-0.9,1.4-0.9s1.2,0.2,1.8,0.6c0.6,0.3,1.1,0.8,1.7,1.2c0.5,0.5,1,1,1.5,1.5l0.2,0.1
					l-0.1,0.4c-0.1,0.3-0.2,0.7-0.3,1c-0.3,1.3-0.6,2.6-0.8,3.9c-0.1,0.7-0.2,1.3-0.3,1.9l-0.1,0.9l-0.1,0.9c-0.1,0.9-0.2,1.6-0.2,2
					C122.7,171,122.9,171.8,123.2,173c0.3-1.2,0.5-1.9,0.6-3.2c0-0.4,0.1-1.1,0.2-2l0.1-0.9l0.1-0.9c0.1-0.6,0.2-1.2,0.3-1.9
					c0.2-1.3,0.5-2.5,0.8-3.8c0.1-0.3,0.2-0.7,0.3-1l0.2-0.6l0.1-0.1v-0.1l-0.1-0.1l-0.2-0.2l-0.2-0.3c-0.5-0.6-1-1.1-1.5-1.6
					c-0.6-0.5-1.2-1-1.8-1.4c-0.7-0.4-1.5-0.7-2.4-0.7c-0.5,0.1-0.9,0.2-1.3,0.4c-0.4,0.3-0.7,0.5-0.9,0.9c-0.5,0.6-0.8,1.3-1,1.9
					c-0.5,1.3-0.7,2.5-0.8,3.8c-0.3,2.5,0.1,4.7,0.4,6.7c0.4,1.9,0.8,3.4,1.1,4.4l0.5,1.6c0,0,0.2,0.6,0.5,1.6
					c0.2,0.5,0.3,1.2,0.5,1.9c0.2,0.7,0.3,1.6,0.3,2.5s-0.2,1.9-0.7,2.8c-0.3,0.5-0.6,0.9-1,1.3c-0.2,0.2-0.4,0.4-0.7,0.6
					c-0.1,0.1-0.3,0.2-0.4,0.3c-0.2,0.1-0.3,0.2-0.4,0.3c-0.6,0.4-1.1,0.9-1.4,1.6c-0.2,0.4-0.2,0.8-0.2,1.2
					c0.1,0.4,0.3,0.8,0.5,1.1c0.5,0.7,1.2,1,1.9,1.3c0.7,0.3,1.5,0.5,2.2,0.7c1.5,0.3,3.1,0.3,4.7,0.1c0.8-0.1,1.6-0.4,2.3-0.7
					l0.2-0.1l0.2-0.1l0.3-0.1l0.1-0.1l0.1-0.1v0.1l-0.3-0.8l-0.3-1c-0.8-2.5-1.3-5.1-1.6-7.5c-0.1-0.6-0.2-1.2-0.2-1.7l-0.1-0.9
					l-0.1-0.7l-0.1-0.6l-0.1-0.8C123.7,174.8,123.4,174.1,123.2,173z"/>
			</g>
		</g>
	</g>
	<g>
		<g>
			<path class="st5" d="M153.4,132c7.4,0.3,14,4.1,19.1,10.4c3.9,4.8,6.8,11,8.5,18"/>
		</g>
		<path class="st6" d="M150.5,132c0,0-16.7,9.4-3.5,24.3c0,0,3.7,4.9,3.2,7.2c-0.6,2.3,2.5,0,2.5,0l-2.5,18.9c0,0-7.1,0.3,0,5.2h5.8
			c0,0-0.7,4.3-5.8,6.9c-5.1,2.5-3-1.2-7.4-2.2c0,0-10.3,0.3-2.7,6.3c0,0,7.9,7.3,11.5,7.2c3.7-0.1,0.6,0,0.6,0s11.1,7-2.8,7.2
			c-3.4,0.1-19.8-6.2-22.9-22.5c-1-4.9-1-2.2-1-2.2s2.9-17.4,0.3-19.9c0,0-2.6-10.2-0.2-11.6C127.9,155.4,129.1,137.9,150.5,132z"/>
		<g>
			<path class="st5" d="M125,158.7c0.1-0.3,0.2-0.6,0.3-0.9c4.4-15.1,15-25.8,27.6-25.8c0.2,0,0.4,0,0.6,0
				c8.5,0.2,14.7,4.6,19.1,10.4c4.2,5.4,6.8,12.2,8.5,18"/>
		</g>
		<g>
			<path class="st5" d="M127.9,162.5c0,0-1.2-2-2.9-3.9c-2.9-3.4-7.3-6.7-8.9,0.9c-2.3,11.9,7.7,20.5,0,25.9c-6,4.1,4.8,7.4,9.6,4.4
				c1.5-0.9,2.4-2.3,2.1-4.4"/>
		</g>
		<g>
			<path class="st5" d="M178.4,163.8c0,0,1.1-1.7,2.6-3.5c2.9-3.5,7.6-7.4,9.2,0.5c0.1,18.1-8.1,21.7,0,25.9
				c2.2,1.6,2.1,2.9,0.9,3.9c-2.3,1.9-8.7,2.5-11.4-0.3c-0.9-0.9-1.4-2.1-1.2-3.7"/>
		</g>
		<g>
			<g>
				<g>
					<path d="M132.3,161.9c0.7-0.2,1.3-0.3,1.9-0.4c0.4-0.1,0.7-0.1,1-0.3c0.3-0.1,0.7-0.2,1.1-0.3c0.3-0.1,0.7-0.2,1.6-0.4
						c0.4-0.1,1-0.2,1.5-0.2c0.3-0.1,0.5-0.1,0.7-0.1c0.2,0,0.3,0,0.3,0s0.4,0,0.8,0c0.5-0.1,1,0.1,1.4,0.1c0.3,0,0.6,0.1,0.9,0.1
						c0.3,0.1,0.5,0.1,0.7,0.1c0.4,0.1,0.7,0.2,0.9,0.3c0.8,0.2,1.4,0.4,2,0.6c0.6,0.2,1.2,0.4,1.9,0.6c-0.5-0.5-1-0.9-1.5-1.2
						c-0.6-0.3-1.2-0.7-2-0.9c-0.2-0.1-0.5-0.2-0.9-0.3c-0.2-0.1-0.5-0.1-0.7-0.1c-0.3-0.1-0.6-0.1-0.9-0.1c-0.4,0-1-0.1-1.5-0.1
						c-0.5,0-0.9,0-0.9,0s-0.1,0-0.3,0c-0.2,0-0.5,0.1-0.7,0.1c-0.6,0.1-1.2,0.2-1.6,0.3c-1,0.2-1.5,0.3-1.7,0.4
						c-0.4,0.1-0.8,0.3-1.1,0.4c-0.4,0.1-0.6,0.3-0.9,0.4C133.3,161.1,132.8,161.4,132.3,161.9z"/>
				</g>
			</g>
		</g>
		<g>
			<g>
				<g>
					<path d="M142.2,197.9c0.4,0.6,0.9,1,1.4,1.3c0.6,0.4,1.1,0.7,1.9,1c0.3,0.1,0.7,0.3,1.7,0.6c0.2,0.1,0.4,0.1,0.7,0.2
						c0.3,0.1,0.5,0.1,0.8,0.1c0.6,0.1,1.2,0.2,1.8,0.3c0.2,0,0.3,0.1,0.4,0.1c0.2,0,0.3,0,0.4,0c0.3,0,0.5,0,0.7,0
						c0.4,0,0.6,0,0.6,0s0.1,0,0.2,0s0.2,0,0.4-0.1c0.3-0.1,0.8-0.1,1.3-0.1c0.6-0.1,1.1-0.2,1.6-0.3c0.3-0.1,0.6-0.1,0.8-0.1
						c0.3-0.1,0.5-0.1,0.7-0.2c0.7-0.2,1.2-0.3,1.6-0.5c0.4-0.1,0.7-0.3,0.9-0.3c0.4-0.1,0.8-0.3,1.1-0.5c0.3-0.1,0.6-0.3,0.9-0.5
						c0.5-0.4,1-0.7,1.5-1.2c-0.7,0.2-1.3,0.3-1.9,0.5c-0.3,0.1-0.6,0.3-0.9,0.3c-0.3,0.1-0.7,0.3-1.1,0.4c-0.2,0.1-0.5,0.2-0.9,0.3
						c-0.4,0.1-0.9,0.3-1.5,0.4c-0.2,0.1-0.4,0.1-0.7,0.2c-0.3,0.1-0.5,0.1-0.8,0.1c-0.5,0.1-1,0.2-1.5,0.3
						c-0.5,0.1-0.9,0.1-1.2,0.1c-0.2,0-0.3,0-0.4,0.1c-0.1,0-0.2,0-0.2,0s-0.2,0-0.6,0c-0.2,0-0.4,0-0.6,0c-0.1,0-0.3,0-0.4,0
						c-0.2,0-0.3-0.1-0.4-0.1c-0.6-0.1-1.1-0.1-1.7-0.3c-0.3-0.1-0.5-0.1-0.8-0.1s-0.5-0.1-0.6-0.2c-0.9-0.3-1.3-0.4-1.6-0.5
						c-0.7-0.3-1.3-0.5-1.9-0.7C143.5,198.4,142.9,198.2,142.2,197.9z"/>
				</g>
			</g>
		</g>
		<g>
			<g>
				<g>
					<path d="M158.4,167.5c1.1,0.9,2,1.4,3.7,1.8c0.3,0.1,0.8,0.2,1.8,0.3c0.2,0.1,0.5,0.1,0.5,0.1s0.3,0.1,0.5,0.1
						c1.4,0.1,2.2-0.1,2.6-0.1c0.9-0.1,1.6-0.4,2.1-0.8c0.6-0.4,1-0.8,1.4-1.3c-0.7,0.3-1.2,0.5-1.8,0.7c-0.6,0.2-1.2,0.3-1.9,0.5
						c-0.4,0.1-1.1,0.2-2.4,0.1c-0.2,0-0.5-0.1-0.5-0.1s-0.4-0.1-0.5-0.1c-0.9-0.1-1.4-0.3-1.6-0.3
						C160.8,167.9,159.9,167.8,158.4,167.5z"/>
				</g>
			</g>
		</g>
		<g>
			<g>
				<g>
					<path d="M146.9,167.5c-1.4,0.5-2.2,0.7-3.8,1.2c-0.2,0.1-0.3,0.1-0.6,0.1c-0.3,0.1-0.6,0.1-1.1,0.2c-0.2,0-0.4,0.1-0.6,0.1
						c-0.2,0-0.4,0-0.4,0s-0.2,0-0.4,0c-0.2,0-0.4,0-0.6,0c-0.3-0.1-0.6-0.1-0.8-0.1c-0.3-0.1-0.5-0.1-0.7-0.1
						c-0.2-0.1-0.4-0.1-0.5-0.1c-0.2-0.1-0.3-0.1-0.4-0.1c-1.6-0.4-2.4-0.7-3.8-1.1c1,0.9,1.8,1.6,3.5,2c0.1,0.1,0.3,0.1,0.4,0.1
						c0.2,0.1,0.4,0.1,0.6,0.1c0.2,0.1,0.5,0.1,0.7,0.1c0.3,0.1,0.6,0.1,0.9,0.1c0.2,0,0.5,0.1,0.7,0c0.2,0,0.4,0,0.4,0s0.2,0,0.4,0
						c0.3,0,0.5-0.1,0.7-0.1c0.5-0.1,0.9-0.1,1.2-0.2c0.3-0.1,0.5-0.1,0.6-0.1C145.2,169.1,146,168.5,146.9,167.5z"/>
				</g>
			</g>
		</g>
		<g>
			<g>
				<g>
					<path d="M148.7,184.8c0.1,0.5,0.3,0.9,0.7,1.1c0.3,0.1,1.1,0.6,1.9,0.8c0.4,0.1,0.8,0.2,1.1,0.2c0.3,0.1,0.5,0.1,0.5,0.1
						s0.8,0.1,1.6-0.2c0.9-0.2,1.6-0.7,1.9-0.8c0.5-0.3,0.6-0.7,0.7-1.1c-0.6,0.1-0.9,0.1-1.3,0.3c-0.2,0.1-0.9,0.5-1.6,0.7
						c-0.7,0.2-1.3,0.1-1.3,0.1s-0.7,0-1.3-0.2c-0.7-0.2-1.4-0.6-1.6-0.7C149.5,184.8,149.2,184.8,148.7,184.8z"/>
				</g>
			</g>
		</g>
	</g>
	<g>
		<g>
			<path d="M172.6,161.9c-0.5-0.5-1-0.9-1.6-1.2c-0.3-0.2-0.6-0.4-0.9-0.5c-0.3-0.2-0.7-0.3-1.1-0.4c-0.3-0.1-0.8-0.2-1.7-0.5
				c-0.4-0.1-1-0.2-1.6-0.3c-0.3-0.1-0.5-0.1-0.7-0.1s-0.3,0-0.3,0s-0.4,0-0.9,0c-0.5-0.1-1.1,0.1-1.5,0.1c-0.4,0-0.7,0.1-0.9,0.2
				s-0.5,0.1-0.7,0.2c-0.4,0.1-0.7,0.2-0.9,0.3c-0.9,0.2-1.5,0.6-2,1c-0.6,0.4-1,0.8-1.5,1.3c0.7-0.2,1.3-0.4,1.9-0.6
				c0.6-0.2,1.2-0.4,2-0.6c0.2-0.1,0.5-0.2,0.9-0.3c0.2-0.1,0.4-0.1,0.7-0.1c0.3-0.1,0.5-0.1,0.9-0.1c0.4,0,1-0.1,1.4-0.1
				c0.5,0,0.8,0,0.8,0s0.1,0,0.3,0c0.2,0,0.4,0.1,0.7,0.1c0.5,0.1,1.1,0.2,1.5,0.2c0.9,0.2,1.4,0.3,1.6,0.4c0.4,0.1,0.8,0.2,1.1,0.3
				s0.6,0.2,1,0.3C171.3,161.6,171.9,161.6,172.6,161.9z"/>
		</g>
	</g>
</g>
<g>
	<g id="php">
		<ellipse class="st7" cx="90.7" cy="189.8" rx="23" ry="23"/>
		<g class="st8">
			<path d="M80,186.1h4c0.9,0,1.5,0.2,2,0.6s0.7,1,0.7,1.8c0,0.8-0.2,1.4-0.7,1.9c-0.5,0.4-1.2,0.7-2.2,0.7h-1.3v2.9H80V186.1z
				 M82.4,189.4H83c0.5,0,0.8-0.1,1-0.2c0.2-0.2,0.3-0.4,0.3-0.6c0-0.2-0.1-0.5-0.2-0.6c-0.2-0.2-0.5-0.3-0.9-0.3h-0.7V189.4z"/>
			<path d="M87.9,186.1h2.4v2.7H93v-2.7h2.4v7.8H93v-3.2h-2.6v3.2h-2.4V186.1z"/>
			<path d="M97,186.1h4c0.9,0,1.5,0.2,2,0.6s0.7,1,0.7,1.8c0,0.8-0.2,1.4-0.7,1.9c-0.5,0.4-1.2,0.7-2.2,0.7h-1.3v2.9H97V186.1z
				 M99.5,189.4h0.6c0.5,0,0.8-0.1,1-0.2c0.2-0.2,0.3-0.4,0.3-0.6c0-0.2-0.1-0.5-0.2-0.6c-0.2-0.2-0.5-0.3-0.9-0.3h-0.7V189.4z"/>
		</g>
	</g>
	<ellipse class="st9" cx="131.8" cy="69.3" rx="24.1" ry="24"/>
	<g class="st8">
		<path d="M115.7,67.9h1.9v3.3c0,0.7-0.1,1.2-0.2,1.6c-0.1,0.4-0.4,0.7-0.7,0.9c-0.4,0.3-0.8,0.4-1.4,0.4c-0.6,0-1.1-0.1-1.4-0.2
			c-0.3-0.2-0.6-0.4-0.8-0.7c-0.2-0.3-0.3-0.7-0.3-1.2l1.8-0.2c0,0.3,0,0.5,0.1,0.6c0,0.1,0.1,0.2,0.2,0.3c0.1,0.1,0.2,0.1,0.3,0.1
			c0.2,0,0.4-0.1,0.5-0.2c0.1-0.2,0.1-0.4,0.1-0.8V67.9z"/>
		<path d="M124.2,73.1c0.2,0.2,0.4,0.3,0.5,0.3c0.1,0.1,0.3,0.1,0.4,0.2l-0.5,1c-0.3-0.1-0.5-0.3-0.8-0.5c-0.3-0.2-0.4-0.3-0.5-0.4
			c-0.4,0.2-0.9,0.3-1.6,0.3c-0.9,0-1.6-0.2-2.2-0.7c-0.6-0.6-0.9-1.4-0.9-2.4c0-1,0.3-1.8,0.8-2.3s1.3-0.8,2.3-0.8
			c1,0,1.8,0.3,2.3,0.8c0.5,0.5,0.8,1.3,0.8,2.3C124.9,71.8,124.7,72.6,124.2,73.1z M122.8,72.1c0.1-0.3,0.2-0.7,0.2-1.2
			c0-0.6-0.1-1-0.3-1.3c-0.2-0.3-0.5-0.4-0.9-0.4c-0.4,0-0.7,0.1-0.9,0.4c-0.2,0.3-0.3,0.7-0.3,1.3c0,0.7,0.1,1.1,0.3,1.4
			c0.2,0.3,0.5,0.4,0.9,0.4c0.1,0,0.2,0,0.4,0c-0.2-0.2-0.4-0.3-0.7-0.4l0.3-0.7c0.2,0,0.3,0.1,0.4,0.1c0.1,0,0.3,0.2,0.5,0.3
			C122.7,72,122.7,72.1,122.8,72.1z"/>
		<path d="M129.9,67.9h1.9v3.6c0,0.4-0.1,0.7-0.2,1s-0.3,0.6-0.5,0.8c-0.2,0.2-0.5,0.4-0.8,0.5c-0.4,0.1-0.8,0.2-1.3,0.2
			c-0.3,0-0.6,0-1-0.1c-0.3,0-0.6-0.1-0.9-0.2c-0.2-0.1-0.4-0.3-0.6-0.5s-0.3-0.5-0.4-0.7c-0.1-0.4-0.2-0.7-0.2-1v-3.6h1.9v3.7
			c0,0.3,0.1,0.6,0.3,0.8c0.2,0.2,0.4,0.3,0.8,0.3c0.3,0,0.6-0.1,0.8-0.3c0.2-0.2,0.3-0.4,0.3-0.8V67.9z"/>
		<path d="M133,67.9h5v1.3h-3.1v1h2.9v1.2h-2.9v1.2h3.2V74H133V67.9z"/>
		<path d="M139.1,74v-6.1h3.1c0.6,0,1,0,1.3,0.1c0.3,0.1,0.6,0.3,0.7,0.6s0.3,0.6,0.3,1c0,0.3-0.1,0.6-0.2,0.9
			c-0.1,0.2-0.3,0.4-0.6,0.6c-0.2,0.1-0.4,0.2-0.7,0.2c0.2,0.1,0.4,0.1,0.5,0.2c0.1,0,0.2,0.2,0.3,0.3c0.1,0.2,0.2,0.3,0.3,0.4
			l0.9,1.8H143l-1-1.9c-0.1-0.2-0.2-0.4-0.3-0.5c-0.1-0.1-0.3-0.1-0.5-0.1H141V74H139.1z M141,70.4h0.8c0.1,0,0.3,0,0.5-0.1
			c0.1,0,0.2-0.1,0.3-0.2c0.1-0.1,0.1-0.2,0.1-0.4c0-0.2-0.1-0.3-0.2-0.5c-0.1-0.1-0.4-0.2-0.7-0.2H141V70.4z"/>
		<path d="M144.7,67.9h2.1l1.2,2l1.2-2h2.1l-2.4,3.5V74h-1.9v-2.5L144.7,67.9z"/>
	</g>
	<g id="html">
		<ellipse class="st10" cx="212.2" cy="200" rx="22.5" ry="21.7"/>
		<g class="st8">
			<path d="M196.9,199.1h1.8v2h2v-2h1.8v5.7h-1.8v-2.3h-2v2.3h-1.8V199.1z"/>
			<path d="M203.4,199.1h5.6v1.4h-1.9v4.3h-1.8v-4.3h-1.9V199.1z"/>
			<path d="M209.8,199.1h2.4l0.9,3.5l0.9-3.5h2.4v5.7H215v-4.4l-1.2,4.4h-1.4l-1.2-4.4v4.4h-1.5V199.1z"/>
			<path d="M217.6,199.1h1.8v4.3h2.9v1.4h-4.7V199.1z"/>
			<path d="M223.5,199.1h3.9v1.3h-2.6l-0.1,0.9c0.2-0.1,0.4-0.1,0.5-0.2c0.2,0,0.4-0.1,0.5-0.1c0.6,0,1.1,0.2,1.4,0.5
				c0.4,0.3,0.6,0.8,0.6,1.3c0,0.4-0.1,0.7-0.3,1.1c-0.2,0.3-0.5,0.6-0.8,0.8c-0.3,0.2-0.8,0.3-1.3,0.3c-0.4,0-0.7,0-1-0.1
				c-0.3-0.1-0.5-0.2-0.7-0.3c-0.2-0.1-0.4-0.3-0.5-0.5c-0.1-0.2-0.2-0.4-0.3-0.7l1.7-0.2c0,0.3,0.1,0.5,0.3,0.6s0.3,0.2,0.5,0.2
				c0.2,0,0.4-0.1,0.6-0.3c0.2-0.2,0.2-0.4,0.2-0.8c0-0.3-0.1-0.6-0.2-0.7c-0.2-0.2-0.4-0.2-0.6-0.2c-0.2,0-0.3,0-0.5,0.1
				c-0.1,0.1-0.2,0.2-0.4,0.3l-1.4-0.2L223.5,199.1z"/>
		</g>
	</g>
	<g>
		<g>
			<ellipse class="st11" cx="188.3" cy="72.2" rx="25.6" ry="25.5"/>
		</g>
		<g class="st8">
			<path d="M178.8,73.1l2,0.6c-0.1,0.6-0.3,1-0.6,1.4c-0.3,0.4-0.6,0.7-1.1,0.8c-0.4,0.2-1,0.3-1.6,0.3c-0.8,0-1.5-0.1-2-0.3
				s-0.9-0.6-1.3-1.2s-0.6-1.3-0.6-2.2c0-1.2,0.3-2.1,1-2.8s1.6-1,2.7-1c0.9,0,1.7,0.2,2.2,0.6c0.5,0.4,0.9,0.9,1.2,1.7l-2,0.4
				c-0.1-0.2-0.1-0.4-0.2-0.5c-0.1-0.2-0.3-0.3-0.5-0.4c-0.2-0.1-0.4-0.1-0.6-0.1c-0.5,0-0.9,0.2-1.2,0.6c-0.2,0.3-0.3,0.8-0.3,1.4
				c0,0.8,0.1,1.4,0.4,1.7c0.2,0.3,0.6,0.5,1,0.5c0.4,0,0.8-0.1,1-0.4C178.6,73.9,178.7,73.6,178.8,73.1z"/>
			<path d="M181.5,73.7l2.2-0.1c0,0.4,0.1,0.6,0.3,0.8c0.2,0.3,0.6,0.4,1,0.4c0.3,0,0.6-0.1,0.8-0.2c0.2-0.2,0.3-0.3,0.3-0.5
				c0-0.2-0.1-0.4-0.3-0.5s-0.6-0.3-1.2-0.4c-1-0.2-1.7-0.5-2.1-0.9c-0.4-0.4-0.6-0.8-0.6-1.4c0-0.4,0.1-0.7,0.3-1.1
				c0.2-0.3,0.5-0.6,1-0.8c0.4-0.2,1-0.3,1.8-0.3c0.9,0,1.7,0.2,2.1,0.5c0.5,0.3,0.8,0.9,0.9,1.7l-2.1,0.1c-0.1-0.3-0.2-0.6-0.4-0.7
				c-0.2-0.2-0.4-0.2-0.8-0.2c-0.3,0-0.5,0.1-0.6,0.2c-0.1,0.1-0.2,0.2-0.2,0.4c0,0.1,0.1,0.2,0.2,0.3c0.1,0.1,0.4,0.2,0.8,0.3
				c1,0.2,1.7,0.4,2.1,0.6s0.7,0.5,0.9,0.8s0.3,0.7,0.3,1.1c0,0.5-0.1,0.9-0.4,1.3s-0.6,0.7-1.1,0.9c-0.5,0.2-1.1,0.3-1.8,0.3
				c-1.2,0-2.1-0.2-2.6-0.7C181.9,75,181.6,74.4,181.5,73.7z"/>
			<path d="M189,73.7l2.2-0.1c0,0.4,0.1,0.6,0.3,0.8c0.2,0.3,0.6,0.4,1,0.4c0.3,0,0.6-0.1,0.8-0.2c0.2-0.2,0.3-0.3,0.3-0.5
				c0-0.2-0.1-0.4-0.3-0.5s-0.6-0.3-1.2-0.4c-1-0.2-1.7-0.5-2.1-0.9c-0.4-0.4-0.6-0.8-0.6-1.4c0-0.4,0.1-0.7,0.3-1.1
				c0.2-0.3,0.5-0.6,1-0.8c0.4-0.2,1-0.3,1.8-0.3c0.9,0,1.7,0.2,2.1,0.5c0.5,0.3,0.8,0.9,0.9,1.7l-2.1,0.1c-0.1-0.3-0.2-0.6-0.4-0.7
				c-0.2-0.2-0.4-0.2-0.8-0.2c-0.3,0-0.5,0.1-0.6,0.2c-0.1,0.1-0.2,0.2-0.2,0.4c0,0.1,0.1,0.2,0.2,0.3c0.1,0.1,0.4,0.2,0.8,0.3
				c1,0.2,1.7,0.4,2.1,0.6s0.7,0.5,0.9,0.8s0.3,0.7,0.3,1.1c0,0.5-0.1,0.9-0.4,1.3s-0.6,0.7-1.1,0.9c-0.5,0.2-1.1,0.3-1.8,0.3
				c-1.2,0-2.1-0.2-2.6-0.7C189.3,75,189,74.4,189,73.7z"/>
			<path d="M198.4,70.9l-1.9-0.3c0.2-0.6,0.5-1.1,0.9-1.4c0.5-0.3,1.1-0.5,1.9-0.5c1,0,1.7,0.2,2.1,0.5s0.6,0.8,0.6,1.3
				c0,0.3-0.1,0.6-0.3,0.9c-0.2,0.3-0.4,0.5-0.8,0.7c0.3,0.1,0.5,0.2,0.7,0.2c0.2,0.2,0.4,0.3,0.6,0.6c0.1,0.2,0.2,0.5,0.2,0.9
				c0,0.4-0.1,0.8-0.3,1.2c-0.2,0.4-0.5,0.7-1,0.9c-0.4,0.2-1,0.3-1.7,0.3c-0.7,0-1.2-0.1-1.6-0.2c-0.4-0.2-0.7-0.4-1-0.7
				s-0.4-0.7-0.6-1.1l2-0.3c0.1,0.4,0.2,0.7,0.4,0.9s0.4,0.2,0.6,0.2c0.3,0,0.5-0.1,0.7-0.3c0.2-0.2,0.3-0.5,0.3-0.8
				c0-0.3-0.1-0.6-0.3-0.8c-0.2-0.2-0.4-0.3-0.7-0.3c-0.2,0-0.4,0-0.7,0.1l0.1-1.5c0.1,0,0.2,0,0.3,0c0.3,0,0.5-0.1,0.7-0.3
				s0.3-0.4,0.3-0.6c0-0.2-0.1-0.4-0.2-0.5c-0.1-0.1-0.3-0.2-0.6-0.2c-0.2,0-0.4,0.1-0.6,0.2S198.5,70.5,198.4,70.9z"/>
		</g>
	</g>
	<ellipse class="st12" cx="228.8" cy="103.5" rx="24.8" ry="24.7"/>
	<g class="st8">
		<path d="M215,108.8v-9h4.7c0.9,0,1.5,0.1,2,0.2c0.5,0.1,0.8,0.4,1.1,0.8c0.3,0.4,0.4,0.9,0.4,1.5c0,0.5-0.1,0.9-0.3,1.3
			c-0.2,0.4-0.5,0.7-0.9,0.9c-0.2,0.1-0.6,0.3-1,0.4c0.3,0.1,0.6,0.2,0.7,0.3c0.1,0.1,0.3,0.2,0.4,0.5c0.2,0.2,0.3,0.4,0.4,0.6
			l1.4,2.6h-3.2l-1.5-2.8c-0.2-0.4-0.4-0.6-0.5-0.7c-0.2-0.1-0.4-0.2-0.7-0.2h-0.2v3.7H215z M217.8,103.4h1.2c0.1,0,0.4,0,0.7-0.1
			c0.2,0,0.3-0.1,0.5-0.3c0.1-0.2,0.2-0.3,0.2-0.5c0-0.3-0.1-0.5-0.3-0.7c-0.2-0.2-0.5-0.2-1-0.2h-1.2V103.4z"/>
		<path d="M224.2,104.3c0-1.5,0.4-2.6,1.2-3.4c0.8-0.8,2-1.2,3.4-1.2c1.5,0,2.7,0.4,3.5,1.2c0.8,0.8,1.2,1.9,1.2,3.4
			c0,1.1-0.2,1.9-0.5,2.6c-0.4,0.7-0.9,1.2-1.5,1.6s-1.5,0.6-2.5,0.6c-1,0-1.9-0.2-2.5-0.5s-1.2-0.8-1.6-1.5
			C224.4,106.2,224.2,105.3,224.2,104.3z M227,104.3c0,0.9,0.2,1.6,0.5,2s0.8,0.6,1.4,0.6c0.6,0,1.1-0.2,1.4-0.6s0.5-1.1,0.5-2.1
			c0-0.9-0.2-1.5-0.5-1.9c-0.3-0.4-0.8-0.6-1.4-0.6c-0.6,0-1,0.2-1.4,0.6S227,103.4,227,104.3z"/>
		<path d="M235.1,108.8v-9h4.7c0.9,0,1.5,0.1,2,0.2c0.5,0.1,0.8,0.4,1.1,0.8c0.3,0.4,0.4,0.9,0.4,1.5c0,0.5-0.1,0.9-0.3,1.3
			c-0.2,0.4-0.5,0.7-0.9,0.9c-0.2,0.1-0.6,0.3-1,0.4c0.3,0.1,0.6,0.2,0.7,0.3c0.1,0.1,0.3,0.2,0.4,0.5c0.2,0.2,0.3,0.4,0.4,0.6
			l1.4,2.6h-3.2l-1.5-2.8c-0.2-0.4-0.4-0.6-0.5-0.7c-0.2-0.1-0.4-0.2-0.7-0.2h-0.2v3.7H235.1z M237.9,103.4h1.2c0.1,0,0.4,0,0.7-0.1
			c0.2,0,0.3-0.1,0.5-0.3c0.1-0.2,0.2-0.3,0.2-0.5c0-0.3-0.1-0.5-0.3-0.7c-0.2-0.2-0.5-0.2-1-0.2h-1.2V103.4z"/>
	</g>
	<g id="sql">
		<ellipse class="st13" cx="239.8" cy="156.5" rx="26.1" ry="26"/>
		<g class="st8">
			<path d="M225.3,157.3l2.7-0.2c0.1,0.4,0.2,0.8,0.4,1c0.3,0.4,0.7,0.5,1.2,0.5c0.4,0,0.7-0.1,0.9-0.3c0.2-0.2,0.3-0.4,0.3-0.7
				c0-0.2-0.1-0.4-0.3-0.6c-0.2-0.2-0.7-0.4-1.4-0.5c-1.2-0.3-2.1-0.6-2.6-1.1c-0.5-0.5-0.8-1-0.8-1.7c0-0.5,0.1-0.9,0.4-1.3
				c0.3-0.4,0.7-0.7,1.2-1s1.3-0.4,2.2-0.4c1.2,0,2,0.2,2.6,0.6c0.6,0.4,1,1.1,1.1,2.1l-2.6,0.2c-0.1-0.4-0.2-0.7-0.4-0.9
				c-0.2-0.2-0.5-0.3-0.9-0.3c-0.3,0-0.6,0.1-0.7,0.2c-0.2,0.1-0.2,0.3-0.2,0.5c0,0.1,0.1,0.3,0.2,0.4c0.1,0.1,0.4,0.2,0.9,0.3
				c1.2,0.3,2.1,0.5,2.6,0.8c0.5,0.3,0.9,0.6,1.2,1c0.2,0.4,0.4,0.8,0.4,1.3c0,0.6-0.2,1.1-0.5,1.6c-0.3,0.5-0.8,0.9-1.3,1.1
				s-1.3,0.4-2.2,0.4c-1.5,0-2.6-0.3-3.2-0.9C225.7,159,225.4,158.2,225.3,157.3z"/>
			<path d="M243,159c0.3,0.2,0.6,0.4,0.7,0.5c0.2,0.1,0.4,0.2,0.6,0.3l-0.8,1.6c-0.4-0.2-0.8-0.4-1.2-0.7c-0.4-0.3-0.7-0.5-0.8-0.6
				c-0.6,0.3-1.4,0.4-2.3,0.4c-1.4,0-2.5-0.4-3.3-1.1c-0.9-0.8-1.4-2-1.4-3.6c0-1.5,0.4-2.6,1.2-3.5s2-1.2,3.4-1.2
				c1.5,0,2.7,0.4,3.5,1.2c0.8,0.8,1.2,2,1.2,3.5C244,157.1,243.6,158.2,243,159z M240.8,157.5c0.2-0.4,0.3-1,0.3-1.8
				c0-0.9-0.2-1.6-0.5-2s-0.8-0.6-1.4-0.6c-0.6,0-1,0.2-1.4,0.6c-0.3,0.4-0.5,1-0.5,1.9c0,1,0.2,1.7,0.5,2.1
				c0.3,0.4,0.8,0.6,1.4,0.6c0.2,0,0.4,0,0.5-0.1c-0.2-0.2-0.6-0.4-1.1-0.6l0.4-1c0.2,0,0.4,0.1,0.6,0.2s0.4,0.2,0.8,0.5
				C240.6,157.4,240.7,157.5,240.8,157.5z"/>
			<path d="M245.5,151.2h2.8v6.8h4.4v2.2h-7.2V151.2z"/>
		</g>
	</g>
	<g id="illustrat">
		<ellipse class="st14" cx="63.9" cy="146.1" rx="27.5" ry="27.4"/>
		<g class="st8">
			<path d="M40.6,142h1.3v7.7h-1.3V142z"/>
			<path d="M42.9,142h1.3v5.8h2.1v1.9h-3.4V142z"/>
			<path d="M46.9,142h1.3v5.8h2.1v1.9h-3.4V142z"/>
			<path d="M53.6,142h1.3v4.6c0,0.5,0,0.9-0.1,1.3c-0.1,0.4-0.2,0.8-0.4,1.1c-0.2,0.3-0.3,0.5-0.5,0.6c-0.3,0.2-0.6,0.3-0.9,0.3
				c-0.2,0-0.4,0-0.7-0.1s-0.5-0.2-0.6-0.3c-0.2-0.2-0.3-0.4-0.5-0.7c-0.1-0.3-0.2-0.6-0.3-0.9c-0.1-0.5-0.1-0.9-0.1-1.3V142h1.3
				v4.7c0,0.4,0.1,0.8,0.2,1c0.1,0.2,0.3,0.4,0.5,0.4c0.2,0,0.4-0.1,0.5-0.4c0.1-0.2,0.2-0.6,0.2-1V142z"/>
			<path d="M55.6,147.2l1.3-0.1c0,0.4,0.1,0.6,0.2,0.8c0.1,0.3,0.3,0.5,0.6,0.5c0.2,0,0.3-0.1,0.4-0.2c0.1-0.2,0.2-0.3,0.2-0.6
				c0-0.2,0-0.4-0.1-0.5c-0.1-0.2-0.3-0.3-0.7-0.4c-0.6-0.2-1-0.5-1.3-0.9c-0.3-0.4-0.4-0.9-0.4-1.5c0-0.4,0.1-0.8,0.2-1.1
				c0.1-0.4,0.3-0.6,0.6-0.8c0.3-0.2,0.6-0.3,1.1-0.3c0.6,0,1,0.2,1.3,0.6c0.3,0.4,0.5,1,0.5,1.8l-1.3,0.1c0-0.3-0.1-0.6-0.2-0.8
				c-0.1-0.2-0.3-0.2-0.4-0.2c-0.2,0-0.3,0.1-0.4,0.2c-0.1,0.1-0.1,0.3-0.1,0.4c0,0.1,0,0.2,0.1,0.3c0.1,0.1,0.2,0.2,0.4,0.3
				c0.6,0.2,1,0.5,1.3,0.7c0.3,0.2,0.4,0.5,0.5,0.9c0.1,0.3,0.2,0.7,0.2,1.1c0,0.5-0.1,1-0.2,1.4c-0.2,0.4-0.4,0.7-0.6,1
				c-0.3,0.2-0.6,0.3-1,0.3c-0.7,0-1.2-0.3-1.5-0.8S55.6,148,55.6,147.2z"/>
			<path d="M59.8,142h4.1v1.9h-1.4v5.8h-1.3v-5.8h-1.4V142z"/>
			<path d="M64.5,149.7V142h2.2c0.4,0,0.7,0.1,0.9,0.2c0.2,0.1,0.4,0.4,0.5,0.7s0.2,0.8,0.2,1.3c0,0.4-0.1,0.8-0.2,1.1
				c-0.1,0.3-0.2,0.6-0.4,0.8c-0.1,0.1-0.3,0.2-0.5,0.3c0.2,0.1,0.3,0.2,0.3,0.3c0,0.1,0.1,0.2,0.2,0.4c0.1,0.2,0.2,0.4,0.2,0.5
				l0.6,2.2h-1.5l-0.7-2.4c-0.1-0.3-0.2-0.5-0.2-0.6c-0.1-0.1-0.2-0.2-0.3-0.2h-0.1v3.1H64.5z M65.8,145.1h0.6c0.1,0,0.2,0,0.4-0.1
				c0.1,0,0.2-0.1,0.2-0.2c0.1-0.1,0.1-0.3,0.1-0.4c0-0.2,0-0.4-0.1-0.6c-0.1-0.1-0.3-0.2-0.5-0.2h-0.6V145.1z"/>
			<path d="M71.8,148.5h-1.5l-0.2,1.3h-1.4l1.6-7.7h1.5l1.6,7.7H72L71.8,148.5z M71.6,146.8l-0.5-2.8l-0.5,2.8H71.6z"/>
			<path d="M73.1,142h4.1v1.9h-1.4v5.8h-1.3v-5.8h-1.4V142z"/>
			<path d="M77.4,145.9c0-1.3,0.2-2.2,0.6-2.9c0.4-0.7,0.9-1.1,1.6-1.1c0.7,0,1.3,0.3,1.7,1c0.4,0.7,0.6,1.7,0.6,2.9
				c0,0.9-0.1,1.6-0.3,2.2c-0.2,0.6-0.4,1-0.7,1.3c-0.3,0.3-0.7,0.5-1.2,0.5c-0.5,0-0.9-0.1-1.2-0.4c-0.3-0.3-0.6-0.7-0.8-1.3
				S77.4,146.8,77.4,145.9z M78.8,145.9c0,0.8,0.1,1.3,0.2,1.7s0.4,0.5,0.7,0.5c0.3,0,0.5-0.2,0.7-0.5c0.2-0.3,0.2-0.9,0.2-1.8
				c0-0.7-0.1-1.3-0.2-1.6c-0.2-0.3-0.4-0.5-0.7-0.5c-0.3,0-0.5,0.2-0.6,0.5S78.8,145.1,78.8,145.9z"/>
			<path d="M82.6,149.7V142h2.2c0.4,0,0.7,0.1,0.9,0.2c0.2,0.1,0.4,0.4,0.5,0.7s0.2,0.8,0.2,1.3c0,0.4-0.1,0.8-0.2,1.1
				c-0.1,0.3-0.2,0.6-0.4,0.8c-0.1,0.1-0.3,0.2-0.5,0.3c0.2,0.1,0.3,0.2,0.3,0.3c0,0.1,0.1,0.2,0.2,0.4c0.1,0.2,0.2,0.4,0.2,0.5
				l0.6,2.2h-1.5l-0.7-2.4c-0.1-0.3-0.2-0.5-0.2-0.6c-0.1-0.1-0.2-0.2-0.3-0.2H84v3.1H82.6z M84,145.1h0.6c0.1,0,0.2,0,0.4-0.1
				c0.1,0,0.2-0.1,0.2-0.2c0.1-0.1,0.1-0.3,0.1-0.4c0-0.2,0-0.4-0.1-0.6c-0.1-0.1-0.3-0.2-0.5-0.2H84V145.1z"/>
		</g>
	</g>
	<g>
		<ellipse class="st12" cx="85.7" cy="93.5" rx="23.8" ry="23.7"/>
		<g class="st8">
			<path d="M72.5,97.1l2.3-0.2c0,0.4,0.2,0.8,0.3,1c0.2,0.4,0.6,0.6,1.1,0.6c0.3,0,0.6-0.1,0.8-0.3c0.2-0.2,0.3-0.4,0.3-0.7
				c0-0.2-0.1-0.5-0.3-0.7c-0.2-0.2-0.6-0.4-1.2-0.5c-1.1-0.3-1.8-0.7-2.3-1.1c-0.5-0.5-0.7-1.1-0.7-1.8c0-0.5,0.1-0.9,0.3-1.4
				s0.6-0.8,1.1-1c0.5-0.2,1.1-0.4,1.9-0.4c1,0,1.8,0.2,2.3,0.7c0.5,0.4,0.8,1.2,0.9,2.1l-2.3,0.2c-0.1-0.4-0.2-0.7-0.4-0.9
				s-0.5-0.3-0.8-0.3c-0.3,0-0.5,0.1-0.6,0.2c-0.1,0.1-0.2,0.3-0.2,0.5c0,0.1,0.1,0.3,0.2,0.4c0.1,0.1,0.4,0.2,0.8,0.3
				c1.1,0.3,1.8,0.5,2.3,0.8c0.5,0.3,0.8,0.6,1,1c0.2,0.4,0.3,0.9,0.3,1.4c0,0.6-0.1,1.2-0.4,1.7c-0.3,0.5-0.7,0.9-1.2,1.2
				c-0.5,0.3-1.1,0.4-1.9,0.4c-1.3,0-2.3-0.3-2.8-0.9C72.9,98.8,72.6,98,72.5,97.1z"/>
			<path d="M80,90.8h2.5l1.8,6.7l1.7-6.7h2.5l-2.9,9.4H83L80,90.8z"/>
			<path d="M92.9,96.8v-1.9h3.7v4c-0.7,0.6-1.3,1-1.9,1.2s-1.2,0.3-2,0.3c-0.9,0-1.7-0.2-2.3-0.6s-1-0.9-1.4-1.7
				c-0.3-0.7-0.5-1.6-0.5-2.6c0-1,0.2-1.9,0.5-2.7s0.9-1.3,1.5-1.7c0.5-0.3,1.2-0.5,2.1-0.5c0.9,0,1.5,0.1,1.9,0.3
				c0.4,0.2,0.8,0.5,1.1,0.9c0.3,0.4,0.5,0.9,0.6,1.5l-2.3,0.5c-0.1-0.4-0.3-0.6-0.5-0.8c-0.2-0.2-0.5-0.3-0.9-0.3
				c-0.5,0-1,0.2-1.3,0.7c-0.3,0.4-0.5,1.1-0.5,2.1c0,1,0.2,1.7,0.5,2.2s0.8,0.7,1.3,0.7c0.3,0,0.5,0,0.8-0.1
				c0.2-0.1,0.5-0.3,0.8-0.5v-0.9H92.9z"/>
		</g>
	</g>
</g>
<g id="bubles">
	<ellipse class="st15" cx="49.6" cy="221.6" rx="5.1" ry="4.8"/>
	<ellipse class="st15" cx="37.2" cy="240.1" rx="2.2" ry="2.1"/>
	<ellipse class="st15" cx="223.2" cy="29.8" rx="2.2" ry="2.1"/>
	<ellipse class="st15" cx="260.8" cy="20.3" rx="2.2" ry="2.1"/>
	<ellipse class="st15" cx="255.1" cy="53.1" rx="3" ry="2.9"/>
	<ellipse class="st15" cx="95.3" cy="50.2" rx="3" ry="2.9"/>
	<ellipse class="st15" cx="115.3" cy="260.4" rx="2.2" ry="2.1"/>
	<ellipse class="st15" cx="152.9" cy="250.8" rx="2.2" ry="2.1"/>
	<ellipse class="st15" cx="147.3" cy="283.6" rx="3" ry="2.9"/>
	<ellipse class="st15" cx="86.5" cy="251.1" rx="2.1" ry="2.2"/>
	<ellipse class="st15" cx="96" cy="288.6" rx="2.1" ry="2.2"/>
	<ellipse class="st15" cx="63.1" cy="283" rx="2.9" ry="3"/>
	<ellipse class="st15" cx="253.2" cy="240.6" rx="1.1" ry="1.2"/>
	<ellipse class="st15" cx="258.3" cy="260.5" rx="1.1" ry="1.2"/>
	<ellipse class="st15" cx="240.9" cy="257.5" rx="1.5" ry="1.6"/>
	<ellipse class="st15" cx="238.7" cy="247.6" rx="1.1" ry="1.2"/>
	<ellipse class="st15" cx="243.7" cy="267.5" rx="1.1" ry="1.2"/>
	<ellipse class="st15" cx="226.3" cy="264.5" rx="1.5" ry="1.6"/>
	<ellipse class="st15" cx="61.6" cy="11.3" rx="2.1" ry="2.2"/>
	<ellipse class="st15" cx="71.5" cy="49.7" rx="2.1" ry="2.2"/>
	<ellipse class="st15" cx="47.5" cy="37.2" rx="3" ry="3.1"/>
	<ellipse class="st15" cx="33.5" cy="24.8" rx="2.1" ry="2.2"/>
	<ellipse class="st15" cx="43.3" cy="63.2" rx="2.1" ry="2.2"/>
	<ellipse class="st15" cx="9.5" cy="57.4" rx="3" ry="3.1"/>
	<ellipse class="st15" cx="155.4" cy="242.5" rx="1.1" ry="1.2"/>
	<ellipse class="st15" cx="160.4" cy="262.4" rx="1.1" ry="1.2"/>
	<ellipse class="st15" cx="142.9" cy="259.4" rx="1.5" ry="1.6"/>
	<ellipse class="st15" cx="140.8" cy="249.5" rx="1.1" ry="1.2"/>
	<ellipse class="st15" cx="145.9" cy="269.3" rx="1.1" ry="1.2"/>
	<ellipse class="st15" cx="128.4" cy="266.4" rx="1.5" ry="1.6"/>
	<ellipse class="st15" cx="125.6" cy="215.7" rx="1.1" ry="1.2"/>
	<ellipse class="st15" cx="130.6" cy="235.6" rx="1.1" ry="1.2"/>
	<ellipse class="st15" cx="113.2" cy="232.6" rx="1.5" ry="1.6"/>
	<ellipse class="st15" cx="111" cy="222.7" rx="1.1" ry="1.2"/>
	<ellipse class="st15" cx="116.1" cy="242.5" rx="1.1" ry="1.2"/>
	<ellipse class="st15" cx="98.6" cy="239.6" rx="1.5" ry="1.6"/>
	<ellipse class="st15" cx="173.9" cy="9.1" rx="1.1" ry="1.2"/>
	<ellipse class="st15" cx="179" cy="29" rx="1.1" ry="1.2"/>
	<ellipse class="st15" cx="161.5" cy="26" rx="1.5" ry="1.6"/>
	<ellipse class="st15" cx="159.4" cy="16" rx="1.1" ry="1.2"/>
	<ellipse class="st15" cx="164.4" cy="35.9" rx="1.1" ry="1.2"/>
	<ellipse class="st15" cx="146.9" cy="33" rx="1.5" ry="1.6"/>
	<path class="st15" d="M103.5,4.2c-0.3,0.5-1,0.6-1.6,0.3c-0.5-0.4-0.7-1.1-0.4-1.6c0.3-0.5,1-0.6,1.6-0.3
		C103.7,3,103.8,3.7,103.5,4.2z"/>
	<path class="st15" d="M122.9,11c-0.3,0.5-1,0.6-1.6,0.3c-0.5-0.4-0.7-1.1-0.4-1.6c0.3-0.5,1-0.6,1.6-0.3
		C123.1,9.8,123.2,10.5,122.9,11z"/>
	<path class="st15" d="M111.2,24.1c-0.5,0.7-1.4,0.9-2.2,0.4c-0.7-0.5-1-1.5-0.5-2.2c0.5-0.7,1.4-0.9,2.2-0.4
		C111.5,22.4,111.7,23.4,111.2,24.1z"/>
	<path class="st15" d="M101.3,20.2c-0.3,0.5-1,0.6-1.6,0.3c-0.5-0.4-0.7-1.1-0.4-1.6c0.3-0.5,1-0.6,1.6-0.3
		C101.5,19,101.7,19.7,101.3,20.2z"/>
	<path class="st15" d="M120.8,26.9c-0.3,0.5-1,0.6-1.6,0.3c-0.5-0.4-0.7-1.1-0.4-1.6c0.3-0.5,1-0.6,1.6-0.3
		C121,25.6,121.1,26.3,120.8,26.9z"/>
	<path class="st15" d="M109.1,40.1c-0.5,0.7-1.4,0.9-2.2,0.4c-0.7-0.5-1-1.5-0.5-2.2c0.5-0.7,1.4-0.9,2.2-0.4
		C109.4,38.4,109.6,39.4,109.1,40.1z"/>
	<path class="st15" d="M190.2,233.4c-0.6,0.9-1.9,1.1-2.8,0.5c-1-0.6-1.3-1.9-0.7-2.8s1.9-1.1,2.8-0.5
		C190.5,231.2,190.8,232.4,190.2,233.4z"/>
	<path class="st15" d="M225.2,245.3c-0.6,0.9-1.9,1.1-2.8,0.5c-1-0.6-1.3-1.9-0.7-2.8c0.6-0.9,1.9-1.1,2.8-0.5
		C225.5,243.1,225.8,244.4,225.2,245.3z"/>
	<path class="st15" d="M204.2,269c-0.8,1.3-2.6,1.6-3.9,0.7s-1.7-2.6-0.9-3.9s2.6-1.6,3.9-0.7S205,267.7,204.2,269z"/>
	<path class="st15" d="M186.4,262c-0.6,0.9-1.9,1.1-2.8,0.5s-1.3-1.9-0.7-2.8c0.6-0.9,1.9-1.1,2.8-0.5
		C186.7,259.8,187,261.1,186.4,262z"/>
	<path class="st15" d="M221.4,274c-0.6,0.9-1.9,1.1-2.8,0.5c-1-0.6-1.3-1.9-0.7-2.8c0.6-0.9,1.9-1.1,2.8-0.5
		C221.7,271.8,222,273.1,221.4,274z"/>
	<path class="st15" d="M200.4,297.6c-0.8,1.3-2.6,1.6-3.9,0.7s-1.7-2.6-0.9-3.9s2.6-1.6,3.9-0.7
		C200.8,294.6,201.2,296.3,200.4,297.6z"/>
	<path class="st15" d="M21.1,224.7c-0.6,0.9-1.9,1.1-2.8,0.5s-1.3-1.9-0.7-2.8c0.6-0.9,1.9-1.1,2.8-0.5S21.7,223.8,21.1,224.7z"/>
	<path class="st15" d="M56.2,236.7c-0.6,0.9-1.9,1.1-2.8,0.5c-1-0.6-1.3-1.9-0.7-2.8c0.6-0.9,1.9-1.1,2.8-0.5
		C56.5,234.5,56.8,235.8,56.2,236.7z"/>
	<path class="st15" d="M35.2,260.3c-0.8,1.3-2.6,1.6-3.9,0.7s-1.7-2.6-0.9-3.9c0.8-1.3,2.6-1.6,3.9-0.7
		C35.6,257.3,36,259.1,35.2,260.3z"/>
	<path class="st15" d="M17.4,253.4c-0.6,0.9-1.9,1.1-2.8,0.5s-1.3-1.9-0.7-2.8c0.6-0.9,1.9-1.1,2.8-0.5
		C17.7,251.2,18,252.5,17.4,253.4z"/>
	<path class="st15" d="M52.3,265.3c-0.6,0.9-1.9,1.1-2.8,0.5s-1.3-1.9-0.7-2.8s1.9-1.1,2.8-0.5S52.9,264.4,52.3,265.3z"/>
	<path class="st15" d="M31.4,289c-0.8,1.3-2.6,1.6-3.9,0.7c-1.3-0.9-1.7-2.6-0.9-3.9s2.6-1.6,3.9-0.7C31.8,286,32.2,287.7,31.4,289z
		"/>
	
		<ellipse transform="matrix(-0.9998 1.995255e-02 -1.995255e-02 -0.9998 585.8986 148.8583)" class="st15" cx="292.2" cy="77.4" rx="1.2" ry="1.1"/>
	
		<ellipse transform="matrix(-0.9998 1.995255e-02 -1.995255e-02 -0.9998 546.2988 160.149)" class="st15" cx="272.4" cy="82.8" rx="1.2" ry="1.1"/>
	
		<ellipse transform="matrix(-0.9998 1.995255e-02 -1.995255e-02 -0.9998 551.219 125.1919)" class="st15" cx="275" cy="65.3" rx="1.6" ry="1.5"/>
	
		<ellipse transform="matrix(-0.9998 1.995255e-02 -1.995255e-02 -0.9998 571.0251 120.2532)" class="st15" cx="284.9" cy="63" rx="1.2" ry="1.1"/>
	
		<ellipse transform="matrix(-0.9998 1.995255e-02 -1.995255e-02 -0.9998 531.4253 131.544)" class="st15" cx="265.1" cy="68.4" rx="1.2" ry="1.1"/>
	
		<ellipse transform="matrix(-0.9998 1.995255e-02 -1.995255e-02 -0.9998 536.3454 96.5868)" class="st15" cx="267.7" cy="51" rx="1.6" ry="1.5"/>
	<path class="st15" d="M298.2,14.4c-0.9-0.6-1.2-1.8-0.6-2.8c0.6-1,1.9-1.3,2.8-0.7c0.9,0.6,1.2,1.8,0.6,2.8S299.2,15,298.2,14.4z"
		/>
	<path class="st15" d="M286.9,49.5c-0.9-0.6-1.2-1.8-0.6-2.8c0.6-1,1.9-1.3,2.8-0.7c0.9,0.6,1.2,1.8,0.6,2.8
		C289.1,49.8,287.9,50.1,286.9,49.5z"/>
	<path class="st15" d="M262.8,29.1c-1.3-0.8-1.7-2.6-0.8-3.9c0.8-1.3,2.6-1.8,3.9-1c1.3,0.8,1.7,2.6,0.8,3.9
		C265.8,29.5,264.1,29.9,262.8,29.1z"/>
	<path class="st15" d="M258.1,46.4c-0.9-0.6-1.2-1.8-0.6-2.8c0.6-1,1.9-1.3,2.8-0.7s1.2,1.8,0.6,2.8C260.3,46.6,259,46.9,258.1,46.4
		z"/>
	<path class="st15" d="M37.2,194.4c-1,0-1.7-0.7-1.8-1.5s0.8-1.6,1.7-1.6c1,0,1.7,0.7,1.8,1.5S38.2,194.4,37.2,194.4z"/>
	<path class="st15" d="M294.8,205.3c-1,0-1.7-0.7-1.8-1.5c0-0.9,0.8-1.6,1.7-1.6c1,0,1.7,0.7,1.8,1.5
		C296.5,204.6,295.8,205.3,294.8,205.3z"/>
	<path class="st15" d="M298.7,181.7c-1.3,0-2.4-0.9-2.4-2.1s1-2.2,2.4-2.2c1.4,0,2.4,0.9,2.4,2.1S300.1,181.7,298.7,181.7z"/>
	<path class="st15" d="M231.1,58.9c-1,0-1.7-0.7-1.8-1.5c-0.1-0.9,0.8-1.6,1.7-1.6c1,0,1.7,0.7,1.8,1.5
		C232.8,58.2,231.9,58.9,231.1,58.9z"/>
	<path class="st15" d="M283.9,185.4c-1,0-1.7-0.7-1.8-1.5c-0.1-0.9,0.8-1.6,1.7-1.6c1,0,1.7,0.7,1.8,1.5
		C285.6,184.7,284.9,185.4,283.9,185.4z"/>
	<path class="st15" d="M287.9,161.8c-1.3,0-2.4-0.9-2.4-2.1s1-2.2,2.4-2.2s2.4,0.9,2.4,2.1C290.2,160.8,289.2,161.8,287.9,161.8z"/>
	<path class="st15" d="M268.1,194.8c-1.7,2.5-5.2,3.4-7.8,1.9c-2.6-1.5-3.3-4.8-1.6-7.4c1.7-2.5,5.2-3.4,7.8-1.9
		C269.1,189,269.7,192.3,268.1,194.8z"/>
	<path class="st15" d="M286.3,128c-1.3,1.9-3.8,2.5-5.8,1.4c-1.9-1.1-2.4-3.5-1.2-5.4c1.3-1.9,3.8-2.5,5.8-1.4
		C287.1,123.7,287.6,126.2,286.3,128z"/>
	<path class="st15" d="M277.8,152.2c-0.9,1.4-2.8,1.8-4.2,1c-1.4-0.8-1.8-2.6-0.9-3.9c0.9-1.4,2.8-1.8,4.2-1
		C278.3,149.1,278.7,150.9,277.8,152.2z"/>
	<path class="st15" d="M14.4,184.4c0-0.9,0.8-1.5,1.8-1.5s1.7,0.7,1.7,1.6c0,0.9-0.8,1.5-1.8,1.5C15.1,186,14.4,185.3,14.4,184.4z"
		/>
	<path class="st15" d="M25.2,164.6c0-0.9,0.8-1.5,1.8-1.5s1.7,0.7,1.7,1.6c-0.1,0.9-0.8,1.5-1.8,1.5C26,166.1,25.2,165.4,25.2,164.6
		z"/>
	<path class="st15" d="M3.9,92.5c1.4-0.8,3.2-0.4,4.2,1s0.5,3.1-0.9,3.9c-1.4,0.8-3.2,0.4-4.2-1C2.1,95,2.5,93.3,3.9,92.5z"/>
	<path class="st15" d="M20.6,141.1c1.4-0.8,3.2-0.4,4.2,1c0.9,1.4,0.5,3.1-0.9,3.9c-1.4,0.8-3.2,0.4-4.2-1
		C18.8,143.6,19.3,141.9,20.6,141.1z"/>
	<ellipse class="st15" cx="260" cy="222.1" rx="1.1" ry="1.2"/>
	<ellipse class="st15" cx="265" cy="242" rx="1.1" ry="1.2"/>
	<ellipse class="st15" cx="247.5" cy="239.1" rx="1.5" ry="1.6"/>
	<ellipse class="st15" cx="245.4" cy="229.1" rx="1.1" ry="1.2"/>
	<ellipse class="st15" cx="250.5" cy="249" rx="1.1" ry="1.2"/>
	<ellipse class="st15" cx="288.7" cy="229.1" rx="1.1" ry="1.2"/>
	<ellipse class="st15" cx="293.7" cy="249" rx="1.1" ry="1.2"/>
	<ellipse class="st15" cx="276.3" cy="246" rx="1.5" ry="1.6"/>
	<ellipse class="st15" cx="274.1" cy="236.1" rx="1.1" ry="1.2"/>
	<ellipse class="st15" cx="279.2" cy="256" rx="1.1" ry="1.2"/>
	<ellipse class="st15" cx="31.7" cy="82.7" rx="1.1" ry="1.2"/>
	<ellipse class="st15" cx="36.8" cy="102.6" rx="1.1" ry="1.2"/>
	<ellipse class="st15" cx="19.3" cy="99.6" rx="1.5" ry="1.6"/>
	<ellipse class="st15" cx="17.1" cy="89.7" rx="1.1" ry="1.2"/>
	<ellipse class="st15" cx="22.2" cy="109.6" rx="1.1" ry="1.2"/>
</g>
</svg>
