<?xml version="1.0" encoding="utf-8"?>
<!-- Generator: Adobe Illustrator 18.1.0, SVG Export Plug-In . SVG Version: 6.00 Build 0)  -->
<!DOCTYPE svg PUBLIC "-//W3C//DTD SVG 1.1//EN" "http://www.w3.org/Graphics/SVG/1.1/DTD/svg11.dtd">
<svg version="1.1" id="Layer_1" xmlns="http://www.w3.org/2000/svg" xmlns:xlink="http://www.w3.org/1999/xlink" x="0px" y="0px"
	 viewBox="-1.5 60.3 618.5 638" enable-background="new -1.5 60.3 618.5 638" xml:space="preserve">
<g display="none">
	<rect x="-1.5" y="60.3" display="inline" fill="#003366" width="618.5" height="638"/>
</g>
<g id="white_1_">
	<ellipse fill="#FFFFFF" cx="425.8" cy="455.3" rx="58.5" ry="55.7"/>
	<circle fill="#FFFFFF" cx="131.4" cy="349.9" r="65.5"/>
	<circle fill="#FFFFFF" cx="188.1" cy="439.2" r="53.7"/>
	<circle fill="#FFFFFF" cx="479.5" cy="372.1" r="61.5"/>
	<circle fill="#FFFFFF" cx="177.4" cy="250.8" r="61.8"/>
	<circle fill="#FFFFFF" cx="461" cy="267.9" r="57.9"/>
	<circle fill="#FFFFFF" cx="268.6" cy="196.5" r="59.5"/>
	<g>
		<circle fill="#FFFFFF" cx="377" cy="206.3" r="61.7"/>
	</g>
	<g id="white">
		<g>
			<ellipse fill="#FFFFFF" cx="311.1" cy="350.7" rx="114.6" ry="102.2"/>
			<g>
				<g>
					<path fill="#FFFFFF" d="M389,441.1c4.6,3.3,4.5,6.2,1.8,8.4c-5,4.1-18.4,5.2-24.2-0.6c3.8-11.2,5.9-23.8,5.9-37.1
						c0-9.4-1-18.4-3-26.7c6.2-7.4,16.1-15.7,19.4,1.1C394,411.4,372.6,429.6,389,441.1z"/>
					<g>
						<g>
							<path fill="#FFFFFF" d="M389,441.1c0.9,1.1,1.6,2,2.1,3.1c0.5,0.9,0.7,2,0.2,3.1c-0.1,0.3-0.5,0.8-0.9,1.3
								c-0.2,0.3-0.7,0.5-0.9,0.8l-0.2,0.1l-0.3,0.2c-0.2,0.1-0.6,0.3-0.8,0.4c-0.6,0.2-1,0.5-1.6,0.7c-0.3,0.1-0.6,0.2-0.8,0.3
								c-0.3,0.1-0.7,0.2-0.9,0.2c-0.7,0.2-1.3,0.3-2,0.4c-2.5,0.4-5.5,0.4-8.2-0.1c-0.7-0.1-1.4-0.3-2.1-0.5
								c-0.7-0.3-1.3-0.4-2-0.8c-0.7-0.3-1.2-0.7-1.7-0.9c-0.3-0.2-0.6-0.5-0.8-0.6l0,0c0.2-0.6,0.5-1.3,0.7-1.9
								c0.2-0.7,0.5-1.4,0.7-2c0.5-1.4,0.8-2.8,1.2-4.1c0.7-2.8,1.3-5.6,1.7-8.4c2-11.3,2-22.3,1.3-30.1c-0.3-4-0.8-7.3-1.2-9.6
								c-0.3-2.3-0.7-3.6-0.7-3.6s-0.1-0.3-0.2-0.9s-0.3-1.4-0.6-2.6l0,0c0.2-0.2,0.5-0.5,0.7-0.8c0.5-0.5,0.9-1.1,1.5-1.6
								c1.2-1.2,2.4-2.5,4-3.6c0.8-0.6,1.7-1.1,2.7-1.4c0.9-0.4,2-0.5,2.9-0.3c0.8,0.2,1.7,0.8,2.4,1.8c0.7,0.8,1.2,1.9,1.6,3.1
								c0.8,2.3,1.3,4.9,1.6,7.5c0.3,2.6,0.3,5.4,0.1,8.1c-0.5,5.5-2,11.1-3.6,16.5c-0.8,2.7-1.6,5.4-2.3,8
								c-0.3,1.4-0.6,2.7-0.8,4.1c-0.1,0.7-0.1,1.4-0.2,2c0,0.3,0,0.7,0,0.9s0,0.3,0,0.5v0.4c0.1,2.3,0.7,4.1,1,5
								c0.8,1.6,1.6,2.8,2.7,3.6c0.6,0.5,1,0.8,1.7,1.2C387.6,440.5,388.2,440.7,389,441.1c-0.5-0.6-0.8-1.1-1.3-1.5
								c-0.3-0.5-0.8-0.9-1-1.4c-0.7-0.9-1.3-2-1.8-3.4c-0.3-0.8-0.8-2.3-0.9-4.3v-0.3c0-0.2,0-0.3,0-0.5v-0.8
								c0-0.6,0.1-1.3,0.2-1.9c0.2-1.3,0.5-2.5,0.8-3.8c0.7-2.6,1.4-5.2,2.3-8c1.6-5.4,3.2-11.1,3.7-16.9c0.2-2.9,0.2-5.7-0.1-8.5
								c-0.3-2.8-0.8-5.4-1.7-8c-0.5-1.3-1-2.5-2-3.6c-0.8-1.2-2.2-2.1-3.8-2.5s-3.1-0.1-4.4,0.4s-2.3,1.2-3.2,1.8
								c-1.8,1.3-3.2,2.7-4.5,3.9c-0.7,0.6-1.2,1.2-1.6,1.8c-0.2,0.3-0.5,0.6-0.7,0.8c-0.2,0.3-0.5,0.5-0.7,0.8
								c0,0.3,0.1,0.6,0.2,0.8c0.2,1.2,0.5,2,0.6,2.6s0.2,0.8,0.2,0.8s0.2,1.3,0.7,3.5c0.3,2.2,0.8,5.4,1.2,9.4
								c0.7,7.8,0.7,18.6-1.3,29.7c-0.5,2.8-1,5.5-1.7,8.3c-0.3,1.4-0.8,2.7-1,4.1c-0.2,0.7-0.5,1.4-0.7,2c-0.2,0.8-0.5,1.4-0.8,2.2
								l-0.2,0.5l-0.1,0.3v0.1l0.1,0.1l0.8,0.8c0.5,0.3,0.7,0.6,0.9,0.8c0.7,0.5,1.4,0.8,2.2,1.3c0.8,0.4,1.5,0.6,2.3,0.8
								s1.5,0.4,2.4,0.6c3.1,0.6,6.2,0.5,9,0.1c0.8-0.1,1.4-0.2,2.2-0.4c0.3-0.1,0.7-0.2,1-0.3s0.7-0.2,0.9-0.3
								c0.7-0.2,1.3-0.5,2-0.8c0.3-0.2,0.7-0.3,0.8-0.5l0.5-0.3l0.2-0.2c0.5-0.4,0.9-0.6,1.3-0.9c0.8-0.7,1.2-1.4,1.4-1.9
								c0.5-0.9,0.5-1.9,0.2-2.7c-0.2-0.8-0.7-1.4-1-1.9C391.5,442.3,390.4,441.7,389,441.1z"/>
						</g>
					</g>
				</g>
				<g>
					<path fill="#FFFFFF" d="M372.6,411.9c0,13.2-2.2,25.8-5.9,37.1c-1.8-1.9-2.9-4.5-2.4-7.8v-48.6c0,0,2.3-3.6,5.5-7.4
						C371.5,393.5,372.6,402.5,372.6,411.9z"/>
					<g>
						<g>
							<path fill="#FFFFFF" d="M372.6,411.9c-0.8,2.7-1.2,4.6-1.4,7.7c0,0.4-0.1,1.1-0.1,1.9c0,0.4-0.1,0.8-0.1,1.4
								c0,0.3-0.1,0.7-0.1,1.1s-0.1,0.8-0.1,1.2c-0.1,0.8-0.2,1.6-0.3,2.5c-0.5,3.3-1,6.9-2,10.5c-0.5,1.9-0.8,3.6-1.4,5.5
								c-0.2,0.9-0.6,1.9-0.8,2.7l-0.1,0.3l0,0l0,0l0,0l0,0l0,0l0,0c0,0,0,0,0-0.1c-0.1-0.2-0.2-0.4-0.3-0.6
								c-0.3-0.8-0.6-1.5-0.7-2.5c0-0.4-0.1-0.8,0-1.3c0-0.2,0-0.4,0-0.6v-0.3c0,0,0-0.2,0-0.3v-0.2c0-0.8,0-1.8,0-2.6
								c0-3.4,0-6.6,0-9.3c0-5.3,0-8.8,0-8.8s0-3.5,0-8.8c0-2.7,0-5.8,0-9.3c0-1.8,0-3.5,0-5.3c0-0.8,0-1.9,0-2.8c0-0.5,0-0.9,0-1.4
								l0,0c0,0,0,0,0.1-0.1l0.5-0.6c0.6-0.8,1-1.6,1.7-2.5l0.8-1.2l0.6-0.8c0-0.1,0,0,0,0l0,0l0.2,1.3c0.3,1.9,0.7,3.6,0.9,5.4
								c0.1,0.8,0.2,1.8,0.3,2.6c0,0.4,0.1,0.8,0.1,1.3c0,0.4,0.1,0.8,0.1,1.2c0.2,2.1,0.3,3.9,0.5,4.7
								C371.5,407.3,371.9,409.2,372.6,411.9c0.8-2.7,1-4.6,0.9-7.8c0-0.8-0.2-2.6-0.5-4.8c0-0.4-0.1-0.8-0.1-1.2s-0.1-0.8-0.1-1.3
								c-0.1-0.8-0.2-1.8-0.3-2.7c-0.2-1.9-0.6-3.6-0.9-5.5c-0.1-0.5-0.2-1.1-0.3-1.5c-0.2-0.9-0.5-1.9-0.7-2.8l-0.3-1.4v-0.2v-0.1
								c0,0,0-0.1,0,0l-0.2,0.3l-0.5,0.6l-1.8,2.2l-0.8,0.9l-0.5,0.6l-0.8,1.3c-0.6,0.8-1.2,1.6-1.7,2.5l-0.5,0.6l-0.3,0.5
								c-0.1,0.1-0.1,0.2-0.1,0.3v0.4c0,0.5,0,0.9,0,1.4c0,0.9,0,1.9,0,2.8c0,1.9,0,3.6,0,5.3c0,3.4,0,6.6,0,9.3c0,5.3,0,8.8,0,8.8
								s0,3.5,0,8.8c0,2.7,0,5.8,0,9.3c0,0.8,0,1.8,0,2.6v0.2v0.1v0.4c0,0.2,0,0.5,0,0.7c0,0.5,0,0.9,0.1,1.4c0.1,0.9,0.3,2,0.8,3
								c0.1,0.3,0.2,0.5,0.3,0.7c0,0,0.1,0.1,0.1,0.3l0.2,0.3c0.1,0.2,0.2,0.4,0.5,0.6c0.6,0.8,1.2,1.4,1.7,1.9
								c0.1,0.2,0.3,0.4,0.5,0.5l0.2-0.6l0.5-1.3l0.5-1.3l0.2-0.6c0-0.1,0.1-0.2,0.1-0.2V447c0.3-0.9,0.6-1.9,0.8-2.8
								c0.6-1.9,0.9-3.8,1.4-5.6c0.8-3.8,1.5-7.4,2-10.7c0.1-0.8,0.2-1.6,0.3-2.5c0-0.4,0.1-0.8,0.1-1.2s0.1-0.7,0.1-1.1
								c0-0.5,0.1-0.9,0.1-1.4c0.1-0.8,0.1-1.4,0.1-1.9C373.6,416.4,373.4,414.6,372.6,411.9z"/>
						</g>
					</g>
				</g>
				<g>
					<path fill="#FFFFFF" d="M364,441.1v-48.6c0,0,2.3-3.6,5.5-7.4c-3.6-12.4-9.1-26.7-18-38.2c-10.7-13.5-24.9-21.7-40.5-22.1
						c-0.5,0-0.8,0-1.3,0c-3.2,0-6.3,0.4-9.4,0.9c-7.5,6.9-19.1,12.1-25.7,19.1c-8.6,8.6,3.9,16.3,4.8,25c0,4.3-9.6,7.7-10.5,10.3
						s-0.7,4.8,0.7,6.9c6-2.5,19.4-6.1,31.5,1.4h-30.3c4.6,4.9,15.1,7.4,23,8.1c0.9,0-2,0.8-2,2.6c-5.7,0-10.5,4.3-12.4,9.5
						c11.5,1.8,19.1,11.2,16.2,21.6c0.9,0,2.9,0,2.9,0c2,8.6-7.6,16.3,6.7,19.8c2.9,0.8,7.6,0,8.6,1.8c4.8,6-2.9,8.6-8.6,12.1
						c-3.9,2.6-0.9,4.3-2,6c2.9,0.8,2.9,4.3,5.7,5.2c-0.1,0.4-0.3,0.8-0.6,1.2c0.5,0,0.8,0,1.3,0c16.9,0,33.2-2.8,47.9-7.8
						c3.6-5.8,6.5-12.2,8.8-19.1C364.8,447.1,363.8,444.5,364,441.1z"/>
					<g>
						<g>
							<path fill="#FFFFFF" d="M364,441.1c0.7-2.5,1-4.1,1-6.9v-9v-18.4v-9.6v-2.5v-1.3v-0.7c0-0.1,0,0,0-0.1c0.9-1.4,2-2.8,3-4.1
								c0.6-0.7,1-1.4,1.6-2l0.6-0.7c0.1-0.2,0.3-0.3,0.5-0.5l-0.2-0.6l-0.5-1.4c-0.6-1.6-0.9-3.3-1.6-4.9c-1-3.3-2.4-6.7-3.8-10
								c-2.8-6.6-6.1-13.1-10.3-19.2c-1-1.5-2.2-3.1-3.5-4.5c-1.2-1.4-2.4-2.8-3.9-4.1c-2.7-2.7-5.7-5.2-8.8-7.4
								c-6.3-4.5-13.8-7.6-21.8-8.8c-4-0.6-7.9-0.6-11.9-0.2c-0.9,0.1-2,0.3-2.9,0.4l-0.8,0.1l-0.8,0.2l-0.3,0.1l-0.2,0.2l-0.3,0.3
								l-0.6,0.5c-1.3,1.2-2.8,2.2-4.2,3.3c-5.8,4.1-12.1,7.6-17.5,12.2c-1.3,1.2-2.5,2.3-3.8,3.6c-1.2,1.3-2.2,2.9-2.4,4.6
								c-0.5,1.6-0.2,3.4,0.2,4.9c0.5,1.5,1.2,3,2,4.3c1.5,2.7,3.2,5.2,4.3,7.6c0.3,0.6,0.6,1.3,0.7,1.9c0.1,0.3,0.2,0.6,0.2,0.9
								l0.1,0.5v0.2c0,0.1,0,0,0,0.1c0,0.9-0.8,2-1.8,2.9c-2,1.8-4.4,3.1-6.6,4.7c-0.6,0.4-1,0.8-1.6,1.4c-0.1,0.2-0.2,0.3-0.3,0.5
								c-0.1,0.1-0.1,0.2-0.1,0.3l-0.1,0.3c-0.1,0.3-0.2,0.6-0.3,0.9c-0.3,1.3-0.3,2.6,0,3.9c0.1,0.3,0.2,0.6,0.3,0.8l0.2,0.5
								c0.1,0.1,0.1,0.3,0.3,0.6c0.3,0.5,0.6,0.9,0.8,1.4l1.7-0.7c1.2-0.4,2.2-0.8,3.2-1.1c2.2-0.6,4.2-1.1,6.1-1.3
								c6.3-0.8,11.5,0.2,14.7,1.4c0.8,0.3,1.5,0.6,2.2,0.8l0.2,0.1l0,0l0,0h-0.5h-14.7h-5h-2.7h-0.4h-0.5h-0.7l-2.5,0.1h-1.3h-0.2
								h-0.1c0,0,0,0,0,0.1l0.2,0.2l0.5,0.5l0.8,0.8l0.9,0.8l1,0.8l0.7,0.4c0.5,0.3,0.8,0.6,1.3,0.8c1.8,1.1,3.8,1.9,5.8,2.6
								c4.2,1.4,8.7,2.3,13.6,2.7h0.1h0.1c0.2,0,0,0,0.1,0c0,0,0,0,0-0.1v-0.3c0-0.1,0-0.1,0-0.2c0-0.1,0-0.1,0-0.2v-0.1
								c0-0.1,0.1-0.1,0-0.1c0,0-0.1,0-0.2-0.1l-0.1-0.1l-0.2-0.2c-0.1-0.1-0.1-0.1-0.2-0.2l0,0l0,0l-0.1,0.1
								c-0.2,0.2-0.6,0.4-0.8,0.6c-0.2,0.2-0.6,0.5-0.8,0.8c-0.1,0.2-0.2,0.3-0.3,0.5l-0.1,0.2l0,0h-0.4l-0.6,0.1
								c-0.7,0.1-1.4,0.2-2.1,0.4c-2.5,0.8-5,2.3-6.7,4.3l0,0c-0.8,0.9-1.6,2-2.3,3.2c-0.2,0.3-0.3,0.6-0.6,0.9
								c-0.2,0.6-0.6,1.3-0.8,1.9l-0.1,0.2v0.1c0,0,0,0,0.1,0h0.1l0.6,0.1l1,0.2l0.6,0.1l0.2,0.1l0.6,0.1c1.4,0.3,2.7,0.8,4,1.4
								c2.5,1.2,4.8,2.9,6.7,5c1.5,1.9,2.5,4.1,3.1,6.3c0.2,1.2,0.3,2.3,0.3,3.6c0,0.6-0.1,1.2-0.2,1.9l-0.1,0.5l-0.1,0.6l-0.6,1.9
								c0,0.1,0,0,0.1,0h0.1h0.2h0.6h1h1.2l0,0v0.4c0.1,1.2,0,2.5-0.1,3.6c-0.2,1.3-0.6,2.5-0.8,3.8c-0.3,1.3-0.7,2.6-0.7,4.1
								c0,0.9,0.1,2,0.7,3c0.7,1.3,1.8,2.3,3,3c1.3,0.7,2.5,1.2,3.9,1.5c0.7,0.2,1.2,0.4,2.1,0.5c0.8,0.1,1.4,0.2,2.2,0.3
								c1.4,0.1,2.7,0.1,3.9,0.3c0.6,0.1,1,0.3,1.2,0.5c0.3,0.5,0.7,0.8,0.9,1.4c0.6,0.9,0.7,1.9,0.3,2.8c-0.3,0.8-1.2,1.8-2.2,2.5
								c-0.9,0.7-2.1,1.4-3.2,2c-1.1,0.7-2.3,1.3-3.5,1.9c-0.3,0.2-0.7,0.3-0.9,0.6c-0.3,0.2-0.6,0.5-0.8,0.7c-0.6,0.5-1,1.2-1.3,2
								c-0.2,0.8,0,1.6,0.1,2.2c0.1,0.3,0.1,0.6,0.1,0.8v0.1c0,0,0,0.1-0.1,0.3c-0.1,0.3-0.3,0.7-0.6,0.9c-0.1,0.1,0,0.1,0.1,0.1
								l0.2,0.1l0.6,0.2c0.2,0.1,0.3,0.1,0.5,0.2c0.1,0.1,0.3,0.1,0.3,0.2c0.2,0.1,0.5,0.3,0.6,0.5c0.3,0.4,0.7,0.8,1,1.4
								c0.3,0.5,0.8,1.1,1.2,1.6c0.2,0.3,0.6,0.6,0.8,0.8l0.2,0.2l0.2,0.1l0,0l0,0l-0.1,0.2v0.1c0.5,0.6-0.9-1.3,0.9,1.3l0,0l0,0
								h0.1h0.2c0.7,0,1.4,0,2.1,0c2.7,0,5.4-0.1,8.2-0.3c2.9-0.2,5.8-0.4,8.7-0.8l1.5-0.2l0,0c6.9-0.8,13.5-2.2,19.9-4
								c1.6-0.5,3.2-0.8,4.7-1.4l2.4-0.8l1.2-0.4l0.8-0.3c0.1,0,0.1-0.1,0.2-0.2l0.1-0.2l0.2-0.4c1.6-2.6,3-5.2,4.2-8
								c1.3-2.6,2.4-5.3,3.3-8l0.2-0.7l0.3-0.9l0.3-0.9l0.2-0.8v-0.1l-0.1-0.1l-0.1-0.1l-0.2-0.3l-0.2-0.3l-0.1-0.1l-0.2-0.2
								c-0.1-0.1-0.2-0.3-0.3-0.4c-0.8-1.1-1.2-2-1.5-3C364.6,443.3,364.4,442.3,364,441.1c-0.5,1.2-0.7,2.2-0.7,3.4
								s0.3,2.5,1.3,3.8c0.1,0.1,0.2,0.3,0.3,0.5l0.3,0.4l0,0L365,450l-0.3,0.9l-0.2,0.7c-0.9,2.6-2.1,5.2-3.3,7.8
								c-1.2,2.6-2.5,5.2-4,7.7l-0.1,0.1l0,0l-0.2,0.1l-1.2,0.4l-2.3,0.8c-1.5,0.5-3.1,0.9-4.7,1.4c-6.3,1.8-12.9,3-19.7,3.9l0,0
								l-1.4,0.2c-2.8,0.3-5.7,0.6-8.6,0.8c-2.7,0.2-5.4,0.3-7.9,0.3c-0.7,0-1.3,0-2.1,0h-0.2h0.1l0,0l0,0c2,2.6,0.6,0.7,0.9,1.3
								v-0.1l0.3-0.7l0.3-0.8c0-0.1,0.1-0.3,0.1-0.4l-0.6-0.2c-0.3-0.1-0.7-0.2-0.9-0.4l-0.2-0.1l-0.1-0.1c-0.2-0.1-0.5-0.3-0.6-0.5
								c-0.3-0.4-0.7-0.8-1-1.4c-0.3-0.5-0.8-1.1-1.3-1.6c-0.3-0.3-0.7-0.5-0.9-0.8l-0.1-0.1l0,0l0,0l0,0V469c0-0.1,0-0.2,0-0.3
								c0-0.4-0.1-0.8-0.2-1.1c-0.1-0.6-0.2-1.1-0.1-1.4c0.2-0.8,1-1.5,2.2-2.1c1-0.7,2.3-1.3,3.5-1.9c1.2-0.7,2.4-1.4,3.5-2.1
								c1-0.8,2.3-1.9,2.8-3.3c0.3-0.7,0.5-1.4,0.3-2.2c-0.1-0.8-0.3-1.4-0.7-2c-0.3-0.6-0.8-1.2-1.2-1.8c-0.3-0.4-0.8-0.7-1.2-0.8
								c-0.5-0.2-0.8-0.3-1.2-0.3c-1.5-0.3-2.8-0.2-4-0.3c-0.7,0-1.3-0.1-1.8-0.2c-0.6-0.1-1.3-0.3-1.8-0.5
								c-2.4-0.7-4.8-1.8-5.7-3.5c-0.3-0.7-0.5-1.4-0.5-2.2c0-2.5,0.9-4.9,1.4-7.6c0.2-1.4,0.3-2.7,0.1-4.1V431c0-0.1,0-0.2,0-0.4
								l-0.2-0.9l-0.1-0.5c0-0.1-0.1-0.1-0.2-0.1h-0.2h-1h-0.9l0,0c0,0.1,0-0.2,0.1-0.3l0.1-0.5c0.1-0.7,0.2-1.4,0.2-2
								c0-1.4-0.1-2.7-0.3-4c-0.6-2.6-1.7-5-3.5-7.1c-2-2.5-4.5-4.3-7.4-5.6c-1.4-0.7-2.9-1.2-4.4-1.5l-0.8-0.2l0,0l0,0
								c0.1-0.2,0.2-0.6,0.5-0.8c0.6-1.1,1.2-1.9,2.1-2.8l0,0c1.5-1.8,3.6-3.1,5.7-3.6c0.6-0.2,1-0.3,1.6-0.4h0.5h0.8h0.9h0.2
								c0.1,0,0-0.1,0-0.2v-0.5c0-0.3,0.1-0.7,0.1-0.6c0-0.1,0.1-0.1,0.1-0.2c0.1-0.2,0.2-0.3,0.5-0.5c0.2-0.2,0.5-0.3,0.7-0.5
								l0.2-0.1c0.1-0.1,0.1-0.1,0.3-0.3c0,0,0-0.1,0.1-0.2s0.1-0.1,0.1-0.4c0-0.3-0.1-0.5-0.2-0.7s-0.5-0.3-0.5-0.3
								c-0.1,0-0.1-0.1-0.2-0.1H295c-0.1,0-0.1,0-0.2,0c0,0-0.1,0-0.2,0c-4.7-0.4-9.1-1.3-13.1-2.6c-2-0.7-3.9-1.4-5.5-2.5
								c-0.5-0.2-0.8-0.5-1.2-0.8l-0.7-0.4l0,0h8.7h14.7l6.9-0.1h0.6c0.1,0,0,0,0,0l-0.1-0.1l-0.2-0.1l-0.7-0.4l-0.6-0.3
								c0,0-0.7-0.4-2.1-1.3c-0.3-0.2-0.8-0.4-1.3-0.7c-0.2-0.1-0.6-0.3-0.8-0.4c-0.2-0.1-0.7-0.3-0.8-0.3c-0.7-0.3-1.4-0.6-2.3-0.8
								c-3.5-1.3-8.9-2.3-15.7-1.4c-2.1,0.3-4.3,0.7-6.6,1.4c-1,0.3-2.3,0.7-3.3,1.1l0,0l-0.1-0.2l-0.1-0.4
								c-0.1-0.2-0.2-0.5-0.2-0.7c-0.2-0.9-0.2-2,0-3.1c0.1-0.3,0.1-0.5,0.2-0.8l0.1-0.2v-0.1c0-0.1,0.1-0.2,0.2-0.3
								c0.3-0.4,0.8-0.8,1.3-1.2c2.1-1.5,4.5-2.9,6.8-4.8c0.6-0.5,1-1.1,1.5-1.8s0.8-1.4,0.8-2.3c0-0.1,0-0.3,0-0.4v-0.3l-0.1-0.6
								c-0.1-0.4-0.1-0.8-0.2-1.1c-0.2-0.7-0.5-1.4-0.8-2.1c-1.2-2.7-2.9-5.2-4.4-7.8c-1.4-2.5-2.7-5.3-2.1-8c0.3-1.4,1-2.6,2.1-3.8
								c1-1.2,2.3-2.3,3.6-3.4c5.1-4.2,11.4-7.7,17.4-12.1c1.5-1.1,3-2.2,4.4-3.4c0.3-0.3,0.8-0.8,0.7-0.6l0.6-0.1l0.7-0.1
								c0.9-0.2,1.8-0.3,2.8-0.4c3.8-0.4,7.5-0.4,11.3,0.2c7.5,1.1,14.7,4.1,20.9,8.4c3.1,2.1,5.9,4.6,8.6,7.1
								c2.5,2.6,5.1,5.4,7.1,8.4c4.2,6,7.4,12.4,10.2,19c1.4,3.3,2.5,6.6,3.7,9.8c0.6,1.6,1,3.3,1.5,4.9l0.3,1.2l0,0l0,0l-0.1,0.1
								l-0.2,0.3c-0.6,0.7-1,1.4-1.6,2.1c-1,1.4-2.1,2.8-3,4.3l-0.3,0.5c-0.1,0.2,0,0.5,0,0.6v0.6v1.3v2.5v9.6v18.4v9
								C363.1,437,363.5,438.6,364,441.1z"/>
						</g>
					</g>
				</g>
				<g>
					<path fill="#FFFFFF" d="M303.4,469.6c0.9-1.8-2-3.5,2-6c5.7-3.5,13.5-6,8.6-12.1c-0.9-1.8-5.7-0.8-8.6-1.8
						c-14.4-3.5-4.8-11.2-6.7-19.8c0,0-2,0-2.9,0c2.9-10.3-4.8-19.8-16.2-21.6c2-5.2,6.7-9.5,12.4-9.5c0-1.8,2.9-2.6,2-2.6
						c-7.8-0.6-18.3-3.2-23-8.1h-4.4c0,0,1.2-0.7,3.2-1.4c-1.3-1.9-1.6-4.2-0.7-6.9c0.9-2.6,10.5-6,10.5-10.3
						c-0.9-8.6-13.5-16.3-4.8-25c6.6-7.1,18.2-12.2,25.7-19.1c-22.2,4.7-40.7,25.6-48.7,53.9c-0.2,0.6-0.3,1.3-0.6,1.9
						c3.6,4.1,6.1,8.2,6.1,8.2V438c0.6,4.6-1.4,7.6-4.5,9.5c2.4,7.4,5.5,14.1,9.1,20.2c14.4,5,30.2,7.8,46.9,8
						c0.2-0.4,0.3-0.8,0.6-1.2C306.2,473.9,306.2,470.4,303.4,469.6z"/>
					<g>
						<path fill="#FFFFFF" d="M303.4,469.6c0.5-0.5,0.6-1.2,0.6-1.8s0-1.1,0.1-1.4c0.1-0.4,0.3-0.7,0.7-1.1c0.3-0.4,0.8-0.8,1.4-1.1
							l1.3-0.8l0.9-0.5l0.8-0.5c1.2-0.7,2.4-1.4,3.7-2.2c1.2-0.8,2.4-1.9,3.2-3.4c0.3-0.8,0.6-1.6,0.5-2.5s-0.5-1.5-0.8-2.3
							c-0.2-0.4-0.5-0.7-0.7-0.9l-0.2-0.2v-0.1l0,0c0-0.1-0.1-0.1-0.1-0.2c-0.2-0.3-0.5-0.5-0.7-0.6c-0.9-0.6-1.8-0.7-2.7-0.8
							c-1.6-0.2-3.2-0.1-4.6-0.4c-0.3-0.1-0.7-0.1-1-0.2c-0.5-0.1-0.8-0.2-1.2-0.3c-0.8-0.2-1.5-0.5-2.2-0.8
							c-1.4-0.6-2.5-1.4-3.3-2.3c-0.8-1.1-0.8-2.3-0.7-3.8c0.3-2.8,1.5-5.8,1.6-9.1c0-0.4,0-0.8,0-1.3c0-0.2,0-0.4-0.1-0.6
							c0-0.1,0-0.3-0.1-0.5l-0.1-0.6c0.1-1.1-1-0.7-1.8-0.8H297l0,0l0.1-0.6c0.1-0.8,0.2-1.6,0.2-2.5c0.1-3.3-0.8-6.7-2.8-9.6
							c-2-2.9-4.7-5.2-8.1-6.9c-1.6-0.8-3.5-1.4-5.3-1.8l-0.3-0.1l0,0l0.2-0.4c0.1-0.2,0.2-0.4,0.3-0.5c0.2-0.4,0.5-0.7,0.7-0.9
							c1.4-2.2,3.6-4.1,6.1-5.2c0.7-0.3,1.3-0.5,2-0.6c0.3-0.1,0.7-0.1,0.9-0.1h0.3h0.6h0.6h0.3h0.1v-0.1c0-0.4,0-0.8,0.1-1.1
							c0-0.1,0.1-0.2,0.1-0.3c0.1-0.2,0.3-0.4,0.6-0.6c0.1-0.1,0.2-0.2,0.5-0.3c0.1-0.1,0.2-0.2,0.6-0.4c0,0,0,0,0.1-0.1
							c0-0.1,0,0,0.1-0.2c0-0.1,0.1-0.1,0.1-0.2v-0.1c0,0,0-0.1,0-0.2c0-0.2,0-0.3-0.1-0.5c-0.1-0.1-0.1-0.2-0.2-0.3
							c-0.1,0-0.1-0.1-0.2-0.1h-0.2c0,0-0.1,0-0.1-0.1c-0.1,0-0.1,0-0.2,0s-0.2,0-0.2,0h-0.2h-0.6c-1.3-0.1-2.5-0.3-3.9-0.5l0,0
							c-5.1-0.8-10.1-2.2-14.3-4.7c-1-0.6-2.1-1.3-2.8-2c-0.1-0.1-0.2-0.2-0.3-0.3l-0.3-0.3l-0.1-0.2l-0.1-0.1h-0.1H270h-2h-0.9
							h-0.5h-0.1c-0.1-0.4,1,3.3,0.6,1.8l0,0l0,0l0,0l0.1-0.1l0.2-0.1c0.6-0.3,1-0.5,1.6-0.8l0.7-0.3l0.8-0.4l0.5-0.2
							c0.1-0.1,0.5-0.1,0.2-0.2l-0.5-0.8c-0.1-0.3-0.3-0.5-0.5-0.8c0-0.1-0.1-0.2-0.1-0.4c-0.1-0.2-0.2-0.5-0.2-0.7l0,0
							c-0.3-0.9-0.3-2-0.1-3c0.1-0.3,0.1-0.6,0.2-0.8l0.1-0.4c0-0.1,0.1-0.2,0.1-0.3c0.3-0.4,0.8-0.8,1.3-1.3c1-0.8,2.3-1.5,3.5-2.3
							s2.4-1.6,3.3-2.6c1-0.9,2.1-2.2,2.3-3.9c0-0.1,0-0.2,0-0.3c0-0.2,0-0.3,0-0.4s0-0.3-0.1-0.5c-0.1-0.3-0.1-0.7-0.2-0.9
							c-0.2-0.7-0.5-1.3-0.7-1.9c-0.6-1.3-1-2.3-1.7-3.5c-1.3-2.2-2.5-4.2-3.7-6.3c-1.1-2-1.7-4.1-1.4-6.1c0.2-1.9,1.4-3.6,2.9-5.2
							c3-3.1,6.5-5.5,9.7-7.6s6.3-4.1,9-5.9c0.7-0.5,1.3-0.9,2-1.4l0.9-0.7l1.2-0.8l1.6-1.3l1.4-1.3l1.3-1.2l0.7-0.6l0.3-0.3
							l0.1-0.1l0,0l0,0h-0.1l-3.2,0.7l-1.5,0.4h-0.9l-0.8,0.2l-1.5,0.4l-0.8,0.3l-1.3,0.5c-1.6,0.6-2.7,1.1-3.5,1.4l-0.7,0.3
							c0,0-1.3,0.6-3.5,1.8c-2.3,1.3-5.4,3.2-8.9,6.1c-3.6,2.9-7.5,6.8-11.2,11.7c-3.8,4.9-7.3,10.7-10.3,17.4
							c-1.5,3.4-2.9,6.9-4,10.7c-0.3,0.9-0.7,1.9-0.8,2.8l-0.5,1.4l-0.2,0.7l-0.2,0.6l-0.1,0.4c0,0.1,0.1,0.2,0.2,0.3l0.8,0.8
							l0.6,0.6l0.9,1.2c0.7,0.8,1.3,1.6,1.8,2.5c0.7,0.8,1.2,1.8,1.7,2.5l0.2,0.3l0,0v0.6v1.5v6.3V410v26.6v0.4v0.3v0.2
							c0,0.3,0,0.5,0,0.8c0,0.5,0,1.1-0.1,1.5c-0.1,1.1-0.5,2-0.9,2.9c-0.6,0.8-1.2,1.6-2.1,2.3l-0.3,0.3l-0.2,0.1l-0.5,0.3
							c-0.2,0.2-0.6,0.3-0.8,0.5l0.2,0.8l0.7,1.9c1.5,4.3,3.3,8.6,5.4,12.7c0.7,1.4,1.4,2.6,2.2,3.9l0.6,0.9l0.3,0.5l0.2,0.4
							l0.1,0.2c0,0.1,0.2,0.1,0.2,0.1l2.4,0.8c3,0.9,6,1.9,9,2.6c6,1.5,12,2.7,18.1,3.4c3,0.4,5.9,0.7,8.8,0.8
							c1.5,0.1,2.9,0.2,4.3,0.2l2.1,0.1h1.2h1.4h0.6h0.2c0.1,0,0.1-0.1,0.1-0.2l0.5-1.1l0.6-1.4c0.1-0.1-0.1-0.1-0.2-0.2l-0.3-0.1
							c-0.2-0.1-0.5-0.1-0.6-0.2l-0.3,1c-0.1,0-0.2-0.1-0.2-0.1c-0.1,0-0.1-0.1-0.2-0.1c-0.1-0.1-0.2-0.2-0.3-0.2
							c-0.2-0.2-0.5-0.4-0.7-0.6l-1.2-1.3c-0.5-0.4-0.8-0.8-1.4-1.2C304.8,469.8,304,469.6,303.4,469.6c1.2,0.7,1.5,1.6,2,2.5
							c0.2,0.5,0.5,0.9,0.8,1.5c0.2,0.3,0.5,0.6,0.8,0.8c0.1,0.1,0.3,0.3,0.6,0.4c0.1,0.1,0.2,0.1,0.3,0.2c0.1,0.1,0,0,0,0l0,0l0,0
							l0,0l0,0l0,0l0,0l0.1-0.3l0,0l0,0l0,0l0,0h-0.8h-1.2l-2.1-0.1c-1.4-0.1-2.8-0.1-4.3-0.2c-2.9-0.2-5.8-0.5-8.7-0.8
							c-5.8-0.8-11.9-1.9-17.7-3.4c-3-0.8-5.9-1.6-8.8-2.6l-2-0.7l-0.8-1.4c-0.8-1.3-1.4-2.5-2.1-3.8c-2.1-4-3.8-8.2-5.3-12.4
							l-0.5-1.4l0,0l0,0l0.2-0.1l0.5-0.3c1-0.8,2-1.9,2.5-2.9c0.6-1,0.9-2.3,1.2-3.5c0.1-0.6,0.1-1.3,0.1-1.9c0-0.3,0-0.6,0-0.8
							v-0.2c0-0.1,0,0,0-0.1v-0.6v-26.2v-12.9v-6.3v-1.5v-1v-0.2c0-0.1-0.1-0.1-0.1-0.2l-0.2-0.3l-0.2-0.3c-0.6-0.8-1.2-1.8-1.8-2.6
							c-0.7-0.8-1.3-1.8-2-2.5l-0.9-1.3l-0.8-0.9l0,0l0,0l0.2-0.7l0.5-1.4c0.3-0.9,0.6-1.9,0.8-2.8c1.2-3.6,2.5-7.1,4-10.4
							c3-6.6,6.5-12.3,10.1-17.1c3.7-4.7,7.5-8.5,10.9-11.4c3.5-2.8,6.5-4.7,8.6-5.9c2.2-1.2,3.3-1.6,3.3-1.6l0.7-0.3
							c0.7-0.3,1.7-0.8,3.2-1.3l1.3-0.4l0.7-0.2l0,0l0,0l-0.6,0.4l-0.8,0.7c-0.7,0.5-1.3,0.8-2,1.4c-2.7,1.9-5.7,3.8-9,5.9
							c-3.2,2.2-6.9,4.7-10,8c-1.6,1.5-3.1,3.6-3.5,6.2c-0.3,2.5,0.6,4.9,1.6,7c1,2.2,2.4,4.2,3.7,6.3c0.7,1.1,1.2,2.1,1.6,3.2
							c0.2,0.6,0.5,1.1,0.6,1.6c0.1,0.3,0.1,0.6,0.2,0.8c0,0.1,0,0.3,0.1,0.4c0,0.1,0,0.1,0,0.1c0,0.1,0,0.1,0,0.2
							c-0.1,0.8-0.8,1.9-1.7,2.7c-0.8,0.8-2.1,1.6-3.1,2.5c-1.2,0.8-2.4,1.5-3.6,2.5c-0.6,0.5-1.2,0.8-1.7,1.6
							c-0.1,0.2-0.2,0.4-0.3,0.6c-0.1,0.2-0.1,0.4-0.2,0.6c-0.1,0.4-0.2,0.7-0.3,1.1c-0.2,1.3-0.2,2.6,0.1,3.9l0,0
							c0.1,0.3,0.2,0.6,0.3,0.8c0.1,0.2,0.1,0.3,0.2,0.5l0,0l0,0l-0.2,0.1c-0.6,0.3-1.2,0.5-1.7,0.8l-0.2,0.1l-0.1,0.1l0,0l0,0l0,0
							c-0.6-1.5,0.7,2.1,0.6,1.8h0.1h0.5h0.9h2h0.6l0,0c0,0.1,0.2,0.2,0.3,0.3c0.9,0.8,2.1,1.6,3.2,2.3c2.3,1.4,4.7,2.3,7.3,3.1
							c2.5,0.8,5.2,1.4,7.7,1.9l0,0c1.3,0.2,2.7,0.4,4,0.5l0.6,0.1h0.1h0.1h0.1l0,0c0,0,0,0,0-0.1v-0.3c0-0.1,0-0.1,0-0.2
							c0-0.2,0-0.2,0.1-0.3c0.1,0-0.2,0-0.5-0.4c-0.1-0.1-0.2-0.2-0.2-0.2c0-0.1,0,0,0,0l0,0l-0.1,0.1l-0.2,0.2
							c-0.1,0.1-0.3,0.2-0.6,0.4c-0.3,0.3-0.7,0.6-0.9,0.9c-0.1,0.2-0.3,0.4-0.3,0.7l0,0l0,0H291c-0.5,0-0.8,0.1-1.3,0.2
							c-0.8,0.2-1.6,0.4-2.4,0.7c-3,1.3-5.4,3.4-7.1,5.9c-0.2,0.4-0.5,0.8-0.7,1.2c-0.1,0.2-0.2,0.4-0.3,0.6l-0.3,0.7l-0.5,1.2
							l-0.2,0.6l-0.1,0.1c0,0-0.1,0.1,0,0.1l0.3,0.1l1.3,0.2l0.7,0.1l0.3,0.1c1.6,0.4,3.2,0.8,4.7,1.6c3,1.4,5.6,3.6,7.3,6.2
							c1.7,2.6,2.5,5.6,2.5,8.5c0,0.8-0.1,1.4-0.2,2.2l-0.1,0.6c-0.1,0.4-0.2,0.8-0.3,1.2l-0.1,0.6l-0.1,0.3v0.1h0.1h1.3h1.8l0,0
							v0.1c0,0.2,0,0.4,0.1,0.6c0,0.4,0,0.7,0,1.1c0,1.4-0.3,2.9-0.7,4.3c-0.3,1.4-0.8,3-0.9,4.6c-0.1,0.8-0.1,1.6,0,2.5
							c0.1,0.8,0.5,1.8,0.9,2.5c1,1.5,2.7,2.5,4.2,3.1c0.8,0.3,1.6,0.6,2.4,0.8c0.5,0.1,0.8,0.2,1.2,0.3s0.8,0.2,1.3,0.3
							c1.7,0.3,3.3,0.2,4.7,0.4c0.8,0.1,1.4,0.2,1.7,0.4c0.1,0.1,0.1,0.1,0.1,0.1l0,0l0.1,0.1v0.1l0.1,0.2c0.2,0.3,0.3,0.5,0.6,0.8
							c0.7,1.1,0.8,2.1,0.3,3.1c-0.5,0.9-1.5,1.9-2.5,2.6c-1,0.8-2.3,1.4-3.6,2.1l-0.8,0.5l-0.9,0.5c-0.6,0.3-1,0.6-1.4,0.8
							c-0.8,0.5-1.3,0.9-1.8,1.6c-0.5,0.6-0.7,1.4-0.7,2s0.3,1.2,0.6,1.8C303.4,468.5,303.5,469,303.4,469.6z"/>
					</g>
				</g>
				<g>
					<path fill="#FFFFFF" d="M369.6,385.1c-3.6-12.4-9.1-26.7-18-38.2C359.9,357,366.1,370.2,369.6,385.1z"/>
					<g>
						<path fill="#FFFFFF" d="M369.6,385.1c0-2.5-0.2-4.1-1-6.9l-0.6-1.6l-0.5-1.2l-0.9-2.6c-1.4-3.8-3.2-8.1-5.3-12.2
							c-2.1-4.1-4.3-7.8-6.1-10.5c-0.8-1.4-1.7-2.5-2.3-3.2l-0.3-0.5l0,0l0,0c0.3-0.2-3.2,2-1.7,1.1l0,0l0,0v0.1l0.1,0.1l0.1,0.2
							l0.2,0.3c0,0,1.3,1.6,3.1,4.2c1.8,2.6,4,6.3,6,10.3c2.1,4,3.8,8.3,5.1,12c0.7,1.9,1,3.3,1.3,4.1
							C367.5,381.3,368.4,382.8,369.6,385.1c0.1-2.5,0-4.1-0.8-6.9c-0.2-0.8-0.7-2.3-1.3-4.1c-1.3-3.6-3.1-8.1-5.2-12.2
							s-4.3-7.8-6.2-10.5c-1.8-2.7-3.2-4.3-3.2-4.3l-0.2-0.3l-0.1-0.2l-0.1-0.1v-0.1l0,0l0,0c1.5-0.9-2.1,1.4-1.7,1.1l0,0l0,0
							l0.3,0.5c0.6,0.8,1.3,1.9,2.3,3.1c1.8,2.6,4,6.3,6,10.3c2.1,4,3.9,8.3,5.3,12l0.9,2.6l0.5,1.2l0.6,1.6
							C367.5,381.3,368.2,382.9,369.6,385.1z"/>
					</g>
				</g>
				<g>
					<path fill="#FFFFFF" d="M261.8,467.9c9.8,16.2,23.7,27.4,39.6,30.4c0.8-7.8,4.2-15.2,7.2-22.4
						C292,475.8,276.1,472.8,261.8,467.9z"/>
					<g>
						<path fill="#FFFFFF" d="M261.8,467.9c0.8,2.5,1.3,4.1,3.1,6.4l1,1.4l0.8,0.9l1.3,1.6c0.5,0.6,0.9,1.2,1.5,1.8
							c4,4.7,9.8,9.7,16.2,13.4c3.2,1.9,6.6,3.3,9.8,4.2c0.8,0.3,1.6,0.5,2.4,0.7l1.2,0.3l0.6,0.1l0.7,0.1c0.8,0.1,1.5,0.3,2.2,0.4
							l0.2-1.9l0.1-0.9l0.1-0.8c0.8-4.6,2-7.4,2-7.4s0.9-2.9,2.8-7.3l1.5-3.6l0.8-1.9l0.2-0.5v-0.1h-0.1h-0.4h-1.2l-3.1-0.1
							c-3.3-0.1-6.9-0.3-10.5-0.7c-3.7-0.4-7.3-0.8-10.9-1.5c-1.8-0.3-3.6-0.7-5.3-1.1l-2.4-0.6l-2.4-0.6c-2.1-0.5-3.7-0.9-4.5-1.2
							C266.4,468.4,264.5,468.2,261.8,467.9c2.3,1.4,3.9,2.3,7,3.2c0.8,0.3,2.4,0.7,4.6,1.3l2.4,0.6l2.5,0.6
							c1.7,0.4,3.6,0.7,5.4,1.1c3.7,0.7,7.4,1.2,11.1,1.5c3.7,0.4,7.3,0.6,10.7,0.7h1.7c0,0,0,0,0,0.1l-1.5,3.5
							c-1.8,4.5-2.8,7.4-2.8,7.4s-1,2.9-2.1,7.6l-0.1,0.8l-0.1,0.8l0,0l-0.9-0.2l-1-0.3c-0.8-0.2-1.5-0.4-2.3-0.7
							c-3.1-0.9-6.2-2.3-9.3-4.1c-6.1-3.5-11.6-8.3-15.7-12.9c-0.6-0.6-0.9-1.2-1.4-1.6l-1.3-1.5l-0.8-0.9l-1-1.4
							C264.9,470.9,263.6,469.7,261.8,467.9z"/>
					</g>
				</g>
				<g>
					<path fill="#FFFFFF" d="M310,475.8c-0.5,0-0.8,0-1.3,0c-3.1,7.1-6.3,14.6-7.2,22.4c2.8,0.5,5.6,0.8,8.5,0.8
						c19.2,0,36.5-12.1,48-31C343.1,473,327,475.8,310,475.8z"/>
					<g>
						<path fill="#FFFFFF" d="M310,475.8c-0.3-0.1-0.7-0.2-1-0.2l-0.3-0.1h-0.2c-0.1,0-0.1,0.1-0.1,0.1l-0.3,0.5
							c-0.2,0.4-0.3,0.5-0.6,0.8l-0.5,0.7c-0.7,0.9-1.2,1.9-1.7,3.3l-0.7,1.6l-0.5,1.2l-0.8,2.2c-0.3,0.8-0.6,1.6-0.8,2.5
							c-0.6,1.8-1,3.5-1.5,5.3c-0.2,0.9-0.5,1.9-0.6,2.9l-0.1,0.8l-0.2,1.4c0,0.1-0.1,0.3,0,0.4l0.5,0.1l0.8,0.1l0.8,0.1l0.5,0.1
							c4.4,0.7,9,0.8,13.5,0.1c4.4-0.6,8.7-1.9,12.3-3.4s6.8-3.4,9.3-5c5.1-3.4,7.7-6.2,7.7-6.2s2.9-2.5,6.7-7
							c0.9-1.2,2-2.5,2.9-3.8c0.6-0.7,0.9-1.4,1.5-2.1l0.8-1.2l0.7-0.9l0.8-1.2l1.4-2.3l0.2-0.3l-0.3,0.1l-0.7,0.2l-1.4,0.5
							l-2.9,0.9l-1.5,0.5c-2,0.6-4,1.2-6.1,1.8c-4.2,1.1-8.5,2-12.8,2.7c-2.2,0.4-4.2,0.7-6.2,0.8c-1,0.1-2.1,0.2-3,0.3l-2.8,0.3
							c-2.2,0.2-3.9,0.3-4.7,0.3C314.5,474.8,312.6,475.2,310,475.8c2.7,0.6,4.5,0.8,7.7,0.8c0.8,0,2.5-0.1,4.7-0.3l2.9-0.3
							c0.9-0.1,2.1-0.2,3.1-0.4c2.1-0.3,4.2-0.6,6.3-0.8c4.3-0.7,8.7-1.6,13-2.7c2.2-0.6,4.2-1.2,6.2-1.8l1.5-0.5l0,0l-0.8,1.3
							c-0.6,0.7-0.9,1.4-1.5,2c-0.9,1.4-2,2.5-2.8,3.6c-3.7,4.5-6.5,6.9-6.5,6.9s-2.5,2.6-7.5,5.9c-2.4,1.6-5.5,3.4-8.9,4.8
							c-3.6,1.4-7.5,2.6-11.7,3.2c-4.2,0.6-8.6,0.5-12.8-0.1l-0.5-0.1l0,0l0.1-0.7c0.1-0.9,0.3-1.9,0.6-2.7c0.5-1.9,0.8-3.6,1.4-5.2
							c0.2-0.8,0.6-1.6,0.8-2.5l0.8-2.1l0.5-1.2l0.7-1.6c0.6-1.4,0.8-2.5,1.2-3.5l0.2-0.8c0-0.2,0.1-0.6,0.1-0.7l0,0
							c0-0.1,0-0.1,0.1-0.1h0.1C309.4,476,309.6,475.9,310,475.8z"/>
					</g>
				</g>
				<g>
					<path fill="#FFFFFF" d="M311.1,324.7c15.6,0.5,29.6,8.7,40.5,22.1C342.1,334.4,329.1,325.2,311.1,324.7z"/>
					<g>
						<path fill="#FFFFFF" d="M311.1,324.7c2.7,0.7,4.4,1.2,7.4,1.8c0.5,0.1,1,0.2,1.8,0.4l1.3,0.3c0.8,0.2,2.1,0.6,3,0.9
							c4.3,1.4,9.1,4,13.1,6.9s7.5,6.2,9.9,8.8c1.2,1.3,2.2,2.5,2.7,3.2l0.2,0.3l0.1,0.1v0.1c0.8-0.5-1.7,1.1,1.7-1.1l0,0l0,0l0,0
							l0,0l-0.3-0.4l-0.2-0.2c0,0-1.4-1.9-3.8-4.5s-6-6.1-10.3-9c-2.2-1.4-4.5-2.8-7-3.9c-2.4-1.1-5-2-7.1-2.6s-3.9-0.8-4.7-1.1
							C315.9,324,313.9,324.1,311.1,324.7c2.7,0.7,4.4,1.2,7.4,1.6c0.8,0.2,2.4,0.5,4.5,1.1c2.2,0.6,4.5,1.4,6.8,2.5
							s4.5,2.3,6.7,3.8c4.2,2.8,7.6,6.1,10,8.6c2.4,2.6,3.7,4.3,3.7,4.3l0.2,0.3l0.3,0.4l0,0l0,0l0,0l0,0c3.5-2.1,0.9-0.6,1.7-1.1
							v-0.1l-0.1-0.1l-0.2-0.3c-0.7-0.8-1.6-1.9-2.8-3.2c-2.4-2.6-5.9-6.1-10.2-9.1c-4.2-3.1-9.2-5.6-13.7-7.1
							c-0.6-0.2-1-0.4-1.6-0.6l-0.8-0.2l-0.8-0.2L321,325c-0.8-0.2-1.5-0.3-2-0.4C315.9,324,313.9,324.1,311.1,324.7z"/>
					</g>
				</g>
				<g>
					<path fill="#FFFFFF" d="M266.4,388.3h4.4c-0.5-0.5-0.8-0.9-1.2-1.4C267.5,387.7,266.4,388.3,266.4,388.3z"/>
					<g>
						<path fill="#FFFFFF" d="M266.4,388.3c0.5,0.6,0.8,0.9,1.4,0.9h5.3l-0.8-0.8l-0.6-0.7l-0.7-0.7c-0.2-0.3-0.5-0.5-0.6-0.8
							l-0.6-0.7l-0.8,0.3c-0.8,0.3-1.8,0.8-2.2,0.8C266.6,387.2,266.5,387.6,266.4,388.3c0.8,0.3,1.2,0.5,1.7,0.3
							c0.3-0.1,1.2-0.6,2.1-0.8l-1.3-0.4c0,0.1,0,0,0,0l0,0l0,0H268C267,387.4,266.8,387.7,266.4,388.3z"/>
					</g>
				</g>
				<g>
					<path fill="#FFFFFF" d="M269.6,386.8c0.3,0.5,0.8,0.9,1.2,1.4h30.2C289,380.8,275.6,384.6,269.6,386.8z"/>
					<g>
						<path fill="#FFFFFF" d="M269.6,386.8c0.1,0.3,0.2,0.6,0.3,0.8l0.2,0.4c0.1,0.1,0.2,0.3,0.3,0.5l0.1,0.1h0.1h0.3h0.3h0.2
							l0.8,0.1c1.2,0.2,2.4,0.3,4,0.3h3.2h14.1h3.1h0.3h0.6h1.2l2.2-0.1l3.1-0.1h0.1c0,0,0.1,0,0,0l-0.2-0.1h-0.1l-0.2-0.2
							c0,0-1-0.7-2.9-1.8c-0.5-0.3-1-0.6-1.7-0.8l-0.5-0.2l-0.5-0.2l-0.6-0.3c-0.8-0.3-1.7-0.7-2.7-0.9c-2-0.6-4.3-1.1-6.6-1.4
							c-2.4-0.2-4.6-0.2-6.7,0c-2.2,0.2-4,0.6-4.8,0.7C273.5,384.5,271.9,385.4,269.6,386.8c2.7-0.4,4.5-0.6,7.5-1.3
							c0.8-0.2,2.4-0.5,4.6-0.7c2-0.2,4-0.2,6.2,0s4.3,0.7,6.1,1.3c0.8,0.3,1.7,0.6,2.4,0.8l0.8,0.3l0,0l0,0h-3.7h-13.8h-3.2
							c-1.6,0-2.9,0.1-4,0.3l-0.9,0.2h-0.2c-0.1,0-0.1,0-0.1,0c-0.1,0-0.2,0.1-0.2,0c-0.1,0-0.1-0.1-0.2-0.1l-0.3-0.3
							C270,387.3,270,387.2,269.6,386.8z"/>
					</g>
				</g>
				<g>
					<path fill="#FFFFFF" d="M257.1,438.3c0.6,4.6-1.4,7.6-4.5,9.5c-3.6-10.9-5.5-23.1-5.5-35.9c0-10.7,1.4-21,3.9-30.5
						c3.6,4.1,6.1,8.2,6.1,8.2V438.3z"/>
					<g>
						<path fill="#FFFFFF" d="M257.1,438.3c-0.2,1.3-0.6,2.2-0.8,3.2c-0.3,0.9-0.8,1.9-1.5,3c-0.2,0.3-0.6,0.8-1,1.2
							c-0.1,0.1-0.2,0.2-0.5,0.4l-0.1,0.1l0,0l-0.8-2.5c-2.1-6.9-3.6-15.4-4-23.4c-0.6-8.1-0.2-15.8,0.5-21.6
							c0.7-5.7,1.4-9.3,1.4-9.3l0.6-2.5c0.2-0.8,0.5-1.8,0.7-2.9v-0.2l0,0l0.6,0.6l0.8,0.9c0.6,0.7,0.9,1.3,1.5,2s0.9,1.4,1.5,2.1
							l0.3,0.6l0,0v0.2v1.4v11.7v28C256.1,434.2,256.5,435.8,257.1,438.3c0.7-2.5,1-4.1,1-6.9v-28.2v-11.8V390v-0.5
							c0.1-0.2-0.2-0.4-0.2-0.6l-0.5-0.6c-0.6-0.8-1-1.5-1.5-2.2c-0.6-0.7-0.9-1.4-1.5-2l-0.8-0.9l-0.9-1.2
							c-0.5-0.6-0.9-1.1-1.4-1.6l-0.7-0.8l-0.2-0.2c0-0.1,0,0,0,0.1v0.1l-0.1,0.5l-0.6,1.9l-0.5,1.5c-0.3,1.2-0.6,2.1-0.7,3
							l-0.6,2.5c0,0-0.8,3.6-1.4,9.5c-0.7,5.8-1,13.6-0.5,21.8c0.6,8.2,2.1,16.8,4,23.9c0.2,0.8,0.6,1.8,0.8,2.6
							c0.2,0.8,0.6,1.5,0.8,2.3v0.1v0.1h0.1l0.3-0.2l0.6-0.3l0.6-0.3c0.1-0.1,0.2-0.1,0.2-0.2h0.1c0.3-0.3,0.8-0.6,0.9-0.7
							c0.2-0.2,0.3-0.3,0.6-0.5c0.7-0.6,1-1.2,1.3-1.4c0.9-1.4,1.2-2.6,1.3-3.8C257.9,440.5,257.5,439.4,257.1,438.3z"/>
					</g>
				</g>
				<g>
					<path fill="#FFFFFF" d="M247.1,411.9c0,12.8,2,25,5.5,35.9c-10.2,6.2-32.8-0.7-20.3-9.5c16.4-11.4-5-29.7,0-55
						c3.2-16.2,12.4-9.1,18.7-1.9C248.5,390.9,247.1,401.1,247.1,411.9z"/>
					<g>
						<path fill="#FFFFFF" d="M247.1,411.9c-0.7,2.5-0.9,4.1-0.8,6.9l0.1,1.8l0.1,1.2l0.1,1.5l0.2,1.8c0.1,1.2,0.3,2.5,0.5,3.6
							c0.8,5,1.8,10.5,3.5,16.1l0.7,2l0.1,0.4l0,0l-0.2,0.1c-1.3,0.7-2.7,1.1-4.2,1.4c-3,0.6-6.1,0.5-9.1-0.1
							c-1.5-0.3-2.9-0.7-4.2-1.3c-1.3-0.6-2.4-1.4-3.2-2.2s-0.8-1.9-0.5-3c0.5-0.9,1.4-1.9,2.4-2.7c0.2-0.2,0.6-0.4,0.8-0.6
							c0.3-0.2,0.6-0.4,0.8-0.7c0.6-0.5,1-0.8,1.6-1.4c0.9-0.9,1.8-2,2.4-3.2c1.3-2.2,1.7-4.7,1.7-6.8s-0.3-4-0.7-5.6
							s-0.7-3-0.9-4.1c-0.7-2.2-0.9-3.5-0.9-3.5l-1-3.5c-0.7-2.2-1.6-5.4-2.4-9.3c-0.8-3.9-1.3-8.6-0.8-13.6
							c0.2-2.5,0.7-5.2,1.5-7.6c0.5-1.3,0.9-2.5,1.8-3.5c0.8-1.1,1.8-1.8,3-1.9s2.5,0.4,3.9,1.2c1.3,0.7,2.4,1.6,3.6,2.6
							c1,0.9,2.2,2,3.1,3.2l0.3,0.3l-0.2,0.8c-0.2,0.7-0.3,1.4-0.6,2.1c-0.7,2.8-1.2,5.6-1.6,8.3c-0.2,1.4-0.5,2.7-0.6,4l-0.2,1.9
							l-0.2,1.8c-0.2,1.9-0.3,3.5-0.3,4.2C246.1,407.7,246.5,409.4,247.1,411.9c0.7-2.5,1-4.1,1.3-6.9c0-0.8,0.1-2.3,0.3-4.2
							l0.2-1.8l0.2-1.9c0.1-1.3,0.3-2.6,0.6-4c0.5-2.7,0.9-5.4,1.6-8.1c0.2-0.7,0.3-1.4,0.6-2l0.3-1.3l0.1-0.3v-0.1l-0.1-0.1
							l-0.3-0.4l-0.5-0.5c-0.9-1.2-2.2-2.2-3.2-3.3c-1.2-1.1-2.4-2-3.9-2.9c-1.4-0.8-3.1-1.5-5.2-1.4c-0.9,0.1-2,0.4-2.7,0.8
							c-0.8,0.5-1.4,1.1-2,1.8c-0.9,1.3-1.6,2.7-2.1,4.1c-0.9,2.7-1.4,5.4-1.6,8c-0.6,5.2,0.1,10.1,0.8,14.1c0.8,4,1.7,7.3,2.4,9.5
							l1,3.5c0,0,0.5,1.3,0.9,3.5c0.3,1.1,0.7,2.5,0.9,4.1c0.3,1.5,0.6,3.3,0.6,5.2s-0.5,4-1.5,5.9c-0.6,0.9-1.3,1.9-2.2,2.7
							c-0.5,0.4-0.8,0.8-1.4,1.3c-0.2,0.2-0.6,0.4-0.8,0.6c-0.3,0.2-0.6,0.4-0.8,0.7c-1.2,0.8-2.3,1.9-2.9,3.5
							c-0.3,0.8-0.5,1.6-0.3,2.5c0.1,0.8,0.6,1.6,1,2.3c1,1.4,2.5,2.1,4,2.8s3.1,1.1,4.7,1.4c3.2,0.6,6.7,0.7,10,0.1
							c1.6-0.3,3.3-0.8,4.8-1.5l0.3-0.2l0.5-0.3l0.6-0.3l0.2-0.1l0.1-0.1v-0.1l-0.6-1.6l-0.7-2c-1.6-5.4-2.7-10.8-3.3-15.8
							c-0.2-1.3-0.3-2.5-0.5-3.6l-0.2-1.8l-0.1-1.5l-0.1-1.2l-0.1-1.6C248.1,415.9,247.8,414.2,247.1,411.9z"/>
					</g>
				</g>
			</g>
			<g>
				<g>
					<path fill="#FFFFFF" d="M311.1,324.7c15.6,0.5,29.6,8.7,40.5,22.1c8.3,10.2,14.5,23.4,18,38.2"/>
				</g>
				<path fill="#FFFFFF" d="M305,324.7c0,0-35.4,20-7.4,51.6c0,0,7.9,10.4,6.8,15.2s5.4,0,5.4,0l-5.4,40.2c0,0-15.1,0.7,0,11.2h12.2
					c0,0-1.5,9.1-12.2,14.6s-6.3-2.6-15.6-4.7c0,0-21.7,0.7-5.8,13.5c0,0,16.7,15.5,24.5,15.2s1.3,0,1.3,0s23.6,14.9-6,15.2
					c-7.3,0.1-41.8-13.2-48.5-47.8c-2.1-10.4-2.1-4.6-2.1-4.6s6.1-37,0.6-42.3c0,0-5.5-21.7-0.5-24.6
					C257.1,374.6,259.8,337.2,305,324.7z"/>
				<g>
					<path fill="#FFFFFF" d="M251,381.4c0.2-0.7,0.3-1.3,0.6-1.9c9.2-32.1,31.9-54.9,58.3-54.9c0.5,0,0.8,0,1.3,0
						c18.1,0.4,31,9.7,40.5,22.1c8.8,11.6,14.4,25.9,18,38.2"/>
				</g>
				<g>
					<path fill="#FFFFFF" d="M257.1,389.6c0,0-2.5-4.1-6.1-8.2c-6.2-7.3-15.4-14.3-18.7,1.9c-5,25.3,16.4,43.6,0,55
						c-12.6,8.7,10.1,15.7,20.3,9.5c3.1-1.9,5.1-4.9,4.5-9.5"/>
				</g>
				<g>
					<path fill="#FFFFFF" d="M364,392.3c0,0,2.3-3.6,5.5-7.4c6.2-7.4,16.1-15.7,19.4,1.1c0.2,38.4-17.1,46.2,0,55
						c4.6,3.3,4.5,6.2,1.8,8.4c-5,4.1-18.4,5.2-24.2-0.6c-1.8-1.9-2.9-4.5-2.4-7.8"/>
				</g>
				<g>
					<g>
						<g>
							<path fill="#FFFFFF" d="M266.4,388.3c1.5-0.4,2.7-0.6,4-0.8c0.8-0.2,1.4-0.3,2.1-0.5s1.4-0.4,2.3-0.6
								c0.6-0.2,1.5-0.4,3.5-0.8c0.8-0.1,2.1-0.4,3.1-0.4c0.6-0.1,1-0.1,1.4-0.1c0.3,0,0.7,0,0.7,0s0.8,0,1.7,0
								c0.9-0.1,2.2,0.1,3,0.2c0.7,0,1.3,0.2,1.8,0.2c0.6,0.1,0.9,0.2,1.4,0.2c0.8,0.1,1.4,0.4,1.8,0.5c1.7,0.4,2.9,0.8,4.2,1.2
								c1.3,0.4,2.4,0.8,4,1.2c-1-0.9-2.1-1.9-3.2-2.5c-1.2-0.7-2.4-1.4-4.3-1.9c-0.5-0.1-1-0.4-2-0.5c-0.5-0.1-0.9-0.2-1.5-0.3
								s-1.2-0.2-2-0.3c-0.8,0-2.2-0.2-3.2-0.2s-1.8,0-1.8,0s-0.2,0-0.7,0s-0.9,0.1-1.5,0.1c-1.2,0.1-2.5,0.4-3.3,0.5
								c-2.1,0.4-3.1,0.7-3.7,0.8c-0.8,0.2-1.6,0.5-2.4,0.8s-1.3,0.6-2,0.8C268.5,386.7,267.5,387.3,266.4,388.3z"/>
						</g>
					</g>
				</g>
				<g>
					<g>
						<g>
							<path fill="#FFFFFF" d="M287.5,464.8c0.8,1.2,1.8,2,2.9,2.8s2.4,1.5,4,2.1c0.7,0.2,1.5,0.7,3.6,1.2c0.5,0.1,0.8,0.3,1.4,0.4
								c0.6,0.1,1,0.2,1.7,0.3c1.2,0.3,2.5,0.4,3.8,0.5c0.3,0,0.7,0.1,0.8,0.1c0.3,0,0.6,0,0.8,0c0.6,0,0.9,0,1.4,0
								c0.8,0,1.3,0,1.3,0s0.1,0,0.3,0s0.5,0,0.8-0.1c0.7-0.1,1.6-0.1,2.7-0.2c1.1-0.1,2.3-0.4,3.3-0.5c0.6-0.1,1.2-0.2,1.6-0.3
								c0.6-0.1,0.9-0.3,1.5-0.4c1.4-0.4,2.4-0.7,3.3-0.9c0.8-0.3,1.4-0.6,1.8-0.7c0.8-0.3,1.6-0.6,2.3-0.9c0.7-0.3,1.3-0.7,1.8-1.1
								c1-0.8,2.2-1.4,3.2-2.5c-1.5,0.4-2.8,0.7-4,1.1c-0.7,0.2-1.3,0.5-2,0.7s-1.4,0.5-2.3,0.8c-0.5,0.2-0.9,0.4-1.8,0.7
								c-0.8,0.3-1.8,0.5-3.1,0.8c-0.5,0.1-0.8,0.2-1.4,0.4c-0.6,0.1-1,0.2-1.6,0.3c-1,0.2-2.2,0.4-3.2,0.5c-0.9,0.1-2,0.2-2.5,0.2
								c-0.3,0-0.6,0-0.8,0.1c-0.2,0-0.3,0-0.3,0s-0.5,0-1.2,0c-0.5,0-0.8,0-1.3,0c-0.2,0-0.6,0-0.8,0c-0.3,0-0.6-0.1-0.8-0.1
								c-1.2-0.1-2.4-0.2-3.6-0.5c-0.6-0.1-1-0.2-1.6-0.3s-0.9-0.3-1.3-0.4c-2-0.5-2.8-0.8-3.3-1.1c-1.5-0.6-2.7-1.1-4-1.5
								C290.2,465.9,289,465.5,287.5,464.8z"/>
						</g>
					</g>
				</g>
				<g>
					<g>
						<g>
							<path fill="#FFFFFF" d="M322,400.3c2.4,1.9,4.2,2.9,7.8,3.8c0.7,0.1,1.6,0.4,3.8,0.7c0.3,0.1,1,0.1,1,0.1s0.7,0.1,0.9,0.1
								c2.9,0.2,4.7-0.1,5.6-0.2c2-0.3,3.3-0.8,4.5-1.6s2.2-1.6,2.9-2.8c-1.4,0.7-2.4,1.1-3.8,1.4c-1.2,0.4-2.4,0.7-4,0.9
								c-0.8,0.1-2.4,0.4-5.1,0.2c-0.3,0-0.9-0.1-0.9-0.1s-0.8-0.1-0.9-0.1c-2-0.3-2.9-0.5-3.5-0.7C326.9,401.1,325,400.9,322,400.3
								z"/>
						</g>
					</g>
				</g>
				<g>
					<g>
						<g>
							<path fill="#FFFFFF" d="M297.5,400.3c-2.9,1.1-4.7,1.5-8.1,2.5c-0.3,0.1-0.7,0.2-1.2,0.3c-0.6,0.1-1.3,0.3-2.3,0.4
								c-0.3,0-0.8,0.1-1.3,0.1s-0.8,0-0.8,0s-0.3,0-0.8,0s-0.8,0-1.2,0c-0.7-0.1-1.3-0.1-1.7-0.1c-0.6-0.1-0.9-0.2-1.4-0.3
								s-0.8-0.1-1-0.2c-0.3-0.1-0.6-0.2-0.8-0.2c-3.3-0.8-5.2-1.4-8.2-2.3c2.2,1.9,3.9,3.4,7.5,4.3c0.2,0.1,0.6,0.1,0.8,0.2
								c0.3,0.1,0.8,0.1,1.2,0.2c0.5,0.1,0.9,0.2,1.5,0.3s1.3,0.1,2,0.2c0.5,0,0.9,0.1,1.4,0c0.5,0,0.8,0,0.8,0s0.5,0,0.8,0
								c0.6,0,1-0.1,1.4-0.1c1-0.1,1.8-0.3,2.4-0.4c0.7-0.1,0.9-0.2,1.3-0.3C293.8,403.7,295.5,402.4,297.5,400.3z"/>
						</g>
					</g>
				</g>
				<g>
					<g>
						<g>
							<path fill="#FFFFFF" d="M301,437c0.2,1.1,0.6,1.8,1.5,2.3c0.6,0.3,2.3,1.2,4,1.6c0.8,0.2,1.7,0.4,2.4,0.4
								c0.7,0.1,1,0.1,1,0.1s1.7,0.1,3.5-0.4c1.8-0.4,3.5-1.4,4-1.6c0.9-0.6,1.3-1.4,1.4-2.3c-1.2,0.1-1.8,0.1-2.7,0.6
								c-0.5,0.3-1.8,1.1-3.3,1.4c-1.4,0.4-2.8,0.3-2.8,0.3s-1.4,0-2.8-0.4s-2.9-1.2-3.3-1.4C303,437.1,302.2,437.1,301,437z"/>
						</g>
					</g>
				</g>
			</g>
		</g>
		<ellipse fill="#FFFFFF" cx="309.1" cy="338.8" rx="118.6" ry="105.8"/>
	</g>
</g>
<ellipse id="hair" display="none" cx="311.1" cy="349.1" rx="106.9" ry="95.3"/>
<g id="face" display="none">
	<g display="inline">
		<g>
			<path fill="#FBB040" d="M383.6,433.3c4.3,3.1,4.2,5.8,1.7,7.8c-4.6,3.8-17.2,4.9-22.5-0.6c3.5-10.4,5.5-22.2,5.5-34.6
				c0-8.8-1-17.1-2.8-24.9c5.8-6.9,15-14.7,18.1,1C388.4,405.6,368.5,422.7,383.6,433.3z"/>
			<g>
				<g>
					<path fill="#FBB040" d="M383.6,433.3c0.9,1,1.5,1.9,1.9,2.9c0.4,0.9,0.6,1.9,0.2,2.9c-0.1,0.2-0.4,0.7-0.9,1.2
						c-0.2,0.2-0.6,0.5-0.9,0.7l-0.2,0.1l-0.3,0.2c-0.2,0.1-0.5,0.2-0.7,0.4c-0.5,0.2-1,0.5-1.5,0.6c-0.3,0.1-0.5,0.2-0.8,0.2
						c-0.3,0.1-0.6,0.2-0.9,0.2c-0.6,0.2-1.2,0.2-1.8,0.4c-2.4,0.4-5.1,0.4-7.6-0.1c-0.6-0.1-1.3-0.2-1.9-0.5
						c-0.6-0.2-1.2-0.4-1.8-0.7c-0.6-0.2-1.1-0.6-1.6-0.9c-0.3-0.2-0.5-0.5-0.7-0.6l0,0c0.2-0.6,0.4-1.2,0.6-1.7
						c0.2-0.6,0.4-1.3,0.6-1.9c0.4-1.3,0.7-2.6,1.1-3.9c0.6-2.6,1.2-5.2,1.6-7.8c1.8-10.6,1.8-20.7,1.2-28.1
						c-0.3-3.7-0.7-6.8-1.1-8.9c-0.3-2.1-0.6-3.3-0.6-3.3s-0.1-0.2-0.2-0.9c-0.1-0.6-0.3-1.3-0.5-2.4l0,0c0.2-0.2,0.4-0.5,0.6-0.7
						c0.4-0.5,0.9-1,1.4-1.5c1.1-1.1,2.3-2.3,3.8-3.3c0.8-0.6,1.6-1,2.5-1.3c0.9-0.4,1.8-0.5,2.7-0.2c0.8,0.2,1.6,0.7,2.2,1.7
						c0.6,0.8,1.1,1.8,1.5,2.9c0.8,2.1,1.2,4.6,1.5,7s0.3,5,0.1,7.6c-0.4,5.1-1.8,10.3-3.3,15.4c-0.8,2.5-1.5,5-2.1,7.5
						c-0.3,1.3-0.5,2.5-0.7,3.8c-0.1,0.6-0.1,1.3-0.2,1.9c0,0.2,0,0.6,0,0.9c0,0.2,0,0.2,0,0.5v0.4c0.1,2.1,0.6,3.9,1,4.7
						c0.7,1.5,1.5,2.6,2.5,3.4c0.5,0.5,1,0.7,1.6,1.1C382.5,432.8,383,433,383.6,433.3c-0.4-0.6-0.8-1-1.2-1.4
						c-0.3-0.5-0.7-0.9-1-1.3c-0.6-0.9-1.2-1.9-1.7-3.2c-0.3-0.7-0.8-2.1-0.9-4v-0.2c0-0.2,0-0.2,0-0.5v-0.8c0-0.6,0.1-1.2,0.2-1.7
						c0.2-1.2,0.4-2.4,0.7-3.5c0.6-2.4,1.3-4.9,2.1-7.4c1.5-5,3-10.3,3.4-15.8c0.2-2.7,0.2-5.3-0.1-7.9c-0.3-2.6-0.7-5-1.6-7.5
						c-0.4-1.2-1-2.4-1.8-3.4c-0.8-1.1-2-2-3.5-2.4s-2.9-0.1-4.1,0.4s-2.1,1.1-3,1.7c-1.7,1.2-3,2.5-4.2,3.6
						c-0.6,0.6-1.1,1.1-1.5,1.7c-0.2,0.2-0.4,0.6-0.6,0.7c-0.2,0.2-0.4,0.5-0.6,0.7c0,0.2,0.1,0.6,0.2,0.8c0.2,1.1,0.4,1.9,0.5,2.4
						c0.1,0.6,0.2,0.8,0.2,0.8s0.2,1.2,0.6,3.2c0.3,2.1,0.8,5,1.1,8.8c0.6,7.3,0.6,17.4-1.2,27.7c-0.4,2.6-1,5.1-1.6,7.7
						c-0.3,1.3-0.7,2.5-1,3.9c-0.2,0.6-0.4,1.3-0.6,1.9c-0.2,0.7-0.4,1.3-0.7,2.1l-0.2,0.5l-0.1,0.2v0.1l0.1,0.1l0.8,0.7
						c0.4,0.2,0.6,0.6,0.9,0.7c0.6,0.5,1.3,0.8,2,1.2s1.4,0.6,2.1,0.8s1.4,0.4,2.2,0.6c2.9,0.6,5.8,0.5,8.4,0.1
						c0.7-0.1,1.3-0.2,2-0.4c0.3-0.1,0.6-0.2,1-0.2c0.3-0.1,0.6-0.2,0.9-0.2c0.6-0.2,1.2-0.5,1.8-0.7c0.3-0.2,0.6-0.2,0.8-0.5
						l0.4-0.2l0.2-0.2c0.4-0.4,0.9-0.6,1.2-0.9c0.7-0.6,1.1-1.3,1.3-1.8c0.4-0.9,0.4-1.8,0.2-2.5c-0.2-0.7-0.6-1.3-1-1.8
						C386.1,434.5,385,433.9,383.6,433.3z"/>
				</g>
			</g>
		</g>
		<g>
			<path fill="#FBB040" d="M368.5,406.1c0,12.3-2,24.1-5.5,34.6c-1.7-1.7-2.7-4.2-2.3-7.3V388c0,0,2.1-3.3,5.1-6.9
				C367.5,389,368.5,397.4,368.5,406.1z"/>
			<g>
				<g>
					<path fill="#FBB040" d="M368.5,406.1c-0.7,2.5-1.1,4.3-1.3,7.2c0,0.4-0.1,1-0.1,1.8c0,0.4-0.1,0.8-0.1,1.3c0,0.2-0.1,0.6-0.1,1
						s-0.1,0.7-0.1,1.1c-0.1,0.7-0.2,1.5-0.3,2.3c-0.4,3.1-1,6.4-1.8,9.8c-0.4,1.7-0.8,3.4-1.3,5.1c-0.2,0.9-0.5,1.7-0.8,2.5
						l-0.1,0.2l0,0l0,0l0,0l0,0l0,0l0,0c0,0,0,0,0-0.1c-0.1-0.2-0.2-0.4-0.3-0.6c-0.3-0.7-0.5-1.4-0.6-2.3c0-0.4-0.1-0.8,0-1.2
						c0-0.2,0-0.4,0-0.6v-0.2v-0.2V433c0-0.8,0-1.7,0-2.4c0-3.2,0-6.2,0-8.7c0-5,0-8.2,0-8.2s0-3.2,0-8.2c0-2.5,0-5.4,0-8.7
						c0-1.7,0-3.2,0-5c0-0.8,0-1.7,0-2.6c0-0.5,0-0.9,0-1.3l0,0c0,0,0,0,0.1-0.1l0.4-0.6c0.5-0.7,1-1.5,1.6-2.3l0.8-1.1l0.5-0.7
						c0-0.1,0,0,0,0l0,0l0.2,1.2c0.3,1.7,0.6,3.4,0.9,5c0.1,0.8,0.2,1.7,0.3,2.4c0,0.4,0.1,0.8,0.1,1.2s0.1,0.7,0.1,1.1
						c0.2,2,0.3,3.6,0.4,4.4C367.4,401.9,367.8,403.6,368.5,406.1c0.7-2.5,1-4.3,0.9-7.3c0-0.8-0.2-2.4-0.4-4.5
						c0-0.4-0.1-0.7-0.1-1.1c0-0.4-0.1-0.8-0.1-1.2c-0.1-0.8-0.2-1.7-0.3-2.5c-0.2-1.7-0.5-3.4-0.9-5.1c-0.1-0.5-0.2-1-0.3-1.4
						c-0.2-0.9-0.4-1.7-0.6-2.6l-0.3-1.3v-0.2v-0.1c0,0,0-0.1,0,0l-0.2,0.2l-0.4,0.6l-1.7,2.1l-0.7,0.9l-0.4,0.6l-0.8,1.2
						c-0.5,0.7-1.1,1.5-1.6,2.3l-0.4,0.6l-0.3,0.5c-0.1,0.1-0.1,0.2-0.1,0.2v0.4c0,0.5,0,0.9,0,1.3c0,0.9,0,1.7,0,2.6
						c0,1.7,0,3.3,0,5c0,3.2,0,6.2,0,8.7c0,5,0,8.2,0,8.2s0,3.2,0,8.2c0,2.5,0,5.4,0,8.7c0,0.8,0,1.7,0,2.4v0.2v0.1v0.4
						c0,0.2,0,0.5,0,0.6c0,0.5,0,0.9,0.1,1.3c0.1,0.9,0.3,1.9,0.7,2.8c0.1,0.2,0.2,0.5,0.3,0.6c0,0,0.1,0.1,0.1,0.2l0.2,0.2
						c0.1,0.2,0.2,0.4,0.4,0.6c0.5,0.7,1.1,1.3,1.6,1.8c0.1,0.2,0.3,0.4,0.4,0.5l0.2-0.6l0.4-1.2l0.4-1.2l0.2-0.6
						c0-0.1,0.1-0.2,0.1-0.2v-0.2c0.3-0.9,0.5-1.7,0.8-2.6c0.5-1.7,0.9-3.5,1.3-5.2c0.8-3.6,1.4-6.9,1.8-10c0.1-0.8,0.2-1.5,0.3-2.4
						c0-0.4,0.1-0.7,0.1-1.1c0-0.4,0.1-0.6,0.1-1c0-0.5,0.1-0.9,0.1-1.3c0.1-0.8,0.1-1.3,0.1-1.8
						C369.5,410.4,369.1,408.6,368.5,406.1z"/>
				</g>
			</g>
		</g>
		<g>
			<path fill="#FBB040" d="M360.5,433.3v-45.4c0,0,2.1-3.3,5.1-6.9c-3.3-11.5-8.5-24.9-16.8-35.7c-10-12.5-23.2-20.3-37.7-20.6
				c-0.4,0-0.8,0-1.2,0c-3,0-5.9,0.4-8.8,0.9c-7,6.5-17.8,11.3-24,17.8c-8,8,3.6,15.2,4.5,23.3c0,4-8.9,7.2-9.8,9.6
				c-0.9,2.4-0.6,4.5,0.6,6.4c5.6-2.3,18.1-5.7,29.4,1.3h-28.2c4.3,4.6,14.1,6.9,21.4,7.6c0.9,0-1.8,0.8-1.8,2.4
				c-5.4,0-9.8,4-11.6,8.8c10.7,1.7,17.8,10.4,15.1,20.1c0.9,0,2.7,0,2.7,0c1.8,8-7.1,15.2,6.2,18.5c2.7,0.8,7.1,0,8,1.7
				c4.5,5.6-2.7,8-8,11.3c-3.6,2.4-0.9,4-1.8,5.6c2.7,0.8,2.7,4,5.4,4.8c-0.1,0.4-0.3,0.7-0.5,1.1c0.4,0,0.8,0,1.2,0
				c15.8,0,31-2.6,44.7-7.3c3.3-5.4,6.1-11.4,8.2-17.8C361.1,438.9,360.2,436.6,360.5,433.3z"/>
			<g>
				<g>
					<path fill="#FBB040" d="M360.5,433.3c0.6-2.3,1-3.8,1-6.5v-8.4v-17.1v-9v-2.4v-1.2v-0.6c0-0.1,0,0,0-0.1
						c0.9-1.3,1.8-2.6,2.8-3.9c0.5-0.6,1-1.3,1.5-1.9l0.5-0.6c0.1-0.2,0.3-0.2,0.4-0.5l-0.2-0.6l-0.4-1.3c-0.5-1.5-0.9-3.1-1.5-4.6
						c-1-3.1-2.2-6.2-3.5-9.3c-2.6-6.2-5.7-12.2-9.7-17.9c-1-1.4-2-2.9-3.2-4.2c-1.1-1.3-2.3-2.6-3.6-3.9c-2.5-2.5-5.4-4.9-8.2-6.9
						c-5.9-4.2-12.9-7.1-20.4-8.2c-3.7-0.6-7.4-0.6-11.1-0.2c-0.9,0.1-1.8,0.2-2.7,0.4l-0.7,0.1l-0.8,0.2l-0.3,0.1l-0.2,0.2
						l-0.3,0.2l-0.5,0.5c-1.2,1.1-2.6,2.1-3.9,3.1c-5.4,3.9-11.3,7.1-16.3,11.4c-1.2,1.1-2.4,2.1-3.5,3.3s-2,2.7-2.3,4.3
						c-0.4,1.5-0.2,3.2,0.2,4.6c0.4,1.4,1.1,2.8,1.8,4c1.4,2.5,3,4.8,4,7.1c0.3,0.6,0.5,1.2,0.6,1.7c0.1,0.2,0.2,0.6,0.2,0.9
						l0.1,0.5v0.2c0,0.1,0,0,0,0.1c0,0.9-0.8,1.9-1.7,2.7c-1.8,1.7-4.1,2.9-6.1,4.4c-0.5,0.4-1,0.8-1.5,1.3
						c-0.1,0.2-0.2,0.2-0.3,0.5c-0.1,0.1-0.1,0.2-0.1,0.2l-0.1,0.2c-0.1,0.2-0.2,0.6-0.3,0.9c-0.3,1.2-0.3,2.4,0,3.6
						c0.1,0.2,0.2,0.6,0.3,0.8l0.2,0.5c0.1,0.1,0.1,0.2,0.3,0.6c0.3,0.5,0.5,0.9,0.8,1.3l1.6-0.6c1.1-0.4,2-0.7,3-1
						c2-0.6,3.9-1,5.7-1.2c5.9-0.8,10.7,0.2,13.7,1.3c0.8,0.2,1.4,0.6,2,0.8l0.2,0.1l0,0l0,0h-0.4h-13.7h-4.6h-2.5h-0.4H276h-0.6
						l-2.4,0.1h-1.2h-0.2h-0.1c0,0,0,0,0,0.1l0.2,0.2l0.4,0.5l0.8,0.8l0.9,0.8l1,0.8l0.6,0.4c0.4,0.2,0.8,0.6,1.2,0.7
						c1.7,1,3.5,1.7,5.4,2.4c3.9,1.3,8.1,2.1,12.7,2.5h0.1h0.1c0.2,0,0,0,0.1,0c0,0,0,0,0-0.1v-0.2c0-0.1,0-0.1,0-0.2s0-0.1,0-0.2
						v-0.1c0-0.1,0.1-0.1,0-0.1c0,0-0.1,0-0.2-0.1l-0.1-0.1l-0.2-0.2c-0.1-0.1-0.1-0.1-0.2-0.2l0,0l0,0l-0.1,0.1
						c-0.2,0.2-0.5,0.4-0.7,0.6s-0.5,0.5-0.7,0.7c-0.1,0.2-0.2,0.2-0.3,0.5l-0.1,0.2l0,0H292l-0.5,0.1c-0.6,0.1-1.3,0.2-1.9,0.4
						c-2.4,0.7-4.6,2.1-6.2,4l0,0c-0.8,0.9-1.5,1.9-2.1,3c-0.2,0.2-0.3,0.6-0.5,0.9c-0.2,0.6-0.5,1.2-0.7,1.7h-0.2v0.1
						c0,0,0,0,0.1,0h0.1l0.5,0.1l1,0.2l0.5,0.1l0.2,0.1l0.5,0.1c1.3,0.2,2.5,0.7,3.7,1.3c2.4,1.1,4.5,2.7,6.2,4.7
						c1.4,1.7,2.4,3.8,2.9,5.9c0.2,1.1,0.3,2.1,0.3,3.3c0,0.6-0.1,1.1-0.2,1.7l-0.1,0.5l-0.1,0.6l-0.5,1.7c0,0.1,0,0,0.1,0h0.1h0.2
						h0.5h1h1.1l0,0v0.4c0.1,1.1,0,2.3-0.1,3.4c-0.2,1.2-0.5,2.4-0.8,3.6s-0.6,2.4-0.6,3.8c0,0.9,0.1,1.9,0.6,2.8
						c0.6,1.2,1.7,2.1,2.8,2.8c1.2,0.6,2.4,1.1,3.6,1.4c0.6,0.2,1.1,0.4,1.9,0.5c0.7,0.1,1.3,0.2,2,0.2c1.3,0.1,2.5,0.1,3.6,0.2
						c0.5,0.1,1,0.2,1.1,0.5c0.3,0.5,0.6,0.8,0.9,1.3c0.5,0.9,0.6,1.8,0.3,2.6c-0.3,0.8-1.1,1.7-2,2.3s-1.9,1.3-3,1.9
						c-1.1,0.6-2.1,1.2-3.2,1.8c-0.3,0.2-0.6,0.2-0.9,0.6c-0.3,0.2-0.5,0.5-0.8,0.6c-0.5,0.5-1,1.1-1.2,1.9c-0.2,0.8,0,1.5,0.1,2.1
						c0.1,0.2,0.1,0.6,0.1,0.7v0.1c0,0,0,0.1-0.1,0.2c-0.1,0.2-0.3,0.6-0.5,0.9c-0.1,0.1,0,0.1,0.1,0.1l0.2,0.1l0.5,0.2
						c0.2,0.1,0.3,0.1,0.4,0.2c0.1,0.1,0.3,0.1,0.3,0.2c0.2,0.1,0.4,0.2,0.5,0.5c0.3,0.4,0.6,0.7,1,1.3c0.3,0.5,0.7,1,1.1,1.5
						c0.2,0.2,0.5,0.6,0.8,0.7l0.2,0.2l0.2,0.1l0,0l0,0l-0.1,0.2v0.1c0.4,0.6-0.9-1.2,0.9,1.2l0,0l0,0h0.1h0.2c0.6,0,1.3,0,1.9,0
						c2.5,0,5-0.1,7.6-0.2c2.7-0.2,5.4-0.4,8.1-0.7l1.4-0.2l0,0c6.4-0.8,12.6-2.1,18.6-3.7c1.5-0.5,3-0.8,4.4-1.3l2.2-0.7l1.1-0.4
						l0.8-0.2c0.1,0,0.1-0.1,0.2-0.2l0.1-0.2l0.2-0.4c1.5-2.4,2.8-4.9,3.9-7.4c1.2-2.4,2.2-5,3.1-7.5l0.2-0.6l0.3-0.9l0.3-0.9
						l0.2-0.7v-0.1l-0.1-0.1l-0.1-0.1l-0.2-0.2l-0.2-0.2l-0.1-0.1l-0.2-0.2c-0.1-0.1-0.2-0.2-0.3-0.4c-0.7-1-1.1-1.9-1.4-2.8
						C361,435.4,360.8,434.5,360.5,433.3c-0.4,1.1-0.6,2.1-0.6,3.2c0,1.1,0.3,2.3,1.2,3.6c0.1,0.1,0.2,0.2,0.3,0.5l0.3,0.4l0,0
						l-0.2,0.7l-0.3,0.9l-0.2,0.6c-0.9,2.4-1.9,4.9-3.1,7.3c-1.1,2.4-2.4,4.9-3.8,7.2l-0.1,0.1l0,0l-0.2,0.1l-1.1,0.4l-2.1,0.7
						c-1.4,0.5-2.9,0.9-4.4,1.3c-5.9,1.7-12,2.8-18.3,3.6l0,0l-1.3,0.2c-2.6,0.2-5.4,0.6-8,0.7c-2.5,0.2-5,0.2-7.4,0.2
						c-0.6,0-1.2,0-1.9,0h-0.2H309l0,0l0,0c1.8,2.4,0.5,0.6,0.9,1.2v-0.1l0.3-0.6l0.3-0.8c0-0.1,0.1-0.2,0.1-0.4l-0.5-0.2
						c-0.3-0.1-0.6-0.2-0.9-0.4l-0.2-0.1l-0.1-0.1c-0.2-0.1-0.4-0.2-0.5-0.5c-0.3-0.4-0.6-0.8-1-1.3c-0.3-0.5-0.7-1-1.2-1.5
						c-0.3-0.2-0.6-0.5-0.9-0.7l-0.1-0.1l0,0l0,0l0,0v-0.2c0-0.1,0-0.2,0-0.2c0-0.4-0.1-0.7-0.2-1c-0.1-0.6-0.2-1-0.1-1.3
						c0.2-0.7,1-1.4,2-2s2.1-1.2,3.2-1.8s2.2-1.3,3.2-2c1-0.8,2.1-1.7,2.6-3.1c0.3-0.6,0.4-1.3,0.3-2.1c-0.1-0.7-0.3-1.3-0.6-1.9
						c-0.3-0.6-0.7-1.1-1.1-1.7c-0.3-0.4-0.7-0.6-1.1-0.8s-0.7-0.2-1.1-0.2c-1.4-0.2-2.6-0.2-3.8-0.2c-0.6,0-1.2-0.1-1.7-0.2
						c-0.5-0.1-1.2-0.2-1.7-0.5c-2.2-0.6-4.5-1.7-5.4-3.2c-0.3-0.6-0.4-1.3-0.4-2.1c0-2.3,0.9-4.6,1.3-7.1c0.2-1.3,0.3-2.5,0.1-3.8
						v-0.2c0-0.1,0-0.2,0-0.4l-0.2-0.9l-0.1-0.5c0-0.1-0.1-0.1-0.2-0.1H300h-1h-0.9l0,0c0,0.1,0-0.2,0.1-0.2l0.1-0.5
						c0.1-0.6,0.2-1.3,0.2-1.9c0-1.3-0.1-2.5-0.3-3.7c-0.5-2.4-1.6-4.7-3.2-6.6c-1.8-2.3-4.2-4-6.9-5.2c-1.3-0.6-2.7-1.1-4.1-1.4
						l-0.8-0.2l0,0l0,0c0.1-0.2,0.2-0.6,0.4-0.8c0.5-1,1.1-1.8,1.9-2.6l0,0c1.4-1.7,3.3-2.9,5.4-3.4c0.5-0.2,1-0.2,1.5-0.4h0.4h0.7
						h0.9h0.2c0.1,0,0-0.1,0-0.2v-0.5c0-0.2,0.1-0.6,0.1-0.6c0-0.1,0.1-0.1,0.1-0.2c0.1-0.2,0.2-0.2,0.4-0.5
						c0.2-0.2,0.4-0.2,0.6-0.5l0.2-0.1c0.1-0.1,0.1-0.1,0.3-0.2c0,0,0-0.1,0.1-0.2c0.1-0.1,0.1-0.1,0.1-0.4c0-0.2-0.1-0.5-0.2-0.6
						c-0.1-0.2-0.4-0.2-0.4-0.2c-0.1,0-0.1-0.1-0.2-0.1h-0.1c-0.1,0-0.1,0-0.2,0c0,0-0.1,0-0.2,0c-4.4-0.4-8.5-1.2-12.2-2.4
						c-1.8-0.6-3.6-1.3-5.1-2.3c-0.4-0.2-0.7-0.5-1.1-0.7l-0.6-0.4l0,0h8.1H298l6.4-0.1h0.5c0.1,0,0,0,0,0l-0.1-0.1l-0.2-0.1
						l-0.6-0.4l-0.5-0.2c0,0-0.6-0.4-1.9-1.2c-0.3-0.2-0.7-0.4-1.2-0.6c-0.2-0.1-0.5-0.2-0.7-0.4c-0.2-0.1-0.6-0.2-0.7-0.2
						c-0.6-0.2-1.3-0.6-2.1-0.8c-3.2-1.2-8.3-2.1-14.7-1.3c-1.9,0.2-4,0.6-6.1,1.3c-1,0.2-2.1,0.6-3.1,1l0,0l-0.1-0.2l-0.1-0.4
						c-0.1-0.2-0.2-0.5-0.2-0.6c-0.2-0.9-0.2-1.9,0-2.9c0.1-0.2,0.1-0.5,0.2-0.7l0.1-0.2v-0.1c0-0.1,0.1-0.2,0.2-0.2
						c0.3-0.4,0.7-0.7,1.2-1.1c1.9-1.4,4.2-2.7,6.3-4.5c0.5-0.5,1-1,1.4-1.7c0.4-0.6,0.7-1.3,0.8-2.1c0-0.1,0-0.2,0-0.4v-0.2
						l-0.1-0.6c-0.1-0.4-0.1-0.7-0.2-1c-0.2-0.6-0.4-1.3-0.7-2c-1.1-2.5-2.7-4.9-4.1-7.3c-1.3-2.4-2.5-5-1.9-7.5
						c0.3-1.3,1-2.4,1.9-3.6c1-1.1,2.1-2.1,3.3-3.2c4.7-3.9,10.6-7.2,16.2-11.3c1.4-1,2.8-2.1,4.1-3.2c0.3-0.2,0.8-0.7,0.6-0.6
						l0.5-0.1l0.6-0.1c0.9-0.2,1.7-0.2,2.6-0.4c3.5-0.4,7-0.4,10.5,0.2c7,1,13.7,3.9,19.5,7.8c2.9,2,5.5,4.3,8,6.6
						c2.4,2.4,4.7,5,6.6,7.8c3.9,5.6,6.9,11.6,9.5,17.7c1.3,3.1,2.4,6.2,3.4,9.2c0.5,1.5,1,3.1,1.4,4.6l0.3,1.1l0,0l0,0l-0.1,0.1
						l-0.2,0.2c-0.5,0.6-1,1.3-1.5,2c-1,1.3-1.9,2.6-2.8,4l-0.3,0.5c-0.1,0.2,0,0.5,0,0.6v0.6v1.2v2.4v9v17.1v8.4
						C359.6,429.5,359.9,431,360.5,433.3z"/>
				</g>
			</g>
		</g>
		<g>
			<path fill="#FBB040" d="M304,459.9c0.9-1.7-1.8-3.2,1.8-5.6c5.4-3.2,12.5-5.6,8-11.3c-0.9-1.7-5.4-0.8-8-1.7
				c-13.4-3.2-4.5-10.4-6.2-18.5c0,0-1.8,0-2.7,0c2.7-9.6-4.5-18.5-15.1-20.1c1.8-4.8,6.2-8.8,11.6-8.8c0-1.7,2.7-2.4,1.8-2.4
				c-7.3-0.6-17.1-3-21.4-7.6h-4.1c0,0,1.1-0.6,3-1.3c-1.2-1.8-1.5-3.9-0.6-6.4c0.9-2.4,9.8-5.6,9.8-9.6c-0.9-8-12.5-15.2-4.5-23.3
				c6.1-6.6,16.9-11.4,24-17.8c-20.7,4.4-38,23.9-45.4,50.3c-0.2,0.6-0.3,1.2-0.5,1.8c3.3,3.8,5.7,7.7,5.7,7.7v45.4
				c0.5,4.3-1.3,7.1-4.2,8.8c2.2,6.9,5.1,13.2,8.5,18.9c13.4,4.7,28.2,7.3,43.7,7.4c0.2-0.4,0.3-0.7,0.5-1.1
				C306.5,463.9,306.5,460.7,304,459.9z"/>
			<g>
				<path fill="#FBB040" d="M304,459.9c0.4-0.5,0.5-1.1,0.5-1.7s0-1,0.1-1.3c0.1-0.4,0.3-0.6,0.6-1c0.3-0.4,0.8-0.7,1.3-1l1.2-0.7
					l0.9-0.5l0.8-0.5c1.1-0.6,2.3-1.3,3.4-2.1s2.3-1.7,3-3.2c0.3-0.7,0.5-1.5,0.4-2.3s-0.4-1.4-0.7-2.1c-0.2-0.4-0.4-0.6-0.6-0.9
					l-0.2-0.2v-0.1l0,0c0-0.1-0.1-0.1-0.1-0.2c-0.2-0.2-0.4-0.5-0.6-0.6c-0.9-0.6-1.7-0.6-2.5-0.7c-1.5-0.2-3-0.1-4.3-0.4
					c-0.3-0.1-0.6-0.1-1-0.2c-0.4-0.1-0.7-0.2-1.1-0.2c-0.7-0.2-1.4-0.5-2-0.7c-1.3-0.6-2.4-1.3-3.1-2.1c-0.7-1-0.8-2.1-0.6-3.6
					c0.3-2.6,1.4-5.4,1.5-8.4c0-0.4,0-0.7,0-1.2c0-0.2,0-0.4-0.1-0.6c0-0.1,0-0.2-0.1-0.5l-0.1-0.6c0.1-1-1-0.6-1.7-0.7h-0.7l0,0
					l0.1-0.6c0.1-0.7,0.2-1.5,0.2-2.3c0.1-3.1-0.8-6.2-2.6-8.9c-1.8-2.7-4.4-4.9-7.5-6.4c-1.5-0.7-3.2-1.3-4.9-1.7l-0.3-0.1l0,0
					l0.2-0.4c0.1-0.2,0.2-0.4,0.3-0.5c0.2-0.4,0.4-0.6,0.6-0.9c1.3-2.1,3.3-3.9,5.7-4.8c0.6-0.2,1.2-0.5,1.8-0.6
					c0.3-0.1,0.6-0.1,0.9-0.1h0.3h0.5h0.5h0.3h0.1v-0.1c0-0.4,0-0.7,0.1-1c0-0.1,0.1-0.2,0.1-0.2c0.1-0.2,0.3-0.4,0.5-0.6
					c0.1-0.1,0.2-0.2,0.4-0.2c0.1-0.1,0.2-0.2,0.5-0.4c0,0,0,0,0.1-0.1c0-0.1,0,0,0.1-0.2c0-0.1,0.1-0.1,0.1-0.2v-0.1
					c0,0,0-0.1,0-0.2c0-0.2,0-0.2-0.1-0.5c-0.1-0.1-0.1-0.2-0.2-0.2s-0.1-0.1-0.2-0.1h-0.2c0,0-0.1,0-0.1-0.1c-0.1,0-0.1,0-0.2,0
					s-0.2,0-0.2,0h-0.1h-0.5c-1.2-0.1-2.4-0.2-3.6-0.5l0,0c-4.7-0.8-9.4-2.1-13.3-4.3c-1-0.6-1.9-1.2-2.6-1.9
					c-0.1-0.1-0.2-0.2-0.3-0.2l-0.3-0.2l-0.1-0.2l-0.1-0.1H274h-1.3h-1.8H270h-0.4h-0.1c-0.1-0.4,1,3.1,0.5,1.7l0,0l0,0l0,0l0.1-0.1
					l0.2-0.1c0.5-0.2,1-0.5,1.5-0.7l0.6-0.2l0.8-0.4l0.4-0.2c0.1-0.1,0.4-0.1,0.2-0.2l-0.4-0.7c-0.1-0.2-0.3-0.5-0.4-0.7
					c0-0.1-0.1-0.2-0.1-0.4c-0.1-0.2-0.2-0.5-0.2-0.6l0,0c-0.3-0.9-0.3-1.9-0.1-2.8c0.1-0.2,0.1-0.6,0.2-0.8l0.1-0.4
					c0-0.1,0.1-0.2,0.1-0.2c0.3-0.4,0.7-0.7,1.2-1.2c1-0.7,2.1-1.4,3.2-2.1c1.1-0.7,2.2-1.5,3.1-2.4c1-0.9,1.9-2.1,2.1-3.6
					c0-0.1,0-0.2,0-0.2c0-0.2,0-0.2,0-0.4s0-0.2-0.1-0.5s-0.1-0.6-0.2-0.9c-0.2-0.6-0.4-1.2-0.6-1.7c-0.5-1.2-1-2.1-1.6-3.2
					c-1.2-2.1-2.4-3.9-3.4-5.8c-1-1.9-1.6-3.9-1.3-5.7c0.2-1.8,1.3-3.4,2.7-4.8c2.8-2.9,6.1-5.1,9-7.1s5.9-3.8,8.4-5.5
					c0.6-0.5,1.2-0.9,1.8-1.3l0.9-0.6l1.1-0.8l1.5-1.2l1.3-1.2l1.2-1.1l0.6-0.6l0.3-0.2l0.1-0.1l0,0l0,0h-0.1l-3,0.6l-1.4,0.4H299
					l-0.7,0.2l-1.4,0.4l-0.7,0.2l-1.2,0.5c-1.5,0.6-2.5,1-3.2,1.3l-0.6,0.2c0,0-1.2,0.6-3.2,1.7c-2.1,1.2-5,3-8.3,5.7
					s-7,6.3-10.4,10.9c-3.5,4.6-6.8,10-9.7,16.3c-1.4,3.2-2.7,6.4-3.8,9.9c-0.3,0.9-0.6,1.7-0.8,2.6l-0.4,1.3l-0.2,0.6l-0.2,0.6
					l-0.1,0.4c0,0.1,0.1,0.2,0.2,0.2l0.7,0.7l0.5,0.6l0.9,1.1c0.6,0.7,1.2,1.5,1.7,2.4c0.6,0.8,1.1,1.7,1.6,2.4l0.2,0.2l0,0v0.6v1.4
					v5.8v12v25.4v0.4v0.2v0.2c0,0.2,0,0.5,0,0.7c0,0.5,0,1-0.1,1.4c-0.1,1-0.4,1.9-0.9,2.7s-1.1,1.5-1.9,2.1l-0.3,0.2l-0.2,0.1
					l-0.4,0.2c-0.2,0.2-0.5,0.2-0.7,0.5l0.2,0.7l0.6,1.7c1.4,4,3.1,8,5,11.8c0.6,1.3,1.3,2.4,2,3.6l0.5,0.9l0.3,0.5l0.2,0.4l0.1,0.2
					c0,0.1,0.2,0.1,0.2,0.1l2.3,0.8c2.8,0.9,5.6,1.7,8.4,2.4c5.6,1.4,11.2,2.5,16.8,3.2c2.8,0.4,5.5,0.6,8.2,0.8
					c1.4,0.1,2.7,0.2,4,0.2l1.9,0.1h1.1h1.3h0.5h0.2c0.1,0,0.1-0.1,0.1-0.2l0.4-1l0.5-1.3c0.1-0.1-0.1-0.1-0.2-0.2l-0.3-0.1
					c-0.2-0.1-0.4-0.1-0.5-0.2l-0.3-0.1c-0.1,0-0.2-0.1-0.2-0.1c-0.1,0-0.1-0.1-0.2-0.1c-0.1-0.1-0.2-0.2-0.3-0.2
					c-0.2-0.2-0.4-0.4-0.6-0.6l-1.1-1.2c-0.4-0.4-0.8-0.8-1.3-1.1C305.1,460.1,304.5,459.9,304,459.9c1.1,0.6,1.4,1.5,1.8,2.4
					c0.2,0.5,0.4,0.9,0.8,1.4c0.2,0.2,0.4,0.6,0.7,0.8c0.1,0.1,0.3,0.2,0.5,0.4c0.1,0.1,0.2,0.1,0.3,0.2c0.1,0.1,0,0,0,0l0,0l0,0
					l0,0l0,0l0,0l0,0l0.1-0.2l0,0l0,0l0,0l0,0h-0.7h-1.1l-1.9-0.1c-1.3-0.1-2.6-0.1-4-0.2c-2.7-0.2-5.4-0.5-8.1-0.8
					c-5.4-0.7-11.1-1.7-16.5-3.2c-2.8-0.7-5.5-1.5-8.2-2.4l-1.8-0.6l-0.8-1.3c-0.7-1.2-1.3-2.4-1.9-3.6c-1.9-3.7-3.5-7.7-4.9-11.5
					l-0.4-1.3l0,0l0,0l0.2-0.1l0.4-0.2c1-0.7,1.8-1.7,2.4-2.7s0.9-2.1,1.1-3.2c0.1-0.6,0.1-1.2,0.1-1.7c0-0.2,0-0.6,0-0.8V431
					c0-0.1,0,0,0-0.1v-0.6v-24.8v-12v-5.8v-1.4v-0.9v-0.2c0-0.1-0.1-0.1-0.1-0.2l-0.2-0.2l-0.2-0.2c-0.5-0.8-1.1-1.7-1.7-2.4
					c-0.6-0.8-1.2-1.7-1.8-2.4l-0.9-1.2l-0.7-0.9l0,0v-0.1l0.2-0.6l0.4-1.3c0.3-0.9,0.5-1.7,0.8-2.6c1.1-3.4,2.4-6.6,3.7-9.7
					c2.8-6.2,6.1-11.4,9.4-15.9c3.4-4.4,7-7.9,10.2-10.7c3.2-2.6,6.1-4.3,8-5.5c2-1.1,3.1-1.5,3.1-1.5l0.6-0.2
					c0.6-0.2,1.6-0.7,3-1.2l1.2-0.4l0.6-0.2l0,0l0,0l-0.5,0.4l-0.8,0.6c-0.6,0.5-1.2,0.8-1.8,1.3c-2.5,1.7-5.4,3.6-8.4,5.5
					c-3,2.1-6.4,4.3-9.3,7.4c-1.5,1.4-2.9,3.4-3.2,5.8c-0.3,2.4,0.5,4.6,1.5,6.5c1,2.1,2.3,3.9,3.4,5.9c0.6,1,1.1,2,1.5,3
					c0.2,0.6,0.4,1,0.5,1.5c0.1,0.2,0.1,0.6,0.2,0.8c0,0.1,0,0.2,0.1,0.4c0,0.1,0,0.1,0,0.1c0,0.1,0,0.1,0,0.2
					c-0.1,0.8-0.7,1.7-1.6,2.5c-0.8,0.8-1.9,1.5-2.9,2.3c-1.1,0.7-2.2,1.4-3.3,2.3c-0.5,0.5-1.1,0.8-1.6,1.5
					c-0.1,0.2-0.2,0.4-0.3,0.6c-0.1,0.2-0.1,0.4-0.2,0.6c-0.1,0.4-0.2,0.6-0.3,1c-0.2,1.2-0.2,2.4,0.1,3.6l0,0
					c0.1,0.2,0.2,0.6,0.3,0.8c0.1,0.2,0.1,0.2,0.2,0.5l0,0l0,0l-0.2,0.1c-0.5,0.2-1.1,0.5-1.6,0.7l-0.2,0.1l-0.1,0.1l0,0l0,0l0,0
					c-0.5-1.4,0.6,2,0.5,1.7h0.1h0.4h0.9h1.8h0.5l0,0c0,0.1,0.2,0.2,0.3,0.2c0.9,0.8,1.9,1.5,3,2.1c2.1,1.3,4.4,2.1,6.8,2.9
					c2.4,0.7,4.8,1.3,7.2,1.7l0,0c1.2,0.2,2.5,0.4,3.7,0.5l0.5,0.1h0.1h0.1h0.1l0,0c0,0,0,0,0-0.1v-0.2c0-0.1,0-0.1,0-0.2
					c0-0.2,0-0.2,0.1-0.2s-0.2,0-0.4-0.4c-0.1-0.1-0.2-0.2-0.2-0.2c0-0.1,0,0,0,0l0,0l-0.1,0.1l-0.2,0.2c-0.1,0.1-0.3,0.2-0.5,0.4
					c-0.3,0.2-0.6,0.6-0.9,0.9c-0.1,0.2-0.3,0.4-0.3,0.6l0,0l0,0h-0.2c-0.4,0-0.8,0.1-1.2,0.2c-0.8,0.2-1.5,0.4-2.2,0.6
					c-2.8,1.2-5,3.2-6.6,5.5c-0.2,0.4-0.4,0.7-0.6,1.1c-0.1,0.2-0.2,0.4-0.3,0.6l-0.3,0.6l-0.4,1.1l-0.2,0.6l-0.1,0.1
					c0,0-0.1,0.1,0,0.1l0.3,0.1l1.2,0.2l0.6,0.1l0.3,0.1c1.5,0.4,3,0.8,4.4,1.5c2.8,1.3,5.2,3.3,6.8,5.8c1.6,2.4,2.4,5.2,2.4,7.9
					c0,0.7-0.1,1.3-0.2,2.1l-0.1,0.6c-0.1,0.4-0.2,0.7-0.3,1.1l-0.1,0.6l-0.1,0.2v0.1h0.1h1.2h1.7l0,0v0.1c0,0.2,0,0.4,0.1,0.6
					c0,0.4,0,0.6,0,1c0,1.3-0.3,2.7-0.6,4c-0.3,1.3-0.7,2.8-0.9,4.3c-0.1,0.7-0.1,1.5,0,2.4c0.1,0.8,0.4,1.7,0.9,2.3
					c1,1.4,2.5,2.3,3.9,2.9c0.7,0.2,1.5,0.6,2.2,0.7c0.4,0.1,0.7,0.2,1.1,0.2c0.4,0.1,0.8,0.2,1.2,0.2c1.6,0.2,3.1,0.2,4.4,0.4
					c0.7,0.1,1.3,0.2,1.6,0.4c0.1,0.1,0.1,0.1,0.1,0.1l0,0l0.1,0.1v0.1l0.1,0.2c0.2,0.2,0.3,0.5,0.5,0.7c0.6,1,0.7,2,0.3,2.9
					c-0.4,0.9-1.4,1.7-2.4,2.4s-2.1,1.3-3.3,2l-0.8,0.5l-0.9,0.5c-0.5,0.2-1,0.6-1.3,0.7c-0.7,0.5-1.2,0.9-1.7,1.5
					c-0.4,0.6-0.6,1.3-0.6,1.9s0.3,1.1,0.5,1.7C303.9,458.9,304,459.4,304,459.9z"/>
			</g>
		</g>
		<g>
			<path fill="#F7941E" d="M365.6,381.1c-3.3-11.5-8.5-24.9-16.8-35.7C356.5,354.9,362.5,367.2,365.6,381.1z"/>
			<g>
				<path fill="#FBB040" d="M365.6,381.1c0-2.4-0.2-3.9-1-6.5l-0.5-1.5l-0.4-1.1l-0.9-2.4c-1.3-3.6-3-7.6-4.9-11.4
					c-1.9-3.8-4-7.3-5.7-9.8c-0.8-1.3-1.6-2.3-2.1-3l-0.3-0.5l0,0l0,0c0.3-0.2-3,1.9-1.6,1l0,0l0,0v0.1l0.1,0.1l0.1,0.2l0.2,0.2
					c0,0,1.2,1.5,2.9,3.9c1.7,2.4,3.8,5.8,5.6,9.6c1.9,3.7,3.5,7.7,4.7,11.2c0.6,1.7,1,3.1,1.2,3.8
					C363.8,377.6,364.5,379,365.6,381.1c0.1-2.4,0-3.9-0.7-6.5c-0.2-0.7-0.6-2.1-1.2-3.9c-1.2-3.4-2.9-7.6-4.8-11.4s-4-7.3-5.8-9.8
					c-1.7-2.5-3-4-3-4l-0.2-0.2l-0.1-0.2l-0.1-0.1v-0.1l0,0l0,0c1.4-0.9-1.9,1.3-1.6,1l0,0l0,0l0.3,0.5c0.5,0.7,1.2,1.7,2.1,2.9
					c1.7,2.4,3.7,5.8,5.6,9.6c1.9,3.7,3.6,7.7,4.9,11.2l0.9,2.4l0.4,1.1l0.5,1.5C363.6,377.6,364.4,379.1,365.6,381.1z"/>
			</g>
		</g>
		<g>
			<path fill="#FBB040" d="M265,458.3c9.1,15.1,22.1,25.6,36.9,28.3c0.8-7.3,3.9-14.2,6.8-20.9C293.4,465.7,278.5,462.9,265,458.3z"
				/>
			<g>
				<path fill="#FBB040" d="M265,458.3c0.7,2.3,1.2,3.8,2.9,6l1,1.3l0.7,0.9l1.2,1.5c0.4,0.6,0.9,1.1,1.4,1.7
					c3.8,4.3,9.1,9.1,15.1,12.5c3,1.7,6.1,3.1,9.1,3.9c0.7,0.2,1.5,0.5,2.2,0.6l1.1,0.2l0.5,0.1l0.6,0.1c0.7,0.1,1.4,0.2,2,0.4
					l0.2-1.8l0.1-0.9l0.1-0.8c0.8-4.3,1.8-6.9,1.8-6.9s0.9-2.7,2.6-6.8l1.4-3.3l0.7-1.7l0.2-0.5v-0.1l0,0h-0.4h-1.1l-2.9-0.1
					c-3.1-0.1-6.4-0.2-9.8-0.6s-6.8-0.8-10.2-1.4c-1.7-0.2-3.3-0.6-4.9-1l-2.3-0.6l-2.2-0.6c-1.9-0.5-3.4-0.9-4.2-1.1
					C269.4,458.8,267.6,458.7,265,458.3c2.1,1.3,3.6,2.1,6.5,3c0.8,0.2,2.3,0.6,4.3,1.2l2.2,0.6l2.4,0.6c1.6,0.4,3.3,0.6,5,1
					c3.4,0.6,6.9,1.1,10.4,1.4c3.4,0.4,6.8,0.6,10,0.6h1.6c0,0,0,0,0,0.1L306,470c-1.7,4.2-2.6,6.9-2.6,6.9s-1,2.7-1.9,7.1l-0.1,0.8
					l-0.1,0.8l0,0l-0.9-0.2l-1-0.2c-0.7-0.2-1.4-0.4-2.1-0.6c-2.9-0.9-5.8-2.1-8.7-3.8c-5.7-3.2-10.8-7.7-14.7-12
					c-0.5-0.6-0.9-1.1-1.3-1.5l-1.2-1.4l-0.7-0.9l-1-1.3C268,461.2,266.9,460.1,265,458.3z"/>
			</g>
		</g>
		<g>
			<path fill="#FBB040" d="M310,465.8c-0.4,0-0.8,0-1.2,0c-2.9,6.6-5.9,13.6-6.7,20.9c2.6,0.5,5.2,0.7,7.9,0.7
				c17.9,0,34-11.3,44.7-29C341,463.1,325.9,465.8,310,465.8z"/>
			<g>
				<path fill="#FBB040" d="M310,465.8c-0.3-0.1-0.6-0.2-1-0.2l-0.3-0.1h-0.2c-0.1,0-0.1,0.1-0.1,0.1l-0.3,0.5
					c-0.2,0.4-0.3,0.5-0.5,0.7l-0.4,0.6c-0.6,0.9-1.1,1.8-1.6,3.1L305,472l-0.4,1.1l-0.8,2.1c-0.3,0.7-0.5,1.5-0.8,2.4
					c-0.5,1.7-1,3.2-1.4,5c-0.2,0.9-0.4,1.8-0.5,2.7l-0.1,0.7l-0.2,1.3c0,0.1-0.1,0.2,0,0.4l0.4,0.1l0.7,0.1l0.7,0.1l0.4,0.1
					c4.1,0.6,8.4,0.7,12.5,0.1c4.1-0.6,8.1-1.7,11.5-3.2s6.3-3.2,8.7-4.7c4.7-3.2,7.2-5.8,7.2-5.8s2.7-2.4,6.2-6.5
					c0.9-1.1,1.8-2.3,2.7-3.6c0.5-0.6,0.9-1.3,1.4-2l0.7-1.1l0.6-0.9l0.7-1.1l1.3-2.1l0.2-0.2l-0.3,0.1l-0.6,0.2l-1.3,0.5l-2.7,0.9
					l-1.4,0.5c-1.8,0.6-3.7,1.1-5.7,1.7c-3.9,1-7.9,1.9-11.9,2.5c-2,0.4-3.9,0.6-5.8,0.8c-1,0.1-1.9,0.2-2.8,0.2l-2.6,0.2
					c-2,0.2-3.6,0.2-4.4,0.2C314.2,464.8,312.5,465.2,310,465.8c2.5,0.6,4.2,0.8,7.2,0.7c0.8,0,2.4-0.1,4.4-0.2l2.7-0.2
					c0.9-0.1,1.9-0.2,2.9-0.4c1.9-0.2,3.9-0.6,5.9-0.8c4-0.6,8.1-1.5,12.1-2.5c2-0.6,3.9-1.1,5.8-1.7l1.4-0.5l0,0l-0.8,1.2
					c-0.5,0.6-0.9,1.3-1.4,1.9c-0.9,1.3-1.8,2.4-2.6,3.4c-3.4,4.2-6.1,6.4-6.1,6.4s-2.4,2.4-7,5.5c-2.3,1.5-5.1,3.2-8.3,4.5
					c-3.3,1.3-7,2.4-10.9,3s-8,0.5-11.9-0.1l-0.4-0.1l0,0l0.1-0.6c0.1-0.9,0.3-1.7,0.5-2.5c0.4-1.7,0.8-3.3,1.3-4.9
					c0.2-0.8,0.5-1.5,0.8-2.3l0.8-2l0.4-1.1l0.6-1.5c0.5-1.3,0.8-2.3,1.1-3.2l0.2-0.7c0-0.2,0.1-0.6,0.1-0.6v-0.2
					c0-0.1,0-0.1,0.1-0.1h0.1C309.5,465.9,309.8,465.8,310,465.8z"/>
			</g>
		</g>
		<g>
			<path d="M311.1,324.8c14.6,0.5,27.6,8.1,37.7,20.6C340,333.8,328,325.2,311.1,324.8z"/>
			<g>
				<path fill="#FBB040" d="M311.1,324.8c2.5,0.6,4.1,1.1,6.9,1.7c0.4,0.1,1,0.2,1.7,0.4l1.2,0.2c0.8,0.2,1.9,0.6,2.8,0.9
					c4,1.3,8.5,3.7,12.2,6.4c3.8,2.7,7,5.8,9.2,8.2c1.1,1.2,2,2.3,2.5,3l0.2,0.2l0.1,0.1v0.1c0.7-0.5-1.6,1,1.6-1l0,0l0,0l0,0l0,0
					l-0.3-0.4l-0.2-0.2c0,0-1.3-1.7-3.5-4.2c-2.2-2.4-5.6-5.7-9.7-8.4c-2-1.3-4.2-2.6-6.5-3.6c-2.2-1-4.6-1.9-6.6-2.4
					s-3.6-0.8-4.4-1C315.5,324.1,313.6,324.3,311.1,324.8c2.5,0.6,4.1,1.1,6.9,1.5c0.8,0.2,2.3,0.5,4.2,1c2,0.6,4.2,1.3,6.3,2.4
					c2.1,1,4.2,2.1,6.2,3.6c3.9,2.6,7.1,5.7,9.3,8c2.2,2.4,3.4,4,3.4,4l0.2,0.2l0.3,0.4l0,0l0,0l0,0l0,0c3.2-2,0.9-0.6,1.6-1v-0.1
					l-0.1-0.1l-0.2-0.2c-0.6-0.7-1.5-1.8-2.6-3c-2.2-2.4-5.5-5.7-9.5-8.4c-3.9-2.9-8.6-5.2-12.8-6.6c-0.5-0.2-1-0.4-1.5-0.6
					l-0.7-0.2l-0.7-0.2l-1.2-0.2c-0.7-0.2-1.4-0.2-1.8-0.4C315.5,324.1,313.6,324.3,311.1,324.8z"/>
			</g>
		</g>
		<g>
			<path d="M269.4,384.1h4.1c-0.4-0.5-0.8-0.9-1.1-1.3C270.5,383.5,269.4,384.1,269.4,384.1z"/>
			<g>
				<path fill="#FBB040" d="M269.4,384.1c0.4,0.6,0.7,0.9,1.3,0.9h4.9l-0.7-0.7l-0.5-0.6l-0.6-0.6c-0.2-0.2-0.4-0.5-0.5-0.7
					l-0.5-0.6L272,382c-0.8,0.2-1.7,0.7-2,0.8C269.6,383.1,269.5,383.5,269.4,384.1c0.7,0.2,1.1,0.5,1.6,0.2
					c0.3-0.1,1.1-0.6,1.9-0.8l-1.2-0.4c0,0.1,0,0,0,0l0,0l0,0h-0.9C270,383.3,269.8,383.5,269.4,384.1z"/>
			</g>
		</g>
		<g>
			<path d="M272.5,382.8c0.3,0.5,0.7,0.9,1.1,1.3h28.2C290.5,377.2,278,380.6,272.5,382.8z"/>
			<g>
				<path fill="#FBB040" d="M272.5,382.8c0.1,0.2,0.2,0.6,0.3,0.8l0.2,0.4c0.1,0.1,0.2,0.2,0.3,0.5l0.1,0.1h0.1h0.3h0.3h0.2l0.8,0.1
					c1.1,0.2,2.3,0.2,3.8,0.2h3H295h2.9h0.3h0.5h1.1l2-0.1l2.9-0.1h0.1c0,0,0.1,0,0,0l-0.2-0.1h-0.1l-0.2-0.2c0,0-1-0.6-2.7-1.7
					c-0.4-0.2-1-0.6-1.6-0.8l-0.4-0.2l-0.4-0.2l-0.5-0.2c-0.7-0.2-1.6-0.6-2.5-0.9c-1.8-0.6-4-1-6.1-1.3c-2.2-0.2-4.3-0.2-6.2,0
					c-2,0.2-3.7,0.6-4.5,0.6C276,380.6,274.5,381.4,272.5,382.8c2.5-0.4,4.2-0.6,7-1.2c0.8-0.2,2.3-0.5,4.3-0.6
					c1.8-0.2,3.8-0.2,5.8,0s4,0.6,5.7,1.2c0.8,0.2,1.6,0.6,2.3,0.8l0.7,0.2l0,0l0,0h-3.4H282h-3c-1.5,0-2.7,0.1-3.8,0.2l-0.9,0.2
					h-0.2c-0.1,0-0.1,0-0.1,0c-0.1,0-0.2,0.1-0.2,0c-0.1,0-0.1-0.1-0.2-0.1l-0.3-0.2C272.9,383.2,272.6,383.1,272.5,382.8z"/>
			</g>
		</g>
		<g>
			<path fill="#FBB040" d="M260.8,430.7c0.5,4.3-1.3,7.1-4.2,8.8c-3.3-10.2-5.1-21.5-5.1-33.4c0-10,1.3-19.6,3.6-28.4
				c3.3,3.8,5.7,7.7,5.7,7.7V430.7z"/>
			<g>
				<path fill="#FBB040" d="M260.8,430.7c-0.2,1.2-0.5,2.1-0.8,3s-0.7,1.8-1.4,2.8c-0.2,0.2-0.5,0.7-1,1.1c-0.1,0.1-0.2,0.2-0.4,0.4
					l-0.1,0.1l0,0l-0.7-2.4c-1.9-6.5-3.3-14.4-3.8-21.9c-0.5-7.6-0.2-14.8,0.4-20.1s1.3-8.7,1.3-8.7l0.5-2.4
					c0.2-0.7,0.4-1.7,0.6-2.7v-0.2l0,0l0.5,0.6l0.7,0.9c0.5,0.6,0.9,1.2,1.4,1.9c0.5,0.6,0.9,1.3,1.4,2l0.3,0.6l0,0v0.2v1.3v11v26.1
					C259.9,426.9,260.1,428.4,260.8,430.7c0.6-2.3,1-3.8,1-6.5v-26.3v-11v-1.3v-0.3c0.1-0.2-0.2-0.4-0.2-0.6l-0.4-0.6
					c-0.5-0.7-1-1.4-1.4-2.1c-0.5-0.6-0.9-1.3-1.4-1.9l-0.7-0.9l-0.9-1.1c-0.4-0.6-0.9-1-1.3-1.5l-0.6-0.7l-0.2-0.2c0-0.1,0,0,0,0.1
					v0.1l-0.1,0.5l-0.6,1.9l-0.4,1.4c-0.3,1.1-0.5,2-0.6,2.8l-0.5,2.4c0,0-0.7,3.4-1.3,8.8c-0.6,5.4-1,12.7-0.4,20.4
					c0.5,7.7,1.9,15.6,3.8,22.2c0.2,0.8,0.5,1.7,0.7,2.4c0.2,0.8,0.5,1.4,0.8,2.1v0.1v0.1h0.1l0.3-0.2l0.5-0.2l0.5-0.2
					c0.1-0.1,0.2-0.1,0.2-0.2h0.1c0.3-0.2,0.7-0.6,0.9-0.6c0.2-0.2,0.3-0.2,0.5-0.5c0.6-0.6,1-1.1,1.2-1.3c0.9-1.3,1.1-2.4,1.2-3.5
					C261.5,432.8,261.1,431.7,260.8,430.7z"/>
			</g>
		</g>
		<g>
			<path fill="#FBB040" d="M251.5,406.1c0,11.9,1.8,23.3,5.1,33.4c-9.5,5.8-30.6-0.6-18.9-8.8c15.3-10.7-4.6-27.7,0-51.3
				c3-15.1,11.6-8.4,17.5-1.7C252.6,386.5,251.5,396.1,251.5,406.1z"/>
			<g>
				<path fill="#FBB040" d="M251.5,406.1c-0.6,2.3-0.9,3.8-0.8,6.5l0.1,1.7l0.1,1.1l0.1,1.4l0.2,1.7c0.1,1.1,0.3,2.3,0.4,3.4
					c0.7,4.7,1.7,9.8,3.2,15l0.6,1.9l0.1,0.4l0,0l-0.2,0.1c-1.2,0.6-2.5,1-3.9,1.3c-2.8,0.6-5.7,0.5-8.5-0.1
					c-1.4-0.2-2.7-0.6-3.9-1.2c-1.2-0.6-2.3-1.3-3-2.1s-0.8-1.8-0.4-2.8c0.4-0.9,1.3-1.8,2.2-2.5c0.2-0.2,0.5-0.4,0.7-0.6
					c0.3-0.2,0.5-0.4,0.8-0.6c0.5-0.5,1-0.8,1.5-1.3c0.9-0.9,1.7-1.9,2.3-3c1.2-2.1,1.6-4.3,1.6-6.3s-0.3-3.7-0.6-5.2
					c-0.4-1.5-0.6-2.8-0.9-3.9c-0.6-2.1-0.9-3.2-0.9-3.2l-1-3.2c-0.6-2.1-1.5-5-2.2-8.7c-0.7-3.6-1.2-8-0.8-12.7
					c0.2-2.4,0.6-4.8,1.4-7.1c0.4-1.2,0.9-2.4,1.7-3.2c0.7-1,1.7-1.7,2.8-1.7s2.4,0.4,3.6,1.1c1.2,0.6,2.2,1.5,3.3,2.4
					c1,0.9,2,1.9,2.9,3l0.3,0.2l-0.2,0.7c-0.2,0.6-0.3,1.3-0.5,2c-0.6,2.6-1.1,5.2-1.5,7.7c-0.2,1.3-0.4,2.5-0.5,3.7l-0.2,1.8
					l-0.2,1.7c-0.2,1.8-0.3,3.2-0.3,3.9C250.5,402.2,250.9,403.8,251.5,406.1c0.6-2.3,1-3.8,1.2-6.4c0-0.7,0.1-2.1,0.3-3.9l0.2-1.7
					l0.2-1.8c0.1-1.2,0.3-2.4,0.5-3.7c0.4-2.5,0.9-5,1.5-7.6c0.2-0.6,0.3-1.3,0.5-1.9l0.3-1.2l0.1-0.2v-0.1l-0.1-0.1l-0.3-0.4
					l-0.4-0.5c-0.9-1.1-2-2.1-3-3.1c-1.1-1-2.3-1.9-3.6-2.7c-1.3-0.7-2.9-1.4-4.8-1.3c-0.9,0.1-1.8,0.4-2.5,0.8
					c-0.7,0.5-1.3,1-1.8,1.7c-0.9,1.2-1.5,2.5-1.9,3.8c-0.9,2.5-1.3,5-1.5,7.5c-0.5,4.9,0.1,9.4,0.8,13.2c0.7,3.7,1.6,6.8,2.2,8.8
					l1,3.2c0,0,0.4,1.2,0.9,3.2c0.3,1,0.6,2.3,0.9,3.8c0.3,1.4,0.5,3.1,0.5,4.9c0,1.8-0.4,3.7-1.4,5.5c-0.5,0.9-1.2,1.8-2,2.5
					c-0.4,0.4-0.8,0.8-1.3,1.2c-0.2,0.2-0.5,0.4-0.7,0.6c-0.3,0.2-0.5,0.4-0.8,0.6c-1.1,0.8-2.1,1.8-2.7,3.2
					c-0.3,0.7-0.4,1.5-0.3,2.3s0.5,1.5,1,2.1c1,1.3,2.4,2,3.7,2.6c1.4,0.6,2.9,1,4.4,1.3c3,0.6,6.2,0.6,9.3,0.1
					c1.5-0.2,3.1-0.7,4.5-1.4l0.3-0.2l0.4-0.2l0.5-0.2l0.2-0.1l0.1-0.1v0.1l-0.5-1.5l-0.6-1.9c-1.5-5-2.5-10.1-3.1-14.8
					c-0.2-1.2-0.3-2.3-0.4-3.4l-0.2-1.7l-0.1-1.4l-0.1-1.1l-0.1-1.5C252.5,409.8,252,408.3,251.5,406.1z"/>
			</g>
		</g>
	</g>
	<g display="inline">
		<g>
			<path fill="none" d="M311.1,324.8c14.6,0.5,27.6,8.1,37.7,20.6c7.7,9.5,13.5,21.8,16.8,35.7"/>
		</g>
		<path fill="#E0A139" d="M305.4,324.8c0,0-33,18.6-6.9,48.1c0,0,7.4,9.7,6.3,14.2s5,0,5,0l-5,37.5c0,0-14.1,0.6,0,10.4h11.4
			c0,0-1.4,8.5-11.4,13.6c-10,5-5.9-2.4-14.6-4.3c0,0-20.3,0.6-5.4,12.5c0,0,15.5,14.4,22.8,14.2s1.2,0,1.2,0s22,13.9-5.6,14.2
			c-6.8,0.1-39-12.3-45.3-44.6c-1.9-9.7-1.9-4.3-1.9-4.3s5.7-34.5,0.5-39.4c0,0-5.1-20.3-0.4-23
			C260.8,371.3,263.2,336.5,305.4,324.8z"/>
		<g>
			<path fill="none" d="M255,377.7c0.2-0.6,0.3-1.2,0.5-1.8c8.6-30,29.7-51.2,54.4-51.2c0.4,0,0.8,0,1.2,0
				c16.8,0.4,29,9.1,37.7,20.6c8.2,10.8,13.4,24.1,16.8,35.7"/>
		</g>
		<g>
			<path fill="none" d="M260.8,385.4c0,0-2.4-3.9-5.7-7.7c-5.8-6.8-14.4-13.3-17.5,1.7c-4.6,23.6,15.3,40.6,0,51.3
				c-11.8,8.1,9.4,14.6,18.9,8.8c2.9-1.7,4.7-4.6,4.2-8.8"/>
		</g>
		<g>
			<path fill="none" d="M360.5,387.9c0,0,2.1-3.3,5.1-6.9c5.8-6.9,15-14.7,18.1,1c0.2,35.8-16,43.1,0,51.3c4.3,3.1,4.2,5.8,1.7,7.8
				c-4.6,3.8-17.2,4.9-22.5-0.6c-1.7-1.7-2.7-4.2-2.3-7.3"/>
		</g>
		<g>
			<g>
				<g>
					<path d="M269.4,384.1c1.4-0.4,2.5-0.6,3.7-0.8c0.7-0.2,1.3-0.2,1.9-0.5c0.6-0.2,1.3-0.4,2.1-0.6c0.5-0.2,1.4-0.4,3.2-0.7
						c0.7-0.1,1.9-0.4,2.9-0.4c0.5-0.1,1-0.1,1.3-0.1s0.6,0,0.6,0s0.7,0,1.6,0c0.9-0.1,2,0.1,2.8,0.2c0.6,0,1.2,0.2,1.7,0.2
						c0.5,0.1,0.9,0.2,1.3,0.2c0.8,0.1,1.3,0.4,1.7,0.5c1.6,0.4,2.7,0.8,3.9,1.1c1.2,0.4,2.3,0.7,3.7,1.1c-1-0.9-1.9-1.7-3-2.4
						c-1.1-0.6-2.3-1.3-4-1.7c-0.4-0.1-1-0.4-1.8-0.5c-0.4-0.1-0.9-0.2-1.4-0.2c-0.5-0.1-1.1-0.2-1.8-0.2c-0.8,0-2-0.2-3-0.2
						s-1.7,0-1.7,0s-0.2,0-0.6,0s-0.9,0.1-1.4,0.1c-1.1,0.1-2.4,0.4-3.1,0.5c-1.9,0.4-2.9,0.6-3.4,0.8c-0.8,0.2-1.5,0.5-2.2,0.7
						s-1.2,0.6-1.8,0.8C271.4,382.6,270.5,383.2,269.4,384.1z"/>
				</g>
			</g>
		</g>
		<g>
			<g>
				<g>
					<path d="M289.1,455.5c0.8,1.1,1.7,1.9,2.7,2.6c1.1,0.7,2.2,1.4,3.8,2c0.6,0.2,1.4,0.6,3.3,1.1c0.4,0.1,0.8,0.2,1.3,0.4
						c0.5,0.1,1,0.2,1.6,0.2c1.1,0.2,2.4,0.4,3.5,0.5c0.3,0,0.6,0.1,0.8,0.1c0.3,0,0.5,0,0.8,0c0.5,0,0.9,0,1.3,0c0.8,0,1.2,0,1.2,0
						s0.1,0,0.3,0c0.2,0,0.4,0,0.8-0.1c0.6-0.1,1.5-0.1,2.5-0.2c1.1-0.1,2.1-0.4,3.1-0.5c0.5-0.1,1.1-0.2,1.5-0.2
						c0.5-0.1,0.9-0.2,1.4-0.4c1.3-0.4,2.3-0.6,3.1-0.9c0.8-0.2,1.3-0.6,1.7-0.6c0.8-0.2,1.5-0.6,2.1-0.9c0.6-0.2,1.2-0.6,1.7-1
						c1-0.7,2-1.3,3-2.3c-1.4,0.4-2.6,0.6-3.7,1c-0.6,0.2-1.2,0.5-1.8,0.6c-0.6,0.2-1.3,0.5-2.1,0.7c-0.4,0.2-0.9,0.4-1.7,0.6
						s-1.7,0.5-2.9,0.8c-0.4,0.1-0.8,0.2-1.3,0.4c-0.5,0.1-1,0.2-1.5,0.2c-1,0.2-2,0.4-3,0.5c-0.9,0.1-1.8,0.2-2.4,0.2
						c-0.3,0-0.5,0-0.7,0.1c-0.2,0-0.3,0-0.3,0s-0.4,0-1.1,0c-0.4,0-0.8,0-1.2,0c-0.2,0-0.5,0-0.7,0c-0.3,0-0.5-0.1-0.8-0.1
						c-1.1-0.1-2.2-0.2-3.3-0.5c-0.5-0.1-1-0.2-1.5-0.2s-0.9-0.2-1.2-0.4c-1.8-0.5-2.6-0.8-3.1-1c-1.4-0.6-2.5-1-3.8-1.4
						C291.6,456.4,290.5,456.1,289.1,455.5z"/>
				</g>
			</g>
		</g>
		<g>
			<g>
				<g>
					<path d="M321.1,395.3c2.2,1.7,3.9,2.7,7.3,3.6c0.6,0.1,1.5,0.4,3.5,0.6c0.3,0.1,1,0.1,1,0.1s0.6,0.1,0.9,0.1
						c2.7,0.2,4.4-0.1,5.2-0.2c1.8-0.2,3.1-0.8,4.2-1.5s2-1.5,2.7-2.6c-1.3,0.6-2.3,1-3.5,1.3c-1.1,0.4-2.3,0.6-3.8,0.9
						c-0.8,0.1-2.2,0.4-4.7,0.2c-0.3,0-0.9-0.1-0.9-0.1s-0.7-0.1-0.9-0.1c-1.8-0.2-2.7-0.5-3.2-0.6
						C325.8,396.1,324,395.9,321.1,395.3z"/>
				</g>
			</g>
		</g>
		<g>
			<g>
				<g>
					<path d="M298.4,395.3c-2.7,1-4.4,1.4-7.5,2.3c-0.3,0.1-0.6,0.2-1.1,0.2c-0.5,0.1-1.2,0.2-2.1,0.4c-0.3,0-0.8,0.1-1.2,0.1
						c-0.4,0-0.8,0-0.8,0s-0.3,0-0.7,0c-0.4,0-0.8,0-1.1,0c-0.6-0.1-1.2-0.1-1.6-0.1c-0.5-0.1-0.9-0.2-1.3-0.2
						c-0.4-0.1-0.7-0.1-1-0.2c-0.3-0.1-0.5-0.2-0.7-0.2c-3.1-0.8-4.8-1.3-7.6-2.1c2,1.8,3.6,3.2,7,4c0.2,0.1,0.5,0.1,0.8,0.2
						s0.7,0.1,1.1,0.2s0.9,0.2,1.4,0.2c0.5,0.1,1.2,0.1,1.8,0.2c0.4,0,0.9,0.1,1.3,0c0.4,0,0.7,0,0.7,0s0.4,0,0.8,0
						c0.5,0,1-0.1,1.3-0.1c1-0.1,1.7-0.2,2.3-0.4c0.6-0.1,0.9-0.2,1.2-0.2C294.9,398.5,296.6,397.3,298.4,395.3z"/>
				</g>
			</g>
		</g>
		<g>
			<g>
				<g>
					<path d="M301.8,429.5c0.2,1,0.5,1.7,1.4,2.1c0.5,0.2,2.1,1.1,3.7,1.5c0.8,0.2,1.6,0.4,2.2,0.4c0.6,0.1,1,0.1,1,0.1
						s1.6,0.1,3.2-0.4c1.7-0.4,3.2-1.3,3.7-1.5c0.9-0.6,1.2-1.3,1.3-2.1c-1.1,0.1-1.7,0.1-2.5,0.6c-0.4,0.2-1.7,1-3.1,1.3
						c-1.3,0.4-2.6,0.2-2.6,0.2s-1.3,0-2.6-0.4c-1.3-0.4-2.7-1.1-3.1-1.3C303.5,429.6,302.9,429.6,301.8,429.5z"/>
				</g>
			</g>
		</g>
	</g>
	<g display="inline">
		<g>
			<path d="M349,384.1c-1-1-2-1.8-3.1-2.4c-0.5-0.3-1.1-0.7-1.8-0.9c-0.6-0.3-1.4-0.6-2.2-0.8c-0.6-0.2-1.5-0.4-3.4-0.9
				c-0.8-0.1-2-0.4-3.1-0.5c-0.5-0.1-1-0.1-1.4-0.1s-0.6,0-0.6,0s-0.8,0-1.7,0c-1-0.1-2.2,0.1-3,0.2c-0.7,0-1.3,0.2-1.8,0.3
				s-1,0.2-1.4,0.3c-0.8,0.2-1.4,0.4-1.8,0.5c-1.7,0.4-2.9,1.2-4,1.9s-1.9,1.6-3,2.6c1.4-0.4,2.5-0.8,3.7-1.2
				c1.2-0.3,2.3-0.8,3.9-1.2c0.4-0.1,0.9-0.3,1.7-0.5c0.4-0.1,0.8-0.2,1.3-0.2c0.5-0.1,1-0.2,1.7-0.2c0.8,0,1.9-0.2,2.8-0.2
				s1.6,0,1.6,0s0.2,0,0.6,0c0.3,0,0.8,0.1,1.3,0.1c1,0.1,2.2,0.4,2.9,0.4c1.8,0.4,2.7,0.6,3.2,0.8c0.8,0.2,1.5,0.4,2.1,0.6
				c0.6,0.2,1.2,0.3,1.9,0.5C346.5,383.5,347.6,383.6,349,384.1z"/>
		</g>
	</g>
</g>
<g display="none">
	<g id="php" display="inline">
		<circle fill="#6699CC" cx="187.4" cy="439.4" r="45.5"/>
		<g enable-background="new    ">
			<path d="M166.2,432h8c1.7,0,3,0.4,3.9,1.2c0.9,0.8,1.3,2,1.3,3.5c0,1.6-0.5,2.8-1.4,3.7s-2.4,1.3-4.3,1.3H171v5.8h-4.8V432z
				 M171,438.7h1.2c0.9,0,1.6-0.2,1.9-0.5c0.4-0.3,0.6-0.7,0.6-1.2c0-0.5-0.2-0.9-0.5-1.2c-0.3-0.3-0.9-0.5-1.8-0.5H171V438.7z"/>
			<path d="M181.9,432h4.8v5.4h5.2V432h4.8v15.5h-4.8v-6.3h-5.2v6.3h-4.8V432z"/>
			<path d="M199.9,432h8c1.7,0,3,0.4,3.9,1.2c0.9,0.8,1.3,2,1.3,3.5c0,1.6-0.5,2.8-1.4,3.7s-2.4,1.3-4.3,1.3h-2.6v5.8h-4.8V432z
				 M204.7,438.7h1.2c0.9,0,1.6-0.2,1.9-0.5c0.4-0.3,0.6-0.7,0.6-1.2c0-0.5-0.2-0.9-0.5-1.2c-0.3-0.3-0.9-0.5-1.8-0.5h-1.4V438.7z"
				/>
		</g>
	</g>
	<circle display="inline" fill="#009999" cx="268.4" cy="200.5" r="47.5"/>
	<g display="inline" enable-background="new    ">
		<path d="M236.8,197.8h3.7v6.5c0,1.4-0.1,2.4-0.4,3.1s-0.7,1.3-1.5,1.8s-1.7,0.7-2.8,0.7c-1.2,0-2.1-0.2-2.8-0.5
			c-0.7-0.3-1.2-0.8-1.5-1.4c-0.4-0.6-0.6-1.4-0.6-2.3l3.5-0.5c0,0.5,0.1,0.9,0.1,1.2c0.1,0.3,0.2,0.5,0.4,0.6
			c0.1,0.1,0.3,0.2,0.6,0.2c0.4,0,0.7-0.2,0.9-0.5c0.2-0.3,0.3-0.8,0.3-1.6V197.8z"/>
		<path d="M253.6,208.1c0.5,0.3,0.8,0.5,0.9,0.6c0.2,0.1,0.5,0.3,0.9,0.4l-1,2.1c-0.5-0.3-1-0.6-1.5-0.9c-0.5-0.3-0.9-0.6-1.1-0.8
			c-0.8,0.4-1.8,0.5-3.1,0.5c-1.8,0-3.3-0.5-4.3-1.4c-1.2-1.1-1.9-2.7-1.9-4.7c0-2,0.5-3.5,1.6-4.6c1.1-1.1,2.6-1.6,4.6-1.6
			c2,0,3.5,0.5,4.6,1.6c1.1,1.1,1.6,2.6,1.6,4.6C254.9,205.6,254.4,207,253.6,208.1z M250.7,206.2c0.3-0.5,0.4-1.3,0.4-2.4
			c0-1.2-0.2-2.1-0.7-2.6c-0.4-0.5-1.1-0.8-1.9-0.8c-0.7,0-1.3,0.3-1.8,0.8s-0.7,1.4-0.7,2.5c0,1.3,0.2,2.2,0.7,2.8
			c0.4,0.5,1.1,0.8,1.8,0.8c0.2,0,0.5,0,0.7-0.1c-0.3-0.3-0.8-0.6-1.5-0.9l0.6-1.3c0.3,0.1,0.6,0.1,0.8,0.2c0.2,0.1,0.5,0.3,1.1,0.7
			C250.5,206,250.6,206.1,250.7,206.2z"/>
		<path d="M264.7,197.8h3.7v7.2c0,0.7-0.1,1.4-0.3,2s-0.6,1.2-1,1.7s-1,0.8-1.5,1c-0.7,0.3-1.6,0.4-2.6,0.4c-0.6,0-1.2,0-1.9-0.1
			s-1.3-0.2-1.7-0.5c-0.5-0.2-0.9-0.6-1.3-1c-0.4-0.4-0.6-0.9-0.8-1.4c-0.2-0.8-0.3-1.4-0.3-2v-7.2h3.7v7.3c0,0.7,0.2,1.2,0.5,1.5
			s0.9,0.6,1.5,0.6c0.6,0,1.1-0.2,1.5-0.5c0.4-0.4,0.5-0.9,0.5-1.5V197.8z"/>
		<path d="M270.8,197.8h9.9v2.6h-6.2v1.9h5.8v2.4h-5.8v2.4h6.4v2.7h-10.1V197.8z"/>
		<path d="M282.9,209.8v-12h6.2c1.1,0,2,0.1,2.6,0.3c0.6,0.2,1.1,0.6,1.5,1.1s0.6,1.2,0.6,1.9c0,0.7-0.1,1.2-0.4,1.7
			c-0.3,0.5-0.7,0.9-1.2,1.2c-0.3,0.2-0.7,0.3-1.3,0.5c0.4,0.1,0.8,0.3,1,0.4c0.1,0.1,0.3,0.3,0.6,0.6s0.4,0.6,0.5,0.7l1.8,3.5h-4.2
			l-2-3.7c-0.3-0.5-0.5-0.8-0.7-0.9c-0.3-0.2-0.6-0.3-0.9-0.3h-0.3v4.9H282.9z M286.6,202.7h1.6c0.2,0,0.5-0.1,1-0.2
			c0.2,0,0.4-0.2,0.6-0.4s0.2-0.4,0.2-0.7c0-0.4-0.1-0.7-0.4-0.9c-0.2-0.2-0.7-0.3-1.4-0.3h-1.6V202.7z"/>
		<path d="M293.9,197.8h4.1l2.4,4l2.4-4h4.1l-4.7,7v5h-3.7v-5L293.9,197.8z"/>
	</g>
	<g id="html" display="inline">
		<ellipse fill="#7292CB" cx="427.2" cy="459.7" rx="44.5" ry="43"/>
		<g enable-background="new    ">
			<path d="M397.1,457.9h3.6v4h3.9v-4h3.6v11.3h-3.6v-4.6h-3.9v4.6h-3.6V457.9z"/>
			<path d="M409.9,457.9h11v2.8h-3.7v8.5h-3.6v-8.5h-3.7V457.9z"/>
			<path d="M422.5,457.9h4.8l1.8,6.9l1.8-6.9h4.8v11.3h-3v-8.7l-2.3,8.7h-2.7l-2.3-8.7v8.7h-3V457.9z"/>
			<path d="M437.9,457.9h3.6v8.6h5.6v2.8h-9.3V457.9z"/>
			<path d="M449.6,457.9h7.7v2.5h-5.2l-0.3,1.7c0.4-0.2,0.7-0.3,1.1-0.4c0.4-0.1,0.7-0.1,1-0.1c1.2,0,2.1,0.3,2.8,1
				c0.7,0.7,1.1,1.5,1.1,2.6c0,0.7-0.2,1.4-0.6,2.1c-0.4,0.7-0.9,1.2-1.6,1.5c-0.7,0.4-1.6,0.5-2.6,0.5c-0.8,0-1.4-0.1-2-0.2
				s-1-0.4-1.4-0.6c-0.4-0.3-0.7-0.6-0.9-1c-0.2-0.4-0.4-0.8-0.6-1.3l3.3-0.3c0.1,0.5,0.3,0.9,0.6,1.2c0.3,0.3,0.6,0.4,1,0.4
				c0.5,0,0.8-0.2,1.1-0.5c0.3-0.3,0.4-0.8,0.4-1.5c0-0.7-0.1-1.2-0.4-1.5s-0.7-0.5-1.2-0.5c-0.3,0-0.6,0.1-0.9,0.2
				c-0.2,0.1-0.5,0.3-0.7,0.6l-2.8-0.4L449.6,457.9z"/>
		</g>
	</g>
	<g display="inline">
		<g>
			<circle fill="#69C9CA" cx="380.1" cy="206.3" r="50.6"/>
		</g>
		<g enable-background="new    ">
			<path d="M361.4,208.1l3.9,1.2c-0.3,1.1-0.7,2-1.2,2.8c-0.6,0.7-1.3,1.3-2.1,1.7c-0.8,0.4-1.9,0.6-3.2,0.6c-1.6,0-2.9-0.2-3.9-0.7
				s-1.9-1.3-2.6-2.4c-0.7-1.2-1.1-2.6-1.1-4.4c0-2.4,0.6-4.3,1.9-5.6c1.3-1.3,3.1-1.9,5.4-1.9c1.8,0,3.3,0.4,4.3,1.1
				c1,0.7,1.8,1.9,2.3,3.4l-4,0.9c-0.1-0.4-0.3-0.8-0.4-1c-0.3-0.3-0.6-0.6-0.9-0.8c-0.4-0.2-0.8-0.3-1.2-0.3c-1,0-1.8,0.4-2.3,1.2
				c-0.4,0.6-0.6,1.6-0.6,2.9c0,1.6,0.2,2.7,0.7,3.3s1.2,0.9,2.1,0.9c0.9,0,1.5-0.2,1.9-0.7C360.8,209.7,361.2,209,361.4,208.1z"/>
			<path d="M366.7,209.2l4.3-0.3c0.1,0.7,0.3,1.2,0.6,1.6c0.5,0.6,1.1,0.9,2,0.9c0.6,0,1.1-0.2,1.5-0.5c0.3-0.3,0.5-0.7,0.5-1
				c0-0.4-0.2-0.7-0.5-1c-0.3-0.3-1.1-0.6-2.3-0.8c-2-0.4-3.4-1-4.2-1.8c-0.8-0.7-1.3-1.7-1.3-2.8c0-0.7,0.2-1.5,0.6-2.1
				c0.4-0.7,1.1-1.2,2-1.6s2.1-0.6,3.6-0.6c1.9,0,3.3,0.3,4.2,1s1.6,1.8,1.7,3.3l-4.2,0.2c-0.1-0.7-0.3-1.1-0.7-1.4
				c-0.4-0.3-0.9-0.4-1.5-0.4c-0.5,0-0.9,0.1-1.2,0.3c-0.3,0.2-0.4,0.5-0.4,0.8c0,0.2,0.1,0.4,0.3,0.6c0.2,0.2,0.7,0.4,1.5,0.5
				c2,0.4,3.4,0.9,4.2,1.3c0.8,0.4,1.5,1,1.9,1.6c0.4,0.6,0.6,1.4,0.6,2.2c0,0.9-0.3,1.8-0.8,2.6c-0.5,0.8-1.2,1.4-2.2,1.8
				s-2.1,0.6-3.5,0.6c-2.5,0-4.2-0.5-5.1-1.4C367.3,211.9,366.8,210.7,366.7,209.2z"/>
			<path d="M381.3,209.2l4.3-0.3c0.1,0.7,0.3,1.2,0.6,1.6c0.5,0.6,1.1,0.9,2,0.9c0.6,0,1.1-0.2,1.5-0.5c0.3-0.3,0.5-0.7,0.5-1
				c0-0.4-0.2-0.7-0.5-1c-0.3-0.3-1.1-0.6-2.3-0.8c-2-0.4-3.4-1-4.2-1.8c-0.8-0.7-1.3-1.7-1.3-2.8c0-0.7,0.2-1.5,0.6-2.1
				c0.4-0.7,1.1-1.2,2-1.6s2.1-0.6,3.6-0.6c1.9,0,3.3,0.3,4.2,1s1.6,1.8,1.7,3.3l-4.2,0.2c-0.1-0.7-0.3-1.1-0.7-1.4
				c-0.4-0.3-0.9-0.4-1.5-0.4c-0.5,0-0.9,0.1-1.2,0.3c-0.3,0.2-0.4,0.5-0.4,0.8c0,0.2,0.1,0.4,0.3,0.6c0.2,0.2,0.7,0.4,1.5,0.5
				c2,0.4,3.4,0.9,4.2,1.3c0.8,0.4,1.5,1,1.9,1.6c0.4,0.6,0.6,1.4,0.6,2.2c0,0.9-0.3,1.8-0.8,2.6c-0.5,0.8-1.2,1.4-2.2,1.8
				s-2.1,0.6-3.5,0.6c-2.5,0-4.2-0.5-5.1-1.4C382,211.9,381.4,210.7,381.3,209.2z"/>
			<path d="M400,203.7l-3.8-0.7c0.3-1.2,0.9-2.2,1.8-2.8s2.2-1,3.8-1c1.9,0,3.3,0.4,4.1,1.1c0.8,0.7,1.3,1.6,1.3,2.7
				c0,0.6-0.2,1.2-0.5,1.7c-0.3,0.5-0.9,1-1.6,1.3c0.6,0.1,1,0.3,1.3,0.5c0.5,0.3,0.9,0.7,1.1,1.2c0.3,0.5,0.4,1.1,0.4,1.7
				c0,0.8-0.2,1.7-0.7,2.4c-0.4,0.8-1.1,1.4-1.9,1.8c-0.8,0.4-1.9,0.6-3.3,0.6c-1.3,0-2.4-0.2-3.1-0.5c-0.8-0.3-1.4-0.8-1.9-1.4
				c-0.5-0.6-0.9-1.4-1.1-2.3l4-0.5c0.2,0.8,0.4,1.4,0.7,1.7s0.8,0.5,1.3,0.5c0.5,0,1-0.2,1.4-0.6c0.4-0.4,0.5-0.9,0.5-1.6
				c0-0.7-0.2-1.2-0.5-1.6c-0.3-0.4-0.8-0.6-1.4-0.6c-0.3,0-0.8,0.1-1.3,0.2l0.2-2.9c0.2,0,0.4,0,0.5,0c0.5,0,1-0.2,1.3-0.5
				s0.5-0.7,0.5-1.2c0-0.4-0.1-0.8-0.4-1.1c-0.3-0.3-0.6-0.4-1.1-0.4c-0.5,0-0.9,0.1-1.2,0.4C400.3,202.5,400.1,203,400,203.7z"/>
		</g>
	</g>
	<circle display="inline" fill="#9FC9EB" cx="460" cy="268.4" r="48.9"/>
	<g display="inline" enable-background="new    ">
		<path d="M432.7,278.9v-17.9h9.2c1.7,0,3,0.1,3.9,0.4c0.9,0.3,1.6,0.8,2.2,1.6c0.6,0.8,0.8,1.8,0.8,2.9c0,1-0.2,1.9-0.6,2.6
			s-1,1.3-1.7,1.8c-0.5,0.3-1.1,0.5-1.9,0.7c0.7,0.2,1.1,0.4,1.4,0.7c0.2,0.1,0.5,0.5,0.9,0.9s0.6,0.9,0.8,1.1l2.7,5.2H444l-3-5.5
			c-0.4-0.7-0.7-1.2-1-1.4c-0.4-0.3-0.8-0.4-1.4-0.4h-0.5v7.3H432.7z M438.2,268.2h2.3c0.3,0,0.7-0.1,1.5-0.2
			c0.4-0.1,0.7-0.3,0.9-0.6s0.3-0.6,0.3-1c0-0.6-0.2-1-0.5-1.3c-0.4-0.3-1.1-0.5-2.1-0.5h-2.4V268.2z"/>
		<path d="M450.9,269.9c0-2.9,0.8-5.2,2.4-6.8c1.6-1.6,3.9-2.4,6.8-2.4c3,0,5.3,0.8,6.9,2.4c1.6,1.6,2.4,3.8,2.4,6.7
			c0,2.1-0.4,3.8-1.1,5.2c-0.7,1.3-1.7,2.4-3,3.1c-1.3,0.7-3,1.1-5,1.1c-2,0-3.7-0.3-5-1s-2.4-1.7-3.2-3.1
			C451.3,273.7,450.9,272,450.9,269.9z M456.4,269.9c0,1.8,0.3,3.1,1,3.9c0.7,0.8,1.6,1.2,2.7,1.2c1.2,0,2.1-0.4,2.8-1.2
			c0.6-0.8,1-2.2,1-4.2c0-1.7-0.3-2.9-1-3.7c-0.7-0.8-1.6-1.2-2.8-1.2c-1.1,0-2,0.4-2.7,1.2C456.8,266.8,456.4,268.1,456.4,269.9z"
			/>
		<path d="M472.5,278.9v-17.9h9.2c1.7,0,3,0.1,3.9,0.4c0.9,0.3,1.6,0.8,2.2,1.6c0.6,0.8,0.8,1.8,0.8,2.9c0,1-0.2,1.9-0.6,2.6
			s-1,1.3-1.7,1.8c-0.5,0.3-1.1,0.5-1.9,0.7c0.7,0.2,1.1,0.4,1.4,0.7c0.2,0.1,0.5,0.5,0.9,0.9s0.6,0.9,0.8,1.1l2.7,5.2h-6.2l-3-5.5
			c-0.4-0.7-0.7-1.2-1-1.4c-0.4-0.3-0.8-0.4-1.4-0.4H478v7.3H472.5z M478,268.2h2.3c0.3,0,0.7-0.1,1.5-0.2c0.4-0.1,0.7-0.3,0.9-0.6
			s0.3-0.6,0.3-1c0-0.6-0.2-1-0.5-1.3c-0.4-0.3-1.1-0.5-2.1-0.5H478V268.2z"/>
	</g>
	<g id="sql" display="inline">
		<circle fill="#9999CC" cx="481.7" cy="373.5" r="51.6"/>
		<g enable-background="new    ">
			<path d="M453.1,375l5.3-0.3c0.1,0.9,0.3,1.5,0.7,2c0.6,0.7,1.4,1.1,2.4,1.1c0.8,0,1.4-0.2,1.8-0.6s0.6-0.8,0.6-1.3
				c0-0.5-0.2-0.9-0.6-1.2s-1.3-0.7-2.8-1c-2.4-0.5-4.1-1.3-5.2-2.2c-1-0.9-1.6-2.1-1.6-3.5c0-0.9,0.3-1.8,0.8-2.6s1.3-1.5,2.4-1.9
				s2.5-0.7,4.4-0.7c2.3,0,4,0.4,5.2,1.3c1.2,0.9,1.9,2.2,2.1,4.1l-5.2,0.3c-0.1-0.8-0.4-1.4-0.9-1.8c-0.4-0.4-1.1-0.6-1.8-0.6
				c-0.6,0-1.1,0.1-1.5,0.4c-0.3,0.3-0.5,0.6-0.5,1c0,0.3,0.1,0.5,0.4,0.8c0.3,0.2,0.9,0.5,1.9,0.7c2.4,0.5,4.1,1,5.2,1.6
				c1,0.5,1.8,1.2,2.3,2c0.5,0.8,0.7,1.7,0.7,2.7c0,1.1-0.3,2.2-1,3.2s-1.5,1.7-2.7,2.2s-2.6,0.8-4.3,0.8c-3,0-5.1-0.6-6.3-1.8
				S453.3,376.8,453.1,375z"/>
			<path d="M488,378.3c0.7,0.5,1.1,0.8,1.4,0.9c0.3,0.2,0.7,0.4,1.3,0.6l-1.5,3.1c-0.8-0.4-1.5-0.8-2.3-1.3
				c-0.8-0.5-1.3-0.9-1.6-1.2c-1.2,0.5-2.7,0.8-4.6,0.8c-2.7,0-4.9-0.7-6.4-2.1c-1.9-1.7-2.8-4-2.8-7.1c0-3,0.8-5.2,2.4-6.9
				c1.6-1.6,3.9-2.5,6.8-2.5c3,0,5.3,0.8,6.9,2.4c1.6,1.6,2.4,3.9,2.4,6.9C489.9,374.6,489.3,376.7,488,378.3z M483.8,375.5
				c0.4-0.8,0.7-2,0.7-3.5c0-1.8-0.3-3.1-1-3.9c-0.7-0.8-1.6-1.2-2.8-1.2c-1.1,0-2,0.4-2.7,1.2c-0.7,0.8-1,2-1,3.7
				c0,2,0.3,3.3,1,4.1s1.6,1.2,2.7,1.2c0.4,0,0.7,0,1.1-0.1c-0.5-0.4-1.2-0.9-2.2-1.3l0.9-2c0.5,0.1,0.9,0.2,1.1,0.3
				c0.3,0.1,0.8,0.5,1.6,1C483.3,375.2,483.5,375.3,483.8,375.5z"/>
			<path d="M492.9,363h5.5v13.5h8.6v4.4h-14.1V363z"/>
		</g>
	</g>
	<g id="illustrat" display="inline">
		<circle fill="#CCCCFF" cx="134.5" cy="352.9" r="54.3"/>
		<g enable-background="new    ">
			<path d="M88.4,344.7h2.6V360h-2.6V344.7z"/>
			<path d="M93,344.7h2.6v11.5h4.1v3.8H93V344.7z"/>
			<path d="M100.9,344.7h2.6v11.5h4.1v3.8h-6.7V344.7z"/>
			<path d="M114.1,344.7h2.6v9.1c0,0.9-0.1,1.8-0.2,2.6c-0.2,0.8-0.4,1.5-0.7,2.1s-0.7,1-1.1,1.3c-0.5,0.3-1.1,0.5-1.8,0.5
				c-0.4,0-0.9-0.1-1.4-0.2c-0.5-0.1-0.9-0.3-1.2-0.6c-0.3-0.3-0.6-0.7-0.9-1.3c-0.3-0.6-0.5-1.2-0.6-1.8c-0.2-1-0.2-1.8-0.2-2.6
				v-9.1h2.6v9.3c0,0.8,0.1,1.5,0.4,2c0.3,0.5,0.6,0.7,1.1,0.7c0.5,0,0.8-0.2,1.1-0.7c0.3-0.5,0.4-1.1,0.4-2V344.7z"/>
			<path d="M118,354.9l2.5-0.3c0.1,0.7,0.2,1.3,0.3,1.7c0.3,0.6,0.7,0.9,1.2,0.9c0.4,0,0.7-0.2,0.9-0.5c0.2-0.3,0.3-0.7,0.3-1.1
				c0-0.4-0.1-0.8-0.3-1.1s-0.6-0.6-1.3-0.9c-1.2-0.5-2-1.1-2.5-1.9c-0.5-0.8-0.7-1.8-0.7-3c0-0.8,0.1-1.5,0.4-2.2s0.6-1.2,1.1-1.6
				c0.5-0.4,1.2-0.6,2.1-0.6c1.1,0,1.9,0.4,2.5,1.1c0.6,0.7,0.9,1.9,1,3.5l-2.5,0.3c-0.1-0.7-0.2-1.2-0.4-1.5s-0.5-0.5-0.9-0.5
				c-0.3,0-0.5,0.1-0.7,0.3s-0.2,0.5-0.2,0.9c0,0.2,0.1,0.5,0.2,0.7c0.1,0.2,0.4,0.4,0.9,0.6c1.1,0.4,2,0.9,2.5,1.4
				c0.5,0.5,0.9,1,1.1,1.7c0.2,0.7,0.3,1.4,0.3,2.3c0,1-0.2,1.9-0.5,2.7c-0.3,0.8-0.7,1.5-1.3,1.9c-0.5,0.4-1.2,0.6-2.1,0.6
				c-1.4,0-2.5-0.5-3-1.5S118,356.5,118,354.9z"/>
			<path d="M126.4,344.7h8v3.8h-2.7V360h-2.6v-11.5h-2.7V344.7z"/>
			<path d="M135.6,360v-15.3h4.4c0.8,0,1.4,0.1,1.9,0.4c0.4,0.3,0.8,0.7,1,1.4s0.4,1.5,0.4,2.5c0,0.8-0.1,1.6-0.3,2.2
				c-0.2,0.6-0.5,1.1-0.8,1.5c-0.2,0.2-0.5,0.4-0.9,0.6c0.3,0.2,0.5,0.4,0.7,0.6c0.1,0.1,0.2,0.4,0.4,0.8c0.2,0.4,0.3,0.7,0.4,1
				l1.3,4.4h-3l-1.4-4.7c-0.2-0.6-0.3-1-0.5-1.2c-0.2-0.2-0.4-0.4-0.6-0.4h-0.2v6.2H135.6z M138.3,350.9h1.1c0.1,0,0.4-0.1,0.7-0.2
				c0.2-0.1,0.3-0.2,0.4-0.5c0.1-0.3,0.2-0.6,0.2-0.9c0-0.5-0.1-0.9-0.3-1.1s-0.5-0.4-1-0.4h-1.2V350.9z"/>
			<path d="M150.1,357.5h-3l-0.4,2.5H144l3.2-15.3h2.9l3.2,15.3h-2.8L150.1,357.5z M149.6,354.2l-0.9-5.5l-0.9,5.5H149.6z"/>
			<path d="M152.7,344.7h8v3.8H158V360h-2.6v-11.5h-2.7V344.7z"/>
			<path d="M161.2,352.4c0-2.5,0.4-4.4,1.2-5.8c0.8-1.4,1.9-2.1,3.2-2.1c1.4,0,2.5,0.7,3.3,2.1c0.8,1.4,1.1,3.3,1.1,5.7
				c0,1.8-0.2,3.3-0.5,4.4s-0.8,2-1.5,2.7s-1.4,1-2.4,1c-1,0-1.8-0.3-2.4-0.8s-1.1-1.4-1.5-2.6C161.3,355.6,161.2,354.1,161.2,352.4
				z M163.8,352.4c0,1.5,0.2,2.7,0.5,3.3c0.3,0.7,0.8,1,1.3,1c0.6,0,1-0.3,1.3-1c0.3-0.7,0.5-1.8,0.5-3.6c0-1.4-0.2-2.5-0.5-3.2
				c-0.3-0.7-0.8-1-1.3-1c-0.5,0-1,0.3-1.3,1C163.9,349.7,163.8,350.8,163.8,352.4z"/>
			<path d="M171.4,360v-15.3h4.4c0.8,0,1.4,0.1,1.9,0.4c0.4,0.3,0.8,0.7,1,1.4s0.4,1.5,0.4,2.5c0,0.8-0.1,1.6-0.3,2.2
				c-0.2,0.6-0.5,1.1-0.8,1.5c-0.2,0.2-0.5,0.4-0.9,0.6c0.3,0.2,0.5,0.4,0.7,0.6c0.1,0.1,0.2,0.4,0.4,0.8c0.2,0.4,0.3,0.7,0.4,1
				l1.3,4.4h-3l-1.4-4.7c-0.2-0.6-0.3-1-0.5-1.2c-0.2-0.2-0.4-0.4-0.6-0.4h-0.2v6.2H171.4z M174.1,350.9h1.1c0.1,0,0.4-0.1,0.7-0.2
				c0.2-0.1,0.3-0.2,0.4-0.5c0.1-0.3,0.2-0.6,0.2-0.9c0-0.5-0.1-0.9-0.3-1.1s-0.5-0.4-1-0.4h-1.2V350.9z"/>
		</g>
	</g>
	<g display="inline">
		<circle fill="#9FC9EB" cx="177.4" cy="248.5" r="47"/>
		<g enable-background="new    ">
			<path d="M151.4,255.6l4.5-0.3c0.1,0.9,0.3,1.6,0.6,2c0.5,0.8,1.2,1.1,2.1,1.1c0.7,0,1.2-0.2,1.6-0.6c0.4-0.4,0.6-0.8,0.6-1.3
				c0-0.5-0.2-0.9-0.5-1.3c-0.4-0.4-1.2-0.7-2.4-1.1c-2.1-0.6-3.6-1.3-4.5-2.2c-0.9-0.9-1.3-2.1-1.3-3.6c0-1,0.2-1.9,0.7-2.7
				c0.5-0.8,1.2-1.5,2.1-2c0.9-0.5,2.2-0.7,3.8-0.7c2,0,3.5,0.4,4.5,1.3s1.7,2.3,1.8,4.2l-4.5,0.3c-0.1-0.8-0.4-1.4-0.8-1.8
				c-0.4-0.4-0.9-0.6-1.6-0.6c-0.6,0-1,0.1-1.3,0.4c-0.3,0.3-0.4,0.6-0.4,1c0,0.3,0.1,0.6,0.3,0.8c0.2,0.2,0.8,0.5,1.6,0.7
				c2.1,0.5,3.6,1.1,4.5,1.6c0.9,0.6,1.6,1.2,2,2.1c0.4,0.8,0.6,1.7,0.6,2.7c0,1.2-0.3,2.3-0.8,3.3c-0.5,1-1.3,1.8-2.3,2.3
				c-1,0.5-2.2,0.8-3.7,0.8c-2.6,0-4.4-0.6-5.5-1.8C152.1,259,151.6,257.5,151.4,255.6z"/>
			<path d="M166.3,243.2h5l3.5,13.3l3.4-13.3h4.8l-5.7,18.5h-5.2L166.3,243.2z"/>
			<path d="M191.6,255v-3.9h7.4v7.9c-1.4,1.2-2.7,1.9-3.7,2.4c-1.1,0.4-2.4,0.6-3.9,0.6c-1.8,0-3.3-0.4-4.5-1.1
				c-1.2-0.8-2-1.9-2.7-3.4s-1-3.2-1-5.1c0-2,0.3-3.8,1-5.3c0.7-1.5,1.7-2.6,3.1-3.4c1-0.6,2.5-0.9,4.2-0.9c1.7,0,3,0.2,3.8,0.6
				c0.8,0.4,1.5,0.9,2.1,1.7c0.6,0.8,1,1.8,1.3,3l-4.6,1c-0.2-0.7-0.5-1.2-1-1.6c-0.5-0.4-1-0.6-1.7-0.6c-1,0-1.9,0.4-2.5,1.3
				c-0.6,0.9-0.9,2.3-0.9,4.1c0,2,0.3,3.4,0.9,4.3c0.6,0.9,1.5,1.3,2.6,1.3c0.5,0,1-0.1,1.5-0.3s1-0.5,1.7-0.9V255H191.6z"/>
		</g>
	</g>
</g>
<g id="bubles" display="none">
	<ellipse display="inline" fill="#FFFFFF" cx="106.2" cy="502.4" rx="10" ry="9.5"/>
	<ellipse display="inline" fill="#FFFFFF" cx="81.7" cy="539.2" rx="4.3" ry="4.1"/>
	<ellipse display="inline" fill="#FFFFFF" cx="449" cy="122.3" rx="4.3" ry="4.1"/>
	<ellipse display="inline" fill="#FFFFFF" cx="523.2" cy="103.4" rx="4.3" ry="4.1"/>
	<ellipse display="inline" fill="#FFFFFF" cx="512" cy="168.4" rx="6" ry="5.7"/>
	<ellipse display="inline" fill="#FFFFFF" cx="196.5" cy="162.7" rx="6" ry="5.7"/>
	<ellipse display="inline" fill="#FFFFFF" cx="235.9" cy="579.3" rx="4.3" ry="4.1"/>
	<ellipse display="inline" fill="#FFFFFF" cx="310.1" cy="560.4" rx="4.3" ry="4.1"/>
	<ellipse display="inline" fill="#FFFFFF" cx="299" cy="625.4" rx="6" ry="5.7"/>
	<ellipse display="inline" fill="#FFFFFF" cx="179" cy="560.9" rx="4.1" ry="4.3"/>
	<ellipse display="inline" fill="#FFFFFF" cx="197.9" cy="635.2" rx="4.1" ry="4.3"/>
	<ellipse display="inline" fill="#FFFFFF" cx="132.9" cy="624.1" rx="5.7" ry="6"/>
	<ellipse display="inline" fill="#FFFFFF" cx="508.2" cy="540.1" rx="2.2" ry="2.3"/>
	<ellipse display="inline" fill="#FFFFFF" cx="518.2" cy="579.6" rx="2.2" ry="2.3"/>
	<ellipse display="inline" fill="#FFFFFF" cx="483.8" cy="573.7" rx="3" ry="3.2"/>
	<ellipse display="inline" fill="#FFFFFF" cx="479.5" cy="554" rx="2.2" ry="2.3"/>
	<ellipse display="inline" fill="#FFFFFF" cx="489.5" cy="593.4" rx="2.2" ry="2.3"/>
	<ellipse display="inline" fill="#FFFFFF" cx="455" cy="587.5" rx="3" ry="3.2"/>
	<ellipse display="inline" fill="#FFFFFF" cx="130" cy="85.6" rx="4.2" ry="4.4"/>
	<ellipse display="inline" fill="#FFFFFF" cx="149.4" cy="161.7" rx="4.2" ry="4.4"/>
	<ellipse display="inline" fill="#FFFFFF" cx="102" cy="137" rx="5.9" ry="6.2"/>
	<ellipse display="inline" fill="#FFFFFF" cx="74.4" cy="112.3" rx="4.2" ry="4.4"/>
	<ellipse display="inline" fill="#FFFFFF" cx="93.8" cy="188.4" rx="4.2" ry="4.4"/>
	<ellipse display="inline" fill="#FFFFFF" cx="27.1" cy="177" rx="5.9" ry="6.2"/>
	<ellipse display="inline" fill="#FFFFFF" cx="315" cy="543.9" rx="2.2" ry="2.3"/>
	<ellipse display="inline" fill="#FFFFFF" cx="325" cy="583.3" rx="2.2" ry="2.3"/>
	<ellipse display="inline" fill="#FFFFFF" cx="290.5" cy="577.4" rx="3" ry="3.2"/>
	<ellipse display="inline" fill="#FFFFFF" cx="286.2" cy="557.7" rx="2.2" ry="2.3"/>
	<ellipse display="inline" fill="#FFFFFF" cx="296.4" cy="597.1" rx="2.2" ry="2.3"/>
	<ellipse display="inline" fill="#FFFFFF" cx="261.8" cy="591.2" rx="3" ry="3.2"/>
	<ellipse display="inline" fill="#FFFFFF" cx="256.2" cy="490.7" rx="2.2" ry="2.3"/>
	<ellipse display="inline" fill="#FFFFFF" cx="266.2" cy="530.2" rx="2.2" ry="2.3"/>
	<ellipse display="inline" fill="#FFFFFF" cx="231.8" cy="524.3" rx="3" ry="3.2"/>
	<ellipse display="inline" fill="#FFFFFF" cx="227.5" cy="504.6" rx="2.2" ry="2.3"/>
	<ellipse display="inline" fill="#FFFFFF" cx="237.5" cy="544" rx="2.2" ry="2.3"/>
	<ellipse display="inline" fill="#FFFFFF" cx="202.9" cy="538.1" rx="3" ry="3.2"/>
	<ellipse display="inline" fill="#FFFFFF" cx="351.6" cy="81.2" rx="2.2" ry="2.3"/>
	<ellipse display="inline" fill="#FFFFFF" cx="361.6" cy="120.6" rx="2.2" ry="2.3"/>
	<ellipse display="inline" fill="#FFFFFF" cx="327.1" cy="114.7" rx="3" ry="3.2"/>
	<ellipse display="inline" fill="#FFFFFF" cx="322.9" cy="95" rx="2.2" ry="2.3"/>
	<ellipse display="inline" fill="#FFFFFF" cx="332.9" cy="134.4" rx="2.2" ry="2.3"/>
	<ellipse display="inline" fill="#FFFFFF" cx="298.4" cy="128.6" rx="3" ry="3.2"/>
	
		<ellipse transform="matrix(-0.5476 0.8367 -0.8367 -0.5476 384.8096 -67.4073)" display="inline" fill="#FFFFFF" cx="210.6" cy="70.3" rx="2.2" ry="2.3"/>
	
		<ellipse transform="matrix(-0.5476 0.8367 -0.8367 -0.5476 455.442 -78.9187)" display="inline" fill="#FFFFFF" cx="249.1" cy="83.7" rx="2.2" ry="2.3"/>
	
		<ellipse transform="matrix(-0.5476 0.8367 -0.8367 -0.5476 439.8354 -19.3507)" display="inline" fill="#FFFFFF" cx="225.1" cy="109.2" rx="3" ry="3.2"/>
	
		<ellipse transform="matrix(-0.5476 0.8367 -0.8367 -0.5476 404.8084 -14.8632)" display="inline" fill="#FFFFFF" cx="206.4" cy="102" rx="2.2" ry="2.3"/>
	
		<ellipse transform="matrix(-0.5476 0.8367 -0.8367 -0.5476 475.2809 -26.5644)" display="inline" fill="#FFFFFF" cx="244.8" cy="115.2" rx="2.2" ry="2.3"/>
	
		<ellipse transform="matrix(-0.5476 0.8367 -0.8367 -0.5476 459.9883 33.1267)" display="inline" fill="#FFFFFF" cx="221" cy="140.9" rx="3" ry="3.2"/>
	
		<ellipse transform="matrix(-0.5476 0.8367 -0.8367 -0.5476 1026.5996 491.9959)" display="inline" fill="#FFFFFF" cx="380.3" cy="523.5" rx="3.9" ry="4.1"/>
	
		<ellipse transform="matrix(-0.5476 0.8367 -0.8367 -0.5476 1153.3165 470.7675)" display="inline" fill="#FFFFFF" cx="449.4" cy="547.2" rx="3.9" ry="4.1"/>
	
		<ellipse transform="matrix(-0.5476 0.8367 -0.8367 -0.5476 1125.6526 577.8594)" display="inline" fill="#FFFFFF" cx="406.6" cy="593.2" rx="5.5" ry="5.7"/>
	
		<ellipse transform="matrix(-0.5476 0.8367 -0.8367 -0.5476 1062.5712 586.0519)" display="inline" fill="#FFFFFF" cx="372.9" cy="580.3" rx="3.9" ry="4.1"/>
	
		<ellipse transform="matrix(-0.5476 0.8367 -0.8367 -0.5476 1189.3398 565.1524)" display="inline" fill="#FFFFFF" cx="441.9" cy="604.1" rx="3.9" ry="4.1"/>
	
		<ellipse transform="matrix(-0.5476 0.8367 -0.8367 -0.5476 1161.4703 671.9824)" display="inline" fill="#FFFFFF" cx="399.1" cy="650" rx="5.5" ry="5.7"/>
	
		<ellipse transform="matrix(-0.5476 0.8367 -0.8367 -0.5476 495.7698 744.8104)" display="inline" fill="#FFFFFF" cx="46.5" cy="506.4" rx="3.9" ry="4.1"/>
	
		<ellipse transform="matrix(-0.5476 0.8367 -0.8367 -0.5476 622.662 723.5964)" display="inline" fill="#FFFFFF" cx="115.7" cy="530.1" rx="3.9" ry="4.1"/>
	
		<ellipse transform="matrix(-0.5476 0.8367 -0.8367 -0.5476 594.998 830.6882)" display="inline" fill="#FFFFFF" cx="72.9" cy="576.2" rx="5.5" ry="5.7"/>
	
		<ellipse transform="matrix(-0.5476 0.8367 -0.8367 -0.5476 531.7637 838.9479)" display="inline" fill="#FFFFFF" cx="39.1" cy="563.2" rx="3.9" ry="4.1"/>
	
		<ellipse transform="matrix(-0.5476 0.8367 -0.8367 -0.5476 658.3716 817.8579)" display="inline" fill="#FFFFFF" cx="108.1" cy="586.9" rx="3.9" ry="4.1"/>
	
		<ellipse transform="matrix(-0.5476 0.8367 -0.8367 -0.5476 630.816 924.8112)" display="inline" fill="#FFFFFF" cx="65.4" cy="632.9" rx="5.5" ry="5.7"/>
	
		<ellipse transform="matrix(-2.003480e-02 -0.9998 0.9998 -2.003480e-02 380.3421 805.9482)" display="inline" fill="#FFFFFF" cx="585.2" cy="216.6" rx="2.2" ry="2.3"/>
	
		<ellipse transform="matrix(-2.003480e-02 -0.9998 0.9998 -2.003480e-02 329.5583 777.7719)" display="inline" fill="#FFFFFF" cx="546" cy="227.4" rx="2.2" ry="2.3"/>
	
		<ellipse transform="matrix(-2.003480e-02 -0.9998 0.9998 -2.003480e-02 369.4566 747.6776)" display="inline" fill="#FFFFFF" cx="551.2" cy="192.8" rx="3" ry="3.2"/>
	
		<ellipse transform="matrix(-2.003480e-02 -0.9998 0.9998 -2.003480e-02 394.1479 762.4802)" display="inline" fill="#FFFFFF" cx="570.8" cy="188.1" rx="2.2" ry="2.3"/>
	
		<ellipse transform="matrix(-2.003480e-02 -0.9998 0.9998 -2.003480e-02 343.364 734.304)" display="inline" fill="#FFFFFF" cx="531.6" cy="198.9" rx="2.2" ry="2.3"/>
	
		<ellipse transform="matrix(-2.003480e-02 -0.9998 0.9998 -2.003480e-02 383.2622 704.2097)" display="inline" fill="#FFFFFF" cx="536.8" cy="164.3" rx="3" ry="3.2"/>
	
		<ellipse transform="matrix(-0.8475 -0.5307 0.5307 -0.8475 1060.2449 481.3142)" display="inline" fill="#FFFFFF" cx="599.3" cy="88.4" rx="3.9" ry="4.1"/>
	
		<ellipse transform="matrix(-0.8475 -0.5307 0.5307 -0.8475 982.1553 597.9072)" display="inline" fill="#FFFFFF" cx="577" cy="157.9" rx="3.9" ry="4.1"/>
	
		<ellipse transform="matrix(-0.8475 -0.5307 0.5307 -0.8475 917.6994 495.7476)" display="inline" fill="#FFFFFF" cx="530.1" cy="116.1" rx="5.5" ry="5.7"/>
	
		<ellipse transform="matrix(-0.8475 -0.5307 0.5307 -0.8475 880.33 555.972)" display="inline" fill="#FFFFFF" cx="520" cy="151.5" rx="3.9" ry="4.1"/>
	<path display="inline" fill="#FFFFFF" d="M81.8,448.5c-1.9,0-3.4-1.3-3.5-3s1.5-3.1,3.3-3.1c1.9,0,3.4,1.3,3.5,3
		C85.2,447.1,83.7,448.5,81.8,448.5z"/>
	<path display="inline" fill="#FFFFFF" d="M590.2,470.2c-1.9,0-3.4-1.3-3.5-3c0-1.7,1.5-3.1,3.3-3.1c1.9,0,3.4,1.3,3.5,3
		C593.7,468.8,592.2,470.1,590.2,470.2z"/>
	<path display="inline" fill="#FFFFFF" d="M598,423.4c-2.6,0-4.8-1.8-4.8-4.1s2-4.3,4.7-4.3s4.8,1.8,4.8,4.1S600.7,423.3,598,423.4z
		"/>
	<path display="inline" fill="#FFFFFF" d="M464.5,180c-1.9,0-3.4-1.3-3.5-3s1.5-3.1,3.3-3.1c1.9,0,3.4,1.3,3.5,3
		S466.2,180,464.5,180z"/>
	<path display="inline" fill="#FFFFFF" d="M568.8,430.7c-1.9,0-3.4-1.3-3.5-3s1.5-3.1,3.3-3.1c1.9,0,3.4,1.3,3.5,3
		S570.8,430.7,568.8,430.7z"/>
	<path display="inline" fill="#FFFFFF" d="M576.7,383.9c-2.6,0-4.8-1.8-4.8-4.1s2-4.3,4.7-4.3s4.8,1.8,4.8,4.1
		C581.3,381.9,579.2,383.9,576.7,383.9z"/>
	<path display="inline" fill="#FFFFFF" d="M537.5,449.4c-3.4,5-10.3,6.7-15.4,3.7c-5.1-3-6.6-9.5-3.2-14.6c3.4-5,10.3-6.7,15.4-3.7
		C539.5,437.9,540.8,444.4,537.5,449.4z"/>
	<path display="inline" fill="#FFFFFF" d="M573.5,317c-2.5,3.7-7.6,4.9-11.4,2.7c-3.8-2.2-4.8-7-2.3-10.7s7.6-4.9,11.4-2.7
		C575,308.5,576,313.3,573.5,317z"/>
	<path display="inline" fill="#FFFFFF" d="M556.7,365c-1.8,2.7-5.5,3.6-8.2,2s-3.5-5.1-1.7-7.7c1.8-2.7,5.5-3.6,8.2-2
		C557.8,358.8,558.5,362.3,556.7,365z"/>
	<path display="inline" fill="#FFFFFF" d="M36.7,428.8c0-1.7,1.6-3,3.5-3s3.4,1.4,3.3,3.1c0,1.7-1.6,3-3.5,3
		C38.2,431.9,36.7,430.5,36.7,428.8z"/>
	<path display="inline" fill="#FFFFFF" d="M58.1,389.4c0-1.7,1.6-3,3.5-3s3.4,1.4,3.3,3.1s-1.6,3-3.5,3
		C59.6,392.4,58.1,391,58.1,389.4z"/>
	<path display="inline" fill="#FFFFFF" d="M15.9,246.5c2.7-1.6,6.4-0.7,8.2,2s1,6.1-1.7,7.7s-6.4,0.7-8.2-2
		C12.4,251.6,13.2,248.1,15.9,246.5z"/>
	<path display="inline" fill="#FFFFFF" d="M49,342.8c2.7-1.6,6.4-0.7,8.2,2c1.8,2.7,1,6.1-1.7,7.7s-6.4,0.7-8.2-2
		C45.5,347.9,46.3,344.4,49,342.8z"/>
	<ellipse display="inline" fill="#FFFFFF" cx="521.5" cy="503.5" rx="2.2" ry="2.3"/>
	<ellipse display="inline" fill="#FFFFFF" cx="531.5" cy="543" rx="2.2" ry="2.3"/>
	<ellipse display="inline" fill="#FFFFFF" cx="497" cy="537.1" rx="3" ry="3.2"/>
	<ellipse display="inline" fill="#FFFFFF" cx="492.7" cy="517.4" rx="2.2" ry="2.3"/>
	<ellipse display="inline" fill="#FFFFFF" cx="502.8" cy="556.8" rx="2.2" ry="2.3"/>
	<ellipse display="inline" fill="#FFFFFF" cx="578.2" cy="517.4" rx="2.2" ry="2.3"/>
	<ellipse display="inline" fill="#FFFFFF" cx="588.2" cy="556.8" rx="2.2" ry="2.3"/>
	<ellipse display="inline" fill="#FFFFFF" cx="553.8" cy="550.9" rx="3" ry="3.2"/>
	<ellipse display="inline" fill="#FFFFFF" cx="549.5" cy="531.2" rx="2.2" ry="2.3"/>
	<ellipse display="inline" fill="#FFFFFF" cx="559.5" cy="570.6" rx="2.2" ry="2.3"/>
	<ellipse display="inline" fill="#FFFFFF" cx="70.9" cy="227.2" rx="2.2" ry="2.3"/>
	<ellipse display="inline" fill="#FFFFFF" cx="80.9" cy="266.6" rx="2.2" ry="2.3"/>
	<ellipse display="inline" fill="#FFFFFF" cx="46.4" cy="260.7" rx="3" ry="3.2"/>
	<ellipse display="inline" fill="#FFFFFF" cx="42.1" cy="241" rx="2.2" ry="2.3"/>
	<ellipse display="inline" fill="#FFFFFF" cx="52.1" cy="280.4" rx="2.2" ry="2.3"/>
</g>
<g display="none" enable-background="new    ">
	<path display="inline" fill="#FFFFFF" d="M210.4,637c-0.2-5.8-0.4-12.9-0.4-19.9h-0.2c-1.5,6.2-3.5,13.1-5.4,18.8l-5.9,18.9h-8.6
		l-5.2-18.8c-1.6-5.7-3.2-12.6-4.4-18.9h-0.1c-0.3,6.6-0.5,14-0.9,20.1l-0.9,18.4h-10.2l3.1-48.5H186l4.8,16.2
		c1.5,5.6,3,11.7,4.1,17.4h0.2c1.4-5.6,3-12,4.6-17.4l5.2-16.1h14.3l2.7,48.5h-10.7L210.4,637z"/>
	<path display="inline" fill="#FFFFFF" d="M241.5,655.5v-19.9L226.2,607h12.5l5,11.7c1.5,3.5,2.5,6.1,3.7,9.3h0.1
		c1.1-3,2.2-5.8,3.7-9.3l4.9-11.7h12.3l-16,28.3v20.2H241.5z"/>
	<path display="inline" fill="#FFFFFF" d="M288.6,644.2c3,1.5,7.5,3,12.2,3c5,0,7.7-2.1,7.7-5.3c0-3-2.3-4.8-8.1-6.8
		c-8.1-2.8-13.3-7.3-13.3-14.3c0-8.3,6.9-14.6,18.4-14.6c5.5,0,9.5,1.2,12.4,2.4l-2.4,8.9c-1.9-0.9-5.4-2.3-10.2-2.3
		c-4.8,0-7.1,2.2-7.1,4.7c0,3.1,2.7,4.5,9,6.8c8.6,3.2,12.6,7.6,12.6,14.5c0,8.1-6.3,15-19.6,15c-5.5,0-11-1.4-13.8-3L288.6,644.2z"
		/>
	<path display="inline" fill="#FFFFFF" d="M327.1,607H338v21.5h0.2c1.1-1.9,2.2-3.6,3.3-5.3l11-16.1H366L350,627.7l16.9,27.9h-12.8
		l-11.9-21l-4.2,5.1v15.8h-10.9V607z"/>
	<path display="inline" fill="#FFFFFF" d="M382.4,607v48.5h-11V607H382.4z"/>
	<path display="inline" fill="#FFFFFF" d="M391.9,607h11v39.3h19.3v9.2h-30.3V607z"/>
	<path display="inline" fill="#FFFFFF" d="M428.7,607h11v39.3H459v9.2h-30.3V607z"/>
	<path display="inline" fill="#FFFFFF" d="M465.8,644.2c3,1.5,7.5,3,12.2,3c5,0,7.7-2.1,7.7-5.3c0-3-2.3-4.8-8.1-6.8
		c-8.1-2.8-13.3-7.3-13.3-14.3c0-8.3,6.9-14.6,18.4-14.6c5.5,0,9.5,1.2,12.4,2.4l-2.4,8.9c-1.9-0.9-5.4-2.3-10.2-2.3
		c-4.8,0-7.1,2.2-7.1,4.7c0,3.1,2.7,4.5,9,6.8c8.6,3.2,12.6,7.6,12.6,14.5c0,8.1-6.3,15-19.6,15c-5.5,0-11-1.4-13.8-3L465.8,644.2z"
		/>
</g>
<g enable-background="new    ">
	<path fill="none" stroke="#FFFFFF" stroke-width="7" stroke-miterlimit="10" d="M210.4,637c-0.2-5.8-0.4-12.9-0.4-19.9h-0.2
		c-1.5,6.2-3.5,13.1-5.4,18.8l-5.9,18.9h-8.6l-5.2-18.8c-1.6-5.7-3.2-12.6-4.4-18.9h-0.1c-0.3,6.6-0.5,14-0.9,20.1l-0.9,18.4h-10.2
		l3.1-48.5H186l4.8,16.2c1.5,5.6,3,11.7,4.1,17.4h0.2c1.4-5.6,3-12,4.6-17.4l5.2-16.1h14.3l2.7,48.5h-10.7L210.4,637z"/>
	<path fill="none" stroke="#FFFFFF" stroke-width="7" stroke-miterlimit="10" d="M241.5,655.5v-19.9L226.2,607h12.5l5,11.7
		c1.5,3.5,2.5,6.1,3.7,9.3h0.1c1.1-3,2.2-5.8,3.7-9.3l4.9-11.7h12.3l-16,28.3v20.2H241.5z"/>
	<path fill="none" stroke="#FFFFFF" stroke-width="7" stroke-miterlimit="10" d="M288.6,644.2c3,1.5,7.5,3,12.2,3
		c5,0,7.7-2.1,7.7-5.3c0-3-2.3-4.8-8.1-6.8c-8.1-2.8-13.3-7.3-13.3-14.3c0-8.3,6.9-14.6,18.4-14.6c5.5,0,9.5,1.2,12.4,2.4l-2.4,8.9
		c-1.9-0.9-5.4-2.3-10.2-2.3c-4.8,0-7.1,2.2-7.1,4.7c0,3.1,2.7,4.5,9,6.8c8.6,3.2,12.6,7.6,12.6,14.5c0,8.1-6.3,15-19.6,15
		c-5.5,0-11-1.4-13.8-3L288.6,644.2z"/>
	<path fill="none" stroke="#FFFFFF" stroke-width="7" stroke-miterlimit="10" d="M327.1,607H338v21.5h0.2c1.1-1.9,2.2-3.6,3.3-5.3
		l11-16.1H366L350,627.7l16.9,27.9h-12.8l-11.9-21l-4.2,5.1v15.8h-10.9V607z"/>
	<path fill="none" stroke="#FFFFFF" stroke-width="7" stroke-miterlimit="10" d="M382.4,607v48.5h-11V607H382.4z"/>
	<path fill="none" stroke="#FFFFFF" stroke-width="7" stroke-miterlimit="10" d="M391.9,607h11v39.3h19.3v9.2h-30.3V607z"/>
	<path fill="none" stroke="#FFFFFF" stroke-width="7" stroke-miterlimit="10" d="M428.7,607h11v39.3H459v9.2h-30.3V607z"/>
	<path fill="none" stroke="#FFFFFF" stroke-width="7" stroke-miterlimit="10" d="M465.8,644.2c3,1.5,7.5,3,12.2,3
		c5,0,7.7-2.1,7.7-5.3c0-3-2.3-4.8-8.1-6.8c-8.1-2.8-13.3-7.3-13.3-14.3c0-8.3,6.9-14.6,18.4-14.6c5.5,0,9.5,1.2,12.4,2.4l-2.4,8.9
		c-1.9-0.9-5.4-2.3-10.2-2.3c-4.8,0-7.1,2.2-7.1,4.7c0,3.1,2.7,4.5,9,6.8c8.6,3.2,12.6,7.6,12.6,14.5c0,8.1-6.3,15-19.6,15
		c-5.5,0-11-1.4-13.8-3L465.8,644.2z"/>
</g>
<g enable-background="new    ">
	<path fill="#003366" d="M210.4,637c-0.2-5.8-0.4-12.9-0.4-19.9h-0.2c-1.5,6.2-3.5,13.1-5.4,18.8l-5.9,18.9h-8.6l-5.2-18.8
		c-1.6-5.7-3.2-12.6-4.4-18.9h-0.1c-0.3,6.6-0.5,14-0.9,20.1l-0.9,18.4h-10.2l3.1-48.5H186l4.8,16.2c1.5,5.6,3,11.7,4.1,17.4h0.2
		c1.4-5.6,3-12,4.6-17.4l5.2-16.1h14.3l2.7,48.5h-10.7L210.4,637z"/>
	<path fill="#003366" d="M241.5,655.5v-19.9L226.2,607h12.5l5,11.7c1.5,3.5,2.5,6.1,3.7,9.3h0.1c1.1-3,2.2-5.8,3.7-9.3l4.9-11.7
		h12.3l-16,28.3v20.2H241.5z"/>
	<path fill="#003366" d="M288.6,644.2c3,1.5,7.5,3,12.2,3c5,0,7.7-2.1,7.7-5.3c0-3-2.3-4.8-8.1-6.8c-8.1-2.8-13.3-7.3-13.3-14.3
		c0-8.3,6.9-14.6,18.4-14.6c5.5,0,9.5,1.2,12.4,2.4l-2.4,8.9c-1.9-0.9-5.4-2.3-10.2-2.3c-4.8,0-7.1,2.2-7.1,4.7c0,3.1,2.7,4.5,9,6.8
		c8.6,3.2,12.6,7.6,12.6,14.5c0,8.1-6.3,15-19.6,15c-5.5,0-11-1.4-13.8-3L288.6,644.2z"/>
	<path fill="#003366" d="M327.1,607H338v21.5h0.2c1.1-1.9,2.2-3.6,3.3-5.3l11-16.1H366L350,627.7l16.9,27.9h-12.8l-11.9-21l-4.2,5.1
		v15.8h-10.9V607z"/>
	<path fill="#003366" d="M382.4,607v48.5h-11V607H382.4z"/>
	<path fill="#003366" d="M391.9,607h11v39.3h19.3v9.2h-30.3V607z"/>
	<path fill="#003366" d="M428.7,607h11v39.3H459v9.2h-30.3V607z"/>
	<path fill="#003366" d="M465.8,644.2c3,1.5,7.5,3,12.2,3c5,0,7.7-2.1,7.7-5.3c0-3-2.3-4.8-8.1-6.8c-8.1-2.8-13.3-7.3-13.3-14.3
		c0-8.3,6.9-14.6,18.4-14.6c5.5,0,9.5,1.2,12.4,2.4l-2.4,8.9c-1.9-0.9-5.4-2.3-10.2-2.3c-4.8,0-7.1,2.2-7.1,4.7c0,3.1,2.7,4.5,9,6.8
		c8.6,3.2,12.6,7.6,12.6,14.5c0,8.1-6.3,15-19.6,15c-5.5,0-11-1.4-13.8-3L465.8,644.2z"/>
</g>
</svg>
