<?xml version="1.0" encoding="utf-8"?>
<!-- Generator: Adobe Illustrator 18.1.0, SVG Export Plug-In . SVG Version: 6.00 Build 0)  -->
<!DOCTYPE svg PUBLIC "-//W3C//DTD SVG 1.1//EN" "http://www.w3.org/Graphics/SVG/1.1/DTD/svg11.dtd">
<svg version="1.1" id="Layer_1" xmlns="http://www.w3.org/2000/svg" xmlns:xlink="http://www.w3.org/1999/xlink" x="0px" y="0px"
	 viewBox="34.7 277 612 612" enable-background="new 34.7 277 612 612" xml:space="preserve">
<g display="none">
	<rect x="33.3" y="277" display="inline" fill="#003366" width="618.5" height="638"/>
</g>
<g id="white_1_">
	<ellipse fill="#FFFFFF" cx="460.5" cy="672" rx="58.5" ry="55.7"/>
	<circle fill="#FFFFFF" cx="166.2" cy="566.6" r="65.5"/>
	<circle fill="#FFFFFF" cx="222.9" cy="655.9" r="53.7"/>
	<circle fill="#FFFFFF" cx="514.2" cy="588.8" r="61.5"/>
	<circle fill="#FFFFFF" cx="212.1" cy="467.5" r="61.8"/>
	<circle fill="#FFFFFF" cx="495.7" cy="484.6" r="57.9"/>
	<circle fill="#FFFFFF" cx="303.4" cy="413.2" r="59.5"/>
	<g>
		<circle fill="#FFFFFF" cx="411.7" cy="423" r="61.7"/>
	</g>
	<g id="white">
		<g>
			<ellipse fill="#FFFFFF" cx="345.9" cy="567.4" rx="114.6" ry="102.2"/>
			<g>
				<g>
					<path fill="#FFFFFF" d="M423.7,657.8c4.6,3.3,4.5,6.2,1.8,8.4c-5,4.1-18.4,5.2-24.2-0.6c3.8-11.2,5.9-23.8,5.9-37.1
						c0-9.4-1-18.4-3-26.7c6.2-7.4,16.1-15.7,19.4,1.1C428.7,628.1,407.4,646.3,423.7,657.8z"/>
					<g>
						<g>
							<path fill="#FFFFFF" d="M423.7,657.8c0.9,1.1,1.6,2,2.1,3.1c0.5,0.9,0.7,2,0.2,3.1c-0.1,0.3-0.5,0.8-0.9,1.3
								c-0.2,0.3-0.7,0.5-0.9,0.8l-0.2,0.1l-0.3,0.2c-0.2,0.1-0.6,0.3-0.8,0.4c-0.6,0.2-1,0.5-1.6,0.7c-0.3,0.1-0.6,0.2-0.8,0.3
								c-0.3,0.1-0.7,0.2-0.9,0.2c-0.7,0.2-1.3,0.3-2,0.4c-2.5,0.4-5.5,0.4-8.2-0.1c-0.7-0.1-1.4-0.3-2.1-0.5
								c-0.7-0.3-1.3-0.4-2-0.8c-0.7-0.3-1.2-0.7-1.7-0.9c-0.3-0.2-0.6-0.5-0.8-0.6l0,0c0.2-0.6,0.5-1.3,0.7-1.9
								c0.2-0.7,0.5-1.4,0.7-2c0.5-1.4,0.8-2.8,1.2-4.1c0.7-2.8,1.3-5.6,1.7-8.4c2-11.3,2-22.3,1.3-30.1c-0.3-4-0.8-7.3-1.2-9.6
								c-0.3-2.3-0.7-3.6-0.7-3.6s-0.1-0.3-0.2-0.9s-0.3-1.4-0.6-2.6l0,0c0.2-0.2,0.5-0.5,0.7-0.8c0.5-0.5,0.9-1.1,1.5-1.6
								c1.2-1.2,2.4-2.5,4-3.6c0.8-0.6,1.7-1.1,2.7-1.4c0.9-0.4,2-0.5,2.9-0.3c0.8,0.2,1.7,0.8,2.4,1.8c0.7,0.8,1.2,1.9,1.6,3.1
								c0.8,2.3,1.3,4.9,1.6,7.5c0.3,2.6,0.3,5.4,0.1,8.1c-0.5,5.5-2,11.1-3.6,16.5c-0.8,2.7-1.6,5.4-2.3,8
								c-0.3,1.4-0.6,2.7-0.8,4.1c-0.1,0.7-0.1,1.4-0.2,2c0,0.3,0,0.7,0,0.9s0,0.3,0,0.5v0.4c0.1,2.3,0.7,4.1,1,5
								c0.8,1.6,1.6,2.8,2.7,3.6c0.6,0.5,1,0.8,1.7,1.2C422.4,657.2,423,657.4,423.7,657.8c-0.5-0.6-0.8-1.1-1.3-1.5
								c-0.3-0.5-0.8-0.9-1-1.4c-0.7-0.9-1.3-2-1.8-3.4c-0.3-0.8-0.8-2.3-0.9-4.3v-0.3c0-0.2,0-0.3,0-0.5v-0.8
								c0-0.6,0.1-1.3,0.2-1.9c0.2-1.3,0.5-2.5,0.8-3.8c0.7-2.6,1.4-5.2,2.3-8c1.6-5.4,3.2-11.1,3.7-16.9c0.2-2.9,0.2-5.7-0.1-8.5
								c-0.3-2.8-0.8-5.4-1.7-8c-0.5-1.3-1-2.5-2-3.6c-0.8-1.2-2.2-2.1-3.8-2.5s-3.1-0.1-4.4,0.4s-2.3,1.2-3.2,1.8
								c-1.8,1.3-3.2,2.7-4.5,3.9c-0.7,0.6-1.2,1.2-1.6,1.8c-0.2,0.3-0.5,0.6-0.7,0.8c-0.2,0.3-0.5,0.5-0.7,0.8
								c0,0.3,0.1,0.6,0.2,0.8c0.2,1.2,0.5,2,0.6,2.6c0.1,0.6,0.2,0.8,0.2,0.8s0.2,1.3,0.7,3.5c0.3,2.2,0.8,5.4,1.2,9.4
								c0.7,7.8,0.7,18.6-1.3,29.7c-0.5,2.8-1,5.5-1.7,8.3c-0.3,1.4-0.8,2.7-1,4.1c-0.2,0.7-0.5,1.4-0.7,2c-0.2,0.8-0.5,1.4-0.8,2.2
								l-0.2,0.5l-0.1,0.3v0.1l0.1,0.1l0.8,0.8c0.5,0.3,0.7,0.6,0.9,0.8c0.7,0.5,1.4,0.8,2.2,1.3c0.8,0.4,1.5,0.6,2.3,0.8
								s1.5,0.4,2.4,0.6c3.1,0.6,6.2,0.5,9,0.1c0.8-0.1,1.4-0.2,2.2-0.4c0.3-0.1,0.7-0.2,1-0.3s0.7-0.2,0.9-0.3
								c0.7-0.2,1.3-0.5,2-0.8c0.3-0.2,0.7-0.3,0.8-0.5l0.5-0.3l0.2-0.2c0.5-0.4,0.9-0.6,1.3-0.9c0.8-0.7,1.2-1.4,1.4-1.9
								c0.5-0.9,0.5-1.9,0.2-2.7c-0.2-0.8-0.7-1.4-1-1.9C426.3,659,425.1,658.4,423.7,657.8z"/>
						</g>
					</g>
				</g>
				<g>
					<path fill="#FFFFFF" d="M407.4,628.6c0,13.2-2.2,25.8-5.9,37.1c-1.8-1.9-2.9-4.5-2.4-7.8v-48.6c0,0,2.3-3.6,5.5-7.4
						C406.3,610.2,407.4,619.2,407.4,628.6z"/>
					<g>
						<g>
							<path fill="#FFFFFF" d="M407.4,628.6c-0.8,2.7-1.2,4.6-1.4,7.7c0,0.4-0.1,1.1-0.1,1.9c0,0.4-0.1,0.8-0.1,1.4
								c0,0.3-0.1,0.7-0.1,1.1s-0.1,0.8-0.1,1.2c-0.1,0.8-0.2,1.6-0.3,2.5c-0.5,3.3-1,6.9-2,10.5c-0.5,1.9-0.8,3.6-1.4,5.5
								c-0.2,0.9-0.6,1.9-0.8,2.7l-0.1,0.3l0,0l0,0l0,0l0,0l0,0l0,0c0,0,0,0,0-0.1c-0.1-0.2-0.2-0.4-0.3-0.6
								c-0.3-0.8-0.6-1.5-0.7-2.5c0-0.4-0.1-0.8,0-1.3c0-0.2,0-0.4,0-0.6V658c0,0,0-0.2,0-0.3v-0.2c0-0.8,0-1.8,0-2.6
								c0-3.4,0-6.6,0-9.3c0-5.3,0-8.8,0-8.8s0-3.5,0-8.8c0-2.7,0-5.8,0-9.3c0-1.8,0-3.5,0-5.3c0-0.8,0-1.9,0-2.8c0-0.5,0-0.9,0-1.4
								l0,0c0,0,0,0,0.1-0.1l0.5-0.6c0.6-0.8,1-1.6,1.7-2.5l0.8-1.2l0.6-0.8c0-0.1,0,0,0,0l0,0l0.2,1.3c0.3,1.9,0.7,3.6,0.9,5.4
								c0.1,0.8,0.2,1.8,0.3,2.6c0,0.4,0.1,0.8,0.1,1.3c0,0.4,0.1,0.8,0.1,1.2c0.2,2.1,0.3,3.9,0.5,4.7
								C406.2,624,406.6,625.9,407.4,628.6c0.8-2.7,1-4.6,0.9-7.8c0-0.8-0.2-2.6-0.5-4.8c0-0.4-0.1-0.8-0.1-1.2s-0.1-0.8-0.1-1.3
								c-0.1-0.8-0.2-1.8-0.3-2.7c-0.2-1.9-0.6-3.6-0.9-5.5c-0.1-0.5-0.2-1.1-0.3-1.5c-0.2-0.9-0.5-1.9-0.7-2.8l-0.3-1.4v-0.2v-0.1
								c0,0,0-0.1,0,0l-0.2,0.3l-0.5,0.6l-1.8,2.2l-0.8,0.9l-0.5,0.6l-0.8,1.3c-0.6,0.8-1.2,1.6-1.7,2.5l-0.5,0.6l-0.3,0.5
								c-0.1,0.1-0.1,0.2-0.1,0.3v0.4c0,0.5,0,0.9,0,1.4c0,0.9,0,1.9,0,2.8c0,1.9,0,3.6,0,5.3c0,3.4,0,6.6,0,9.3c0,5.3,0,8.8,0,8.8
								s0,3.5,0,8.8c0,2.7,0,5.8,0,9.3c0,0.8,0,1.8,0,2.6v0.2v0.1v0.4c0,0.2,0,0.5,0,0.7c0,0.5,0,0.9,0.1,1.4c0.1,0.9,0.3,2,0.8,3
								c0.1,0.3,0.2,0.5,0.3,0.7c0,0,0.1,0.1,0.1,0.3l0.2,0.3c0.1,0.2,0.2,0.4,0.5,0.6c0.6,0.8,1.2,1.4,1.7,1.9
								c0.1,0.2,0.3,0.4,0.5,0.5l0.2-0.6l0.5-1.3l0.5-1.3l0.2-0.6c0-0.1,0.1-0.2,0.1-0.2v-0.2c0.3-0.9,0.6-1.9,0.8-2.8
								c0.6-1.9,0.9-3.8,1.4-5.6c0.8-3.8,1.5-7.4,2-10.7c0.1-0.8,0.2-1.6,0.3-2.5c0-0.4,0.1-0.8,0.1-1.2s0.1-0.7,0.1-1.1
								c0-0.5,0.1-0.9,0.1-1.4c0.1-0.8,0.1-1.4,0.1-1.9C408.4,633.1,408.1,631.3,407.4,628.6z"/>
						</g>
					</g>
				</g>
				<g>
					<path fill="#FFFFFF" d="M398.8,657.8v-48.6c0,0,2.3-3.6,5.5-7.4c-3.6-12.4-9.1-26.7-18-38.2c-10.7-13.5-24.9-21.7-40.5-22.1
						c-0.5,0-0.8,0-1.3,0c-3.2,0-6.3,0.4-9.4,0.9c-7.5,6.9-19.1,12.1-25.7,19.1c-8.6,8.6,3.9,16.3,4.8,25c0,4.3-9.6,7.7-10.5,10.3
						c-0.9,2.6-0.7,4.8,0.7,6.9c6-2.5,19.4-6.1,31.5,1.4h-30.3c4.6,4.9,15.1,7.4,23,8.1c0.9,0-2,0.8-2,2.6c-5.7,0-10.5,4.3-12.4,9.5
						c11.5,1.8,19.1,11.2,16.2,21.6c0.9,0,2.9,0,2.9,0c2,8.6-7.6,16.3,6.7,19.8c2.9,0.8,7.6,0,8.6,1.8c4.8,6-2.9,8.6-8.6,12.1
						c-3.9,2.6-0.9,4.3-2,6c2.9,0.8,2.9,4.3,5.7,5.2c-0.1,0.4-0.3,0.8-0.6,1.2c0.5,0,0.8,0,1.3,0c16.9,0,33.2-2.8,47.9-7.8
						c3.6-5.8,6.5-12.2,8.8-19.1C399.5,663.8,398.5,661.2,398.8,657.8z"/>
					<g>
						<g>
							<path fill="#FFFFFF" d="M398.8,657.8c0.7-2.5,1-4.1,1-6.9v-9v-18.4v-9.6v-2.5v-1.3v-0.7c0-0.1,0,0,0-0.1c0.9-1.4,2-2.8,3-4.1
								c0.6-0.7,1-1.4,1.6-2l0.6-0.7c0.1-0.2,0.3-0.3,0.5-0.5l-0.2-0.6l-0.5-1.4c-0.6-1.6-0.9-3.3-1.6-4.9c-1-3.3-2.4-6.7-3.8-10
								c-2.8-6.6-6.1-13.1-10.3-19.2c-1-1.5-2.2-3.1-3.5-4.5c-1.2-1.4-2.4-2.8-3.9-4.1c-2.7-2.7-5.7-5.2-8.8-7.4
								c-6.3-4.5-13.8-7.6-21.8-8.8c-4-0.6-7.9-0.6-11.9-0.2c-0.9,0.1-2,0.3-2.9,0.4l-0.8,0.1l-0.8,0.2l-0.3,0.1l-0.2,0.2l-0.3,0.3
								l-0.6,0.5c-1.3,1.2-2.8,2.2-4.2,3.3c-5.8,4.1-12.1,7.6-17.5,12.2c-1.3,1.2-2.5,2.3-3.8,3.6c-1.2,1.3-2.2,2.9-2.4,4.6
								c-0.5,1.6-0.2,3.4,0.2,4.9c0.5,1.5,1.2,3,2,4.3c1.5,2.7,3.2,5.2,4.3,7.6c0.3,0.6,0.6,1.3,0.7,1.9c0.1,0.3,0.2,0.6,0.2,0.9
								l0.1,0.5v0.2c0,0.1,0,0,0,0.1c0,0.9-0.8,2-1.8,2.9c-2,1.8-4.4,3.1-6.6,4.7c-0.6,0.4-1,0.8-1.6,1.4c-0.1,0.2-0.2,0.3-0.3,0.5
								c-0.1,0.1-0.1,0.2-0.1,0.3l-0.1,0.3c-0.1,0.3-0.2,0.6-0.3,0.9c-0.3,1.3-0.3,2.6,0,3.9c0.1,0.3,0.2,0.6,0.3,0.8l0.2,0.5
								c0.1,0.1,0.1,0.3,0.3,0.6c0.3,0.5,0.6,0.9,0.8,1.4l1.7-0.7c1.2-0.4,2.2-0.8,3.2-1.1c2.2-0.6,4.2-1.1,6.1-1.3
								c6.3-0.8,11.5,0.2,14.7,1.4c0.8,0.3,1.5,0.6,2.2,0.8l0.2,0.1l0,0l0,0h-0.5h-14.7h-5h-2.7h-0.4H308h-0.7l-2.5,0.1h-1.3h-0.2
								h-0.1c0,0,0,0,0,0.1l0.2,0.2l0.5,0.5l0.8,0.8l0.9,0.8l1,0.8l0.7,0.4c0.5,0.3,0.8,0.6,1.3,0.8c1.8,1.1,3.8,1.9,5.8,2.6
								c4.2,1.4,8.7,2.3,13.6,2.7h0.1h0.1c0.2,0,0,0,0.1,0c0,0,0,0,0-0.1v-0.3c0-0.1,0-0.1,0-0.2c0-0.1,0-0.1,0-0.2v-0.1
								c0-0.1,0.1-0.1,0-0.1c0,0-0.1,0-0.2-0.1l-0.1-0.1l-0.2-0.2c-0.1-0.1-0.1-0.1-0.2-0.2l0,0l0,0l-0.1,0.1
								c-0.2,0.2-0.6,0.4-0.8,0.6c-0.2,0.2-0.6,0.5-0.8,0.8c-0.1,0.2-0.2,0.3-0.3,0.5l-0.1,0.2l0,0h-0.4l-0.6,0.1
								c-0.7,0.1-1.4,0.2-2.1,0.4c-2.5,0.8-5,2.3-6.7,4.3l0,0c-0.8,0.9-1.6,2-2.3,3.2c-0.2,0.3-0.3,0.6-0.6,0.9
								c-0.2,0.6-0.6,1.3-0.8,1.9l-0.1,0.2v0.1c0,0,0,0,0.1,0h0.1l0.6,0.1l1,0.2l0.6,0.1l0.2,0.1l0.6,0.1c1.4,0.3,2.7,0.8,4,1.4
								c2.5,1.2,4.8,2.9,6.7,5c1.5,1.9,2.5,4.1,3.1,6.3c0.2,1.2,0.3,2.3,0.3,3.6c0,0.6-0.1,1.2-0.2,1.9l-0.1,0.5l-0.1,0.6l-0.6,1.9
								c0,0.1,0,0,0.1,0h0.1h0.2h0.6h1h1.2l0,0v0.4c0.1,1.2,0,2.5-0.1,3.6c-0.2,1.3-0.6,2.5-0.8,3.8c-0.3,1.3-0.7,2.6-0.7,4.1
								c0,0.9,0.1,2,0.7,3c0.7,1.3,1.8,2.3,3,3c1.3,0.7,2.5,1.2,3.9,1.5c0.7,0.2,1.2,0.4,2.1,0.5c0.8,0.1,1.4,0.2,2.2,0.3
								c1.4,0.1,2.7,0.1,3.9,0.3c0.6,0.1,1,0.3,1.2,0.5c0.3,0.5,0.7,0.8,0.9,1.4c0.6,0.9,0.7,1.9,0.3,2.8c-0.3,0.8-1.2,1.8-2.2,2.5
								c-0.9,0.7-2.1,1.4-3.2,2c-1.1,0.7-2.3,1.3-3.5,1.9c-0.3,0.2-0.7,0.3-0.9,0.6c-0.3,0.2-0.6,0.5-0.8,0.7c-0.6,0.5-1,1.2-1.3,2
								c-0.2,0.8,0,1.6,0.1,2.2c0.1,0.3,0.1,0.6,0.1,0.8v0.1c0,0,0,0.1-0.1,0.3c-0.1,0.3-0.3,0.7-0.6,0.9c-0.1,0.1,0,0.1,0.1,0.1
								l0.2,0.1l0.6,0.2c0.2,0.1,0.3,0.1,0.5,0.2c0.1,0.1,0.3,0.1,0.3,0.2c0.2,0.1,0.5,0.3,0.6,0.5c0.3,0.4,0.7,0.8,1,1.4
								c0.3,0.5,0.8,1.1,1.2,1.6c0.2,0.3,0.6,0.6,0.8,0.8l0.2,0.2l0.2,0.1l0,0l0,0l-0.1,0.2v0.1c0.5,0.6-0.9-1.3,0.9,1.3l0,0l0,0
								h0.1h0.2c0.7,0,1.4,0,2.1,0c2.7,0,5.4-0.1,8.2-0.3c2.9-0.2,5.8-0.4,8.7-0.8l1.5-0.2l0,0c6.9-0.8,13.5-2.2,19.9-4
								c1.6-0.5,3.2-0.8,4.7-1.4l2.4-0.8l1.2-0.4l0.8-0.3c0.1,0,0.1-0.1,0.2-0.2l0.1-0.2l0.2-0.4c1.6-2.6,3-5.2,4.2-8
								c1.3-2.6,2.4-5.3,3.3-8l0.2-0.7l0.3-0.9l0.3-0.9l0.2-0.8v-0.1l-0.1-0.1l-0.1-0.1l-0.2-0.3l-0.2-0.3l-0.1-0.1l-0.2-0.2
								c-0.1-0.1-0.2-0.3-0.3-0.4c-0.8-1.1-1.2-2-1.5-3C399.4,660,399.1,659,398.8,657.8c-0.5,1.2-0.7,2.2-0.7,3.4s0.3,2.5,1.3,3.8
								c0.1,0.1,0.2,0.3,0.3,0.5l0.3,0.4l0,0l-0.2,0.8l-0.3,0.9l-0.2,0.7c-0.9,2.6-2.1,5.2-3.3,7.8c-1.2,2.6-2.5,5.2-4,7.7l-0.1,0.1
								l0,0l-0.2,0.1l-1.2,0.4l-2.3,0.8c-1.5,0.5-3.1,0.9-4.7,1.4c-6.3,1.8-12.9,3-19.7,3.9l0,0l-1.4,0.2c-2.8,0.3-5.7,0.6-8.6,0.8
								c-2.7,0.2-5.4,0.3-7.9,0.3c-0.7,0-1.3,0-2.1,0h-0.2h0.1l0,0l0,0c2,2.6,0.6,0.7,0.9,1.3V693l0.3-0.7l0.3-0.8
								c0-0.1,0.1-0.3,0.1-0.4l-0.6-0.2c-0.3-0.1-0.7-0.2-0.9-0.4l-0.2-0.1l-0.1-0.1c-0.2-0.1-0.5-0.3-0.6-0.5
								c-0.3-0.4-0.7-0.8-1-1.4c-0.3-0.5-0.8-1.1-1.3-1.6c-0.3-0.3-0.7-0.5-0.9-0.8l-0.1-0.1l0,0l0,0l0,0v-0.2c0-0.1,0-0.2,0-0.3
								c0-0.4-0.1-0.8-0.2-1.1c-0.1-0.6-0.2-1.1-0.1-1.4c0.2-0.8,1-1.5,2.2-2.1c1-0.7,2.3-1.3,3.5-1.9c1.2-0.7,2.4-1.4,3.5-2.1
								c1-0.8,2.3-1.9,2.8-3.3c0.3-0.7,0.5-1.4,0.3-2.2c-0.1-0.8-0.3-1.4-0.7-2c-0.3-0.6-0.8-1.2-1.2-1.8c-0.3-0.4-0.8-0.7-1.2-0.8
								c-0.5-0.2-0.8-0.3-1.2-0.3c-1.5-0.3-2.8-0.2-4-0.3c-0.7,0-1.3-0.1-1.8-0.2c-0.6-0.1-1.3-0.3-1.8-0.5
								c-2.4-0.7-4.8-1.8-5.7-3.5c-0.3-0.7-0.5-1.4-0.5-2.2c0-2.5,0.9-4.9,1.4-7.6c0.2-1.4,0.3-2.7,0.1-4.1v-0.3c0-0.1,0-0.2,0-0.4
								l-0.2-0.9l-0.1-0.5c0-0.1-0.1-0.1-0.2-0.1h-0.2h-1h-0.9l0,0c0,0.1,0-0.2,0.1-0.3l0.1-0.5c0.1-0.7,0.2-1.4,0.2-2
								c0-1.4-0.1-2.7-0.3-4c-0.6-2.6-1.7-5-3.5-7.1c-2-2.5-4.5-4.3-7.4-5.6c-1.4-0.7-2.9-1.2-4.4-1.5l-0.8-0.2l0,0l0,0
								c0.1-0.2,0.2-0.6,0.5-0.8c0.6-1.1,1.2-1.9,2.1-2.8l0,0c1.5-1.8,3.6-3.1,5.7-3.6c0.6-0.2,1-0.3,1.6-0.4h0.5h0.8h0.9h0.2
								c0.1,0,0-0.1,0-0.2v-0.5c0-0.3,0.1-0.7,0.1-0.6c0-0.1,0.1-0.1,0.1-0.2c0.1-0.2,0.2-0.3,0.5-0.5c0.2-0.2,0.5-0.3,0.7-0.5
								l0.2-0.1c0.1-0.1,0.1-0.1,0.3-0.3c0,0,0-0.1,0.1-0.2s0.1-0.1,0.1-0.4c0-0.3-0.1-0.5-0.2-0.7c-0.1-0.2-0.5-0.3-0.5-0.3
								c-0.1,0-0.1-0.1-0.2-0.1h-0.1c-0.1,0-0.1,0-0.2,0c0,0-0.1,0-0.2,0c-4.7-0.4-9.1-1.3-13.1-2.6c-2-0.7-3.9-1.4-5.5-2.5
								c-0.5-0.2-0.8-0.5-1.2-0.8l-0.7-0.4l0,0h8.7h14.7l6.9-0.1h0.6c0.1,0,0,0,0,0l-0.1-0.1l-0.2-0.1l-0.7-0.4l-0.6-0.3
								c0,0-0.7-0.4-2.1-1.3c-0.3-0.2-0.8-0.4-1.3-0.7c-0.2-0.1-0.6-0.3-0.8-0.4c-0.2-0.1-0.7-0.3-0.8-0.3c-0.7-0.3-1.4-0.6-2.3-0.8
								c-3.5-1.3-8.9-2.3-15.7-1.4c-2.1,0.3-4.3,0.7-6.6,1.4c-1,0.3-2.3,0.7-3.3,1.1l0,0l-0.1-0.2l-0.1-0.4
								c-0.1-0.2-0.2-0.5-0.2-0.7c-0.2-0.9-0.2-2,0-3.1c0.1-0.3,0.1-0.5,0.2-0.8l0.1-0.2v-0.1c0-0.1,0.1-0.2,0.2-0.3
								c0.3-0.4,0.8-0.8,1.3-1.2c2.1-1.5,4.5-2.9,6.8-4.8c0.6-0.5,1-1.1,1.5-1.8c0.5-0.7,0.8-1.4,0.8-2.3c0-0.1,0-0.3,0-0.4v-0.3
								l-0.1-0.6c-0.1-0.4-0.1-0.8-0.2-1.1c-0.2-0.7-0.5-1.4-0.8-2.1c-1.2-2.7-2.9-5.2-4.4-7.8c-1.4-2.5-2.7-5.3-2.1-8
								c0.3-1.4,1-2.6,2.1-3.8c1-1.2,2.3-2.3,3.6-3.4c5.1-4.2,11.4-7.7,17.4-12.1c1.5-1.1,3-2.2,4.4-3.4c0.3-0.3,0.8-0.8,0.7-0.6
								l0.6-0.1l0.7-0.1c0.9-0.2,1.8-0.3,2.8-0.4c3.8-0.4,7.5-0.4,11.3,0.2c7.5,1.1,14.7,4.1,20.9,8.4c3.1,2.1,5.9,4.6,8.6,7.1
								c2.5,2.6,5.1,5.4,7.1,8.4c4.2,6,7.4,12.4,10.2,19c1.4,3.3,2.5,6.6,3.7,9.8c0.6,1.6,1,3.3,1.5,4.9l0.3,1.2l0,0l0,0l-0.1,0.1
								l-0.2,0.3c-0.6,0.7-1,1.4-1.6,2.1c-1,1.4-2.1,2.8-3,4.3l-0.3,0.5c-0.1,0.2,0,0.5,0,0.6v0.6v1.3v2.5v9.6v18.4v9
								C397.9,653.7,398.2,655.3,398.8,657.8z"/>
						</g>
					</g>
				</g>
				<g>
					<path fill="#FFFFFF" d="M338.1,686.3c0.9-1.8-2-3.5,2-6c5.7-3.5,13.5-6,8.6-12.1c-0.9-1.8-5.7-0.8-8.6-1.8
						c-14.4-3.5-4.8-11.2-6.7-19.8c0,0-2,0-2.9,0c2.9-10.3-4.8-19.8-16.2-21.6c2-5.2,6.7-9.5,12.4-9.5c0-1.8,2.9-2.6,2-2.6
						c-7.8-0.6-18.3-3.2-23-8.1h-4.4c0,0,1.2-0.7,3.2-1.4c-1.3-1.9-1.6-4.2-0.7-6.9c0.9-2.6,10.5-6,10.5-10.3
						c-0.9-8.6-13.5-16.3-4.8-25c6.6-7.1,18.2-12.2,25.7-19.1c-22.2,4.7-40.7,25.6-48.7,53.9c-0.2,0.6-0.3,1.3-0.6,1.9
						c3.6,4.1,6.1,8.2,6.1,8.2v48.6c0.6,4.6-1.4,7.6-4.5,9.5c2.4,7.4,5.5,14.1,9.1,20.2c14.4,5,30.2,7.8,46.9,8
						c0.2-0.4,0.3-0.8,0.6-1.2C341,690.6,341,687.1,338.1,686.3z"/>
					<g>
						<path fill="#FFFFFF" d="M338.1,686.3c0.5-0.5,0.6-1.2,0.6-1.8s0-1.1,0.1-1.4c0.1-0.4,0.3-0.7,0.7-1.1c0.3-0.4,0.8-0.8,1.4-1.1
							l1.3-0.8l0.9-0.5l0.8-0.5c1.2-0.7,2.4-1.4,3.7-2.2c1.2-0.8,2.4-1.9,3.2-3.4c0.3-0.8,0.6-1.6,0.5-2.5s-0.5-1.5-0.8-2.3
							c-0.2-0.4-0.5-0.7-0.7-0.9l-0.2-0.2v-0.1l0,0c0-0.1-0.1-0.1-0.1-0.2c-0.2-0.3-0.5-0.5-0.7-0.6c-0.9-0.6-1.8-0.7-2.7-0.8
							c-1.6-0.2-3.2-0.1-4.6-0.4c-0.3-0.1-0.7-0.1-1-0.2c-0.5-0.1-0.8-0.2-1.2-0.3c-0.8-0.2-1.5-0.5-2.2-0.8
							c-1.4-0.6-2.5-1.4-3.3-2.3c-0.8-1.1-0.8-2.3-0.7-3.8c0.3-2.8,1.5-5.8,1.6-9.1c0-0.4,0-0.8,0-1.3c0-0.2,0-0.4-0.1-0.6
							c0-0.1,0-0.3-0.1-0.5l-0.1-0.6c0.1-1.1-1-0.7-1.8-0.8h-0.8l0,0l0.1-0.6c0.1-0.8,0.2-1.6,0.2-2.5c0.1-3.3-0.8-6.7-2.8-9.6
							c-2-2.9-4.7-5.2-8.1-6.9c-1.6-0.8-3.5-1.4-5.3-1.8l-0.3-0.1l0,0l0.2-0.4c0.1-0.2,0.2-0.4,0.3-0.5c0.2-0.4,0.5-0.7,0.7-0.9
							c1.4-2.2,3.6-4.1,6.1-5.2c0.7-0.3,1.3-0.5,2-0.6c0.3-0.1,0.7-0.1,0.9-0.1h0.3h0.6h0.6h0.3h0.1v-0.1c0-0.4,0-0.8,0.1-1.1
							c0-0.1,0.1-0.2,0.1-0.3c0.1-0.2,0.3-0.4,0.6-0.6c0.1-0.1,0.2-0.2,0.5-0.3c0.1-0.1,0.2-0.2,0.6-0.4c0,0,0,0,0.1-0.1
							c0-0.1,0,0,0.1-0.2c0-0.1,0.1-0.1,0.1-0.2v-0.1c0,0,0-0.1,0-0.2c0-0.2,0-0.3-0.1-0.5c-0.1-0.1-0.1-0.2-0.2-0.3
							c-0.1,0-0.1-0.1-0.2-0.1h-0.2c0,0-0.1,0-0.1-0.1c-0.1,0-0.1,0-0.2,0s-0.2,0-0.2,0h-0.2h-0.6c-1.3-0.1-2.5-0.3-3.9-0.5l0,0
							c-5.1-0.8-10.1-2.2-14.3-4.7c-1-0.6-2.1-1.3-2.8-2c-0.1-0.1-0.2-0.2-0.3-0.3l-0.3-0.3l-0.1-0.2l-0.1-0.1H306h-1.3h-2h-0.9
							h-0.5h-0.1c-0.1-0.4,1,3.3,0.6,1.8l0,0l0,0l0,0l0.1-0.1l0.2-0.1c0.6-0.3,1-0.5,1.6-0.8l0.7-0.3l0.8-0.4l0.5-0.2
							c0.1-0.1,0.5-0.1,0.2-0.2l-0.5-0.8c-0.1-0.3-0.3-0.5-0.5-0.8c0-0.1-0.1-0.2-0.1-0.4c-0.1-0.2-0.2-0.5-0.2-0.7l0,0
							c-0.3-0.9-0.3-2-0.1-3c0.1-0.3,0.1-0.6,0.2-0.8l0.1-0.4c0-0.1,0.1-0.2,0.1-0.3c0.3-0.4,0.8-0.8,1.3-1.3c1-0.8,2.3-1.5,3.5-2.3
							c1.2-0.8,2.4-1.6,3.3-2.6c1-0.9,2.1-2.2,2.3-3.9c0-0.1,0-0.2,0-0.3c0-0.2,0-0.3,0-0.4s0-0.3-0.1-0.5c-0.1-0.3-0.1-0.7-0.2-0.9
							c-0.2-0.7-0.5-1.3-0.7-1.9c-0.6-1.3-1-2.3-1.7-3.5c-1.3-2.2-2.5-4.2-3.7-6.3c-1.1-2-1.7-4.1-1.4-6.1c0.2-1.9,1.4-3.6,2.9-5.2
							c3-3.1,6.5-5.5,9.7-7.6s6.3-4.1,9-5.9c0.7-0.5,1.3-0.9,2-1.4l0.9-0.7l1.2-0.8l1.6-1.3l1.4-1.3l1.3-1.2l0.7-0.6l0.3-0.3
							l0.1-0.1l0,0l0,0h-0.1l-3.2,0.7l-1.5,0.4h-0.9l-0.8,0.2l-1.5,0.4l-0.8,0.3l-1.3,0.5c-1.6,0.6-2.7,1.1-3.5,1.4l-0.7,0.3
							c0,0-1.3,0.6-3.5,1.8c-2.3,1.3-5.4,3.2-8.9,6.1c-3.6,2.9-7.5,6.8-11.2,11.7c-3.8,4.9-7.3,10.7-10.3,17.4
							c-1.5,3.4-2.9,6.9-4,10.7c-0.3,0.9-0.7,1.9-0.8,2.8l-0.5,1.4l-0.2,0.7l-0.2,0.6l-0.1,0.4c0,0.1,0.1,0.2,0.2,0.3l0.8,0.8
							l0.6,0.6l0.9,1.2c0.7,0.8,1.3,1.6,1.8,2.5c0.7,0.8,1.2,1.8,1.7,2.5l0.2,0.3l0,0v0.6v1.5v6.3v12.9v26.6v0.4v0.3v0.2
							c0,0.3,0,0.5,0,0.8c0,0.5,0,1.1-0.1,1.5c-0.1,1.1-0.5,2-0.9,2.9c-0.6,0.8-1.2,1.6-2.1,2.3l-0.3,0.3l-0.2,0.1l-0.5,0.3
							c-0.2,0.2-0.6,0.3-0.8,0.5l0.2,0.8l0.7,1.9c1.5,4.3,3.3,8.6,5.4,12.7c0.7,1.4,1.4,2.6,2.2,3.9l0.6,0.9l0.3,0.5l0.2,0.4
							l0.1,0.2c0,0.1,0.2,0.1,0.2,0.1l2.4,0.8c3,0.9,6,1.9,9,2.6c6,1.5,12,2.7,18.1,3.4c3,0.4,5.9,0.7,8.8,0.8
							c1.5,0.1,2.9,0.2,4.3,0.2l2.1,0.1h1.2h1.4h0.6h0.2c0.1,0,0.1-0.1,0.1-0.2l0.5-1.1l0.6-1.4c0.1-0.1-0.1-0.1-0.2-0.2l-0.3-0.1
							c-0.2-0.1-0.5-0.1-0.6-0.2l-0.3,1c-0.1,0-0.2-0.1-0.2-0.1c-0.1,0-0.1-0.1-0.2-0.1c-0.1-0.1-0.2-0.2-0.3-0.2
							c-0.2-0.2-0.5-0.4-0.7-0.6l-1.2-1.3c-0.5-0.4-0.8-0.8-1.4-1.2C339.5,686.5,338.8,686.3,338.1,686.3c1.2,0.7,1.5,1.6,2,2.5
							c0.2,0.5,0.5,0.9,0.8,1.5c0.2,0.3,0.5,0.6,0.8,0.8c0.1,0.1,0.3,0.3,0.6,0.4c0.1,0.1,0.2,0.1,0.3,0.2c0.1,0.1,0,0,0,0l0,0l0,0
							l0,0l0,0l0,0l0,0l0.1-0.3l0,0l0,0l0,0l0,0h-0.8h-1.2l-2.1-0.1c-1.4-0.1-2.8-0.1-4.3-0.2c-2.9-0.2-5.8-0.5-8.7-0.8
							c-5.8-0.8-11.9-1.9-17.7-3.4c-3-0.8-5.9-1.6-8.8-2.6l-2-0.7l-0.8-1.4c-0.8-1.3-1.4-2.5-2.1-3.8c-2.1-4-3.8-8.2-5.3-12.4
							l-0.5-1.4l0,0l0,0l0.2-0.1l0.5-0.3c1-0.8,2-1.9,2.5-2.9c0.6-1,0.9-2.3,1.2-3.5c0.1-0.6,0.1-1.3,0.1-1.9c0-0.3,0-0.6,0-0.8
							v-0.2c0-0.1,0,0,0-0.1v-0.6V628v-12.9v-6.3v-1.5v-1v-0.2c0-0.1-0.1-0.1-0.1-0.2l-0.2-0.3l-0.2-0.3c-0.6-0.8-1.2-1.8-1.8-2.6
							c-0.7-0.8-1.3-1.8-2-2.5l-0.9-1.3l-0.8-0.9l0,0l0,0l0.2-0.7l0.5-1.4c0.3-0.9,0.6-1.9,0.8-2.8c1.2-3.6,2.5-7.1,4-10.4
							c3-6.6,6.5-12.3,10.1-17.1c3.7-4.7,7.5-8.5,10.9-11.4c3.5-2.8,6.5-4.7,8.6-5.9c2.2-1.2,3.3-1.6,3.3-1.6l0.7-0.3
							c0.7-0.3,1.7-0.8,3.2-1.3l1.3-0.4l0.7-0.2l0,0l0,0l-0.6,0.4l-0.8,0.7c-0.7,0.5-1.3,0.8-2,1.4c-2.7,1.9-5.7,3.8-9,5.9
							c-3.2,2.2-6.9,4.7-10,8c-1.6,1.5-3.1,3.6-3.5,6.2c-0.3,2.5,0.6,4.9,1.6,7c1,2.2,2.4,4.2,3.7,6.3c0.7,1.1,1.2,2.1,1.6,3.2
							c0.2,0.6,0.5,1.1,0.6,1.6c0.1,0.3,0.1,0.6,0.2,0.8c0,0.1,0,0.3,0.1,0.4c0,0.1,0,0.1,0,0.1c0,0.1,0,0.1,0,0.2
							c-0.1,0.8-0.8,1.9-1.7,2.7c-0.8,0.8-2.1,1.6-3.1,2.5c-1.2,0.8-2.4,1.5-3.6,2.5c-0.6,0.5-1.2,0.8-1.7,1.6
							c-0.1,0.2-0.2,0.4-0.3,0.6c-0.1,0.2-0.1,0.4-0.2,0.6c-0.1,0.4-0.2,0.7-0.3,1.1c-0.2,1.3-0.2,2.6,0.1,3.9l0,0
							c0.1,0.3,0.2,0.6,0.3,0.8c0.1,0.2,0.1,0.3,0.2,0.5l0,0l0,0l-0.2,0.1c-0.6,0.3-1.2,0.5-1.7,0.8l-0.2,0.1l-0.1,0.1l0,0l0,0l0,0
							c-0.6-1.5,0.7,2.1,0.6,1.8h0.1h0.5h0.9h2h0.6l0,0c0,0.1,0.2,0.2,0.3,0.3c0.9,0.8,2.1,1.6,3.2,2.3c2.3,1.4,4.7,2.3,7.3,3.1
							c2.5,0.8,5.2,1.4,7.7,1.9l0,0c1.3,0.2,2.7,0.4,4,0.5l0.6,0.1h0.1h0.1h0.1l0,0c0,0,0,0,0-0.1v-0.3c0-0.1,0-0.1,0-0.2
							c0-0.2,0-0.2,0.1-0.3c0.1,0-0.2,0-0.5-0.4c-0.1-0.1-0.2-0.2-0.2-0.2c0-0.1,0,0,0,0l0,0l-0.1,0.1l-0.2,0.2
							c-0.1,0.1-0.3,0.2-0.6,0.4c-0.3,0.3-0.7,0.6-0.9,0.9c-0.1,0.2-0.3,0.4-0.3,0.7l0,0l0,0h-0.3c-0.5,0-0.8,0.1-1.3,0.2
							c-0.8,0.2-1.6,0.4-2.4,0.7c-3,1.3-5.4,3.4-7.1,5.9c-0.2,0.4-0.5,0.8-0.7,1.2c-0.1,0.2-0.2,0.4-0.3,0.6l-0.3,0.7l-0.5,1.2
							l-0.2,0.6l-0.1,0.1c0,0-0.1,0.1,0,0.1l0.3,0.1l1.3,0.2l0.7,0.1l0.3,0.1c1.6,0.4,3.2,0.8,4.7,1.6c3,1.4,5.6,3.6,7.3,6.2
							c1.7,2.6,2.5,5.6,2.5,8.5c0,0.8-0.1,1.4-0.2,2.2l-0.1,0.6c-0.1,0.4-0.2,0.8-0.3,1.2l-0.1,0.6l-0.1,0.3v0.1h0.1h1.3h1.8l0,0
							v0.1c0,0.2,0,0.4,0.1,0.6c0,0.4,0,0.7,0,1.1c0,1.4-0.3,2.9-0.7,4.3c-0.3,1.4-0.8,3-0.9,4.6c-0.1,0.8-0.1,1.6,0,2.5
							c0.1,0.8,0.5,1.8,0.9,2.5c1,1.5,2.7,2.5,4.2,3.1c0.8,0.3,1.6,0.6,2.4,0.8c0.5,0.1,0.8,0.2,1.2,0.3s0.8,0.2,1.3,0.3
							c1.7,0.3,3.3,0.2,4.7,0.4c0.8,0.1,1.4,0.2,1.7,0.4c0.1,0.1,0.1,0.1,0.1,0.1l0,0l0.1,0.1v0.1l0.1,0.2c0.2,0.3,0.3,0.5,0.6,0.8
							c0.7,1.1,0.8,2.1,0.3,3.1c-0.5,0.9-1.5,1.9-2.5,2.6c-1,0.8-2.3,1.4-3.6,2.1l-0.8,0.5l-0.9,0.5c-0.6,0.3-1,0.6-1.4,0.8
							c-0.8,0.5-1.3,0.9-1.8,1.6c-0.5,0.6-0.7,1.4-0.7,2s0.3,1.2,0.6,1.8C338.1,685.2,338.2,685.7,338.1,686.3z"/>
					</g>
				</g>
				<g>
					<path fill="#FFFFFF" d="M404.4,601.8c-3.6-12.4-9.1-26.7-18-38.2C394.6,573.7,400.9,586.9,404.4,601.8z"/>
					<g>
						<path fill="#FFFFFF" d="M404.4,601.8c0-2.5-0.2-4.1-1-6.9l-0.6-1.6l-0.5-1.2l-0.9-2.6c-1.4-3.8-3.2-8.1-5.3-12.2
							c-2.1-4.1-4.3-7.8-6.1-10.5c-0.8-1.4-1.7-2.5-2.3-3.2l-0.3-0.5l0,0l0,0c0.3-0.2-3.2,2-1.7,1.1l0,0l0,0v0.1l0.1,0.1l0.1,0.2
							l0.2,0.3c0,0,1.3,1.6,3.1,4.2c1.8,2.6,4,6.3,6,10.3c2.1,4,3.8,8.3,5.1,12c0.7,1.9,1,3.3,1.3,4.1
							C402.3,598,403.1,599.5,404.4,601.8c0.1-2.5,0-4.1-0.8-6.9c-0.2-0.8-0.7-2.3-1.3-4.1c-1.3-3.6-3.1-8.1-5.2-12.2
							s-4.3-7.8-6.2-10.5c-1.8-2.7-3.2-4.3-3.2-4.3l-0.2-0.3l-0.1-0.2l-0.1-0.1v-0.1l0,0l0,0c1.5-0.9-2.1,1.4-1.7,1.1l0,0l0,0
							l0.3,0.5c0.6,0.8,1.3,1.9,2.3,3.1c1.8,2.6,4,6.3,6,10.3c2.1,4,3.9,8.3,5.3,12l0.9,2.6l0.5,1.2l0.6,1.6
							C402.2,598,403,599.6,404.4,601.8z"/>
					</g>
				</g>
				<g>
					<path fill="#FFFFFF" d="M296.5,684.6c9.8,16.2,23.7,27.4,39.6,30.4c0.8-7.8,4.2-15.2,7.2-22.4
						C326.8,692.5,310.9,689.5,296.5,684.6z"/>
					<g>
						<path fill="#FFFFFF" d="M296.5,684.6c0.8,2.5,1.3,4.1,3.1,6.4l1,1.4l0.8,0.9l1.3,1.6c0.5,0.6,0.9,1.2,1.5,1.8
							c4,4.7,9.8,9.7,16.2,13.4c3.2,1.9,6.6,3.3,9.8,4.2c0.8,0.3,1.6,0.5,2.4,0.7l1.2,0.3l0.6,0.1l0.7,0.1c0.8,0.1,1.5,0.3,2.2,0.4
							l0.2-1.9l0.1-0.9l0.1-0.8c0.8-4.6,2-7.4,2-7.4s0.9-2.9,2.8-7.3l1.5-3.6l0.8-1.9l0.2-0.5v-0.1h-0.1h-0.4h-1.2l-3.1-0.1
							c-3.3-0.1-6.9-0.3-10.5-0.7c-3.7-0.4-7.3-0.8-10.9-1.5c-1.8-0.3-3.6-0.7-5.3-1.1l-2.4-0.6l-2.4-0.6c-2.1-0.5-3.7-0.9-4.5-1.2
							C301.1,685.1,299.3,684.9,296.5,684.6c2.3,1.4,3.9,2.3,7,3.2c0.8,0.3,2.4,0.7,4.6,1.3l2.4,0.6l2.5,0.6
							c1.7,0.4,3.6,0.7,5.4,1.1c3.7,0.7,7.4,1.2,11.1,1.5c3.7,0.4,7.3,0.6,10.7,0.7h1.7c0,0,0,0,0,0.1l-1.5,3.5
							c-1.8,4.5-2.8,7.4-2.8,7.4s-1,2.9-2.1,7.6l-0.1,0.8l-0.1,0.8l0,0l-0.9-0.2l-1-0.3c-0.8-0.2-1.5-0.4-2.3-0.7
							c-3.1-0.9-6.2-2.3-9.3-4.1c-6.1-3.5-11.6-8.3-15.7-12.9c-0.6-0.6-0.9-1.2-1.4-1.6l-1.3-1.5l-0.8-0.9l-1-1.4
							C299.6,687.6,298.4,686.4,296.5,684.6z"/>
					</g>
				</g>
				<g>
					<path fill="#FFFFFF" d="M344.7,692.5c-0.5,0-0.8,0-1.3,0c-3.1,7.1-6.3,14.6-7.2,22.4c2.8,0.5,5.6,0.8,8.5,0.8
						c19.2,0,36.5-12.1,48-31C377.9,689.7,361.7,692.5,344.7,692.5z"/>
					<g>
						<path fill="#FFFFFF" d="M344.7,692.5c-0.3-0.1-0.7-0.2-1-0.2l-0.3-0.1h-0.2c-0.1,0-0.1,0.1-0.1,0.1l-0.3,0.5
							c-0.2,0.4-0.3,0.5-0.6,0.8l-0.5,0.7c-0.7,0.9-1.2,1.9-1.7,3.3l-0.7,1.6l-0.5,1.2l-0.8,2.2c-0.3,0.8-0.6,1.6-0.8,2.5
							c-0.6,1.8-1,3.5-1.5,5.3c-0.2,0.9-0.5,1.9-0.6,2.9l-0.1,0.8l-0.2,1.4c0,0.1-0.1,0.3,0,0.4l0.5,0.1l0.8,0.1l0.8,0.1l0.5,0.1
							c4.4,0.7,9,0.8,13.5,0.1c4.4-0.6,8.7-1.9,12.3-3.4s6.8-3.4,9.3-5c5.1-3.4,7.7-6.2,7.7-6.2s2.9-2.5,6.7-7
							c0.9-1.2,2-2.5,2.9-3.8c0.6-0.7,0.9-1.4,1.5-2.1l0.8-1.2l0.7-0.9l0.8-1.2l1.4-2.3l0.2-0.3l-0.3,0.1l-0.7,0.2l-1.4,0.5
							l-2.9,0.9l-1.5,0.5c-2,0.6-4,1.2-6.1,1.8c-4.2,1.1-8.5,2-12.8,2.7c-2.2,0.4-4.2,0.7-6.2,0.8c-1,0.1-2.1,0.2-3,0.3l-2.8,0.3
							c-2.2,0.2-3.9,0.3-4.7,0.3C349.2,691.5,347.4,691.9,344.7,692.5c2.7,0.6,4.5,0.8,7.7,0.8c0.8,0,2.5-0.1,4.7-0.3l2.9-0.3
							c0.9-0.1,2.1-0.2,3.1-0.4c2.1-0.3,4.2-0.6,6.3-0.8c4.3-0.7,8.7-1.6,13-2.7c2.2-0.6,4.2-1.2,6.2-1.8l1.5-0.5l0,0l-0.8,1.3
							c-0.6,0.7-0.9,1.4-1.5,2c-0.9,1.4-2,2.5-2.8,3.6c-3.7,4.5-6.5,6.9-6.5,6.9s-2.5,2.6-7.5,5.9c-2.4,1.6-5.5,3.4-8.9,4.8
							c-3.6,1.4-7.5,2.6-11.7,3.2c-4.2,0.6-8.6,0.5-12.8-0.1l-0.5-0.1l0,0l0.1-0.7c0.1-0.9,0.3-1.9,0.6-2.7c0.5-1.9,0.8-3.6,1.4-5.2
							c0.2-0.8,0.6-1.6,0.8-2.5l0.8-2.1l0.5-1.2l0.7-1.6c0.6-1.4,0.8-2.5,1.2-3.5l0.2-0.8c0-0.2,0.1-0.6,0.1-0.7v0
							c0-0.1,0-0.1,0.1-0.1h0.1C344.1,692.7,344.4,692.6,344.7,692.5z"/>
					</g>
				</g>
				<g>
					<path fill="#FFFFFF" d="M345.9,541.4c15.6,0.5,29.6,8.7,40.5,22.1C376.9,551.1,363.9,541.9,345.9,541.4z"/>
					<g>
						<path fill="#FFFFFF" d="M345.9,541.4c2.7,0.7,4.4,1.2,7.4,1.8c0.5,0.1,1,0.2,1.8,0.4l1.3,0.3c0.8,0.2,2.1,0.6,3,0.9
							c4.3,1.4,9.1,4,13.1,6.9s7.5,6.2,9.9,8.8c1.2,1.3,2.2,2.5,2.7,3.2l0.2,0.3l0.1,0.1v0.1c0.8-0.5-1.7,1.1,1.7-1.1l0,0l0,0l0,0
							l0,0l-0.3-0.4l-0.2-0.2c0,0-1.4-1.9-3.8-4.5s-6-6.1-10.3-9c-2.2-1.4-4.5-2.8-7-3.9c-2.4-1.1-5-2-7.1-2.6s-3.9-0.8-4.7-1.1
							C350.6,540.7,348.6,540.8,345.9,541.4c2.7,0.7,4.4,1.2,7.4,1.6c0.8,0.2,2.4,0.5,4.5,1.1c2.2,0.6,4.5,1.4,6.8,2.5
							c2.3,1.1,4.5,2.3,6.7,3.8c4.2,2.8,7.6,6.1,10,8.6c2.4,2.6,3.7,4.3,3.7,4.3l0.2,0.3l0.3,0.4l0,0l0,0l0,0l0,0
							c3.5-2.1,0.9-0.6,1.7-1.1v-0.1l-0.1-0.1l-0.2-0.3c-0.7-0.8-1.6-1.9-2.8-3.2c-2.4-2.6-5.9-6.1-10.2-9.1
							c-4.2-3.1-9.2-5.6-13.7-7.1c-0.6-0.2-1-0.4-1.6-0.6l-0.8-0.2L357,542l-1.3-0.3c-0.8-0.2-1.5-0.3-2-0.4
							C350.6,540.7,348.6,540.8,345.9,541.4z"/>
					</g>
				</g>
				<g>
					<path fill="#FFFFFF" d="M301.1,605h4.4c-0.5-0.5-0.8-0.9-1.2-1.4C302.3,604.4,301.1,605,301.1,605z"/>
					<g>
						<path fill="#FFFFFF" d="M301.1,605c0.5,0.6,0.8,0.9,1.4,0.9h5.3l-0.8-0.8l-0.6-0.7l-0.7-0.7c-0.2-0.3-0.5-0.5-0.6-0.8
							l-0.6-0.7l-0.8,0.3c-0.8,0.3-1.8,0.8-2.2,0.8C301.4,603.9,301.2,604.3,301.1,605c0.8,0.3,1.2,0.5,1.7,0.3
							c0.3-0.1,1.2-0.6,2.1-0.8l-1.3-0.4c0,0.1,0,0,0,0l0,0l0,0h-0.9C301.8,604.1,301.5,604.4,301.1,605z"/>
					</g>
				</g>
				<g>
					<path fill="#FFFFFF" d="M304.4,603.5c0.3,0.5,0.8,0.9,1.2,1.4h30.2C323.7,597.5,310.4,601.3,304.4,603.5z"/>
					<g>
						<path fill="#FFFFFF" d="M304.4,603.5c0.1,0.3,0.2,0.6,0.3,0.8l0.2,0.4c0.1,0.1,0.2,0.3,0.3,0.5l0.1,0.1h0.1h0.3h0.3h0.2
							l0.8,0.1c1.2,0.2,2.4,0.3,4,0.3h3.2h14.1h3.1h0.3h0.6h1.2l2.2-0.1l3.1-0.1h0.1c0,0,0.1,0,0,0l-0.2-0.1h-0.1l-0.2-0.2
							c0,0-1-0.7-2.9-1.8c-0.5-0.3-1-0.6-1.7-0.8l-0.5-0.2l-0.5-0.2l-0.6-0.3c-0.8-0.3-1.7-0.7-2.7-0.9c-2-0.6-4.3-1.1-6.6-1.4
							c-2.4-0.2-4.6-0.2-6.7,0c-2.2,0.2-4,0.6-4.8,0.7C308.2,601.2,306.6,602.1,304.4,603.5c2.7-0.4,4.5-0.6,7.5-1.3
							c0.8-0.2,2.4-0.5,4.6-0.7c2-0.2,4-0.2,6.2,0s4.3,0.7,6.1,1.3c0.8,0.3,1.7,0.6,2.4,0.8l0.8,0.3l0,0l0,0h-3.7h-13.8h-3.2
							c-1.6,0-2.9,0.1-4,0.3l-0.9,0.2h-0.2c-0.1,0-0.1,0-0.1,0c-0.1,0-0.2,0.1-0.2,0c-0.1,0-0.1-0.1-0.2-0.1l-0.3-0.3
							C304.8,604,304.7,603.9,304.4,603.5z"/>
					</g>
				</g>
				<g>
					<path fill="#FFFFFF" d="M291.9,655c0.6,4.6-1.4,7.6-4.5,9.5c-3.6-10.9-5.5-23.1-5.5-35.9c0-10.7,1.4-21,3.9-30.5
						c3.6,4.1,6.1,8.2,6.1,8.2V655z"/>
					<g>
						<path fill="#FFFFFF" d="M291.9,655c-0.2,1.3-0.6,2.2-0.8,3.2c-0.3,0.9-0.8,1.9-1.5,3c-0.2,0.3-0.6,0.8-1,1.2
							c-0.1,0.1-0.2,0.2-0.5,0.4l-0.1,0.1l0,0l-0.8-2.5c-2.1-6.9-3.6-15.4-4-23.4c-0.6-8.1-0.2-15.8,0.5-21.6
							c0.7-5.7,1.4-9.3,1.4-9.3l0.6-2.5c0.2-0.8,0.5-1.8,0.7-2.9v-0.2l0,0l0.6,0.6l0.8,0.9c0.6,0.7,0.9,1.3,1.5,2
							c0.6,0.7,0.9,1.4,1.5,2.1l0.3,0.6l0,0v0.2v1.4V620v28C290.9,650.9,291.2,652.5,291.9,655c0.7-2.5,1-4.1,1-6.9v-28.2v-11.8
							v-1.4v-0.5c0.1-0.2-0.2-0.4-0.2-0.6l-0.5-0.6c-0.6-0.8-1-1.5-1.5-2.2c-0.6-0.7-0.9-1.4-1.5-2l-0.8-0.9l-0.9-1.2
							c-0.5-0.6-0.9-1.1-1.4-1.6l-0.7-0.8l-0.2-0.2c0-0.1,0,0,0,0.1v0.1l-0.1,0.5l-0.6,1.9l-0.5,1.5c-0.3,1.2-0.6,2.1-0.7,3
							l-0.6,2.5c0,0-0.8,3.6-1.4,9.5c-0.7,5.8-1,13.6-0.5,21.8c0.6,8.2,2.1,16.8,4,23.9c0.2,0.8,0.6,1.8,0.8,2.6
							c0.2,0.8,0.6,1.5,0.8,2.3v0.1v0.1h0.1l0.3-0.2l0.6-0.3l0.6-0.3c0.1-0.1,0.2-0.1,0.2-0.2h0.1c0.3-0.3,0.8-0.6,0.9-0.7
							c0.2-0.2,0.3-0.3,0.6-0.5c0.7-0.6,1-1.2,1.3-1.4c0.9-1.4,1.2-2.6,1.3-3.8C292.6,657.2,292.3,656.1,291.9,655z"/>
					</g>
				</g>
				<g>
					<path fill="#FFFFFF" d="M281.9,628.6c0,12.8,2,25,5.5,35.9c-10.2,6.2-32.8-0.7-20.3-9.5c16.4-11.4-5-29.7,0-55
						c3.2-16.2,12.4-9.1,18.7-1.9C283.2,607.6,281.9,617.8,281.9,628.6z"/>
					<g>
						<path fill="#FFFFFF" d="M281.9,628.6c-0.7,2.5-0.9,4.1-0.8,6.9l0.1,1.8l0.1,1.2l0.1,1.5l0.2,1.8c0.1,1.2,0.3,2.5,0.5,3.6
							c0.8,5,1.8,10.5,3.5,16.1l0.7,2l0.1,0.4l0,0l-0.2,0.1c-1.3,0.7-2.7,1.1-4.2,1.4c-3,0.6-6.1,0.5-9.1-0.1
							c-1.5-0.3-2.9-0.7-4.2-1.3c-1.3-0.6-2.4-1.4-3.2-2.2s-0.8-1.9-0.5-3c0.5-0.9,1.4-1.9,2.4-2.7c0.2-0.2,0.6-0.4,0.8-0.6
							c0.3-0.2,0.6-0.4,0.8-0.7c0.6-0.5,1-0.8,1.6-1.4c0.9-0.9,1.8-2,2.4-3.2c1.3-2.2,1.7-4.7,1.7-6.8s-0.3-4-0.7-5.6
							s-0.7-3-0.9-4.1c-0.7-2.2-0.9-3.5-0.9-3.5l-1-3.5c-0.7-2.2-1.6-5.4-2.4-9.3c-0.8-3.9-1.3-8.6-0.8-13.6
							c0.2-2.5,0.7-5.2,1.5-7.6c0.5-1.3,0.9-2.5,1.8-3.5c0.8-1.1,1.8-1.8,3-1.9s2.5,0.4,3.9,1.2c1.3,0.7,2.4,1.6,3.6,2.6
							c1,0.9,2.2,2,3.1,3.2l0.3,0.3l-0.2,0.8c-0.2,0.7-0.3,1.4-0.6,2.1c-0.7,2.8-1.2,5.6-1.6,8.3c-0.2,1.4-0.5,2.7-0.6,4l-0.2,1.9
							l-0.2,1.8c-0.2,1.9-0.3,3.5-0.3,4.2C280.9,624.4,281.2,626.1,281.9,628.6c0.7-2.5,1-4.1,1.3-6.9c0-0.8,0.1-2.3,0.3-4.2
							l0.2-1.8l0.2-1.9c0.1-1.3,0.3-2.6,0.6-4c0.5-2.7,0.9-5.4,1.6-8.1c0.2-0.7,0.3-1.4,0.6-2l0.3-1.3l0.1-0.3V598l-0.1-0.1
							l-0.3-0.4l-0.5-0.5c-0.9-1.2-2.2-2.2-3.2-3.3c-1.2-1.1-2.4-2-3.9-2.9c-1.4-0.8-3.1-1.5-5.2-1.4c-0.9,0.1-2,0.4-2.7,0.8
							c-0.8,0.5-1.4,1.1-2,1.8c-0.9,1.3-1.6,2.7-2.1,4.1c-0.9,2.7-1.4,5.4-1.6,8c-0.6,5.2,0.1,10.1,0.8,14.1c0.8,4,1.7,7.3,2.4,9.5
							l1,3.5c0,0,0.5,1.3,0.9,3.5c0.3,1.1,0.7,2.5,0.9,4.1c0.3,1.5,0.6,3.3,0.6,5.2s-0.5,4-1.5,5.9c-0.6,0.9-1.3,1.9-2.2,2.7
							c-0.5,0.4-0.8,0.8-1.4,1.3c-0.2,0.2-0.6,0.4-0.8,0.6c-0.3,0.2-0.6,0.4-0.8,0.7c-1.2,0.8-2.3,1.9-2.9,3.5
							c-0.3,0.8-0.5,1.6-0.3,2.5c0.1,0.8,0.6,1.6,1,2.3c1,1.4,2.5,2.1,4,2.8s3.1,1.1,4.7,1.4c3.2,0.6,6.7,0.7,10,0.1
							c1.6-0.3,3.3-0.8,4.8-1.5l0.3-0.2l0.5-0.3l0.6-0.3l0.2-0.1l0.1-0.1v-0.1l-0.6-1.6l-0.7-2c-1.6-5.4-2.7-10.8-3.3-15.8
							c-0.2-1.3-0.3-2.5-0.5-3.6l-0.2-1.8l-0.1-1.5l-0.1-1.2l-0.1-1.6C282.9,632.6,282.5,630.9,281.9,628.6z"/>
					</g>
				</g>
			</g>
			<g>
				<g>
					<path fill="#FFFFFF" d="M345.9,541.4c15.6,0.5,29.6,8.7,40.5,22.1c8.3,10.2,14.5,23.4,18,38.2"/>
				</g>
				<path fill="#FFFFFF" d="M339.7,541.4c0,0-35.4,20-7.4,51.6c0,0,7.9,10.4,6.8,15.2s5.4,0,5.4,0l-5.4,40.2c0,0-15.1,0.7,0,11.2
					h12.2c0,0-1.5,9.1-12.2,14.6s-6.3-2.6-15.6-4.7c0,0-21.7,0.7-5.8,13.5c0,0,16.7,15.5,24.5,15.2s1.3,0,1.3,0s23.6,14.9-6,15.2
					c-7.3,0.1-41.8-13.2-48.5-47.8c-2.1-10.4-2.1-4.6-2.1-4.6s6.1-37,0.6-42.3c0,0-5.5-21.7-0.5-24.6
					C291.9,591.3,294.5,553.9,339.7,541.4z"/>
				<g>
					<path fill="#FFFFFF" d="M285.7,598.1c0.2-0.7,0.3-1.3,0.6-1.9c9.2-32.1,31.9-54.9,58.3-54.9c0.5,0,0.8,0,1.3,0
						c18.1,0.4,31,9.7,40.5,22.1c8.8,11.6,14.4,25.9,18,38.2"/>
				</g>
				<g>
					<path fill="#FFFFFF" d="M291.9,606.3c0,0-2.5-4.1-6.1-8.2c-6.2-7.3-15.4-14.3-18.7,1.9c-5,25.3,16.4,43.6,0,55
						c-12.6,8.7,10.1,15.7,20.3,9.5c3.1-1.9,5.1-4.9,4.5-9.5"/>
				</g>
				<g>
					<path fill="#FFFFFF" d="M398.8,609c0,0,2.3-3.6,5.5-7.4c6.2-7.4,16.1-15.7,19.4,1.1c0.2,38.4-17.1,46.2,0,55
						c4.6,3.3,4.5,6.2,1.8,8.4c-5,4.1-18.4,5.2-24.2-0.6c-1.8-1.9-2.9-4.5-2.4-7.8"/>
				</g>
				<g>
					<g>
						<g>
							<path fill="#FFFFFF" d="M301.1,605c1.5-0.4,2.7-0.6,4-0.8c0.8-0.2,1.4-0.3,2.1-0.5s1.4-0.4,2.3-0.6c0.6-0.2,1.5-0.4,3.5-0.8
								c0.8-0.1,2.1-0.4,3.1-0.4c0.6-0.1,1-0.1,1.4-0.1c0.3,0,0.7,0,0.7,0s0.8,0,1.7,0c0.9-0.1,2.2,0.1,3,0.2c0.7,0,1.3,0.2,1.8,0.2
								c0.6,0.1,0.9,0.2,1.4,0.2c0.8,0.1,1.4,0.4,1.8,0.5c1.7,0.4,2.9,0.8,4.2,1.2c1.3,0.4,2.4,0.8,4,1.2c-1-0.9-2.1-1.9-3.2-2.5
								c-1.2-0.7-2.4-1.4-4.3-1.9c-0.5-0.1-1-0.4-2-0.5c-0.5-0.1-0.9-0.2-1.5-0.3s-1.2-0.2-2-0.3c-0.8,0-2.2-0.2-3.2-0.2
								s-1.8,0-1.8,0s-0.2,0-0.7,0s-0.9,0.1-1.5,0.1c-1.2,0.1-2.5,0.4-3.3,0.5c-2.1,0.4-3.1,0.7-3.7,0.8c-0.8,0.2-1.6,0.5-2.4,0.8
								c-0.8,0.3-1.3,0.6-2,0.8C303.2,603.4,302.2,604,301.1,605z"/>
						</g>
					</g>
				</g>
				<g>
					<g>
						<g>
							<path fill="#FFFFFF" d="M322.3,681.5c0.8,1.2,1.8,2,2.9,2.8s2.4,1.5,4,2.1c0.7,0.2,1.5,0.7,3.6,1.2c0.5,0.1,0.8,0.3,1.4,0.4
								c0.6,0.1,1,0.2,1.7,0.3c1.2,0.3,2.5,0.4,3.8,0.5c0.3,0,0.7,0.1,0.8,0.1c0.3,0,0.6,0,0.8,0c0.6,0,0.9,0,1.4,0
								c0.8,0,1.3,0,1.3,0s0.1,0,0.3,0s0.5,0,0.8-0.1c0.7-0.1,1.6-0.1,2.7-0.2c1.1-0.1,2.3-0.4,3.3-0.5c0.6-0.1,1.2-0.2,1.6-0.3
								c0.6-0.1,0.9-0.3,1.5-0.4c1.4-0.4,2.4-0.7,3.3-0.9c0.8-0.3,1.4-0.6,1.8-0.7c0.8-0.3,1.6-0.6,2.3-0.9c0.7-0.3,1.3-0.7,1.8-1.1
								c1-0.8,2.2-1.4,3.2-2.5c-1.5,0.4-2.8,0.7-4,1.1c-0.7,0.2-1.3,0.5-2,0.7s-1.4,0.5-2.3,0.8c-0.5,0.2-0.9,0.4-1.8,0.7
								c-0.8,0.3-1.8,0.5-3.1,0.8c-0.5,0.1-0.8,0.2-1.4,0.4c-0.6,0.1-1,0.2-1.6,0.3c-1,0.2-2.2,0.4-3.2,0.5c-0.9,0.1-2,0.2-2.5,0.2
								c-0.3,0-0.6,0-0.8,0.1c-0.2,0-0.3,0-0.3,0s-0.5,0-1.2,0c-0.5,0-0.8,0-1.3,0c-0.2,0-0.6,0-0.8,0c-0.3,0-0.6-0.1-0.8-0.1
								c-1.2-0.1-2.4-0.2-3.6-0.5c-0.6-0.1-1-0.2-1.6-0.3s-0.9-0.3-1.3-0.4c-2-0.5-2.8-0.8-3.3-1.1c-1.5-0.6-2.7-1.1-4-1.5
								C325,682.6,323.8,682.2,322.3,681.5z"/>
						</g>
					</g>
				</g>
				<g>
					<g>
						<g>
							<path fill="#FFFFFF" d="M356.7,617c2.4,1.9,4.2,2.9,7.8,3.8c0.7,0.1,1.6,0.4,3.8,0.7c0.3,0.1,1,0.1,1,0.1s0.7,0.1,0.9,0.1
								c2.9,0.2,4.7-0.1,5.6-0.2c2-0.3,3.3-0.8,4.5-1.6c1.2-0.8,2.2-1.6,2.9-2.8c-1.4,0.7-2.4,1.1-3.8,1.4c-1.2,0.4-2.4,0.7-4,0.9
								c-0.8,0.1-2.4,0.4-5.1,0.2c-0.3,0-0.9-0.1-0.9-0.1s-0.8-0.1-0.9-0.1c-2-0.3-2.9-0.5-3.5-0.7
								C361.6,617.8,359.7,617.6,356.7,617z"/>
						</g>
					</g>
				</g>
				<g>
					<g>
						<g>
							<path fill="#FFFFFF" d="M332.2,617c-2.9,1.1-4.7,1.5-8.1,2.5c-0.3,0.1-0.7,0.2-1.2,0.3c-0.6,0.1-1.3,0.3-2.3,0.4
								c-0.3,0-0.8,0.1-1.3,0.1s-0.8,0-0.8,0s-0.3,0-0.8,0s-0.8,0-1.2,0c-0.7-0.1-1.3-0.1-1.7-0.1c-0.6-0.1-0.9-0.2-1.4-0.3
								s-0.8-0.1-1-0.2c-0.3-0.1-0.6-0.2-0.8-0.2c-3.3-0.8-5.2-1.4-8.2-2.3c2.2,1.9,3.9,3.4,7.5,4.3c0.2,0.1,0.6,0.1,0.8,0.2
								c0.3,0.1,0.8,0.1,1.2,0.2c0.5,0.1,0.9,0.2,1.5,0.3s1.3,0.1,2,0.2c0.5,0,0.9,0.1,1.4,0c0.5,0,0.8,0,0.8,0s0.5,0,0.8,0
								c0.6,0,1-0.1,1.4-0.1c1-0.1,1.8-0.3,2.4-0.4c0.7-0.1,0.9-0.2,1.3-0.3C328.5,620.4,330.3,619.1,332.2,617z"/>
						</g>
					</g>
				</g>
				<g>
					<g>
						<g>
							<path fill="#FFFFFF" d="M335.8,653.7c0.2,1.1,0.6,1.8,1.5,2.3c0.6,0.3,2.3,1.2,4,1.6c0.8,0.2,1.7,0.4,2.4,0.4
								c0.7,0.1,1,0.1,1,0.1s1.7,0.1,3.5-0.4c1.8-0.4,3.5-1.4,4-1.6c0.9-0.6,1.3-1.4,1.4-2.3c-1.2,0.1-1.8,0.1-2.7,0.6
								c-0.5,0.3-1.8,1.1-3.3,1.4c-1.4,0.4-2.8,0.3-2.8,0.3s-1.4,0-2.8-0.4s-2.9-1.2-3.3-1.4C337.8,653.8,337,653.8,335.8,653.7z"/>
						</g>
					</g>
				</g>
			</g>
		</g>
		<ellipse fill="#FFFFFF" cx="343.9" cy="555.5" rx="118.6" ry="105.8"/>
	</g>
</g>
<ellipse id="hair" display="none" cx="345.9" cy="565.8" rx="106.9" ry="95.3"/>
<g id="face" display="none">
	<g display="inline">
		<g>
			<path fill="#FBB040" d="M418.4,650c4.3,3.1,4.2,5.8,1.7,7.8c-4.6,3.8-17.2,4.9-22.5-0.6c3.5-10.4,5.5-22.2,5.5-34.6
				c0-8.8-1-17.1-2.8-24.9c5.8-6.9,15-14.7,18.1,1C423.1,622.3,403.2,639.4,418.4,650z"/>
			<g>
				<g>
					<path fill="#FBB040" d="M418.4,650c0.9,1,1.5,1.9,1.9,2.9c0.4,0.9,0.6,1.9,0.2,2.9c-0.1,0.2-0.4,0.7-0.9,1.2
						c-0.2,0.2-0.6,0.5-0.9,0.7l-0.2,0.1l-0.3,0.2c-0.2,0.1-0.5,0.2-0.7,0.4c-0.5,0.2-1,0.5-1.5,0.6c-0.3,0.1-0.5,0.2-0.8,0.2
						c-0.3,0.1-0.6,0.2-0.9,0.2c-0.6,0.2-1.2,0.2-1.8,0.4c-2.4,0.4-5.1,0.4-7.6-0.1c-0.6-0.1-1.3-0.2-1.9-0.5
						c-0.6-0.2-1.2-0.4-1.8-0.7c-0.6-0.2-1.1-0.6-1.6-0.9c-0.3-0.2-0.5-0.5-0.7-0.6l0,0c0.2-0.6,0.4-1.2,0.6-1.7
						c0.2-0.6,0.4-1.3,0.6-1.9c0.4-1.3,0.7-2.6,1.1-3.9c0.6-2.6,1.2-5.2,1.6-7.8c1.8-10.6,1.8-20.7,1.2-28.1
						c-0.3-3.7-0.7-6.8-1.1-8.9c-0.3-2.1-0.6-3.3-0.6-3.3s-0.1-0.2-0.2-0.9c-0.1-0.6-0.3-1.3-0.5-2.4l0,0c0.2-0.2,0.4-0.5,0.6-0.7
						c0.4-0.5,0.9-1,1.4-1.5c1.1-1.1,2.3-2.3,3.8-3.3c0.8-0.6,1.6-1,2.5-1.3c0.9-0.4,1.8-0.5,2.7-0.2c0.8,0.2,1.6,0.7,2.2,1.7
						c0.6,0.8,1.1,1.8,1.5,2.9c0.8,2.1,1.2,4.6,1.5,7c0.3,2.4,0.3,5,0.1,7.6c-0.4,5.1-1.8,10.3-3.3,15.4c-0.8,2.5-1.5,5-2.1,7.5
						c-0.3,1.3-0.5,2.5-0.7,3.8c-0.1,0.6-0.1,1.3-0.2,1.9c0,0.2,0,0.6,0,0.9c0,0.2,0,0.2,0,0.5v0.4c0.1,2.1,0.6,3.9,1,4.7
						c0.7,1.5,1.5,2.6,2.5,3.4c0.5,0.5,1,0.7,1.6,1.1C417.2,649.5,417.8,649.7,418.4,650c-0.4-0.6-0.8-1-1.2-1.4
						c-0.3-0.5-0.7-0.9-1-1.3c-0.6-0.9-1.2-1.9-1.7-3.2c-0.3-0.7-0.8-2.1-0.9-4v-0.2c0-0.2,0-0.2,0-0.5v-0.8c0-0.6,0.1-1.2,0.2-1.7
						c0.2-1.2,0.4-2.4,0.7-3.5c0.6-2.4,1.3-4.9,2.1-7.4c1.5-5,3-10.3,3.4-15.8c0.2-2.7,0.2-5.3-0.1-7.9c-0.3-2.6-0.7-5-1.6-7.5
						c-0.4-1.2-1-2.4-1.8-3.4c-0.8-1.1-2-2-3.5-2.4s-2.9-0.1-4.1,0.4s-2.1,1.1-3,1.7c-1.7,1.2-3,2.5-4.2,3.6
						c-0.6,0.6-1.1,1.1-1.5,1.7c-0.2,0.2-0.4,0.6-0.6,0.7c-0.2,0.2-0.4,0.5-0.6,0.7c0,0.2,0.1,0.6,0.2,0.8c0.2,1.1,0.4,1.9,0.5,2.4
						c0.1,0.6,0.2,0.8,0.2,0.8s0.2,1.2,0.6,3.2c0.3,2.1,0.8,5,1.1,8.8c0.6,7.3,0.6,17.4-1.2,27.7c-0.4,2.6-1,5.1-1.6,7.7
						c-0.3,1.3-0.7,2.5-1,3.9c-0.2,0.6-0.4,1.3-0.6,1.9c-0.2,0.7-0.4,1.3-0.7,2.1l-0.2,0.5l-0.1,0.2v0.1l0.1,0.1l0.8,0.7
						c0.4,0.2,0.6,0.6,0.9,0.7c0.6,0.5,1.3,0.8,2,1.2s1.4,0.6,2.1,0.8s1.4,0.4,2.2,0.6c2.9,0.6,5.8,0.5,8.4,0.1
						c0.7-0.1,1.3-0.2,2-0.4c0.3-0.1,0.6-0.2,1-0.2c0.3-0.1,0.6-0.2,0.9-0.2c0.6-0.2,1.2-0.5,1.8-0.7c0.3-0.2,0.6-0.2,0.8-0.5
						l0.4-0.2l0.2-0.2c0.4-0.4,0.9-0.6,1.2-0.9c0.7-0.6,1.1-1.3,1.3-1.8c0.4-0.9,0.4-1.8,0.2-2.5c-0.2-0.7-0.6-1.3-1-1.8
						C420.9,651.2,419.7,650.6,418.4,650z"/>
				</g>
			</g>
		</g>
		<g>
			<path fill="#FBB040" d="M403.2,622.8c0,12.3-2,24.1-5.5,34.6c-1.7-1.7-2.7-4.2-2.3-7.3v-45.4c0,0,2.1-3.3,5.1-6.9
				C402.2,605.7,403.2,614.1,403.2,622.8z"/>
			<g>
				<g>
					<path fill="#FBB040" d="M403.2,622.8c-0.7,2.5-1.1,4.3-1.3,7.2c0,0.4-0.1,1-0.1,1.8c0,0.4-0.1,0.8-0.1,1.3c0,0.2-0.1,0.6-0.1,1
						s-0.1,0.7-0.1,1.1c-0.1,0.7-0.2,1.5-0.3,2.3c-0.4,3.1-1,6.4-1.8,9.8c-0.4,1.7-0.8,3.4-1.3,5.1c-0.2,0.9-0.5,1.7-0.8,2.5
						l-0.1,0.2l0,0l0,0l0,0l0,0l0,0l0,0c0,0,0,0,0-0.1c-0.1-0.2-0.2-0.4-0.3-0.6c-0.3-0.7-0.5-1.4-0.6-2.3c0-0.4-0.1-0.8,0-1.2
						c0-0.2,0-0.4,0-0.6v-0.2v-0.2v-0.2c0-0.8,0-1.7,0-2.4c0-3.2,0-6.2,0-8.7c0-5,0-8.2,0-8.2s0-3.2,0-8.2c0-2.5,0-5.4,0-8.7
						c0-1.7,0-3.2,0-5c0-0.8,0-1.7,0-2.6c0-0.5,0-0.9,0-1.3l0,0c0,0,0,0,0.1-0.1l0.4-0.6c0.5-0.7,1-1.5,1.6-2.3l0.8-1.1l0.5-0.7
						c0-0.1,0,0,0,0l0,0l0.2,1.2c0.3,1.7,0.6,3.4,0.9,5c0.1,0.8,0.2,1.7,0.3,2.4c0,0.4,0.1,0.8,0.1,1.2s0.1,0.7,0.1,1.1
						c0.2,2,0.3,3.6,0.4,4.4C402.1,618.6,402.5,620.3,403.2,622.8c0.7-2.5,1-4.3,0.9-7.3c0-0.8-0.2-2.4-0.4-4.5
						c0-0.4-0.1-0.7-0.1-1.1c0-0.4-0.1-0.8-0.1-1.2c-0.1-0.8-0.2-1.7-0.3-2.5c-0.2-1.7-0.5-3.4-0.9-5.1c-0.1-0.5-0.2-1-0.3-1.4
						c-0.2-0.9-0.4-1.7-0.6-2.6l-0.3-1.3v-0.2v-0.1c0,0,0-0.1,0,0l-0.2,0.2l-0.4,0.6l-1.7,2.1l-0.7,0.9l-0.4,0.6l-0.8,1.2
						c-0.5,0.7-1.1,1.5-1.6,2.3l-0.4,0.6l-0.3,0.5c-0.1,0.1-0.1,0.2-0.1,0.2v0.4c0,0.5,0,0.9,0,1.3c0,0.9,0,1.7,0,2.6
						c0,1.7,0,3.3,0,5c0,3.2,0,6.2,0,8.7c0,5,0,8.2,0,8.2s0,3.2,0,8.2c0,2.5,0,5.4,0,8.7c0,0.8,0,1.7,0,2.4v0.2v0.1v0.4
						c0,0.2,0,0.5,0,0.6c0,0.5,0,0.9,0.1,1.3c0.1,0.9,0.3,1.9,0.7,2.8c0.1,0.2,0.2,0.5,0.3,0.6c0,0,0.1,0.1,0.1,0.2l0.2,0.2
						c0.1,0.2,0.2,0.4,0.4,0.6c0.5,0.7,1.1,1.3,1.6,1.8c0.1,0.2,0.3,0.4,0.4,0.5l0.2-0.6l0.4-1.2l0.4-1.2l0.2-0.6
						c0-0.1,0.1-0.2,0.1-0.2v-0.2c0.3-0.9,0.5-1.7,0.8-2.6c0.5-1.7,0.9-3.5,1.3-5.2c0.8-3.6,1.4-6.9,1.8-10c0.1-0.8,0.2-1.5,0.3-2.4
						c0-0.4,0.1-0.7,0.1-1.1c0-0.4,0.1-0.6,0.1-1c0-0.5,0.1-0.9,0.1-1.3c0.1-0.8,0.1-1.3,0.1-1.8
						C404.2,627.1,403.9,625.3,403.2,622.8z"/>
				</g>
			</g>
		</g>
		<g>
			<path fill="#FBB040" d="M395.3,650v-45.4c0,0,2.1-3.3,5.1-6.9c-3.3-11.5-8.5-24.9-16.8-35.7c-10-12.5-23.2-20.3-37.7-20.6
				c-0.4,0-0.8,0-1.2,0c-3,0-5.9,0.4-8.8,0.9c-7,6.5-17.8,11.3-24,17.8c-8,8,3.6,15.2,4.5,23.3c0,4-8.9,7.2-9.8,9.6
				c-0.9,2.4-0.6,4.5,0.6,6.4c5.6-2.3,18.1-5.7,29.4,1.3h-28.2c4.3,4.6,14.1,6.9,21.4,7.6c0.9,0-1.8,0.8-1.8,2.4
				c-5.4,0-9.8,4-11.6,8.8c10.7,1.7,17.8,10.4,15.1,20.1c0.9,0,2.7,0,2.7,0c1.8,8-7.1,15.2,6.2,18.5c2.7,0.8,7.1,0,8,1.7
				c4.5,5.6-2.7,8-8,11.3c-3.6,2.4-0.9,4-1.8,5.6c2.7,0.8,2.7,4,5.4,4.8c-0.1,0.4-0.3,0.7-0.5,1.1c0.4,0,0.8,0,1.2,0
				c15.8,0,31-2.6,44.7-7.3c3.3-5.4,6.1-11.4,8.2-17.8C395.9,655.6,395,653.3,395.3,650z"/>
			<g>
				<g>
					<path fill="#FBB040" d="M395.3,650c0.6-2.3,1-3.8,1-6.5v-8.4V618v-9v-2.4v-1.2v-0.6c0-0.1,0,0,0-0.1c0.9-1.3,1.8-2.6,2.8-3.9
						c0.5-0.6,1-1.3,1.5-1.9l0.5-0.6c0.1-0.2,0.3-0.2,0.4-0.5l-0.2-0.6l-0.4-1.3c-0.5-1.5-0.9-3.1-1.5-4.6c-1-3.1-2.2-6.2-3.5-9.3
						c-2.6-6.2-5.7-12.2-9.7-17.9c-1-1.4-2-2.9-3.2-4.2c-1.1-1.3-2.3-2.6-3.6-3.9c-2.5-2.5-5.4-4.9-8.2-6.9
						c-5.9-4.2-12.9-7.1-20.4-8.2c-3.7-0.6-7.4-0.6-11.1-0.2c-0.9,0.1-1.8,0.2-2.7,0.4l-0.7,0.1l-0.8,0.2l-0.3,0.1l-0.2,0.2
						l-0.3,0.2l-0.5,0.5c-1.2,1.1-2.6,2.1-3.9,3.1c-5.4,3.9-11.3,7.1-16.3,11.4c-1.2,1.1-2.4,2.1-3.5,3.3c-1.1,1.2-2,2.7-2.3,4.3
						c-0.4,1.5-0.2,3.2,0.2,4.6c0.4,1.4,1.1,2.8,1.8,4c1.4,2.5,3,4.8,4,7.1c0.3,0.6,0.5,1.2,0.6,1.7c0.1,0.2,0.2,0.6,0.2,0.9
						l0.1,0.5v0.2c0,0.1,0,0,0,0.1c0,0.9-0.8,1.9-1.7,2.7c-1.8,1.7-4.1,2.9-6.1,4.4c-0.5,0.4-1,0.8-1.5,1.3
						c-0.1,0.2-0.2,0.2-0.3,0.5c-0.1,0.1-0.1,0.2-0.1,0.2l-0.1,0.2c-0.1,0.2-0.2,0.6-0.3,0.9c-0.3,1.2-0.3,2.4,0,3.6
						c0.1,0.2,0.2,0.6,0.3,0.8l0.2,0.5c0.1,0.1,0.1,0.2,0.3,0.6c0.3,0.5,0.5,0.9,0.8,1.3l1.6-0.6c1.1-0.4,2-0.7,3-1
						c2-0.6,3.9-1,5.7-1.2c5.9-0.8,10.7,0.2,13.7,1.3c0.8,0.2,1.4,0.6,2,0.8l0.2,0.1l0,0l0,0h-0.4h-13.7h-4.6h-2.5h-0.4h-0.4h-0.6
						l-2.4,0.1h-1.2h-0.2h-0.1c0,0,0,0,0,0.1l0.2,0.2l0.4,0.5l0.8,0.8l0.9,0.8l1,0.8l0.6,0.4c0.4,0.2,0.8,0.6,1.2,0.7
						c1.7,1,3.5,1.7,5.4,2.4c3.9,1.3,8.1,2.1,12.7,2.5h0.1h0.1c0.2,0,0,0,0.1,0c0,0,0,0,0-0.1V609c0-0.1,0-0.1,0-0.2s0-0.1,0-0.2
						v-0.1c0-0.1,0.1-0.1,0-0.1c0,0-0.1,0-0.2-0.1l-0.1-0.1l-0.2-0.2c-0.1-0.1-0.1-0.1-0.2-0.2l0,0l0,0l-0.1,0.1
						c-0.2,0.2-0.5,0.4-0.7,0.6s-0.5,0.5-0.7,0.7c-0.1,0.2-0.2,0.2-0.3,0.5l-0.1,0.2l0,0h-0.4l-0.5,0.1c-0.6,0.1-1.3,0.2-1.9,0.4
						c-2.4,0.7-4.6,2.1-6.2,4l0,0c-0.8,0.9-1.5,1.9-2.1,3c-0.2,0.2-0.3,0.6-0.5,0.9c-0.2,0.6-0.5,1.2-0.7,1.7l-0.2,0v0.1
						c0,0,0,0,0.1,0h0.1l0.5,0.1l1,0.2l0.5,0.1l0.2,0.1l0.5,0.1c1.3,0.2,2.5,0.7,3.7,1.3c2.4,1.1,4.5,2.7,6.2,4.7
						c1.4,1.7,2.4,3.8,2.9,5.9c0.2,1.1,0.3,2.1,0.3,3.3c0,0.6-0.1,1.1-0.2,1.7l-0.1,0.5l-0.1,0.6l-0.5,1.7c0,0.1,0,0,0.1,0h0.1h0.2
						h0.5h1h1.1l0,0v0.4c0.1,1.1,0,2.3-0.1,3.4c-0.2,1.2-0.5,2.4-0.8,3.6s-0.6,2.4-0.6,3.8c0,0.9,0.1,1.9,0.6,2.8
						c0.6,1.2,1.7,2.1,2.8,2.8c1.2,0.6,2.4,1.1,3.6,1.4c0.6,0.2,1.1,0.4,1.9,0.5c0.7,0.1,1.3,0.2,2,0.2c1.3,0.1,2.5,0.1,3.6,0.2
						c0.5,0.1,1,0.2,1.1,0.5c0.3,0.5,0.6,0.8,0.9,1.3c0.5,0.9,0.6,1.8,0.3,2.6c-0.3,0.8-1.1,1.7-2,2.3s-1.9,1.3-3,1.9
						c-1.1,0.6-2.1,1.2-3.2,1.8c-0.3,0.2-0.6,0.2-0.9,0.6c-0.3,0.2-0.5,0.5-0.8,0.6c-0.5,0.5-1,1.1-1.2,1.9c-0.2,0.8,0,1.5,0.1,2.1
						c0.1,0.2,0.1,0.6,0.1,0.7v0.1c0,0,0,0.1-0.1,0.2c-0.1,0.2-0.3,0.6-0.5,0.9c-0.1,0.1,0,0.1,0.1,0.1l0.2,0.1l0.5,0.2
						c0.2,0.1,0.3,0.1,0.4,0.2c0.1,0.1,0.3,0.1,0.3,0.2c0.2,0.1,0.4,0.2,0.5,0.5c0.3,0.4,0.6,0.7,1,1.3c0.3,0.5,0.7,1,1.1,1.5
						c0.2,0.2,0.5,0.6,0.8,0.7l0.2,0.2l0.2,0.1l0,0l0,0l-0.1,0.2v0.1c0.4,0.6-0.9-1.2,0.9,1.2l0,0l0,0h0.1h0.2c0.6,0,1.3,0,1.9,0
						c2.5,0,5-0.1,7.6-0.2c2.7-0.2,5.4-0.4,8.1-0.7l1.4-0.2l0,0c6.4-0.8,12.6-2.1,18.6-3.7c1.5-0.5,3-0.8,4.4-1.3l2.2-0.7l1.1-0.4
						l0.8-0.2c0.1,0,0.1-0.1,0.2-0.2l0.1-0.2l0.2-0.4c1.5-2.4,2.8-4.9,3.9-7.4c1.2-2.4,2.2-5,3.1-7.5l0.2-0.6l0.3-0.9l0.3-0.9
						l0.2-0.7v-0.1l-0.1-0.1l-0.1-0.1l-0.2-0.2l-0.2-0.2l-0.1-0.1l-0.2-0.2c-0.1-0.1-0.2-0.2-0.3-0.4c-0.7-1-1.1-1.9-1.4-2.8
						C395.8,652.1,395.5,651.2,395.3,650c-0.4,1.1-0.6,2.1-0.6,3.2c0,1.1,0.3,2.3,1.2,3.6c0.1,0.1,0.2,0.2,0.3,0.5l0.3,0.4l0,0
						l-0.2,0.7l-0.3,0.9l-0.2,0.6c-0.9,2.4-1.9,4.9-3.1,7.3c-1.1,2.4-2.4,4.9-3.8,7.2l-0.1,0.1l0,0l-0.2,0.1l-1.1,0.4l-2.1,0.7
						c-1.4,0.5-2.9,0.9-4.4,1.3c-5.9,1.7-12,2.8-18.3,3.6l0,0l-1.3,0.2c-2.6,0.2-5.4,0.6-8,0.7c-2.5,0.2-5,0.2-7.4,0.2
						c-0.6,0-1.2,0-1.9,0h-0.2h-0.1l0,0l0,0c1.8,2.4,0.5,0.6,0.9,1.2v-0.1l0.3-0.6l0.3-0.8c0-0.1,0.1-0.2,0.1-0.4l-0.5-0.2
						c-0.3-0.1-0.6-0.2-0.9-0.4l-0.2-0.1l-0.1-0.1c-0.2-0.1-0.4-0.2-0.5-0.5c-0.3-0.4-0.6-0.8-1-1.3c-0.3-0.5-0.7-1-1.2-1.5
						c-0.3-0.2-0.6-0.5-0.9-0.7l-0.1-0.1l0,0l0,0l0,0v-0.2c0-0.1,0-0.2,0-0.2c0-0.4-0.1-0.7-0.2-1c-0.1-0.6-0.2-1-0.1-1.3
						c0.2-0.7,1-1.4,2-2s2.1-1.2,3.2-1.8s2.2-1.3,3.2-2c1-0.8,2.1-1.7,2.6-3.1c0.3-0.6,0.4-1.3,0.3-2.1c-0.1-0.7-0.3-1.3-0.6-1.9
						c-0.3-0.6-0.7-1.1-1.1-1.7c-0.3-0.4-0.7-0.6-1.1-0.8s-0.7-0.2-1.1-0.2c-1.4-0.2-2.6-0.2-3.8-0.2c-0.6,0-1.2-0.1-1.7-0.2
						c-0.5-0.1-1.2-0.2-1.7-0.5c-2.2-0.6-4.5-1.7-5.4-3.2c-0.3-0.6-0.4-1.3-0.4-2.1c0-2.3,0.9-4.6,1.3-7.1c0.2-1.3,0.3-2.5,0.1-3.8
						v-0.2c0-0.1,0-0.2,0-0.4l-0.2-0.9l-0.1-0.5c0-0.1-0.1-0.1-0.2-0.1h-0.2h-1h-0.9l0,0c0,0.1,0-0.2,0.1-0.2l0.1-0.5
						c0.1-0.6,0.2-1.3,0.2-1.9c0-1.3-0.1-2.5-0.3-3.7c-0.5-2.4-1.6-4.7-3.2-6.6c-1.8-2.3-4.2-4-6.9-5.2c-1.3-0.6-2.7-1.1-4.1-1.4
						l-0.8-0.2l0,0l0,0c0.1-0.2,0.2-0.6,0.4-0.8c0.5-1,1.1-1.8,1.9-2.6l0,0c1.4-1.7,3.3-2.9,5.4-3.4c0.5-0.2,1-0.2,1.5-0.4h0.4h0.7
						h0.9h0.2c0.1,0,0-0.1,0-0.2V611c0-0.2,0.1-0.6,0.1-0.6c0-0.1,0.1-0.1,0.1-0.2c0.1-0.2,0.2-0.2,0.4-0.5c0.2-0.2,0.4-0.2,0.6-0.5
						l0.2-0.1c0.1-0.1,0.1-0.1,0.3-0.2c0,0,0-0.1,0.1-0.2c0.1-0.1,0.1-0.1,0.1-0.4c0-0.2-0.1-0.5-0.2-0.6c-0.1-0.2-0.4-0.2-0.4-0.2
						c-0.1,0-0.1-0.1-0.2-0.1h-0.1c-0.1,0-0.1,0-0.2,0c0,0-0.1,0-0.2,0c-4.4-0.4-8.5-1.2-12.2-2.4c-1.8-0.6-3.6-1.3-5.1-2.3
						c-0.4-0.2-0.7-0.5-1.1-0.7l-0.6-0.4l0,0h8.1h13.7l6.4-0.1h0.5c0.1,0,0,0,0,0l-0.1-0.1l-0.2-0.1l-0.6-0.4l-0.5-0.2
						c0,0-0.6-0.4-1.9-1.2c-0.3-0.2-0.7-0.4-1.2-0.6c-0.2-0.1-0.5-0.2-0.7-0.4c-0.2-0.1-0.6-0.2-0.7-0.2c-0.6-0.2-1.3-0.6-2.1-0.8
						c-3.2-1.2-8.3-2.1-14.7-1.3c-1.9,0.2-4,0.6-6.1,1.3c-1,0.2-2.1,0.6-3.1,1l0,0l-0.1-0.2l-0.1-0.4c-0.1-0.2-0.2-0.5-0.2-0.6
						c-0.2-0.9-0.2-1.9,0-2.9c0.1-0.2,0.1-0.5,0.2-0.7l0.1-0.2v-0.1c0-0.1,0.1-0.2,0.2-0.2c0.3-0.4,0.7-0.7,1.2-1.1
						c1.9-1.4,4.2-2.7,6.3-4.5c0.5-0.5,1-1,1.4-1.7c0.4-0.6,0.7-1.3,0.8-2.1c0-0.1,0-0.2,0-0.4v-0.2l-0.1-0.6
						c-0.1-0.4-0.1-0.7-0.2-1c-0.2-0.6-0.4-1.3-0.7-2c-1.1-2.5-2.7-4.9-4.1-7.3c-1.3-2.4-2.5-5-1.9-7.5c0.3-1.3,1-2.4,1.9-3.6
						c1-1.1,2.1-2.1,3.3-3.2c4.7-3.9,10.6-7.2,16.2-11.3c1.4-1,2.8-2.1,4.1-3.2c0.3-0.2,0.8-0.7,0.6-0.6l0.5-0.1l0.6-0.1
						c0.9-0.2,1.7-0.2,2.6-0.4c3.5-0.4,7-0.4,10.5,0.2c7,1,13.7,3.9,19.5,7.8c2.9,2,5.5,4.3,8,6.6c2.4,2.4,4.7,5,6.6,7.8
						c3.9,5.6,6.9,11.6,9.5,17.7c1.3,3.1,2.4,6.2,3.4,9.2c0.5,1.5,1,3.1,1.4,4.6l0.3,1.1l0,0l0,0l-0.1,0.1l-0.2,0.2
						c-0.5,0.6-1,1.3-1.5,2c-1,1.3-1.9,2.6-2.8,4l-0.3,0.5c-0.1,0.2,0,0.5,0,0.6v0.6v1.2v2.4v9V635v8.4
						C394.4,646.2,394.6,647.7,395.3,650z"/>
				</g>
			</g>
		</g>
		<g>
			<path fill="#FBB040" d="M338.7,676.6c0.9-1.7-1.8-3.2,1.8-5.6c5.4-3.2,12.5-5.6,8-11.3c-0.9-1.7-5.4-0.8-8-1.7
				c-13.4-3.2-4.5-10.4-6.2-18.5c0,0-1.8,0-2.7,0c2.7-9.6-4.5-18.5-15.1-20.1c1.8-4.8,6.2-8.8,11.6-8.8c0-1.7,2.7-2.4,1.8-2.4
				c-7.3-0.6-17.1-3-21.4-7.6h-4.1c0,0,1.1-0.6,3-1.3c-1.2-1.8-1.5-3.9-0.6-6.4c0.9-2.4,9.8-5.6,9.8-9.6c-0.9-8-12.5-15.2-4.5-23.3
				c6.1-6.6,16.9-11.4,24-17.8c-20.7,4.4-38,23.9-45.4,50.3c-0.2,0.6-0.3,1.2-0.5,1.8c3.3,3.8,5.7,7.7,5.7,7.7v45.4
				c0.5,4.3-1.3,7.1-4.2,8.8c2.2,6.9,5.1,13.2,8.5,18.9c13.4,4.7,28.2,7.3,43.7,7.4c0.2-0.4,0.3-0.7,0.5-1.1
				C341.3,680.6,341.3,677.4,338.7,676.6z"/>
			<g>
				<path fill="#FBB040" d="M338.7,676.6c0.4-0.5,0.5-1.1,0.5-1.7s0-1,0.1-1.3c0.1-0.4,0.3-0.6,0.6-1c0.3-0.4,0.8-0.7,1.3-1l1.2-0.7
					l0.9-0.5l0.8-0.5c1.1-0.6,2.3-1.3,3.4-2.1s2.3-1.7,3-3.2c0.3-0.7,0.5-1.5,0.4-2.3s-0.4-1.4-0.7-2.1c-0.2-0.4-0.4-0.6-0.6-0.9
					l-0.2-0.2V659l0,0c0-0.1-0.1-0.1-0.1-0.2c-0.2-0.2-0.4-0.5-0.6-0.6c-0.9-0.6-1.7-0.6-2.5-0.7c-1.5-0.2-3-0.1-4.3-0.4
					c-0.3-0.1-0.6-0.1-1-0.2c-0.4-0.1-0.7-0.2-1.1-0.2c-0.7-0.2-1.4-0.5-2-0.7c-1.3-0.6-2.4-1.3-3.1-2.1c-0.7-1-0.8-2.1-0.6-3.6
					c0.3-2.6,1.4-5.4,1.5-8.4c0-0.4,0-0.7,0-1.2c0-0.2,0-0.4-0.1-0.6c0-0.1,0-0.2-0.1-0.5l-0.1-0.6c0.1-1-1-0.6-1.7-0.7h-0.7l0,0
					l0.1-0.6c0.1-0.7,0.2-1.5,0.2-2.3c0.1-3.1-0.8-6.2-2.6-8.9c-1.8-2.7-4.4-4.9-7.5-6.4c-1.5-0.7-3.2-1.3-4.9-1.7l-0.3-0.1l0,0
					l0.2-0.4c0.1-0.2,0.2-0.4,0.3-0.5c0.2-0.4,0.4-0.6,0.6-0.9c1.3-2.1,3.3-3.9,5.7-4.8c0.6-0.2,1.2-0.5,1.8-0.6
					c0.3-0.1,0.6-0.1,0.9-0.1h0.3h0.5h0.5h0.3h0.1v-0.1c0-0.4,0-0.7,0.1-1c0-0.1,0.1-0.2,0.1-0.2c0.1-0.2,0.3-0.4,0.5-0.6
					c0.1-0.1,0.2-0.2,0.4-0.2c0.1-0.1,0.2-0.2,0.5-0.4c0,0,0,0,0.1-0.1c0-0.1,0,0,0.1-0.2c0-0.1,0.1-0.1,0.1-0.2v-0.1
					c0,0,0-0.1,0-0.2c0-0.2,0-0.2-0.1-0.5c-0.1-0.1-0.1-0.2-0.2-0.2s-0.1-0.1-0.2-0.1h-0.2c0,0-0.1,0-0.1-0.1c-0.1,0-0.1,0-0.2,0
					s-0.2,0-0.2,0h-0.1h-0.5c-1.2-0.1-2.4-0.2-3.6-0.5l0,0c-4.7-0.8-9.4-2.1-13.3-4.3c-1-0.6-1.9-1.2-2.6-1.9
					c-0.1-0.1-0.2-0.2-0.3-0.2l-0.3-0.2l-0.1-0.2l-0.1-0.1h-0.1h-1.3h-1.8h-0.9h-0.4h-0.1c-0.1-0.4,1,3.1,0.5,1.7l0,0l0,0l0,0
					l0.1-0.1l0.2-0.1c0.5-0.2,1-0.5,1.5-0.7l0.6-0.2l0.8-0.4l0.4-0.2c0.1-0.1,0.4-0.1,0.2-0.2l-0.4-0.7c-0.1-0.2-0.3-0.5-0.4-0.7
					c0-0.1-0.1-0.2-0.1-0.4c-0.1-0.2-0.2-0.5-0.2-0.6l0,0c-0.3-0.9-0.3-1.9-0.1-2.8c0.1-0.2,0.1-0.6,0.2-0.8l0.1-0.4
					c0-0.1,0.1-0.2,0.1-0.2c0.3-0.4,0.7-0.7,1.2-1.2c1-0.7,2.1-1.4,3.2-2.1c1.1-0.7,2.2-1.5,3.1-2.4c1-0.9,1.9-2.1,2.1-3.6
					c0-0.1,0-0.2,0-0.2c0-0.2,0-0.2,0-0.4s0-0.2-0.1-0.5s-0.1-0.6-0.2-0.9c-0.2-0.6-0.4-1.2-0.6-1.7c-0.5-1.2-1-2.1-1.6-3.2
					c-1.2-2.1-2.4-3.9-3.4-5.8c-1-1.9-1.6-3.9-1.3-5.7c0.2-1.8,1.3-3.4,2.7-4.8c2.8-2.9,6.1-5.1,9-7.1s5.9-3.8,8.4-5.5
					c0.6-0.5,1.2-0.9,1.8-1.3l0.9-0.6l1.1-0.8l1.5-1.2l1.3-1.2l1.2-1.1l0.6-0.6l0.3-0.2l0.1-0.1l0,0l0,0H339l-3,0.6l-1.4,0.4h-0.9
					l-0.7,0.2l-1.4,0.4l-0.7,0.2l-1.2,0.5c-1.5,0.6-2.5,1-3.2,1.3l-0.6,0.2c0,0-1.2,0.6-3.2,1.7c-2.1,1.2-5,3-8.3,5.7
					c-3.3,2.7-7,6.3-10.4,10.9c-3.5,4.6-6.8,10-9.7,16.3c-1.4,3.2-2.7,6.4-3.8,9.9c-0.3,0.9-0.6,1.7-0.8,2.6l-0.4,1.3l-0.2,0.6
					l-0.2,0.6l-0.1,0.4c0,0.1,0.1,0.2,0.2,0.2l0.7,0.7l0.5,0.6l0.9,1.1c0.6,0.7,1.2,1.5,1.7,2.4c0.6,0.8,1.1,1.7,1.6,2.4l0.2,0.2
					l0,0v0.6v1.4v5.8v12V647v0.4v0.2v0.2c0,0.2,0,0.5,0,0.7c0,0.5,0,1-0.1,1.4c-0.1,1-0.4,1.9-0.9,2.7s-1.1,1.5-1.9,2.1l-0.3,0.2
					l-0.2,0.1l-0.4,0.2c-0.2,0.2-0.5,0.2-0.7,0.5l0.2,0.7l0.6,1.7c1.4,4,3.1,8,5,11.8c0.6,1.3,1.3,2.4,2,3.6l0.5,0.9l0.3,0.5
					l0.2,0.4l0.1,0.2c0,0.1,0.2,0.1,0.2,0.1l2.3,0.8c2.8,0.9,5.6,1.7,8.4,2.4c5.6,1.4,11.2,2.5,16.8,3.2c2.8,0.4,5.5,0.6,8.2,0.8
					c1.4,0.1,2.7,0.2,4,0.2l1.9,0.1h1.1h1.3h0.5h0.2c0.1,0,0.1-0.1,0.1-0.2l0.4-1l0.5-1.3c0.1-0.1-0.1-0.1-0.2-0.2l-0.3-0.1
					c-0.2-0.1-0.4-0.1-0.5-0.2l-0.3-0.1c-0.1,0-0.2-0.1-0.2-0.1c-0.1,0-0.1-0.1-0.2-0.1c-0.1-0.1-0.2-0.2-0.3-0.2
					c-0.2-0.2-0.4-0.4-0.6-0.6l-1.1-1.2c-0.4-0.4-0.8-0.8-1.3-1.1C339.9,676.8,339.3,676.6,338.7,676.6c1.1,0.6,1.4,1.5,1.8,2.4
					c0.2,0.5,0.4,0.9,0.8,1.4c0.2,0.2,0.4,0.6,0.7,0.8c0.1,0.1,0.3,0.2,0.5,0.4c0.1,0.1,0.2,0.1,0.3,0.2c0.1,0.1,0,0,0,0l0,0l0,0
					l0,0l0,0l0,0l0,0l0.1-0.2l0,0l0,0l0,0l0,0h-0.7h-1.1l-1.9-0.1c-1.3-0.1-2.6-0.1-4-0.2c-2.7-0.2-5.4-0.5-8.1-0.8
					c-5.4-0.7-11.1-1.7-16.5-3.2c-2.8-0.7-5.5-1.5-8.2-2.4l-1.8-0.6l-0.8-1.3c-0.7-1.2-1.3-2.4-1.9-3.6c-1.9-3.7-3.5-7.7-4.9-11.5
					l-0.4-1.3l0,0l0,0l0.2-0.1l0.4-0.2c1-0.7,1.8-1.7,2.4-2.7s0.9-2.1,1.1-3.2c0.1-0.6,0.1-1.2,0.1-1.7c0-0.2,0-0.6,0-0.8v-0.2
					c0-0.1,0,0,0-0.1V647v-24.8v-12v-5.8V603v-0.9v-0.2c0-0.1-0.1-0.1-0.1-0.2l-0.2-0.2l-0.2-0.2c-0.5-0.8-1.1-1.7-1.7-2.4
					c-0.6-0.8-1.2-1.7-1.8-2.4l-0.9-1.2l-0.7-0.9l0,0v-0.1l0.2-0.6l0.4-1.3c0.3-0.9,0.5-1.7,0.8-2.6c1.1-3.4,2.4-6.6,3.7-9.7
					c2.8-6.2,6.1-11.4,9.4-15.9c3.4-4.4,7-7.9,10.2-10.7c3.2-2.6,6.1-4.3,8-5.5c2-1.1,3.1-1.5,3.1-1.5l0.6-0.2
					c0.6-0.2,1.6-0.7,3-1.2l1.2-0.4l0.6-0.2l0,0l0,0l-0.5,0.4l-0.8,0.6c-0.6,0.5-1.2,0.8-1.8,1.3c-2.5,1.7-5.4,3.6-8.4,5.5
					c-3,2.1-6.4,4.3-9.3,7.4c-1.5,1.4-2.9,3.4-3.2,5.8c-0.3,2.4,0.5,4.6,1.5,6.5c1,2.1,2.3,3.9,3.4,5.9c0.6,1,1.1,2,1.5,3
					c0.2,0.6,0.4,1,0.5,1.5c0.1,0.2,0.1,0.6,0.2,0.8c0,0.1,0,0.2,0.1,0.4c0,0.1,0,0.1,0,0.1c0,0.1,0,0.1,0,0.2
					c-0.1,0.8-0.7,1.7-1.6,2.5c-0.8,0.8-1.9,1.5-2.9,2.3c-1.1,0.7-2.2,1.4-3.3,2.3c-0.5,0.5-1.1,0.8-1.6,1.5
					c-0.1,0.2-0.2,0.4-0.3,0.6c-0.1,0.2-0.1,0.4-0.2,0.6c-0.1,0.4-0.2,0.6-0.3,1c-0.2,1.2-0.2,2.4,0.1,3.6l0,0
					c0.1,0.2,0.2,0.6,0.3,0.8c0.1,0.2,0.1,0.2,0.2,0.5l0,0l0,0l-0.2,0.1c-0.5,0.2-1.1,0.5-1.6,0.7l-0.2,0.1l-0.1,0.1l0,0l0,0l0,0
					c-0.5-1.4,0.6,2,0.5,1.7h0.1h0.4h0.9h1.8h0.5l0,0c0,0.1,0.2,0.2,0.3,0.2c0.9,0.8,1.9,1.5,3,2.1c2.1,1.3,4.4,2.1,6.8,2.9
					c2.4,0.7,4.8,1.3,7.2,1.7l0,0c1.2,0.2,2.5,0.4,3.7,0.5l0.5,0.1h0.1h0.1h0.1l0,0c0,0,0,0,0-0.1v-0.2c0-0.1,0-0.1,0-0.2
					c0-0.2,0-0.2,0.1-0.2s-0.2,0-0.4-0.4c-0.1-0.1-0.2-0.2-0.2-0.2c0-0.1,0,0,0,0l0,0l-0.1,0.1l-0.2,0.2c-0.1,0.1-0.3,0.2-0.5,0.4
					c-0.3,0.2-0.6,0.6-0.9,0.9c-0.1,0.2-0.3,0.4-0.3,0.6l0,0l0,0h-0.2c-0.4,0-0.8,0.1-1.2,0.2c-0.8,0.2-1.5,0.4-2.2,0.6
					c-2.8,1.2-5,3.2-6.6,5.5c-0.2,0.4-0.4,0.7-0.6,1.1c-0.1,0.2-0.2,0.4-0.3,0.6l-0.3,0.6l-0.4,1.1l-0.2,0.6l-0.1,0.1
					c0,0-0.1,0.1,0,0.1l0.3,0.1l1.2,0.2l0.6,0.1l0.3,0.1c1.5,0.4,3,0.8,4.4,1.5c2.8,1.3,5.2,3.3,6.8,5.8c1.6,2.4,2.4,5.2,2.4,7.9
					c0,0.7-0.1,1.3-0.2,2.1l-0.1,0.6c-0.1,0.4-0.2,0.7-0.3,1.1l-0.1,0.6l-0.1,0.2v0.1h0.1h1.2h1.7l0,0v0.1c0,0.2,0,0.4,0.1,0.6
					c0,0.4,0,0.6,0,1c0,1.3-0.3,2.7-0.6,4c-0.3,1.3-0.7,2.8-0.9,4.3c-0.1,0.7-0.1,1.5,0,2.4c0.1,0.8,0.4,1.7,0.9,2.3
					c1,1.4,2.5,2.3,3.9,2.9c0.7,0.2,1.5,0.6,2.2,0.7c0.4,0.1,0.7,0.2,1.1,0.2c0.4,0.1,0.8,0.2,1.2,0.2c1.6,0.2,3.1,0.2,4.4,0.4
					c0.7,0.1,1.3,0.2,1.6,0.4c0.1,0.1,0.1,0.1,0.1,0.1l0,0l0.1,0.1v0.1l0.1,0.2c0.2,0.2,0.3,0.5,0.5,0.7c0.6,1,0.7,2,0.3,2.9
					c-0.4,0.9-1.4,1.7-2.4,2.4s-2.1,1.3-3.3,2l-0.8,0.5l-0.9,0.5c-0.5,0.2-1,0.6-1.3,0.7c-0.7,0.5-1.2,0.9-1.7,1.5
					c-0.4,0.6-0.6,1.3-0.6,1.9s0.3,1.1,0.5,1.7C338.6,675.6,338.8,676.1,338.7,676.6z"/>
			</g>
		</g>
		<g>
			<path fill="#F7941E" d="M400.4,597.8c-3.3-11.5-8.5-24.9-16.8-35.7C391.3,571.6,397.2,583.9,400.4,597.8z"/>
			<g>
				<path fill="#FBB040" d="M400.4,597.8c0-2.4-0.2-3.9-1-6.5l-0.5-1.5l-0.4-1.1l-0.9-2.4c-1.3-3.6-3-7.6-4.9-11.4
					c-1.9-3.8-4-7.3-5.7-9.8c-0.8-1.3-1.6-2.3-2.1-3l-0.3-0.5l0,0l0,0c0.3-0.2-3,1.9-1.6,1l0,0l0,0v0.1l0.1,0.1l0.1,0.2l0.2,0.2
					c0,0,1.2,1.5,2.9,3.9c1.7,2.4,3.8,5.8,5.6,9.6c1.9,3.7,3.5,7.7,4.7,11.2c0.6,1.7,1,3.1,1.2,3.8
					C398.5,594.3,399.2,595.7,400.4,597.8c0.1-2.4,0-3.9-0.7-6.5c-0.2-0.7-0.6-2.1-1.2-3.9c-1.2-3.4-2.9-7.6-4.8-11.4
					s-4-7.3-5.8-9.8c-1.7-2.5-3-4-3-4l-0.2-0.2l-0.1-0.2l-0.1-0.1v-0.1l0,0l0,0c1.4-0.9-1.9,1.3-1.6,1l0,0l0,0l0.3,0.5
					c0.5,0.7,1.2,1.7,2.1,2.9c1.7,2.4,3.7,5.8,5.6,9.6c1.9,3.7,3.6,7.7,4.9,11.2l0.9,2.4l0.4,1.1l0.5,1.5
					C398.4,594.3,399.1,595.8,400.4,597.8z"/>
			</g>
		</g>
		<g>
			<path fill="#FBB040" d="M299.8,675c9.1,15.1,22.1,25.6,36.9,28.3c0.8-7.3,3.9-14.2,6.8-20.9C328.1,682.4,313.2,679.6,299.8,675z"
				/>
			<g>
				<path fill="#FBB040" d="M299.8,675c0.7,2.3,1.2,3.8,2.9,6l1,1.3l0.7,0.9l1.2,1.5c0.4,0.6,0.9,1.1,1.4,1.7
					c3.8,4.3,9.1,9.1,15.1,12.5c3,1.7,6.1,3.1,9.1,3.9c0.7,0.2,1.5,0.5,2.2,0.6l1.1,0.2l0.5,0.1l0.6,0.1c0.7,0.1,1.4,0.2,2,0.4
					l0.2-1.8l0.1-0.9l0.1-0.8c0.8-4.3,1.8-6.9,1.8-6.9s0.9-2.7,2.6-6.8l1.4-3.3l0.7-1.7l0.2-0.5v-0.1h0h-0.4h-1.1l-2.9-0.1
					c-3.1-0.1-6.4-0.2-9.8-0.6s-6.8-0.8-10.2-1.4c-1.7-0.2-3.3-0.6-4.9-1l-2.3-0.6l-2.2-0.6c-1.9-0.5-3.4-0.9-4.2-1.1
					C304.1,675.5,302.4,675.4,299.8,675c2.1,1.3,3.6,2.1,6.5,3c0.8,0.2,2.3,0.6,4.3,1.2l2.2,0.6l2.4,0.6c1.6,0.4,3.3,0.6,5,1
					c3.4,0.6,6.9,1.1,10.4,1.4c3.4,0.4,6.8,0.6,10,0.6h1.6c0,0,0,0,0,0.1l-1.4,3.2c-1.7,4.2-2.6,6.9-2.6,6.9s-1,2.7-1.9,7.1
					l-0.1,0.8l-0.1,0.8l0,0l-0.9-0.2l-1-0.2c-0.7-0.2-1.4-0.4-2.1-0.6c-2.9-0.9-5.8-2.1-8.7-3.8c-5.7-3.2-10.8-7.7-14.7-12
					c-0.5-0.6-0.9-1.1-1.3-1.5l-1.2-1.4l-0.7-0.9l-1-1.3C302.7,677.9,301.6,676.8,299.8,675z"/>
			</g>
		</g>
		<g>
			<path fill="#FBB040" d="M344.8,682.5c-0.4,0-0.8,0-1.2,0c-2.9,6.6-5.9,13.6-6.7,20.9c2.6,0.5,5.2,0.7,7.9,0.7
				c17.9,0,34-11.3,44.7-29C375.8,679.8,360.6,682.5,344.8,682.5z"/>
			<g>
				<path fill="#FBB040" d="M344.8,682.5c-0.3-0.1-0.6-0.2-1-0.2l-0.3-0.1h-0.2c-0.1,0-0.1,0.1-0.1,0.1l-0.3,0.5
					c-0.2,0.4-0.3,0.5-0.5,0.7l-0.4,0.6c-0.6,0.9-1.1,1.8-1.6,3.1l-0.6,1.5l-0.4,1.1l-0.8,2.1c-0.3,0.7-0.5,1.5-0.8,2.4
					c-0.5,1.7-1,3.2-1.4,5c-0.2,0.9-0.4,1.8-0.5,2.7l-0.1,0.7l-0.2,1.3c0,0.1-0.1,0.2,0,0.4l0.4,0.1l0.7,0.1l0.7,0.1l0.4,0.1
					c4.1,0.6,8.4,0.7,12.5,0.1c4.1-0.6,8.1-1.7,11.5-3.2s6.3-3.2,8.7-4.7c4.7-3.2,7.2-5.8,7.2-5.8s2.7-2.4,6.2-6.5
					c0.9-1.1,1.8-2.3,2.7-3.6c0.5-0.6,0.9-1.3,1.4-2l0.7-1.1l0.6-0.9l0.7-1.1l1.3-2.1l0.2-0.2l-0.3,0.1l-0.6,0.2l-1.3,0.5l-2.7,0.9
					l-1.4,0.5c-1.8,0.6-3.7,1.1-5.7,1.7c-3.9,1-7.9,1.9-11.9,2.5c-2,0.4-3.9,0.6-5.8,0.8c-1,0.1-1.9,0.2-2.8,0.2l-2.6,0.2
					c-2,0.2-3.6,0.2-4.4,0.2C349,681.5,347.3,681.9,344.8,682.5c2.5,0.6,4.2,0.8,7.2,0.7c0.8,0,2.4-0.1,4.4-0.2l2.7-0.2
					c0.9-0.1,1.9-0.2,2.9-0.4c1.9-0.2,3.9-0.6,5.9-0.8c4-0.6,8.1-1.5,12.1-2.5c2-0.6,3.9-1.1,5.8-1.7l1.4-0.5l0,0l-0.8,1.2
					c-0.5,0.6-0.9,1.3-1.4,1.9c-0.9,1.3-1.8,2.4-2.6,3.4c-3.4,4.2-6.1,6.4-6.1,6.4s-2.4,2.4-7,5.5c-2.3,1.5-5.1,3.2-8.3,4.5
					c-3.3,1.3-7,2.4-10.9,3s-8,0.5-11.9-0.1l-0.4-0.1l0,0l0.1-0.6c0.1-0.9,0.3-1.7,0.5-2.5c0.4-1.7,0.8-3.3,1.3-4.9
					c0.2-0.8,0.5-1.5,0.8-2.3l0.8-2l0.4-1.1l0.6-1.5c0.5-1.3,0.8-2.3,1.1-3.2l0.2-0.7c0-0.2,0.1-0.6,0.1-0.6V683
					c0-0.1,0-0.1,0.1-0.1h0.1C344.2,682.6,344.5,682.5,344.8,682.5z"/>
			</g>
		</g>
		<g>
			<path d="M345.9,541.5c14.6,0.5,27.6,8.1,37.7,20.6C374.8,550.5,362.7,541.9,345.9,541.5z"/>
			<g>
				<path fill="#FBB040" d="M345.9,541.5c2.5,0.6,4.1,1.1,6.9,1.7c0.4,0.1,1,0.2,1.7,0.4l1.2,0.2c0.8,0.2,1.9,0.6,2.8,0.9
					c4,1.3,8.5,3.7,12.2,6.4c3.8,2.7,7,5.8,9.2,8.2c1.1,1.2,2,2.3,2.5,3l0.2,0.2l0.1,0.1v0.1c0.7-0.5-1.6,1,1.6-1l0,0l0,0l0,0l0,0
					l-0.3-0.4l-0.2-0.2c0,0-1.3-1.7-3.5-4.2c-2.2-2.4-5.6-5.7-9.7-8.4c-2-1.3-4.2-2.6-6.5-3.6c-2.2-1-4.6-1.9-6.6-2.4
					s-3.6-0.8-4.4-1C350.2,540.8,348.4,541,345.9,541.5c2.5,0.6,4.1,1.1,6.9,1.5c0.8,0.2,2.3,0.5,4.2,1c2,0.6,4.2,1.3,6.3,2.4
					c2.1,1,4.2,2.1,6.2,3.6c3.9,2.6,7.1,5.7,9.3,8c2.2,2.4,3.4,4,3.4,4l0.2,0.2l0.3,0.4l0,0l0,0l0,0l0,0c3.2-2,0.9-0.6,1.6-1v-0.1
					l-0.1-0.1l-0.2-0.2c-0.6-0.7-1.5-1.8-2.6-3c-2.2-2.4-5.5-5.7-9.5-8.4c-3.9-2.9-8.6-5.2-12.8-6.6c-0.5-0.2-1-0.4-1.5-0.6
					l-0.7-0.2l-0.7-0.2L355,542c-0.7-0.2-1.4-0.2-1.8-0.4C350.2,540.8,348.4,541,345.9,541.5z"/>
			</g>
		</g>
		<g>
			<path d="M304.1,600.8h4.1c-0.4-0.5-0.8-0.9-1.1-1.3C305.2,600.2,304.1,600.8,304.1,600.8z"/>
			<g>
				<path fill="#FBB040" d="M304.1,600.8c0.4,0.6,0.7,0.9,1.3,0.9h4.9l-0.7-0.7l-0.5-0.6l-0.6-0.6c-0.2-0.2-0.4-0.5-0.5-0.7
					l-0.5-0.6l-0.7,0.2c-0.8,0.2-1.7,0.7-2,0.8C304.4,599.8,304.2,600.2,304.1,600.8c0.7,0.2,1.1,0.5,1.6,0.2
					c0.3-0.1,1.1-0.6,1.9-0.8l-1.2-0.4c0,0.1,0,0,0,0l0,0l0,0h-0.9C304.8,600,304.5,600.2,304.1,600.8z"/>
			</g>
		</g>
		<g>
			<path d="M307.2,599.5c0.3,0.5,0.7,0.9,1.1,1.3h28.2C325.2,593.9,312.8,597.3,307.2,599.5z"/>
			<g>
				<path fill="#FBB040" d="M307.2,599.5c0.1,0.2,0.2,0.6,0.3,0.8l0.2,0.4c0.1,0.1,0.2,0.2,0.3,0.5l0.1,0.1h0.1h0.3h0.3h0.2l0.8,0.1
					c1.1,0.2,2.3,0.2,3.8,0.2h3h13.2h2.9h0.3h0.5h1.1l2-0.1l2.9-0.1h0.1c0,0,0.1,0,0,0l-0.2-0.1h-0.1l-0.2-0.2c0,0-1-0.6-2.7-1.7
					c-0.4-0.2-1-0.6-1.6-0.8l-0.4-0.2l-0.4-0.2l-0.5-0.2c-0.7-0.2-1.6-0.6-2.5-0.9c-1.8-0.6-4-1-6.1-1.3c-2.2-0.2-4.3-0.2-6.2,0
					c-2,0.2-3.7,0.6-4.5,0.6C310.8,597.3,309.3,598.1,307.2,599.5c2.5-0.4,4.2-0.6,7-1.2c0.8-0.2,2.3-0.5,4.3-0.6
					c1.8-0.2,3.8-0.2,5.8,0c2,0.2,4,0.6,5.7,1.2c0.8,0.2,1.6,0.6,2.3,0.8l0.7,0.2l0,0l0,0h-3.4h-12.9h-3c-1.5,0-2.7,0.1-3.8,0.2
					l-0.9,0.2h-0.2c-0.1,0-0.1,0-0.1,0c-0.1,0-0.2,0.1-0.2,0c-0.1,0-0.1-0.1-0.2-0.1L308,600C307.6,599.9,307.4,599.8,307.2,599.5z"
					/>
			</g>
		</g>
		<g>
			<path fill="#FBB040" d="M295.5,647.4c0.5,4.3-1.3,7.1-4.2,8.8c-3.3-10.2-5.1-21.5-5.1-33.4c0-10,1.3-19.6,3.6-28.4
				c3.3,3.8,5.7,7.7,5.7,7.7V647.4z"/>
			<g>
				<path fill="#FBB040" d="M295.5,647.4c-0.2,1.2-0.5,2.1-0.8,3s-0.7,1.8-1.4,2.8c-0.2,0.2-0.5,0.7-1,1.1c-0.1,0.1-0.2,0.2-0.4,0.4
					l-0.1,0.1l0,0l-0.7-2.4c-1.9-6.5-3.3-14.4-3.8-21.9c-0.5-7.6-0.2-14.8,0.4-20.1c0.6-5.3,1.3-8.7,1.3-8.7l0.5-2.4
					c0.2-0.7,0.4-1.7,0.6-2.7v-0.2l0,0l0.5,0.6l0.7,0.9c0.5,0.6,0.9,1.2,1.4,1.9c0.5,0.6,0.9,1.3,1.4,2l0.3,0.6l0,0v0.2v1.3v11V641
					C294.6,643.6,294.9,645.1,295.5,647.4c0.6-2.3,1-3.8,1-6.5v-26.3v-11v-1.3V602c0.1-0.2-0.2-0.4-0.2-0.6l-0.4-0.6
					c-0.5-0.7-1-1.4-1.4-2.1c-0.5-0.6-0.9-1.3-1.4-1.9l-0.7-0.9l-0.9-1.1c-0.4-0.6-0.9-1-1.3-1.5l-0.6-0.7l-0.2-0.2c0-0.1,0,0,0,0.1
					v0.1l-0.1,0.5l-0.6,1.9l-0.4,1.4c-0.3,1.1-0.5,2-0.6,2.8l-0.5,2.4c0,0-0.7,3.4-1.3,8.8c-0.6,5.4-1,12.7-0.4,20.4
					c0.5,7.7,1.9,15.6,3.8,22.2c0.2,0.8,0.5,1.7,0.7,2.4c0.2,0.8,0.5,1.4,0.8,2.1v0.1v0.1h0.1l0.3-0.2l0.5-0.2l0.5-0.2
					c0.1-0.1,0.2-0.1,0.2-0.2h0.1c0.3-0.2,0.7-0.6,0.9-0.6c0.2-0.2,0.3-0.2,0.5-0.5c0.6-0.6,1-1.1,1.2-1.3c0.9-1.3,1.1-2.4,1.2-3.5
					C296.2,649.5,295.9,648.4,295.5,647.4z"/>
			</g>
		</g>
		<g>
			<path fill="#FBB040" d="M286.2,622.8c0,11.9,1.8,23.3,5.1,33.4c-9.5,5.8-30.6-0.6-18.9-8.8c15.3-10.7-4.6-27.7,0-51.3
				c3-15.1,11.6-8.4,17.5-1.7C287.4,603.2,286.2,612.8,286.2,622.8z"/>
			<g>
				<path fill="#FBB040" d="M286.2,622.8c-0.6,2.3-0.9,3.8-0.8,6.5l0.1,1.7l0.1,1.1l0.1,1.4l0.2,1.7c0.1,1.1,0.3,2.3,0.4,3.4
					c0.7,4.7,1.7,9.8,3.2,15l0.6,1.9l0.1,0.4l0,0L290,656c-1.2,0.6-2.5,1-3.9,1.3c-2.8,0.6-5.7,0.5-8.5-0.1
					c-1.4-0.2-2.7-0.6-3.9-1.2c-1.2-0.6-2.3-1.3-3-2.1s-0.8-1.8-0.4-2.8c0.4-0.9,1.3-1.8,2.2-2.5c0.2-0.2,0.5-0.4,0.7-0.6
					c0.3-0.2,0.5-0.4,0.8-0.6c0.5-0.5,1-0.8,1.5-1.3c0.9-0.9,1.7-1.9,2.3-3c1.2-2.1,1.6-4.3,1.6-6.3s-0.3-3.7-0.6-5.2
					c-0.4-1.5-0.6-2.8-0.9-3.9c-0.6-2.1-0.9-3.2-0.9-3.2l-1-3.2c-0.6-2.1-1.5-5-2.2-8.7c-0.7-3.6-1.2-8-0.8-12.7
					c0.2-2.4,0.6-4.8,1.4-7.1c0.4-1.2,0.9-2.4,1.7-3.2c0.7-1,1.7-1.7,2.8-1.7s2.4,0.4,3.6,1.1c1.2,0.6,2.2,1.5,3.3,2.4
					c1,0.9,2,1.9,2.9,3l0.3,0.2l-0.2,0.7c-0.2,0.6-0.3,1.3-0.5,2c-0.6,2.6-1.1,5.2-1.5,7.7c-0.2,1.3-0.4,2.5-0.5,3.7l-0.2,1.8
					l-0.2,1.7c-0.2,1.8-0.3,3.2-0.3,3.9C285.3,618.9,285.6,620.5,286.2,622.8c0.6-2.3,1-3.8,1.2-6.4c0-0.7,0.1-2.1,0.3-3.9l0.2-1.7
					l0.2-1.8c0.1-1.2,0.3-2.4,0.5-3.7c0.4-2.5,0.9-5,1.5-7.6c0.2-0.6,0.3-1.3,0.5-1.9l0.3-1.2l0.1-0.2v-0.1l-0.1-0.1l-0.3-0.4
					l-0.4-0.5c-0.9-1.1-2-2.1-3-3.1c-1.1-1-2.3-1.9-3.6-2.7c-1.3-0.7-2.9-1.4-4.8-1.3c-0.9,0.1-1.8,0.4-2.5,0.8
					c-0.7,0.5-1.3,1-1.8,1.7c-0.9,1.2-1.5,2.5-1.9,3.8c-0.9,2.5-1.3,5-1.5,7.5c-0.5,4.9,0.1,9.4,0.8,13.2c0.7,3.7,1.6,6.8,2.2,8.8
					l1,3.2c0,0,0.4,1.2,0.9,3.2c0.3,1,0.6,2.3,0.9,3.8c0.3,1.4,0.5,3.1,0.5,4.9c0,1.8-0.4,3.7-1.4,5.5c-0.5,0.9-1.2,1.8-2,2.5
					c-0.4,0.4-0.8,0.8-1.3,1.2c-0.2,0.2-0.5,0.4-0.7,0.6c-0.3,0.2-0.5,0.4-0.8,0.6c-1.1,0.8-2.1,1.8-2.7,3.2
					c-0.3,0.7-0.4,1.5-0.3,2.3c0.1,0.8,0.5,1.5,1,2.1c1,1.3,2.4,2,3.7,2.6c1.4,0.6,2.9,1,4.4,1.3c3,0.6,6.2,0.6,9.3,0.1
					c1.5-0.2,3.1-0.7,4.5-1.4l0.3-0.2l0.4-0.2l0.5-0.2l0.2-0.1l0.1-0.1v0.1l-0.5-1.5l-0.6-1.9c-1.5-5-2.5-10.1-3.1-14.8
					c-0.2-1.2-0.3-2.3-0.4-3.4l-0.2-1.7l-0.1-1.4l-0.1-1.1l-0.1-1.5C287.2,626.5,286.8,625,286.2,622.8z"/>
			</g>
		</g>
	</g>
	<g display="inline">
		<g>
			<path fill="none" d="M345.9,541.5c14.6,0.5,27.6,8.1,37.7,20.6c7.7,9.5,13.5,21.8,16.8,35.7"/>
		</g>
		<path fill="#E0A139" d="M340.1,541.5c0,0-33,18.6-6.9,48.1c0,0,7.4,9.7,6.3,14.2s5,0,5,0l-5,37.5c0,0-14.1,0.6,0,10.4h11.4
			c0,0-1.4,8.5-11.4,13.6c-10,5-5.9-2.4-14.6-4.3c0,0-20.3,0.6-5.4,12.5c0,0,15.5,14.4,22.8,14.2s1.2,0,1.2,0s22,13.9-5.6,14.2
			c-6.8,0.1-39-12.3-45.3-44.6c-1.9-9.7-1.9-4.3-1.9-4.3s5.7-34.5,0.5-39.4c0,0-5.1-20.3-0.4-23C295.5,588,298,553.2,340.1,541.5z"
			/>
		<g>
			<path fill="none" d="M289.8,594.4c0.2-0.6,0.3-1.2,0.5-1.8c8.6-30,29.7-51.2,54.4-51.2c0.4,0,0.8,0,1.2,0
				c16.8,0.4,29,9.1,37.7,20.6c8.2,10.8,13.4,24.1,16.8,35.7"/>
		</g>
		<g>
			<path fill="none" d="M295.5,602.1c0,0-2.4-3.9-5.7-7.7c-5.8-6.8-14.4-13.3-17.5,1.7c-4.6,23.6,15.3,40.6,0,51.3
				c-11.8,8.1,9.4,14.6,18.9,8.8c2.9-1.7,4.7-4.6,4.2-8.8"/>
		</g>
		<g>
			<path fill="none" d="M395.3,604.6c0,0,2.1-3.3,5.1-6.9c5.8-6.9,15-14.7,18.1,1c0.2,35.8-16,43.1,0,51.3c4.3,3.1,4.2,5.8,1.7,7.8
				c-4.6,3.8-17.2,4.9-22.5-0.6c-1.7-1.7-2.7-4.2-2.3-7.3"/>
		</g>
		<g>
			<g>
				<g>
					<path d="M304.1,600.8c1.4-0.4,2.5-0.6,3.7-0.8c0.7-0.2,1.3-0.2,1.9-0.5c0.6-0.2,1.3-0.4,2.1-0.6c0.5-0.2,1.4-0.4,3.2-0.7
						c0.7-0.1,1.9-0.4,2.9-0.4c0.5-0.1,1-0.1,1.3-0.1s0.6,0,0.6,0s0.7,0,1.6,0c0.9-0.1,2,0.1,2.8,0.2c0.6,0,1.2,0.2,1.7,0.2
						c0.5,0.1,0.9,0.2,1.3,0.2c0.8,0.1,1.3,0.4,1.7,0.5c1.6,0.4,2.7,0.8,3.9,1.1c1.2,0.4,2.3,0.7,3.7,1.1c-1-0.9-1.9-1.7-3-2.4
						c-1.1-0.6-2.3-1.3-4-1.7c-0.4-0.1-1-0.4-1.8-0.5c-0.4-0.1-0.9-0.2-1.4-0.2c-0.5-0.1-1.1-0.2-1.8-0.2c-0.8,0-2-0.2-3-0.2
						s-1.7,0-1.7,0s-0.2,0-0.6,0s-0.9,0.1-1.4,0.1c-1.1,0.1-2.4,0.4-3.1,0.5c-1.9,0.4-2.9,0.6-3.4,0.8c-0.8,0.2-1.5,0.5-2.2,0.7
						c-0.7,0.2-1.2,0.6-1.8,0.8C306.1,599.3,305.2,599.9,304.1,600.8z"/>
				</g>
			</g>
		</g>
		<g>
			<g>
				<g>
					<path d="M323.9,672.2c0.8,1.1,1.7,1.9,2.7,2.6c1.1,0.7,2.2,1.4,3.8,2c0.6,0.2,1.4,0.6,3.3,1.1c0.4,0.1,0.8,0.2,1.3,0.4
						c0.5,0.1,1,0.2,1.6,0.2c1.1,0.2,2.4,0.4,3.5,0.5c0.3,0,0.6,0.1,0.8,0.1c0.3,0,0.5,0,0.8,0c0.5,0,0.9,0,1.3,0c0.8,0,1.2,0,1.2,0
						s0.1,0,0.3,0c0.2,0,0.4,0,0.8-0.1c0.6-0.1,1.5-0.1,2.5-0.2c1.1-0.1,2.1-0.4,3.1-0.5c0.5-0.1,1.1-0.2,1.5-0.2
						c0.5-0.1,0.9-0.2,1.4-0.4c1.3-0.4,2.3-0.6,3.1-0.9c0.8-0.2,1.3-0.6,1.7-0.6c0.8-0.2,1.5-0.6,2.1-0.9c0.6-0.2,1.2-0.6,1.7-1
						c1-0.7,2-1.3,3-2.3c-1.4,0.4-2.6,0.6-3.7,1c-0.6,0.2-1.2,0.5-1.8,0.6c-0.6,0.2-1.3,0.5-2.1,0.7c-0.4,0.2-0.9,0.4-1.7,0.6
						s-1.7,0.5-2.9,0.8c-0.4,0.1-0.8,0.2-1.3,0.4c-0.5,0.1-1,0.2-1.5,0.2c-1,0.2-2,0.4-3,0.5c-0.9,0.1-1.8,0.2-2.4,0.2
						c-0.3,0-0.5,0-0.7,0.1c-0.2,0-0.3,0-0.3,0s-0.4,0-1.1,0c-0.4,0-0.8,0-1.2,0c-0.2,0-0.5,0-0.7,0c-0.3,0-0.5-0.1-0.8-0.1
						c-1.1-0.1-2.2-0.2-3.3-0.5c-0.5-0.1-1-0.2-1.5-0.2s-0.9-0.2-1.2-0.4c-1.8-0.5-2.6-0.8-3.1-1c-1.4-0.6-2.5-1-3.8-1.4
						C326.4,673.1,325.2,672.8,323.9,672.2z"/>
				</g>
			</g>
		</g>
		<g>
			<g>
				<g>
					<path d="M355.9,612c2.2,1.7,3.9,2.7,7.3,3.6c0.6,0.1,1.5,0.4,3.5,0.6c0.3,0.1,1,0.1,1,0.1s0.6,0.1,0.9,0.1
						c2.7,0.2,4.4-0.1,5.2-0.2c1.8-0.2,3.1-0.8,4.2-1.5s2-1.5,2.7-2.6c-1.3,0.6-2.3,1-3.5,1.3c-1.1,0.4-2.3,0.6-3.8,0.9
						c-0.8,0.1-2.2,0.4-4.7,0.2c-0.3,0-0.9-0.1-0.9-0.1s-0.7-0.1-0.9-0.1c-1.8-0.2-2.7-0.5-3.2-0.6
						C360.5,612.8,358.8,612.6,355.9,612z"/>
				</g>
			</g>
		</g>
		<g>
			<g>
				<g>
					<path d="M333.1,612c-2.7,1-4.4,1.4-7.5,2.3c-0.3,0.1-0.6,0.2-1.1,0.2c-0.5,0.1-1.2,0.2-2.1,0.4c-0.3,0-0.8,0.1-1.2,0.1
						c-0.4,0-0.8,0-0.8,0s-0.3,0-0.7,0c-0.4,0-0.8,0-1.1,0c-0.6-0.1-1.2-0.1-1.6-0.1c-0.5-0.1-0.9-0.2-1.3-0.2
						c-0.4-0.1-0.7-0.1-1-0.2c-0.3-0.1-0.5-0.2-0.7-0.2c-3.1-0.8-4.8-1.3-7.6-2.1c2,1.8,3.6,3.2,7,4c0.2,0.1,0.5,0.1,0.8,0.2
						s0.7,0.1,1.1,0.2s0.9,0.2,1.4,0.2c0.5,0.1,1.2,0.1,1.8,0.2c0.4,0,0.9,0.1,1.3,0c0.4,0,0.7,0,0.7,0s0.4,0,0.8,0
						c0.5,0,1-0.1,1.3-0.1c1-0.1,1.7-0.2,2.3-0.4c0.6-0.1,0.9-0.2,1.2-0.2C329.6,615.2,331.4,614,333.1,612z"/>
				</g>
			</g>
		</g>
		<g>
			<g>
				<g>
					<path d="M336.5,646.2c0.2,1,0.5,1.7,1.4,2.1c0.5,0.2,2.1,1.1,3.7,1.5c0.8,0.2,1.6,0.4,2.2,0.4c0.6,0.1,1,0.1,1,0.1
						s1.6,0.1,3.2-0.4c1.7-0.4,3.2-1.3,3.7-1.5c0.9-0.6,1.2-1.3,1.3-2.1c-1.1,0.1-1.7,0.1-2.5,0.6c-0.4,0.2-1.7,1-3.1,1.3
						c-1.3,0.4-2.6,0.2-2.6,0.2s-1.3,0-2.6-0.4c-1.3-0.4-2.7-1.1-3.1-1.3C338.3,646.3,337.6,646.3,336.5,646.2z"/>
				</g>
			</g>
		</g>
	</g>
	<g display="inline">
		<g>
			<path d="M383.8,600.8c-1-1-2-1.8-3.1-2.4c-0.5-0.3-1.1-0.7-1.8-0.9c-0.6-0.3-1.4-0.6-2.2-0.8c-0.6-0.2-1.5-0.4-3.4-0.9
				c-0.8-0.1-2-0.4-3.1-0.5c-0.5-0.1-1-0.1-1.4-0.1s-0.6,0-0.6,0s-0.8,0-1.7,0c-1-0.1-2.2,0.1-3,0.2c-0.7,0-1.3,0.2-1.8,0.3
				c-0.5,0.1-1,0.2-1.4,0.3c-0.8,0.2-1.4,0.4-1.8,0.5c-1.7,0.4-2.9,1.2-4,1.9c-1.1,0.7-1.9,1.6-3,2.6c1.4-0.4,2.5-0.8,3.7-1.2
				c1.2-0.3,2.3-0.8,3.9-1.2c0.4-0.1,0.9-0.3,1.7-0.5c0.4-0.1,0.8-0.2,1.3-0.2c0.5-0.1,1-0.2,1.7-0.2c0.8,0,1.9-0.2,2.8-0.2
				s1.6,0,1.6,0s0.2,0,0.6,0c0.3,0,0.8,0.1,1.3,0.1c1,0.1,2.2,0.4,2.9,0.4c1.8,0.4,2.7,0.6,3.2,0.8c0.8,0.2,1.5,0.4,2.1,0.6
				c0.6,0.2,1.2,0.3,1.9,0.5C381.2,600.2,382.4,600.3,383.8,600.8z"/>
		</g>
	</g>
</g>
<g display="none">
	<g id="php" display="inline">
		<circle fill="#6699CC" cx="222.2" cy="656.1" r="45.5"/>
		<text transform="matrix(0.9967 0 0 1 199.385 664.292)" font-family="'Arial-Black'" font-size="21.7131">PHP</text>
	</g>
	<circle display="inline" fill="#009999" cx="303.1" cy="417.2" r="47.5"/>
	<text transform="matrix(0.9967 0 0 1 265.323 426.5498)" display="inline" font-family="'Arial-Black'" font-size="16.7726">JQUERY</text>
	<g id="html" display="inline">
		<ellipse fill="#7292CB" cx="462" cy="676.4" rx="44.5" ry="43"/>
		<text transform="matrix(1.031 0 0 1 430.6502 685.957)" font-family="'Arial-Black'" font-size="15.8484">HTML5</text>
	</g>
	<g display="inline">
		<g>
			<circle fill="#69C9CA" cx="414.9" cy="423" r="50.6"/>
		</g>
		<text transform="matrix(0.9967 0 0 1 384.9519 430.7754)" font-family="'Arial-Black'" font-size="20.3462">CSS3 </text>
	</g>
	<circle display="inline" fill="#9FC9EB" cx="494.8" cy="485.1" r="48.9"/>
	<text transform="matrix(0.9967 0 0 1 465.5428 495.5752)" display="inline" font-family="'Arial-Black'" font-size="25.0422">ROR  </text>
	<g id="sql" display="inline">
		<circle fill="#9999CC" cx="516.4" cy="590.2" r="51.6"/>
		<text transform="matrix(0.9967 0 0 1 487.0203 597.6387)" font-family="'Arial-Black'" font-size="25.0422">SQL</text>
	</g>
	<g id="illustrat" display="inline">
		<circle fill="#CCCCFF" cx="169.3" cy="569.6" r="54.3"/>
		<text transform="matrix(0.5565 0 0 1 122.2107 576.7188)" font-family="'Arial-Black'" font-size="21.3761">ILLUSTRATOR</text>
	</g>
	<g display="inline">
		<circle fill="#9FC9EB" cx="212.1" cy="465.2" r="47"/>
		<text transform="matrix(0.8328 0 0 1 185.4363 478.4775)" font-family="'Arial-Black'" font-size="25.8958">SVG</text>
	</g>
</g>
<g id="bubles" display="none">
	<ellipse display="inline" fill="#FFFFFF" cx="141" cy="719.1" rx="10" ry="9.5"/>
	<ellipse display="inline" fill="#FFFFFF" cx="116.5" cy="755.9" rx="4.3" ry="4.1"/>
	<ellipse display="inline" fill="#FFFFFF" cx="483.7" cy="339" rx="4.3" ry="4.1"/>
	<ellipse display="inline" fill="#FFFFFF" cx="557.9" cy="320.1" rx="4.3" ry="4.1"/>
	<ellipse display="inline" fill="#FFFFFF" cx="546.8" cy="385.1" rx="6" ry="5.7"/>
	<ellipse display="inline" fill="#FFFFFF" cx="231.3" cy="379.4" rx="6" ry="5.7"/>
	<ellipse display="inline" fill="#FFFFFF" cx="270.6" cy="796" rx="4.3" ry="4.1"/>
	<ellipse display="inline" fill="#FFFFFF" cx="344.9" cy="777.1" rx="4.3" ry="4.1"/>
	<ellipse display="inline" fill="#FFFFFF" cx="333.8" cy="842.1" rx="6" ry="5.7"/>
	<ellipse display="inline" fill="#FFFFFF" cx="213.8" cy="777.6" rx="4.1" ry="4.3"/>
	<ellipse display="inline" fill="#FFFFFF" cx="232.7" cy="851.9" rx="4.1" ry="4.3"/>
	<ellipse display="inline" fill="#FFFFFF" cx="167.7" cy="840.8" rx="5.7" ry="6"/>
	<ellipse display="inline" fill="#FFFFFF" cx="543" cy="756.8" rx="2.2" ry="2.3"/>
	<ellipse display="inline" fill="#FFFFFF" cx="553" cy="796.3" rx="2.2" ry="2.3"/>
	<ellipse display="inline" fill="#FFFFFF" cx="518.5" cy="790.4" rx="3" ry="3.2"/>
	<ellipse display="inline" fill="#FFFFFF" cx="514.2" cy="770.7" rx="2.2" ry="2.3"/>
	<ellipse display="inline" fill="#FFFFFF" cx="524.2" cy="810.1" rx="2.2" ry="2.3"/>
	<ellipse display="inline" fill="#FFFFFF" cx="489.7" cy="804.2" rx="3" ry="3.2"/>
	<ellipse display="inline" fill="#FFFFFF" cx="164.8" cy="302.3" rx="4.2" ry="4.4"/>
	<ellipse display="inline" fill="#FFFFFF" cx="184.1" cy="378.4" rx="4.2" ry="4.4"/>
	<ellipse display="inline" fill="#FFFFFF" cx="136.8" cy="353.7" rx="5.9" ry="6.2"/>
	<ellipse display="inline" fill="#FFFFFF" cx="109.2" cy="329" rx="4.2" ry="4.4"/>
	<ellipse display="inline" fill="#FFFFFF" cx="128.6" cy="405.1" rx="4.2" ry="4.4"/>
	<ellipse display="inline" fill="#FFFFFF" cx="61.9" cy="393.7" rx="5.9" ry="6.2"/>
	<ellipse display="inline" fill="#FFFFFF" cx="349.8" cy="760.6" rx="2.2" ry="2.3"/>
	<ellipse display="inline" fill="#FFFFFF" cx="359.8" cy="800" rx="2.2" ry="2.3"/>
	<ellipse display="inline" fill="#FFFFFF" cx="325.3" cy="794.1" rx="3" ry="3.2"/>
	<ellipse display="inline" fill="#FFFFFF" cx="321" cy="774.4" rx="2.2" ry="2.3"/>
	<ellipse display="inline" fill="#FFFFFF" cx="331.1" cy="813.8" rx="2.2" ry="2.3"/>
	<ellipse display="inline" fill="#FFFFFF" cx="296.5" cy="807.9" rx="3" ry="3.2"/>
	<ellipse display="inline" fill="#FFFFFF" cx="291" cy="707.4" rx="2.2" ry="2.3"/>
	<ellipse display="inline" fill="#FFFFFF" cx="301" cy="746.9" rx="2.2" ry="2.3"/>
	<ellipse display="inline" fill="#FFFFFF" cx="266.5" cy="741" rx="3" ry="3.2"/>
	<ellipse display="inline" fill="#FFFFFF" cx="262.2" cy="721.3" rx="2.2" ry="2.3"/>
	<ellipse display="inline" fill="#FFFFFF" cx="272.2" cy="760.7" rx="2.2" ry="2.3"/>
	<ellipse display="inline" fill="#FFFFFF" cx="237.7" cy="754.8" rx="3" ry="3.2"/>
	<ellipse display="inline" fill="#FFFFFF" cx="386.4" cy="297.9" rx="2.2" ry="2.3"/>
	<ellipse display="inline" fill="#FFFFFF" cx="396.4" cy="337.3" rx="2.2" ry="2.3"/>
	<ellipse display="inline" fill="#FFFFFF" cx="361.9" cy="331.4" rx="3" ry="3.2"/>
	<ellipse display="inline" fill="#FFFFFF" cx="357.6" cy="311.7" rx="2.2" ry="2.3"/>
	<ellipse display="inline" fill="#FFFFFF" cx="367.6" cy="351.1" rx="2.2" ry="2.3"/>
	<ellipse display="inline" fill="#FFFFFF" cx="333.1" cy="345.3" rx="3" ry="3.2"/>
	
		<ellipse transform="matrix(-0.8367 -0.5476 0.5476 -0.8367 293.4871 661.6428)" display="inline" fill="#FFFFFF" cx="245.4" cy="287.1" rx="2.3" ry="2.2"/>
	
		<ellipse transform="matrix(-0.8367 -0.5476 0.5476 -0.8367 356.8161 707.0533)" display="inline" fill="#FFFFFF" cx="283.8" cy="300.3" rx="2.3" ry="2.2"/>
	
		<ellipse transform="matrix(-0.8367 -0.5476 0.5476 -0.8367 298.9779 741.005)" display="inline" fill="#FFFFFF" cx="260" cy="325.9" rx="3.2" ry="3"/>
	
		<ellipse transform="matrix(-0.8367 -0.5476 0.5476 -0.8367 268.3804 717.4062)" display="inline" fill="#FFFFFF" cx="241.1" cy="318.7" rx="2.3" ry="2.2"/>
	
		<ellipse transform="matrix(-0.8367 -0.5476 0.5476 -0.8367 331.7097 762.8169)" display="inline" fill="#FFFFFF" cx="279.6" cy="332" rx="2.3" ry="2.2"/>
	
		<ellipse transform="matrix(-0.8367 -0.5476 0.5476 -0.8367 273.9952 796.9151)" display="inline" fill="#FFFFFF" cx="255.8" cy="357.6" rx="3.2" ry="3"/>
	
		<ellipse transform="matrix(-0.8367 -0.5476 0.5476 -0.8367 357.0015 1586.7361)" display="inline" fill="#FFFFFF" cx="415" cy="740.1" rx="4.1" ry="3.9"/>
	
		<ellipse transform="matrix(-0.8367 -0.5476 0.5476 -0.8367 470.9364 1668.0459)" display="inline" fill="#FFFFFF" cx="484.1" cy="763.8" rx="4.1" ry="3.9"/>
	
		<ellipse transform="matrix(-0.8367 -0.5476 0.5476 -0.8367 367.1831 1729.3029)" display="inline" fill="#FFFFFF" cx="441.4" cy="809.9" rx="5.7" ry="5.5"/>
	
		<ellipse transform="matrix(-0.8367 -0.5476 0.5476 -0.8367 312.2113 1687.0442)" display="inline" fill="#FFFFFF" cx="407.6" cy="797" rx="4.1" ry="3.9"/>
	
		<ellipse transform="matrix(-0.8367 -0.5476 0.5476 -0.8367 425.9995 1768.4777)" display="inline" fill="#FFFFFF" cx="476.6" cy="820.7" rx="4.1" ry="3.9"/>
	
		<ellipse transform="matrix(-0.8367 -0.5476 0.5476 -0.8367 322.269 1829.4645)" display="inline" fill="#FFFFFF" cx="433.9" cy="866.7" rx="5.7" ry="5.5"/>
	
		<ellipse transform="matrix(-0.8367 -0.5476 0.5476 -0.8367 -246.5701 1372.7421)" display="inline" fill="#FFFFFF" cx="81.4" cy="723.1" rx="4.1" ry="3.9"/>
	
		<ellipse transform="matrix(-0.8367 -0.5476 0.5476 -0.8367 -132.6351 1454.0518)" display="inline" fill="#FFFFFF" cx="150.4" cy="746.8" rx="4.1" ry="3.9"/>
	
		<ellipse transform="matrix(-0.8367 -0.5476 0.5476 -0.8367 -236.3884 1515.3087)" display="inline" fill="#FFFFFF" cx="107.7" cy="792.9" rx="5.7" ry="5.5"/>
	
		<ellipse transform="matrix(-0.8367 -0.5476 0.5476 -0.8367 -291.4837 1472.9038)" display="inline" fill="#FFFFFF" cx="73.8" cy="779.9" rx="4.1" ry="3.9"/>
	
		<ellipse transform="matrix(-0.8367 -0.5476 0.5476 -0.8367 -177.6955 1554.337)" display="inline" fill="#FFFFFF" cx="142.9" cy="803.7" rx="4.1" ry="3.9"/>
	
		<ellipse transform="matrix(-0.8367 -0.5476 0.5476 -0.8367 -281.3024 1615.4703)" display="inline" fill="#FFFFFF" cx="100.2" cy="849.7" rx="5.7" ry="5.5"/>
	
		<ellipse transform="matrix(0.9998 -2.003483e-02 2.003483e-02 0.9998 -8.5562 12.5061)" display="inline" fill="#FFFFFF" cx="619.9" cy="433.3" rx="2.3" ry="2.2"/>
	
		<ellipse transform="matrix(0.9998 -2.003483e-02 2.003483e-02 0.9998 -8.781 11.7229)" display="inline" fill="#FFFFFF" cx="580.7" cy="444.1" rx="2.3" ry="2.2"/>
	
		<ellipse transform="matrix(0.9998 -2.003483e-02 2.003483e-02 0.9998 -8.0863 11.8196)" display="inline" fill="#FFFFFF" cx="585.9" cy="409.5" rx="3.2" ry="3"/>
	
		<ellipse transform="matrix(0.9998 -2.003483e-02 2.003483e-02 0.9998 -7.988 12.212)" display="inline" fill="#FFFFFF" cx="605.5" cy="404.8" rx="2.3" ry="2.2"/>
	
		<ellipse transform="matrix(0.9998 -2.003483e-02 2.003483e-02 0.9998 -8.2128 11.4288)" display="inline" fill="#FFFFFF" cx="566.3" cy="415.6" rx="2.3" ry="2.2"/>
	
		<ellipse transform="matrix(0.9998 -2.003483e-02 2.003483e-02 0.9998 -7.5181 11.5256)" display="inline" fill="#FFFFFF" cx="571.5" cy="381" rx="3.2" ry="3"/>
	
		<ellipse transform="matrix(0.5307 -0.8475 0.8475 0.5307 38.9678 680.4963)" display="inline" fill="#FFFFFF" cx="634" cy="305.1" rx="4.1" ry="3.9"/>
	
		<ellipse transform="matrix(0.5307 -0.8475 0.8475 0.5307 -30.3974 694.2259)" display="inline" fill="#FFFFFF" cx="611.7" cy="374.6" rx="4.1" ry="3.9"/>
	
		<ellipse transform="matrix(0.5307 -0.8475 0.8475 0.5307 -16.9832 634.8394)" display="inline" fill="#FFFFFF" cx="564.8" cy="332.8" rx="5.7" ry="5.5"/>
	
		<ellipse transform="matrix(0.5307 -0.8475 0.8475 0.5307 -51.7971 643.0042)" display="inline" fill="#FFFFFF" cx="554.8" cy="368.3" rx="4.1" ry="3.9"/>
	<path display="inline" fill="#FFFFFF" d="M116.6,665.2c-1.9,0-3.4-1.3-3.5-3s1.5-3.1,3.3-3.1c1.9,0,3.4,1.3,3.5,3
		C120,663.8,118.5,665.2,116.6,665.2z"/>
	<path display="inline" fill="#FFFFFF" d="M625,686.9c-1.9,0-3.4-1.3-3.5-3c0-1.7,1.5-3.1,3.3-3.1c1.9,0,3.4,1.3,3.5,3
		C628.4,685.5,626.9,686.8,625,686.9z"/>
	<path display="inline" fill="#FFFFFF" d="M632.8,640.1c-2.6,0-4.8-1.8-4.8-4.1s2-4.3,4.7-4.3c2.7,0,4.8,1.8,4.8,4.1
		S635.4,640,632.8,640.1z"/>
	<path display="inline" fill="#FFFFFF" d="M499.2,396.7c-1.9,0-3.4-1.3-3.5-3s1.5-3.1,3.3-3.1c1.9,0,3.4,1.3,3.5,3
		S501,396.7,499.2,396.7z"/>
	<path display="inline" fill="#FFFFFF" d="M603.6,647.4c-1.9,0-3.4-1.3-3.5-3s1.5-3.1,3.3-3.1c1.9,0,3.4,1.3,3.5,3
		S605.5,647.4,603.6,647.4z"/>
	<path display="inline" fill="#FFFFFF" d="M611.4,600.6c-2.6,0-4.8-1.8-4.8-4.1c0-2.3,2-4.3,4.7-4.3c2.7,0,4.8,1.8,4.8,4.1
		C616.1,598.6,614,600.6,611.4,600.6z"/>
	<path display="inline" fill="#FFFFFF" d="M572.2,666.1c-3.4,5-10.3,6.7-15.4,3.7c-5.1-3-6.6-9.5-3.2-14.6c3.4-5,10.3-6.7,15.4-3.7
		C574.2,654.6,575.6,661.1,572.2,666.1z"/>
	<path display="inline" fill="#FFFFFF" d="M608.3,533.7c-2.5,3.7-7.6,4.9-11.4,2.7c-3.8-2.2-4.8-7-2.3-10.7s7.6-4.9,11.4-2.7
		C609.7,525.2,610.8,530,608.3,533.7z"/>
	<path display="inline" fill="#FFFFFF" d="M591.4,581.7c-1.8,2.7-5.5,3.6-8.2,2c-2.7-1.6-3.5-5.1-1.7-7.7c1.8-2.7,5.5-3.6,8.2-2
		C592.5,575.5,593.2,579,591.4,581.7z"/>
	<path display="inline" fill="#FFFFFF" d="M71.5,645.5c0-1.7,1.6-3,3.5-3c1.9,0,3.4,1.4,3.3,3.1c0,1.7-1.6,3-3.5,3
		C73,648.6,71.5,647.2,71.5,645.5z"/>
	<path display="inline" fill="#FFFFFF" d="M92.9,606.1c0-1.7,1.6-3,3.5-3c1.9,0,3.4,1.4,3.3,3.1s-1.6,3-3.5,3
		C94.4,609.1,92.9,607.7,92.9,606.1z"/>
	<path display="inline" fill="#FFFFFF" d="M50.7,463.2c2.7-1.6,6.4-0.7,8.2,2s1,6.1-1.7,7.7s-6.4,0.7-8.2-2
		C47.2,468.3,48,464.8,50.7,463.2z"/>
	<path display="inline" fill="#FFFFFF" d="M83.8,559.5c2.7-1.6,6.4-0.7,8.2,2c1.8,2.7,1,6.1-1.7,7.7s-6.4,0.7-8.2-2
		C80.3,564.6,81.1,561.1,83.8,559.5z"/>
	<ellipse display="inline" fill="#FFFFFF" cx="556.2" cy="720.2" rx="2.2" ry="2.3"/>
	<ellipse display="inline" fill="#FFFFFF" cx="566.2" cy="759.7" rx="2.2" ry="2.3"/>
	<ellipse display="inline" fill="#FFFFFF" cx="531.7" cy="753.8" rx="3" ry="3.2"/>
	<ellipse display="inline" fill="#FFFFFF" cx="527.4" cy="734.1" rx="2.2" ry="2.3"/>
	<ellipse display="inline" fill="#FFFFFF" cx="537.5" cy="773.5" rx="2.2" ry="2.3"/>
	<ellipse display="inline" fill="#FFFFFF" cx="612.9" cy="734.1" rx="2.2" ry="2.3"/>
	<ellipse display="inline" fill="#FFFFFF" cx="623" cy="773.5" rx="2.2" ry="2.3"/>
	<ellipse display="inline" fill="#FFFFFF" cx="588.5" cy="767.6" rx="3" ry="3.2"/>
	<ellipse display="inline" fill="#FFFFFF" cx="584.2" cy="747.9" rx="2.2" ry="2.3"/>
	<ellipse display="inline" fill="#FFFFFF" cx="594.2" cy="787.3" rx="2.2" ry="2.3"/>
	<ellipse display="inline" fill="#FFFFFF" cx="105.7" cy="443.9" rx="2.2" ry="2.3"/>
	<ellipse display="inline" fill="#FFFFFF" cx="115.7" cy="483.3" rx="2.2" ry="2.3"/>
	<ellipse display="inline" fill="#FFFFFF" cx="81.2" cy="477.4" rx="3" ry="3.2"/>
	<ellipse display="inline" fill="#FFFFFF" cx="76.9" cy="457.7" rx="2.2" ry="2.3"/>
	<ellipse display="inline" fill="#FFFFFF" cx="86.9" cy="497.1" rx="2.2" ry="2.3"/>
</g>
</svg>
